<svg width="139" height="156" viewBox="0 0 139 156" fill="none" xmlns="http://www.w3.org/2000/svg">
<path d="M94.3312 10.1116C94.3 12.4506 93.3785 14.6898 91.7544 16.3732L90.9806 17.0907C89.1962 18.5485 86.9302 19.2848 84.6296 19.1544C82.3291 19.0239 80.1609 18.0362 78.5526 16.386C76.9444 14.7358 76.0128 12.5429 75.9417 10.2397C75.8705 7.93654 76.6649 5.6903 78.1682 3.94396L78.9194 3.19272C80.247 1.98023 81.9003 1.18264 83.6756 0.898239C85.4509 0.613834 87.2707 0.855042 88.9106 1.59214C90.5505 2.32924 91.9389 3.53001 92.9047 5.0465C93.8706 6.56298 94.3716 8.32891 94.3462 10.1267L94.3312 10.1116Z" fill="white"/>
<path d="M85.11 0C82.6016 0.000350281 80.1848 0.943178 78.3388 2.64159C76.4928 4.34 75.3523 6.67001 75.1434 9.16975C74.9345 11.6695 75.6724 14.1565 77.2109 16.1377C78.7494 18.119 80.9762 19.4499 83.4498 19.8666L84.5767 22.7626C84.6191 22.872 84.6937 22.9661 84.7905 23.0324C84.8874 23.0987 85.002 23.1342 85.1194 23.1342C85.2368 23.1342 85.3514 23.0987 85.4483 23.0324C85.5452 22.9661 85.6197 22.872 85.6622 22.7626L86.7891 19.8628C89.2595 19.4409 91.4816 18.107 93.0156 16.1251C94.5495 14.1431 95.2836 11.6575 95.0725 9.16023C94.8614 6.66291 93.7205 4.33582 91.8756 2.63949C90.0307 0.943159 87.6163 0.00119148 85.11 0ZM94.3353 10.0028C94.3346 12.342 93.4427 14.5932 91.8411 16.2982L91.0899 17.0269C89.3292 18.5506 87.0569 19.3512 84.73 19.2677C82.403 19.1842 80.1939 18.2228 78.547 16.5768C76.9001 14.9308 75.9374 12.7223 75.8525 10.3954C75.7677 8.06847 76.567 5.79572 78.0897 4.03416L78.8146 3.28292C80.1256 2.05214 81.768 1.23185 83.5394 0.923137C85.3109 0.614426 87.1339 0.830792 88.7839 1.54557C90.4339 2.26035 91.8387 3.4423 92.8251 4.94573C93.8115 6.44917 94.3365 8.20838 94.3353 10.0065V10.0028Z" fill="#455A64"/>
<path d="M83.3108 15.9188C83.1128 15.9187 82.917 15.878 82.7355 15.7992C82.5539 15.7204 82.3905 15.6051 82.2553 15.4605L78.9799 11.9598C78.8445 11.8222 78.738 11.659 78.6666 11.4797C78.5953 11.3004 78.5606 11.1086 78.5645 10.9156C78.5685 10.7227 78.611 10.5325 78.6896 10.3562C78.7682 10.1799 78.8812 10.0212 79.0221 9.88932C79.1631 9.75744 79.3289 9.6551 79.51 9.58833C79.6911 9.52156 79.8837 9.4917 80.0765 9.50053C80.2692 9.50935 80.4583 9.55667 80.6325 9.63971C80.8068 9.72274 80.9626 9.83981 81.0909 9.984L83.2169 12.2377L88.2539 5.85218C88.3638 5.68322 88.5077 5.53907 88.6765 5.42899C88.8453 5.31891 89.0352 5.24532 89.2341 5.21294C89.433 5.18056 89.6365 5.19011 89.8315 5.24097C90.0265 5.29183 90.2087 5.38289 90.3664 5.50829C90.5241 5.63369 90.6539 5.79068 90.7474 5.96918C90.841 6.14769 90.8961 6.34376 90.9094 6.54484C90.9227 6.74592 90.8939 6.94755 90.8247 7.13682C90.7555 7.32608 90.6475 7.4988 90.5077 7.64389L84.4301 15.3403C84.3016 15.5043 84.1389 15.6382 83.9534 15.7329C83.7679 15.8276 83.564 15.8808 83.3558 15.8888L83.3108 15.9188Z" fill="#00BFBA"/>
<g filter="url(#filter0_d_374_1323)">
<path d="M133.962 116.151L79.3125 147.743C78.9954 147.903 78.6449 147.987 78.2896 147.987C77.9342 147.987 77.5838 147.903 77.2667 147.743L5.01666 106.035C4.71886 105.841 4.47133 105.58 4.29455 105.272C4.11777 104.964 4.0168 104.618 4 104.264V104.03C4.0207 103.676 4.12419 103.331 4.30218 103.023C4.48018 102.716 4.72773 102.454 5.025 102.26L59.7125 70.697C60.0296 70.5366 60.38 70.4531 60.7354 70.4531C61.0908 70.4531 61.4412 70.5366 61.7583 70.697L133.971 112.364C134.268 112.558 134.516 112.819 134.693 113.127C134.871 113.434 134.973 113.78 134.992 114.135V114.376C134.971 114.732 134.868 115.078 134.689 115.387C134.51 115.695 134.261 115.957 133.962 116.151Z" fill="#00BFBA"/>
<path opacity="0.45" d="M133.962 116.151L79.3125 147.743C78.9954 147.903 78.6449 147.987 78.2896 147.987C77.9342 147.987 77.5838 147.903 77.2667 147.743L5.01666 106.035C4.71886 105.841 4.47133 105.58 4.29455 105.272C4.11777 104.964 4.0168 104.618 4 104.264V104.03C4.0207 103.676 4.12419 103.331 4.30218 103.023C4.48018 102.716 4.72773 102.454 5.025 102.26L59.7125 70.697C60.0296 70.5366 60.38 70.4531 60.7354 70.4531C61.0908 70.4531 61.4412 70.5366 61.7583 70.697L133.971 112.364C134.268 112.558 134.516 112.819 134.693 113.127C134.871 113.434 134.973 113.78 134.992 114.135V114.376C134.971 114.732 134.868 115.078 134.689 115.387C134.51 115.695 134.261 115.957 133.962 116.151Z" fill="black"/>
<path d="M61.6952 70.6471C60.916 70.1971 60.1035 70.4554 59.3244 70.9096L5.42022 102.03C4.64522 102.48 4.64105 103.21 5.42022 103.664L76.8869 144.914C77.3142 145.161 77.7993 145.292 78.2931 145.292C78.787 145.292 79.2721 145.161 79.6994 144.914L133.616 113.797C133.76 113.715 133.879 113.596 133.962 113.452C134.045 113.309 134.089 113.146 134.089 112.98C134.089 112.815 134.045 112.652 133.962 112.509C133.879 112.365 133.76 112.246 133.616 112.164L61.6952 70.6471Z" fill="#00BFBA"/>
<path opacity="0.3" d="M61.6952 70.6471C60.916 70.1971 60.1035 70.4554 59.3244 70.9096L5.42022 102.03C4.64522 102.48 4.64105 103.21 5.42022 103.664L76.8869 144.914C77.3142 145.161 77.7993 145.292 78.2931 145.292C78.787 145.292 79.2721 145.161 79.6994 144.914L133.616 113.797C133.76 113.715 133.879 113.596 133.962 113.452C134.045 113.309 134.089 113.146 134.089 112.98C134.089 112.815 134.045 112.652 133.962 112.509C133.879 112.365 133.76 112.246 133.616 112.164L61.6952 70.6471Z" fill="black"/>
<path d="M133.971 112.364L133.625 112.164C133.768 112.247 133.886 112.366 133.968 112.51C134.05 112.653 134.094 112.815 134.094 112.98C134.094 113.146 134.05 113.308 133.968 113.451C133.886 113.595 133.768 113.714 133.625 113.797L79.7082 144.914C79.2824 145.163 78.7975 145.294 78.3041 145.293H78.2791V147.989C78.6421 147.998 79.0012 147.912 79.3207 147.739L133.975 116.151C134.273 115.957 134.521 115.696 134.699 115.388C134.877 115.081 134.98 114.735 135 114.38V114.143C134.983 113.786 134.88 113.438 134.701 113.129C134.522 112.819 134.272 112.557 133.971 112.364Z" fill="#00BFBA"/>
<path opacity="0.2" d="M133.971 112.364L133.625 112.164C133.768 112.247 133.886 112.366 133.968 112.51C134.05 112.653 134.094 112.815 134.094 112.98C134.094 113.146 134.05 113.308 133.968 113.451C133.886 113.595 133.768 113.714 133.625 113.797L79.7082 144.914C79.2824 145.163 78.7975 145.294 78.3041 145.293H78.2791V147.989C78.6421 147.998 79.0012 147.912 79.3207 147.739L133.975 116.151C134.273 115.957 134.521 115.696 134.699 115.388C134.877 115.081 134.98 114.735 135 114.38V114.143C134.983 113.786 134.88 113.438 134.701 113.129C134.522 112.819 134.272 112.557 133.971 112.364Z" fill="black"/>
<path opacity="0.25" d="M66.4708 74.8637C65.6708 74.4012 64.8333 74.672 64.0291 75.1345L13.0833 104.551C12.2833 105.014 12.2791 105.768 13.0833 106.218L76.7833 142.993C77.2266 143.249 77.7296 143.384 78.2416 143.384C78.7536 143.384 79.2565 143.249 79.6999 142.993L130.642 113.614C130.786 113.528 130.905 113.405 130.988 113.259C131.071 113.113 131.114 112.948 131.114 112.78C131.114 112.612 131.071 112.447 130.988 112.301C130.905 112.155 130.786 112.033 130.642 111.947L129.708 111.405L66.4708 74.8637Z" fill="black"/>
<path d="M78.6536 142.597L129.416 113.289C129.539 113.204 129.641 113.092 129.714 112.961C129.786 112.83 129.827 112.684 129.833 112.535V111.972C129.827 111.823 129.786 111.677 129.714 111.546C129.641 111.415 129.539 111.303 129.416 111.218L65.062 74.068C64.9276 74.0002 64.7791 73.9649 64.6286 73.9649C64.4781 73.9649 64.3297 74.0002 64.1953 74.068L13.4328 103.376C13.3101 103.461 13.2086 103.572 13.1363 103.702C13.064 103.832 13.0228 103.978 13.0161 104.126V104.693C13.0222 104.842 13.063 104.988 13.1353 105.119C13.2077 105.25 13.3095 105.362 13.4328 105.447L77.787 142.597C77.9214 142.665 78.0698 142.7 78.2203 142.7C78.3708 142.7 78.5192 142.665 78.6536 142.597Z" fill="#F5F5F5"/>
<path d="M13.3418 103.443C13.2989 103.477 13.2598 103.517 13.2252 103.56L13.1752 103.626C13.1246 103.699 13.0826 103.777 13.0502 103.86C13.0304 103.912 13.0165 103.967 13.0085 104.022C13.0063 104.058 13.0063 104.094 13.0085 104.13V104.693C13.0139 104.842 13.0545 104.988 13.1269 105.118C13.1993 105.248 13.3015 105.36 13.4252 105.443L77.7752 142.593C77.9026 142.663 78.0462 142.699 78.1918 142.697V141.114C78.0468 141.111 77.9043 141.076 77.7752 141.01L13.4335 103.876C13.2293 103.76 13.196 103.58 13.3418 103.443Z" fill="#E0E0E0"/>
<path d="M129.529 111.297C129.658 111.43 129.62 111.605 129.425 111.714L78.6537 141.026C78.5258 141.095 78.3825 141.131 78.2371 141.13V142.697C78.3827 142.699 78.5263 142.663 78.6537 142.593L129.416 113.289C129.539 113.204 129.64 113.093 129.713 112.963C129.785 112.833 129.826 112.687 129.833 112.539V111.972C129.83 111.845 129.802 111.72 129.75 111.604C129.697 111.488 129.622 111.383 129.529 111.297Z" fill="#F0F0F0"/>
<path d="M80.6536 83.0721L65.0619 74.068C64.9275 74.0002 64.7791 73.9649 64.6286 73.9649C64.4781 73.9649 64.3297 74.0002 64.1953 74.068L13.4328 103.376C13.3101 103.461 13.2086 103.572 13.1363 103.702C13.064 103.832 13.0228 103.978 13.0161 104.126V104.693C13.0222 104.842 13.063 104.988 13.1353 105.119C13.2077 105.25 13.3095 105.362 13.4328 105.447L27.6661 113.664L80.6536 83.0721Z" fill="#00BFBA"/>
<path opacity="0.6" d="M80.6536 83.0721L65.0619 74.068C64.9275 74.0002 64.7791 73.9649 64.6286 73.9649C64.4781 73.9649 64.3297 74.0002 64.1953 74.068L13.4328 103.376C13.3101 103.461 13.2086 103.572 13.1363 103.702C13.064 103.832 13.0228 103.978 13.0161 104.126V104.693C13.0222 104.842 13.063 104.988 13.1353 105.119C13.2077 105.25 13.3095 105.362 13.4328 105.447L27.6661 113.664L80.6536 83.0721Z" fill="white"/>
<path d="M29.0252 112.881L13.4335 103.876C13.2293 103.76 13.196 103.581 13.3418 103.46C13.2989 103.494 13.2598 103.533 13.2252 103.576L13.1752 103.643C13.1246 103.716 13.0826 103.794 13.0502 103.876C13.0304 103.929 13.0165 103.983 13.0085 104.039C13.0063 104.075 13.0063 104.111 13.0085 104.147V104.71C13.0139 104.859 13.0545 105.004 13.1269 105.135C13.1993 105.265 13.3015 105.376 13.4252 105.46L29.0252 114.447V112.881Z" fill="#00BFBA"/>
<path d="M28.7498 98.8554C26.715 99.8605 24.4449 100.293 22.1831 100.105C22.629 101.33 21.6456 102.851 20.0498 103.897C22.8498 105.751 25.6123 107.18 29.4081 107.626C31.3005 107.843 33.2127 107.822 35.0998 107.564C35.5414 106.519 35.58 105.348 35.2081 104.276C34.4415 102.068 31.9623 100.472 28.7498 98.8554Z" fill="#00BFBA"/>
<path d="M29.4251 104.268C29.671 104.172 29.934 104.128 30.1978 104.138C30.4616 104.148 30.7205 104.212 30.9584 104.326C31.4471 104.525 31.9182 104.765 32.3668 105.043C32.6084 105.193 32.9918 105.13 32.9501 104.814C32.8062 104.354 32.4936 103.965 32.0751 103.726C31.3709 103.214 30.9501 103.105 30.5668 102.776C30.1834 102.447 30.0168 101.993 29.3584 101.614C28.9766 101.383 28.5518 101.232 28.1098 101.17C27.6679 101.109 27.218 101.138 26.7876 101.255C25.9543 101.564 26.1126 101.935 25.7501 102.147C25.3876 102.36 24.7418 102.255 24.2084 102.747C23.6751 103.239 24.1626 103.847 24.8251 104.23C25.4876 104.614 26.2293 104.689 26.8418 104.926C27.4543 105.164 27.5959 105.393 28.4834 105.797C29.076 106.081 29.7159 106.253 30.3709 106.305C30.9168 106.326 31.0251 106.105 30.7626 105.968C30.3223 105.735 29.9039 105.463 29.5126 105.155C29.1584 104.826 29.0459 104.485 29.4251 104.268Z" fill="white"/>
<path d="M47.7163 82.6678C47.8484 82.5761 47.9529 82.4499 48.0182 82.3029C48.0836 82.156 48.1075 81.994 48.0871 81.8344C48.0632 81.3994 47.9377 80.9761 47.7206 80.5984C47.5036 80.2206 47.201 79.8991 46.8371 79.6594C46.7094 79.5673 46.5594 79.511 46.4026 79.4964C46.2459 79.4817 46.088 79.5092 45.9455 79.5761L25.9038 91.1469L27.6788 94.2219L47.7163 82.6678Z" fill="#37474F"/>
<path d="M26.7832 92.6926L47.7165 80.6093C47.9453 80.9872 48.073 81.4177 48.0874 81.8593C48.0898 81.9037 48.0898 81.9482 48.0874 81.9926L27.4832 93.8884L26.7832 92.6926Z" fill="#455A64"/>
<path d="M28.0453 93.4214C28.0453 94.2212 27.4829 94.5461 26.7956 94.1462C26.4314 93.9071 26.1285 93.5857 25.9114 93.208C25.6944 92.8303 25.5691 92.4068 25.5459 91.9718C25.5459 91.172 26.1083 90.847 26.7956 91.2469C27.1598 91.486 27.4626 91.8074 27.6797 92.1851C27.8968 92.5629 28.022 92.9863 28.0453 93.4214Z" fill="#263238"/>
<path opacity="0.2" d="M29.3875 100.009C29.0001 100.013 28.6183 99.9173 28.2792 99.7302L22.95 96.6511C22.7894 96.5753 22.6519 96.4582 22.5516 96.3118C22.4513 96.1653 22.3918 95.9948 22.3792 95.8177C22.3865 95.673 22.4316 95.5327 22.5097 95.4107C22.5879 95.2886 22.6966 95.1891 22.825 95.1219L26.6125 92.9469C26.6851 92.9148 26.767 92.9108 26.8424 92.9356C26.9178 92.9604 26.9813 93.0123 27.0207 93.0812C27.0601 93.1501 27.0725 93.2312 27.0556 93.3087C27.0387 93.3863 26.9936 93.4548 26.9291 93.5011L23.1417 95.6969C23.0625 95.7427 23.0125 95.7969 23.0125 95.8427C23.0125 95.8886 23.0917 96.0177 23.2667 96.1177L28.5958 99.1969C28.8035 99.311 29.0344 99.3767 29.271 99.389C29.5077 99.4012 29.7441 99.3598 29.9625 99.2677L40.2208 93.3427C41.0109 92.88 41.685 92.2429 42.1917 91.4802C42.6536 90.7765 43.2637 90.1821 43.9791 89.7386C44.4125 89.4634 44.9159 89.3188 45.4292 89.3219C46.5723 89.3431 47.6984 89.0428 48.6792 88.4552L57.9916 83.0802C58.075 83.0302 58.125 82.9761 58.125 82.9302C58.125 82.8844 58.0458 82.7552 57.8708 82.6552L52.5375 79.5761C52.3294 79.4631 52.0986 79.3981 51.8622 79.3858C51.6257 79.3736 51.3895 79.4144 51.1708 79.5052L47.8375 81.4261C47.7457 81.2339 47.6355 81.0511 47.5083 80.8802L50.8416 78.9552C51.157 78.8087 51.5026 78.7388 51.8501 78.7511C52.1977 78.7634 52.5374 78.8576 52.8417 79.0261L58.175 82.1052C58.3361 82.1802 58.474 82.2972 58.5745 82.4438C58.6749 82.5904 58.7341 82.7613 58.7458 82.9386C58.7387 83.0844 58.6934 83.2259 58.6144 83.3488C58.5355 83.4716 58.4256 83.5715 58.2958 83.6386L48.9833 89.0177C47.8991 89.6656 46.6544 89.9948 45.3917 89.9677C45.0004 89.9702 44.6177 90.0829 44.2875 90.2927C43.6526 90.6872 43.1121 91.2164 42.7041 91.8427C42.1434 92.6827 41.3998 93.385 40.5291 93.8969L30.2792 99.8011C30.0051 99.9468 29.6978 100.019 29.3875 100.009Z" fill="black"/>
<path d="M29.3875 99.4471C29.0001 99.4512 28.6183 99.355 28.2792 99.168L22.95 96.0888C22.7894 96.0131 22.6519 95.896 22.5516 95.7495C22.4513 95.6031 22.3918 95.4325 22.3792 95.2555C22.3865 95.1107 22.4316 94.9704 22.5097 94.8484C22.5879 94.7264 22.6966 94.6268 22.825 94.5596L26.6125 92.3638C26.6851 92.3317 26.767 92.3277 26.8424 92.3525C26.9178 92.3773 26.9813 92.4292 27.0207 92.4981C27.0601 92.567 27.0725 92.6481 27.0556 92.7256C27.0387 92.8032 26.9936 92.8717 26.9291 92.918L23.15 95.0971C23.0708 95.143 23.0208 95.2013 23.0208 95.243C23.0208 95.2846 23.1 95.418 23.275 95.518L28.5958 98.6138C28.8035 98.7279 29.0344 98.7936 29.271 98.8059C29.5077 98.8181 29.7441 98.7767 29.9625 98.6846L40.2208 92.7805C41.0109 92.3177 41.685 91.6807 42.1917 90.918C42.6536 90.2142 43.2637 89.6198 43.9791 89.1763C44.4125 88.9012 44.9159 88.7565 45.4292 88.7596C46.5723 88.7808 47.6984 88.4805 48.6792 87.893L57.9916 82.518C58.075 82.468 58.125 82.4138 58.125 82.368C58.125 82.3221 58.0458 82.193 57.8708 82.093L52.5375 79.0138C52.3294 78.9008 52.0986 78.8358 51.8622 78.8236C51.6257 78.8113 51.3895 78.8521 51.1708 78.943L47.8375 80.8638C47.7457 80.6716 47.6355 80.4888 47.5083 80.318L50.8416 78.393C51.157 78.2465 51.5026 78.1765 51.8501 78.1888C52.1977 78.2011 52.5374 78.2953 52.8417 78.4638L58.175 81.543C58.3361 81.618 58.474 81.7349 58.5745 81.8815C58.6749 82.0281 58.7341 82.199 58.7458 82.3763C58.7394 82.5229 58.6945 82.6652 58.6155 82.7889C58.5364 82.9125 58.4262 83.0131 58.2958 83.0805L48.9833 88.4555C47.8991 89.1033 46.6544 89.4326 45.3917 89.4055C45.0004 89.408 44.6177 89.5206 44.2875 89.7305C43.6526 90.125 43.1121 90.6541 42.7041 91.2805C42.1434 92.1205 41.3998 92.8227 40.5291 93.3346L30.2792 99.2346C30.0055 99.3818 29.6981 99.455 29.3875 99.4471Z" fill="#455A64"/>
</g>
<g opacity="0.05">
<path d="M84.7791 122.884C102.145 122.884 116.222 114.756 116.222 104.73C116.222 94.7044 102.145 86.5767 84.7791 86.5767C67.4135 86.5767 53.3359 94.7044 53.3359 104.73C53.3359 114.756 67.4135 122.884 84.7791 122.884Z" fill="black"/>
<path d="M115.722 104.73C115.722 109.489 112.377 113.893 106.763 117.134C101.161 120.368 93.3902 122.384 84.7791 122.384C76.1681 122.384 68.3968 120.368 62.7954 117.134C57.1809 113.893 53.8359 109.489 53.8359 104.73C53.8359 99.9717 57.1809 95.5684 62.7954 92.3268C68.3968 89.0929 76.1681 87.0767 84.7791 87.0767C93.3902 87.0767 101.161 89.0929 106.763 92.3268C112.377 95.5684 115.722 99.9717 115.722 104.73Z" stroke="black" stroke-opacity="0.25"/>
</g>
<path d="M113.24 108.242C110.006 108.242 108.519 102.018 104.642 95.3023C103.177 92.7669 100.826 90.1525 98.9779 90.1676C98.9779 90.1676 97.7045 90.3178 97.5017 90.855C97.2988 91.3921 96.619 94.1792 96.3523 99.205C96.1682 102.619 95.7926 105.215 94.6469 105.215C92.8665 105.215 92.3482 103.048 90.3273 97.387C87.6116 89.7919 82.845 86.6367 77.0341 86.6367C71.2233 86.6367 68.5301 89.698 65.9683 93.2777C64.2598 95.6858 62.7102 98.2028 61.3294 100.813C59.1734 104.978 57.6934 107.803 55.9656 107.803C55.9656 107.803 53.6405 96.2188 56.8746 87.2265C60.1087 78.2341 71.1219 74.831 82.443 74.831C93.7642 74.831 113.24 80.9611 113.24 108.242Z" fill="#E0E0E0"/>
<path d="M98.9193 89.671L98.9779 90.1676C98.9193 89.671 98.9192 89.671 98.9191 89.671L98.9188 89.6711L98.9183 89.6711L98.9168 89.6713L98.9124 89.6718L98.8984 89.6736C98.8867 89.6752 98.8705 89.6774 98.8503 89.6804C98.81 89.6863 98.7534 89.6952 98.6855 89.7076C98.5508 89.7324 98.3656 89.772 98.1701 89.8315C97.978 89.8901 97.7562 89.9737 97.5588 90.0933C97.3691 90.2083 97.1418 90.3927 97.0339 90.6783C96.8039 91.2875 96.1206 94.1354 95.853 99.1785C95.761 100.884 95.6225 102.346 95.3742 103.373C95.2493 103.89 95.1061 104.253 94.9557 104.477C94.8115 104.692 94.7087 104.715 94.6469 104.715C94.3205 104.715 94.0727 104.622 93.8359 104.413C93.5796 104.187 93.3196 103.81 93.0273 103.206C92.5811 102.284 92.1177 100.965 91.4754 99.1358C91.2698 98.5502 91.0458 97.9125 90.7982 97.2189L90.7981 97.2186C89.4169 93.3557 87.4984 90.5785 85.1464 88.7676C82.7902 86.9534 80.0347 86.1367 77.0341 86.1367C74.0307 86.1367 71.803 86.9311 69.9947 88.2062C68.2012 89.4709 66.8466 91.1913 65.5617 92.9867L65.5606 92.9884C63.8394 95.4142 62.2784 97.9497 60.8875 100.579L60.8874 100.579L60.8854 100.583C59.8017 102.677 58.9092 104.39 58.0768 105.584C57.6616 106.179 57.2795 106.618 56.9185 106.905C56.7225 107.061 56.5406 107.165 56.3691 107.228C56.3677 107.22 56.3662 107.212 56.3648 107.203C56.3084 106.874 56.2311 106.392 56.1482 105.785C55.9824 104.57 55.7945 102.857 55.7068 100.865C55.531 96.8714 55.7601 91.8026 57.3451 87.3957C58.9024 83.0654 62.3388 80.0528 66.8244 78.1156C71.3152 76.1762 76.8258 75.331 82.443 75.331C88.028 75.331 95.6069 76.8454 101.778 81.6992C107.84 86.4676 112.605 94.5055 112.737 107.676C112.298 107.557 111.874 107.277 111.44 106.82C110.835 106.184 110.251 105.248 109.625 104.058C109.16 103.175 108.685 102.179 108.168 101.094C107.99 100.72 107.807 100.335 107.617 99.9408C106.88 98.4092 106.054 96.7477 105.075 95.0524L105.075 95.0522C104.325 93.7535 103.344 92.4266 102.301 91.419C101.284 90.4355 100.108 89.6584 98.9738 89.6676L98.9464 89.6678L98.9193 89.671Z" stroke="black" stroke-opacity="0.25"/>
<g opacity="0.2">
<path d="M113.24 108.242C110.006 108.242 108.519 102.018 104.642 95.3023C103.177 92.7669 100.826 90.1525 98.9779 90.1676C98.9779 90.1676 97.7045 90.3178 97.5017 90.855C97.2988 91.3921 96.619 94.1792 96.3523 99.205C96.1682 102.619 95.7926 105.215 94.6469 105.215C92.8665 105.215 92.3482 103.048 90.3273 97.387C87.6116 89.7919 82.845 86.6367 77.0341 86.6367C71.2233 86.6367 68.5301 89.698 65.9683 93.2777C64.2598 95.6858 62.7102 98.2028 61.3294 100.813C59.1734 104.978 57.6934 107.803 55.9656 107.803C55.9656 107.803 53.6405 96.2188 56.8746 87.2265C60.1087 78.2341 71.1219 74.831 82.443 74.831C93.7642 74.831 113.24 80.9611 113.24 108.242Z" fill="black"/>
<path d="M98.9193 89.671L98.9779 90.1676C98.9193 89.671 98.9192 89.671 98.9191 89.671L98.9188 89.6711L98.9183 89.6711L98.9168 89.6713L98.9124 89.6718L98.8984 89.6736C98.8867 89.6752 98.8705 89.6774 98.8503 89.6804C98.81 89.6863 98.7534 89.6952 98.6855 89.7076C98.5508 89.7324 98.3656 89.772 98.1701 89.8315C97.978 89.8901 97.7562 89.9737 97.5588 90.0933C97.3691 90.2083 97.1418 90.3927 97.0339 90.6783C96.8039 91.2875 96.1206 94.1354 95.853 99.1785C95.761 100.884 95.6225 102.346 95.3742 103.373C95.2493 103.89 95.1061 104.253 94.9557 104.477C94.8115 104.692 94.7087 104.715 94.6469 104.715C94.3205 104.715 94.0727 104.622 93.8359 104.413C93.5796 104.187 93.3196 103.81 93.0273 103.206C92.5811 102.284 92.1177 100.965 91.4754 99.1358C91.2698 98.5502 91.0458 97.9125 90.7982 97.2189L90.7981 97.2186C89.4169 93.3557 87.4984 90.5785 85.1464 88.7676C82.7902 86.9534 80.0347 86.1367 77.0341 86.1367C74.0307 86.1367 71.803 86.9311 69.9947 88.2062C68.2012 89.4709 66.8466 91.1913 65.5617 92.9867L65.5606 92.9884C63.8394 95.4142 62.2784 97.9497 60.8875 100.579L60.8874 100.579L60.8854 100.583C59.8017 102.677 58.9092 104.39 58.0768 105.584C57.6616 106.179 57.2795 106.618 56.9185 106.905C56.7225 107.061 56.5406 107.165 56.3691 107.228C56.3677 107.22 56.3662 107.212 56.3648 107.203C56.3084 106.874 56.2311 106.392 56.1482 105.785C55.9824 104.57 55.7945 102.857 55.7068 100.865C55.531 96.8714 55.7601 91.8026 57.3451 87.3957C58.9024 83.0654 62.3388 80.0528 66.8244 78.1156C71.3152 76.1762 76.8258 75.331 82.443 75.331C88.028 75.331 95.6069 76.8454 101.778 81.6992C107.84 86.4676 112.605 94.5055 112.737 107.676C112.298 107.557 111.874 107.277 111.44 106.82C110.835 106.184 110.251 105.248 109.625 104.058C109.16 103.175 108.685 102.179 108.168 101.094C107.99 100.72 107.807 100.335 107.617 99.9408C106.88 98.4092 106.054 96.7477 105.075 95.0524L105.075 95.0522C104.325 93.7535 103.344 92.4266 102.301 91.419C101.284 90.4355 100.108 89.6584 98.9738 89.6676L98.9464 89.6678L98.9193 89.671Z" stroke="black" stroke-opacity="0.25"/>
</g>
<path d="M84.5953 28.0439C92.4645 28.0439 94.6732 30.8873 98.9327 34.7224C103.192 38.5575 105.885 38.411 109.578 39.1209C113.27 39.8308 117.811 43.9739 116.673 50.9154C115.535 57.8569 114.112 60.8506 113.552 67.0896C112.992 73.3287 113.789 76.837 115.806 81.5435C117.823 86.25 117.95 94.9381 115.806 102.973C113.661 111.007 112.282 108.07 111.572 105.816C110.862 103.562 109.014 96.5157 105.187 92.5867C101.359 88.6577 98.2341 88.7291 94.399 94.7991C90.5639 100.869 88.5694 106.087 87.4425 112.063C86.3156 118.039 85.8799 123.756 84.0356 124.458C82.1913 125.161 74.3822 117.915 72.1134 109.963C69.8447 102.011 68.2859 91.704 67.7036 89.5442C67.1214 87.3844 65.7166 87.5083 63.7296 91.2044C61.7425 94.9006 58.7601 101.722 57.6257 105.339C56.4914 108.956 55.0715 108.618 53.7944 104.103C52.5173 99.5883 50.9547 91.3096 53.7944 83.5944C56.6341 75.8791 57.0586 71.86 56.3486 68.4794C55.6387 65.0988 53.6517 61.2562 52.799 55.2989C51.9464 49.3416 53.2272 43.9476 57.7685 41.4009C62.3097 38.8542 67.4107 38.7716 70.7725 35.8004C74.4535 32.5288 76.726 28.0439 84.5953 28.0439Z" fill="#F0F0F0"/>
<path d="M71.1036 36.1751L71.1046 36.1742C71.9042 35.4635 72.6273 34.7138 73.3418 33.9731C76.0206 31.1957 78.5784 28.5439 84.5953 28.5439C88.4633 28.5439 90.8922 29.2411 92.8683 30.3784C94.4688 31.2995 95.783 32.5099 97.3466 33.9503C97.7447 34.3169 98.1589 34.6985 98.5982 35.094C100.774 37.0532 102.573 38.0144 104.316 38.57C105.496 38.9461 106.665 39.1366 107.865 39.3321C108.397 39.4189 108.935 39.5066 109.483 39.6119C112.93 40.2745 117.271 44.1798 116.18 50.8345C115.695 53.7917 115.159 56.0243 114.657 58.1156C114.573 58.4636 114.49 58.8077 114.409 59.1506C113.839 61.5562 113.337 63.8909 113.054 67.0449C112.486 73.3735 113.299 76.9646 115.346 81.7405C116.318 84.0084 116.85 87.2827 116.866 91.0122C116.882 94.7333 116.383 98.8699 115.323 102.844C114.789 104.841 114.313 106.119 113.899 106.886C113.692 107.27 113.514 107.5 113.374 107.628C113.237 107.752 113.169 107.753 113.159 107.753C113.147 107.752 113.094 107.747 112.997 107.657C112.898 107.566 112.786 107.417 112.667 107.207C112.431 106.788 112.225 106.223 112.049 105.666C111.983 105.456 111.906 105.201 111.818 104.909C111.44 103.658 110.854 101.716 110.012 99.6415C108.974 97.086 107.526 94.2714 105.545 92.2378C103.607 90.2488 101.71 89.1223 99.7147 89.4499C97.747 89.7729 95.9044 91.4802 93.9763 94.5321C90.109 100.653 88.0902 105.929 86.9511 111.97C86.6915 113.347 86.4723 114.685 86.2653 115.947C86.0151 117.474 85.7828 118.89 85.519 120.134C85.2806 121.258 85.0263 122.185 84.7293 122.865C84.4226 123.568 84.12 123.891 83.8577 123.991C83.8014 124.012 83.6233 124.029 83.2609 123.894C82.9189 123.767 82.4913 123.535 81.9967 123.196C81.0102 122.519 79.819 121.459 78.6039 120.12C76.1712 117.439 73.7012 113.706 72.5942 109.826C71.466 105.871 70.5124 101.324 69.7669 97.4862C69.5079 96.1526 69.2729 94.8988 69.0643 93.7851C68.6767 91.7165 68.3796 90.1308 68.1864 89.4141C68.0317 88.84 67.804 88.3389 67.4624 88.0116C67.2854 87.842 67.0727 87.7147 66.8255 87.6583C66.578 87.6019 66.3274 87.6237 66.086 87.7038C65.6203 87.8583 65.1673 88.2355 64.7249 88.7594C64.2744 89.2929 63.7953 90.0262 63.2892 90.9677C61.2907 94.6851 58.2945 101.536 57.1487 105.189C56.8708 106.076 56.5904 106.666 56.3318 107.002C56.0719 107.34 55.9418 107.302 55.9072 107.292C55.7835 107.255 55.5334 107.065 55.212 106.472C54.9065 105.908 54.5902 105.08 54.2755 103.967C53.007 99.4824 51.4796 91.331 54.2636 83.7671C57.1135 76.0243 57.5772 71.8966 56.838 68.3767C56.5628 67.0665 56.0983 65.6824 55.592 64.174C55.4316 63.6959 55.267 63.2054 55.1028 62.7008C54.415 60.5859 53.7146 58.1665 53.294 55.2281C52.4522 49.3469 53.7433 44.2315 58.013 41.837C59.9385 40.7573 61.965 40.1322 63.9661 39.515C64.2656 39.4226 64.5646 39.3304 64.8625 39.2369C67.1248 38.5268 69.3349 37.7383 71.1036 36.1751Z" stroke="black" stroke-opacity="0.25"/>
<path d="M60.8938 89.8183C61.8141 87.6998 62.7719 85.5475 62.9785 83.2525C63.279 80.086 62.1409 76.9383 60.5482 74.1888C59.2674 71.9726 57.6935 69.948 56.2061 67.8596C55.4022 64.6255 53.5993 60.8956 52.7992 55.2988C52.2395 51.3774 52.6114 47.7038 54.219 44.9204C55.2343 43.75 56.495 42.8177 57.9114 42.1897C60.5407 41.0628 63.1701 41.0891 65.9196 41.5699C66.8242 41.7585 67.7451 41.8579 68.6691 41.8666C69.7394 41.8256 70.7966 41.6164 71.8018 41.2469C72.8674 40.877 73.8676 40.3407 74.7655 39.658C76.2867 38.4673 76.8013 36.7394 77.8531 35.2144C78.5175 34.2508 79.3692 33.4309 80.3574 32.8037C81.3456 32.1764 82.4501 31.7547 83.6049 31.5637C84.7596 31.3726 85.941 31.4161 87.0786 31.6916C88.2162 31.9672 89.2866 32.469 90.226 33.1673C92.1041 34.5646 93.3962 36.6981 95.4434 37.8325C97.0022 38.6927 98.8239 38.8842 100.518 39.4664C102.212 40.0486 103.899 41.2694 104.113 43.0386C104.364 45.1007 102.058 45.7017 100.567 46.2576C97.3816 47.4484 94.5757 50.2092 94.2602 53.5973C93.2402 52.0421 91.8553 50.7601 90.2261 49.8631C88.597 48.9661 86.7732 48.4812 84.9136 48.4508C83.0541 48.4205 81.2154 48.8455 79.5578 49.6888C77.9003 50.5322 76.4742 51.7683 75.404 53.2893C74.3052 54.9438 73.5161 56.7842 73.0752 58.7207C71.7382 64.0338 71.9481 69.6183 73.6799 74.8161C74.4762 77.1975 75.5881 79.4738 76.2567 81.8965C78.2888 89.2587 76.0351 97.0603 76.1252 104.697C76.1759 109.163 77.0323 113.584 78.6531 117.746C79.5358 119.999 80.6928 122.253 82.338 123.989C79.333 122.268 73.9316 116.345 72.1061 109.952C69.8523 102 68.271 91.704 67.7038 89.5441C67.1366 87.3843 65.7168 87.5083 63.7297 91.2044C61.7427 94.9005 58.7603 101.722 57.6259 105.339C57.2503 106.488 56.8747 107.236 56.4728 107.593C55.8793 104.332 56.6944 100.741 57.81 97.5261C58.7152 94.9005 59.7895 92.35 60.8938 89.8183Z" fill="#E0E0E0"/>
<path d="M61.3524 90.0176L61.3521 90.0182C60.2489 92.5474 59.1812 95.083 58.2827 97.689L58.2823 97.69C57.3335 100.425 56.6255 103.377 56.7997 106.135C56.9147 105.864 57.0312 105.549 57.1497 105.186C58.2963 101.532 61.2914 94.684 63.2893 90.9676C63.7956 90.0259 64.2758 89.2924 64.7276 88.7588C65.1715 88.2347 65.6258 87.8578 66.0922 87.7036C66.3338 87.6237 66.5846 87.6018 66.8321 87.6582C67.0796 87.7146 67.2924 87.842 67.4694 88.0121C67.8109 88.3402 68.0365 88.8424 68.1874 89.4171C68.3708 90.1155 68.6571 91.6409 69.0317 93.636C69.2472 94.7845 69.4921 96.0886 69.7633 97.4802C70.5106 101.315 71.4661 105.86 72.587 109.815C73.477 112.931 75.246 115.953 77.1734 118.414C78.0444 119.526 78.9404 120.514 79.7923 121.339C79.1631 120.239 78.6381 119.078 78.1876 117.928L78.1872 117.927C76.5446 113.709 75.6767 109.229 75.6252 104.703C75.593 101.969 75.8593 99.2001 76.1219 96.4692C76.2289 95.3565 76.3353 94.2501 76.4207 93.1549C76.7177 89.3441 76.7669 85.6242 75.7747 82.0295L76.2567 81.8965L75.7747 82.0295C75.448 80.8456 75.0114 79.692 74.551 78.5242C74.4745 78.3301 74.3973 78.1355 74.3198 77.9402C73.9338 76.9675 73.5418 75.9798 73.2057 74.9746L73.2056 74.9741C71.4442 69.6877 71.2302 64.0081 72.5889 58.6042C73.0436 56.6106 73.8563 54.7161 74.9875 53.0126L74.9949 53.0014L74.9951 53.0015C76.1122 51.4138 77.6008 50.1235 79.3311 49.2432C81.0614 48.3629 82.9807 47.9192 84.9218 47.9509C86.8629 47.9826 88.7667 48.4887 90.4673 49.4251C91.8176 50.1686 93.0071 51.1654 93.9728 52.3571C94.7751 49.2857 97.4604 46.8851 100.392 45.7893L100.392 45.7891C100.547 45.7315 100.704 45.6752 100.862 45.6185C101.515 45.3849 102.18 45.1464 102.72 44.7943C103.044 44.5825 103.289 44.3492 103.441 44.0841C103.589 43.8275 103.667 43.5127 103.616 43.0992L103.616 43.0987C103.438 41.6246 101.996 40.5032 100.355 39.9393C99.7581 39.734 99.1526 39.5811 98.5259 39.4228C98.2879 39.3627 98.0469 39.3019 97.802 39.237C96.9306 39.0064 96.0368 38.731 95.2018 38.2703L95.201 38.2698C94.1053 37.6627 93.2255 36.7958 92.4101 35.9443C92.2932 35.8222 92.1778 35.7006 92.0633 35.5799C91.3639 34.8432 90.6976 34.1414 89.9275 33.5684C89.0421 32.9103 88.0332 32.4373 86.9609 32.1776C85.8886 31.9179 84.775 31.8769 83.6865 32.057C82.598 32.2371 81.5569 32.6346 80.6254 33.2258C79.6939 33.8171 78.891 34.5899 78.2647 35.4982L78.2647 35.4983C77.9285 35.9857 77.6602 36.4756 77.3808 36.9857C77.2332 37.2552 77.0825 37.5303 76.9172 37.8136C76.4542 38.6068 75.9072 39.3993 75.0736 40.0517L75.0681 40.056L75.0681 40.056C74.1295 40.7697 73.0839 41.3306 71.9701 41.7177C70.9169 42.1044 69.8095 42.3233 68.6883 42.3663L68.6764 42.3667L68.6644 42.3666C67.7104 42.3576 66.7596 42.2552 65.8256 42.0611C63.1303 41.5906 60.6134 41.5765 58.1112 42.648C56.7777 43.2398 55.5892 44.1148 54.6282 45.212C53.117 47.8583 52.7462 51.3886 53.2942 55.2281L61.3524 90.0176ZM61.3524 90.0176C61.3815 89.9505 61.4107 89.8834 61.44 89.8161C62.3274 87.7753 63.2678 85.6124 63.4764 83.2985M61.3524 90.0176L63.4764 83.2985M63.4764 83.2985C63.7903 79.986 62.5987 76.7313 60.981 73.9384C59.9868 72.2183 58.8143 70.606 57.6583 69.0164C57.3253 68.5585 56.9936 68.1024 56.668 67.6462C56.3925 66.5599 56.006 65.4082 55.591 64.1713C55.3901 63.5725 55.1824 62.9538 54.9775 62.3129C54.3309 60.2912 53.6888 57.9887 53.2942 55.2282L63.4764 83.2985Z" stroke="black" stroke-opacity="0.25"/>
<path d="M108.308 38.8992C108.721 38.9668 109.142 39.0382 109.577 39.1208C113.266 39.8308 117.811 43.9739 116.673 50.9153C115.535 57.8568 114.111 60.8505 113.552 67.0895C112.992 73.3286 113.788 76.8369 115.805 81.5434C117.822 86.2499 117.95 94.938 115.805 102.973C115.477 104.337 115.018 105.667 114.434 106.943C115.584 100.264 116.786 93.5032 114.934 87.065C113.867 83.3501 111.816 79.9282 111.054 76.172C110.118 71.5444 111.174 66.7815 112.293 62.1877C113.413 57.5939 114.923 51.8694 114.265 47.1967C113.736 43.4893 111.857 40.5369 108.308 38.8992Z" fill="#FAFAFA"/>
<path d="M114.76 47.126C114.365 44.3584 113.237 41.9727 111.251 40.2115C114.224 41.6534 117.089 45.2896 116.18 50.8344C115.695 53.7916 115.159 56.0242 114.656 58.1155C114.573 58.4635 114.49 58.8076 114.409 59.1505C113.838 61.5562 113.336 63.8908 113.054 67.0449C112.486 73.3734 113.299 76.9645 115.346 81.7404C116.318 84.0083 116.85 87.2826 116.866 91.0121C116.877 93.6917 116.622 96.5867 116.082 99.4812C116.557 95.2624 116.596 91.0336 115.414 86.9268C114.94 85.2751 114.275 83.6803 113.624 82.1204C113.529 81.8938 113.435 81.6679 113.342 81.4426C112.601 79.6541 111.914 77.8988 111.544 76.0726C110.634 71.5695 111.657 66.9115 112.779 62.3061C112.844 62.0401 112.91 61.7698 112.977 61.4956C114.062 57.0734 115.395 51.6373 114.76 47.127L114.76 47.126Z" stroke="black" stroke-opacity="0.25"/>
<path d="M84.4373 124.18C85.5228 121.776 85.3162 111.259 87.1905 105.294C90.2744 95.4902 93.531 92.4063 98.1737 90.5583C96.9529 91.3095 95.7059 92.6843 94.3724 94.7953C90.5411 100.862 88.5541 106.083 87.4197 112.074C86.3905 117.569 85.9397 122.828 84.4373 124.18Z" fill="#FAFAFA"/>
<path d="M93.9497 94.5283L93.9497 94.5283C90.0859 100.646 88.0749 105.926 86.9284 111.981L86.9282 111.982C86.6781 113.318 86.462 114.639 86.2578 115.888L86.2373 116.013C86.0909 116.908 85.9504 117.764 85.8069 118.564C85.8428 118.152 85.8786 117.73 85.9152 117.299C85.9481 116.91 85.9816 116.515 86.0162 116.115C86.3355 112.429 86.7497 108.365 87.6676 105.444C89.2008 100.57 90.763 97.4137 92.4882 95.2549C93.3608 94.1628 94.2807 93.319 95.2716 92.6351C94.8351 93.1923 94.3953 93.8228 93.9497 94.5283Z" stroke="black" stroke-opacity="0.25"/>
<path d="M112.504 51.1933C112.676 52.5669 112.567 53.961 112.184 55.2914C111.903 56.3544 110.682 57.8381 109.931 56.1065C109.776 55.6414 109.697 55.1543 109.698 54.6641C109.62 53.4736 109.187 52.3339 108.455 51.3924C108.085 50.9284 107.62 50.5494 107.091 50.2811C106.562 50.0127 105.982 49.8614 105.389 49.8374C104.18 49.8374 101.536 51.4337 100.938 49.9914C100.416 48.733 102.208 47.4785 103.098 46.9864C106.742 45.0482 110.986 45.8332 112.286 50.1604C112.383 50.499 112.456 50.8442 112.504 51.1933Z" fill="#FAFAFA"/>
<path d="M111.704 55.1532L111.704 55.1531L111.701 55.1633C111.645 55.3754 111.538 55.6208 111.397 55.843C111.254 56.0689 111.096 56.2382 110.958 56.3299C110.824 56.4187 110.765 56.4022 110.742 56.3935C110.698 56.3763 110.559 56.2901 110.398 55.9272C110.265 55.5198 110.197 55.0937 110.198 54.665L110.198 54.6483L110.197 54.6316C110.113 53.3412 109.643 52.1058 108.849 51.0854L108.849 51.0853L108.846 51.081C108.432 50.5609 107.91 50.136 107.318 49.8352C106.725 49.5344 106.074 49.3647 105.41 49.3378L105.4 49.3374H105.389C105.004 49.3374 104.545 49.4602 104.125 49.585C103.988 49.6259 103.852 49.6679 103.717 49.7094C103.411 49.8039 103.112 49.8964 102.815 49.9698C102.384 50.0761 102.039 50.1192 101.791 50.0815C101.579 50.0494 101.471 49.9696 101.4 49.8001L101.4 49.7997C101.258 49.4571 101.393 49.04 101.855 48.5416C102.297 48.0656 102.914 47.66 103.337 47.4259C105.068 46.506 106.903 46.2535 108.43 46.7035C109.936 47.1475 111.202 48.2914 111.806 50.3015C111.896 50.6151 111.964 50.9349 112.008 51.2582C112.171 52.5637 112.068 53.8887 111.704 55.1532Z" stroke="black" stroke-opacity="0.25"/>
<path d="M93.6967 59.7236C93.7756 61.6017 93.5991 66.2219 91.5181 67.1572C88.5657 68.4869 90.365 63.6226 90.4476 62.4206C90.5791 60.4749 90.1321 58.3526 88.6747 57.0567C87.6004 56.1027 86.1392 55.7308 84.8922 55.0096C83.0817 53.9691 84.9823 51.6628 86.4923 51.5238C90.8645 51.137 93.5427 56.0313 93.6967 59.7236Z" fill="#FAFAFA"/>
<path d="M93.1971 59.7445L93.1972 59.7446C93.2356 60.6608 93.2109 62.2431 92.9266 63.6981C92.7844 64.4259 92.5815 65.099 92.3036 65.6351C92.0245 66.1735 91.6926 66.5305 91.3131 66.7011L91.3128 66.7013C90.9791 66.8516 90.7645 66.8894 90.6384 66.885C90.5332 66.8814 90.4981 66.8507 90.4743 66.8228C90.4353 66.7771 90.3843 66.6772 90.3543 66.4834C90.3251 66.2942 90.3221 66.0557 90.3433 65.7761C90.3858 65.2158 90.5185 64.5685 90.6529 63.9631C90.6729 63.8732 90.6933 63.7829 90.7135 63.6931C90.8217 63.2131 90.9262 62.7495 90.9464 62.4549L90.9465 62.4543C91.0828 60.4358 90.6296 58.1259 89.0069 56.6831L89.0067 56.6829C88.4123 56.155 87.7228 55.7987 87.0577 55.4918C86.875 55.4076 86.6961 55.3277 86.5205 55.2494C86.0375 55.0339 85.5803 54.83 85.1425 54.5768L85.1413 54.5761C84.8007 54.3804 84.6884 54.1641 84.6609 53.9739C84.63 53.7605 84.6935 53.4876 84.875 53.1873C85.0541 52.891 85.3258 52.6072 85.6362 52.3912C85.949 52.1737 86.2692 52.0467 86.5373 52.0218C88.5008 51.8484 90.1113 52.8504 91.2773 54.3952C92.4486 55.9472 93.1242 57.9951 93.1971 59.7445Z" stroke="black" stroke-opacity="0.25"/>
<path d="M78.9349 114.823C78.339 108.529 78.5283 102.185 79.4984 95.9372C79.874 93.5783 80.4637 90.7987 79.3744 88.5412C79.3068 92.5603 77.6841 96.2189 77.3085 100.208C77.0755 102.692 77.0981 105.193 77.3761 107.672C77.6446 110.103 78.167 112.5 78.9349 114.823Z" fill="#FAFAFA"/>
<path d="M79.0046 95.8585L79.0046 95.8585C79.0367 95.6567 79.0701 95.4535 79.1036 95.2493C79.2693 94.2403 79.4392 93.206 79.4862 92.1783C79.4889 92.1197 79.4912 92.0612 79.493 92.0029C79.3343 92.8483 79.1411 93.6802 78.9431 94.5029C78.894 94.7068 78.8446 94.91 78.7954 95.1128C78.3786 96.8298 77.9706 98.5103 77.8063 100.255L79.0046 95.8585ZM79.0046 95.8585L79.0043 95.8604C78.3089 100.339 78.0121 104.866 78.1155 109.39M79.0046 95.8585L78.1155 109.39M78.1155 109.39C78.0194 108.801 77.9386 108.21 77.8731 107.617L77.873 107.616C77.5988 105.171 77.5765 102.704 77.8063 100.255L78.1155 109.39Z" stroke="black" stroke-opacity="0.25"/>
<path d="M93.982 42.6141C92.4677 43.4308 90.8252 43.9834 89.1252 44.2481C87.3464 44.4138 85.5522 44.243 83.8365 43.7448C81.8495 43.2377 79.9113 42.5465 77.9205 42.0545C75.8866 41.558 73.8124 41.2437 71.7227 41.1154C70.5268 41.0215 69.326 41.0065 68.1281 41.0703C66.9529 41.1722 65.7866 41.3593 64.6385 41.63C64.5784 41.63 64.5747 41.799 64.6385 41.8028C69.0558 41.8967 73.4656 42.2573 77.7402 43.4405C81.6617 44.5261 85.5418 46.3666 89.7112 45.6492C91.5142 45.3374 92.9603 44.466 94.414 43.4142C95.7812 42.4226 97.1823 41.4009 98.8275 40.9276C97.6397 40.9486 96.4766 41.2704 95.4469 41.8629L93.982 42.6141Z" fill="#E0E0E0"/>
<path d="M89.1869 44.7445L89.1716 44.7459C87.333 44.9172 85.4785 44.7412 83.705 44.2272C82.7419 43.9812 81.7914 43.6929 80.8533 43.4084C80.8138 43.3964 80.7743 43.3844 80.7348 43.3725C79.7521 43.0745 78.7819 42.7825 77.8012 42.54C75.7964 42.0507 73.7519 41.7409 71.6921 41.6145L71.6836 41.614L71.6836 41.6139C70.9239 41.5543 70.1622 41.527 69.4005 41.5322C72.2503 41.7625 75.0877 42.1875 77.8736 42.9586L77.8736 42.9586C78.7651 43.2054 79.6541 43.4906 80.5334 43.7728C80.6328 43.8047 80.7321 43.8365 80.8312 43.8683C81.8117 44.1823 82.7819 44.4875 83.7565 44.7365C85.7045 45.2341 87.6392 45.4983 89.626 45.1565L89.1869 44.7445ZM89.1869 44.7445L89.2022 44.7421C90.7407 44.5026 92.2337 44.0348 93.6319 43.3552M89.1869 44.7445L93.6319 43.3552M93.6319 43.3552C92.3685 44.2273 91.122 44.8978 89.6261 45.1565L93.6319 43.3552Z" stroke="black" stroke-opacity="0.25"/>
<g opacity="0.2">
<path d="M93.982 42.6141C92.4677 43.4308 90.8252 43.9834 89.1252 44.2481C87.3464 44.4138 85.5522 44.243 83.8365 43.7448C81.8495 43.2377 79.9113 42.5465 77.9205 42.0545C75.8866 41.558 73.8124 41.2437 71.7227 41.1154C70.5268 41.0215 69.326 41.0065 68.1281 41.0703C66.9529 41.1722 65.7866 41.3593 64.6385 41.63C64.5784 41.63 64.5747 41.799 64.6385 41.8028C69.0558 41.8967 73.4656 42.2573 77.7402 43.4405C81.6617 44.5261 85.5418 46.3666 89.7112 45.6492C91.5142 45.3374 92.9603 44.466 94.414 43.4142C95.7812 42.4226 97.1823 41.4009 98.8275 40.9276C97.6397 40.9486 96.4766 41.2704 95.4469 41.8629L93.982 42.6141Z" fill="black"/>
<path d="M89.1869 44.7445L89.1716 44.7459C87.333 44.9172 85.4785 44.7412 83.705 44.2272C82.7419 43.9812 81.7914 43.6929 80.8533 43.4084C80.8138 43.3964 80.7743 43.3844 80.7348 43.3725C79.7521 43.0745 78.7819 42.7825 77.8012 42.54C75.7964 42.0507 73.7519 41.7409 71.6921 41.6145L71.6836 41.614L71.6836 41.6139C70.9239 41.5543 70.1622 41.527 69.4005 41.5322C72.2503 41.7625 75.0877 42.1875 77.8736 42.9586L77.8736 42.9586C78.7651 43.2054 79.6541 43.4906 80.5334 43.7728C80.6328 43.8047 80.7321 43.8365 80.8312 43.8683C81.8117 44.1823 82.7819 44.4875 83.7565 44.7365C85.7045 45.2341 87.6392 45.4983 89.626 45.1565L89.1869 44.7445ZM89.1869 44.7445L89.2022 44.7421C90.7407 44.5026 92.2337 44.0348 93.6319 43.3552M89.1869 44.7445L93.6319 43.3552M93.6319 43.3552C92.3685 44.2273 91.122 44.8978 89.6261 45.1565L93.6319 43.3552Z" stroke="black" stroke-opacity="0.25"/>
</g>
<path d="M83.7463 124.706C83.3237 124.673 82.914 124.544 82.548 124.33C79.359 122.719 73.7698 116.495 71.918 110.008C70.3554 104.543 69.1384 98.0143 68.3308 93.6947C67.9552 91.779 67.6922 90.2653 67.5157 89.5967C67.373 89.0483 67.0988 88.3834 66.6217 88.3271C66.3062 88.2933 65.4047 88.5074 63.9022 91.302C61.81 95.1972 58.9065 101.917 57.8097 105.403C57.265 107.149 56.6565 107.998 55.9541 107.998C55.109 107.998 54.3465 106.729 53.6178 104.159C52.3857 99.806 50.748 91.3395 53.6178 83.5304C56.6227 75.3531 56.8143 71.6157 56.1645 68.5056C55.8367 67.1164 55.4304 65.7469 54.9475 64.4038C53.8781 61.4563 53.0969 58.412 52.6148 55.3138C51.6533 48.5977 53.4525 43.5869 57.682 41.2092C59.6765 40.0824 61.765 39.4476 63.782 38.8241C66.355 38.0353 68.7853 37.2878 70.6484 35.635C71.3996 34.9627 72.1171 34.2265 72.8082 33.5128C75.4976 30.7219 78.281 27.8372 84.6027 27.8372C91.7395 27.8372 94.3087 30.1885 97.8395 33.4414C98.2152 33.817 98.6396 34.1927 99.0678 34.5683C102.617 37.7648 105.078 38.1667 107.947 38.6325C108.488 38.7189 109.041 38.809 109.623 38.9217C113.334 39.6354 118.037 43.8348 116.872 50.9416C116.384 53.9465 115.851 56.1514 115.34 58.2962C114.57 61.1846 114.033 64.1302 113.736 67.1045C113.157 73.4901 114.036 76.9383 115.99 81.4645C118.078 86.3475 118.082 95.2159 115.99 103.025C114.701 107.856 113.766 108.434 113.176 108.445H113.157C112.305 108.445 111.76 107.071 111.381 105.869C111.313 105.654 111.234 105.395 111.144 105.099C110.28 102.221 108.473 96.2376 105.04 92.703C103.162 90.7611 101.547 89.9272 100.022 90.0737C98.264 90.2578 96.4798 91.8278 94.5566 94.8666C90.8868 100.677 88.8171 105.82 87.6302 112.066C87.371 113.434 87.1494 114.774 86.9353 116.067C86.2066 120.514 85.6281 124.022 84.0993 124.593C83.9905 124.654 83.8704 124.693 83.7463 124.706ZM66.5504 87.9477H66.6668C67.2265 88.0153 67.6397 88.5374 67.8913 89.5028C68.0716 90.1901 68.3421 91.6325 68.7139 93.6346C69.5178 97.9467 70.7348 104.464 72.2898 109.914C74.0891 116.202 79.6708 122.452 82.7246 123.992C83.273 124.27 83.7125 124.368 83.9604 124.278C85.275 123.786 85.8648 120.202 86.5484 116.055C86.7625 114.756 86.9841 113.426 87.2433 112.044C88.4378 105.745 90.5262 100.561 94.2261 94.7089C96.2394 91.5161 98.0687 89.9385 99.9768 89.7356C101.63 89.5629 103.327 90.4305 105.314 92.4664C108.815 96.0536 110.637 102.097 111.516 105.005C111.602 105.298 111.681 105.557 111.749 105.756C112.346 107.656 112.842 108.058 113.154 108.058C113.559 108.058 114.416 107.371 115.603 102.924C117.665 95.1897 117.669 86.4302 115.603 81.6185C113.642 77.0322 112.752 73.5201 113.349 67.0707C113.646 64.0827 114.183 61.1234 114.953 58.2211C115.464 56.0838 115.993 53.8752 116.482 50.8965C117.608 44.0489 113.101 40.0035 109.54 39.3236C108.965 39.2109 108.413 39.1208 107.876 39.0344C104.958 38.5574 102.437 38.1479 98.8011 34.8763C98.3729 34.4881 97.9622 34.1125 97.5691 33.7494C94.1021 30.5567 91.5967 28.2466 84.5952 28.2466C78.4388 28.2466 75.7155 31.075 73.0786 33.8058C72.3875 34.5232 71.6701 35.2669 70.9001 35.9468C68.9731 37.6559 66.5015 38.4184 63.8872 39.2222C61.8889 39.8345 59.823 40.4693 57.8773 41.5736C53.8018 43.8649 52.0702 48.7329 52.9942 55.28C53.4729 58.3525 54.2478 61.3716 55.308 64.2949C55.7974 65.6474 56.2088 67.027 56.5401 68.4267C57.3326 72.213 56.6152 76.4838 53.9746 83.6506C51.1424 91.3546 52.7613 99.7309 53.9746 104.039C54.8761 107.236 55.6499 107.589 55.9391 107.593C56.2246 107.593 56.7917 107.288 57.4416 105.271C58.5421 101.767 61.457 95.0131 63.5567 91.1029C64.6948 88.9994 65.6977 87.9289 66.5504 87.9289V87.9477Z" fill="#E0E0E0"/>
<path d="M115.985 81.4543L115.603 81.6185L115.985 81.4543ZM113.736 67.1045C113.736 67.1052 113.736 67.1058 113.736 67.1065L115.34 58.2962C115.338 58.3017 115.337 58.3071 115.335 58.3125C115.335 58.3157 115.334 58.3188 115.333 58.322C114.567 61.2021 114.033 64.139 113.736 67.1045Z" stroke="black" stroke-opacity="0.25"/>
<defs>
<filter id="filter0_d_374_1323" x="0" y="70.4125" width="139" height="85.5769" filterUnits="userSpaceOnUse" color-interpolation-filters="sRGB">
<feFlood flood-opacity="0" result="BackgroundImageFix"/>
<feColorMatrix in="SourceAlpha" type="matrix" values="0 0 0 0 0 0 0 0 0 0 0 0 0 0 0 0 0 0 127 0" result="hardAlpha"/>
<feOffset dy="4"/>
<feGaussianBlur stdDeviation="2"/>
<feComposite in2="hardAlpha" operator="out"/>
<feColorMatrix type="matrix" values="0 0 0 0 0 0 0 0 0 0 0 0 0 0 0 0 0 0 0.25 0"/>
<feBlend mode="normal" in2="BackgroundImageFix" result="effect1_dropShadow_374_1323"/>
<feBlend mode="normal" in="SourceGraphic" in2="effect1_dropShadow_374_1323" result="shape"/>
</filter>
</defs>
</svg>
