<svg width="25" height="25" viewBox="0 0 25 25" fill="none" xmlns="http://www.w3.org/2000/svg">
<path d="M0 0H25V25H0V0Z" fill="white" fill-opacity="0.01"/>
<path d="M12.4999 22.9166C18.2529 22.9166 22.9166 18.2529 22.9166 12.5C22.9166 6.74701 18.2529 2.08331 12.4999 2.08331C6.74695 2.08331 2.08325 6.74701 2.08325 12.5C2.08325 18.2529 6.74695 22.9166 12.4999 22.9166Z" stroke="#263238" stroke-linejoin="round"/>
<path d="M7.29175 14.0625C8.15469 14.0625 8.85425 13.3629 8.85425 12.5C8.85425 11.6371 8.15469 10.9375 7.29175 10.9375C6.4288 10.9375 5.72925 11.6371 5.72925 12.5C5.72925 13.3629 6.4288 14.0625 7.29175 14.0625Z" fill="#263238"/>
<path d="M12.5 14.0625C13.3629 14.0625 14.0625 13.3629 14.0625 12.5C14.0625 11.6371 13.3629 10.9375 12.5 10.9375C11.6371 10.9375 10.9375 11.6371 10.9375 12.5C10.9375 13.3629 11.6371 14.0625 12.5 14.0625Z" fill="#263238"/>
<path d="M17.7083 14.0625C18.5712 14.0625 19.2708 13.3629 19.2708 12.5C19.2708 11.6371 18.5712 10.9375 17.7083 10.9375C16.8453 10.9375 16.1458 11.6371 16.1458 12.5C16.1458 13.3629 16.8453 14.0625 17.7083 14.0625Z" fill="#263238"/>
</svg>
