<svg width="108" height="115" viewBox="0 0 108 115" fill="none" xmlns="http://www.w3.org/2000/svg">
<g filter="url(#filter0_d_227_106)">
<path d="M21.1771 55.9657C24.7554 36.1916 36.6584 41.1156 50.8382 43.9036C44.965 41.3738 42.3934 38.4658 36.1264 37.081C31.3198 35.996 25.9811 35.5996 21.3936 37.6756C17.3799 39.4934 14.751 42.816 13.0297 46.7907C11.4283 50.528 11.3684 56.4404 12.1612 63.1639C14.039 63.7376 19.0803 65.7328 20.9607 66.2074C20.6034 62.5692 20.6034 59.0901 21.1771 55.9657Z" fill="#263238"/>
<path d="M28.9882 97.9053C26.5549 90.6681 24.4998 84.3019 22.3638 74.6522C20.387 73.9793 15.2857 71.7651 13.3661 70.954C15.6612 83.2143 19.7141 96.3223 22.0274 103.205C22.9767 106.053 24.2625 109.472 26.0229 111.944C27.1887 113.585 28.8109 115.048 30.9651 114.97C33.3384 114.871 35.4144 113.05 36.5411 111.154C45.4397 96.1658 53.1698 99.5458 54.2391 99.2902C46.269 91.2809 32.5065 108.423 28.9882 97.9053Z" fill="#263238"/>
<path d="M81.3287 39.9497C79.3309 38.0302 76.6994 37.4773 74.0106 37.6364C57.9347 38.6431 38.2623 55.2145 36.9166 55.1363C49.0387 55.7074 76.3239 37.0626 74.2088 65.378C76.5038 64.8042 80.0612 63.4402 82.3354 62.7491C84.1949 56.2238 86.5082 44.9311 81.3287 39.9497ZM79.6465 56.3021C79.43 49.0439 77.9461 43.6062 67.6052 42.8759C76.4438 39.8715 83.2065 44.1617 79.6465 56.3021Z" fill="#263238"/>
<path d="M65.2528 97.7072C61.7528 109.61 52.6378 107.832 47.3565 101.504C47.2783 102.274 54.3382 110.223 58.3311 113.269C64.8772 118.232 67.8426 111.509 69.5039 105.834C72.7848 94.6428 76.1856 83.47 79.5083 72.2998C77.2732 73.1891 74.9599 73.9794 72.6283 74.6314C70.135 83.6291 68.2781 87.3664 65.2528 97.7072Z" fill="#263238"/>
<mask id="mask0_227_106" style="mask-type:luminance" maskUnits="userSpaceOnUse" x="0" y="62" width="35" height="14">
<path d="M0 62.3423H34.3842V75.6954H0V62.3423Z" fill="white"/>
</mask>
<g mask="url(#mask0_227_106)">
<path d="M33.7922 75.0668V70.7375C23.3314 69.7882 12.0804 67.3158 0 62.7283C10.3226 69.47 22.0665 73.4447 33.7922 75.0668Z" fill="#5E17EB"/>
</g>
<path d="M36.9557 80.3664H42.4743C42.4743 76.8665 42.4743 73.3665 42.4743 69.8456V66.0901H36.9557C36.9557 70.8758 36.9557 75.6198 36.9557 80.3664ZM41.7206 66.7421V70.9932L40.3957 67.6914L38.677 66.6821L41.7206 66.7421ZM37.806 75.2834L38.8153 78.4469L40.6748 79.7327L37.6078 79.6936L37.806 75.2834Z" fill="#5E17EB"/>
<path d="M56.709 70.5576V75.3642C70.2733 73.802 82.3745 69.1936 90.3838 62.3527C80.4368 65.9518 69.2666 69.1936 56.709 70.5576Z" fill="#5E17EB"/>
<path d="M47.633 80.3664H53.0916C53.0916 75.6015 53.0916 70.8757 53.0916 66.1083H47.633C47.633 70.8757 47.633 75.6197 47.633 80.3664ZM52.3196 67.0002L52.4187 71.5877L51.1329 68.106L48.7205 66.9402L52.3196 67.0002ZM48.5432 75.0069L49.5916 78.546L51.5085 79.9308L48.4441 79.8917L48.5432 75.0069Z" fill="#5E17EB"/>
<path d="M88.566 23.7539H88.0678C87.9609 23.7539 87.854 23.7539 87.7836 23.7174C87.6766 23.7174 87.5697 23.6809 87.4628 23.647C87.2463 23.6105 87.0324 23.5035 86.8551 23.3262C86.5708 23.1123 86.2839 22.755 86.25 22.0065C86.25 22.0065 86.2135 21.5058 86.2135 21.3623C86.177 20.6504 86.1431 20.0427 86.1431 19.4741V18.796C86.1431 18.4022 86.1431 17.9745 86.1066 17.5833C86.0701 17.1191 86.0701 16.5844 86.0362 16.0498H83.11C82.5753 16.0498 82.0772 16.0133 81.5765 15.9794H80.5072C80.3637 15.9794 80.1864 15.9794 80.0064 15.9064C79.7587 15.8359 79.5083 15.729 79.2579 15.5151C78.9371 15.2283 78.7598 14.8371 78.7598 14.4093V13.8747L78.7937 13.5878V13.0532C78.7937 12.8758 78.7598 12.662 78.7233 12.4116C78.6529 11.9839 78.6163 11.5562 78.5798 11.1624L78.5459 10.9146C78.5094 10.7007 78.5094 10.4869 78.4729 10.2365V9.30805C78.4729 9.20112 78.4729 9.09419 78.5094 9.02377C78.5094 8.91684 78.5459 8.80991 78.5798 8.70298C78.6529 8.48913 78.7233 8.27527 78.9006 8.09531C79.1171 7.88146 79.4718 7.56067 80.2203 7.52416L80.8645 7.49025C81.5765 7.45374 82.1841 7.41723 82.7527 7.41723H83.4308C83.8246 7.41723 84.2158 7.41723 84.6435 7.38332C85.0008 7.38332 85.392 7.34681 85.7858 7.34681C85.8197 6.74175 85.8562 6.09757 85.9266 5.52902C85.9266 5.31516 85.9632 5.1013 85.9632 4.85093L86.0701 3.46085L86.1066 3.06704C86.177 2.53239 86.2135 1.96124 86.2839 1.39008C86.3205 0.962362 86.6412 0.641575 86.8916 0.464229C86.962 0.427717 87.0324 0.357299 87.1394 0.320787C87.3532 0.143441 87.6401 0.0365124 87.9244 0.0365124H88.1043C88.459 -3.33286e-07 88.8163 0 89.1736 0H89.3875C89.9926 0 90.6002 0.0365129 91.0984 0.106929H91.4191C91.7425 0.106929 92.1337 0.106929 92.5615 0.177346H92.6684C92.8118 0.177346 92.9527 0.213858 93.1326 0.250371C93.4169 0.320787 93.7038 0.427716 93.9881 0.678087C94.2723 0.928457 94.4158 1.21273 94.5227 1.42659C94.5592 1.57003 94.6296 1.78389 94.6296 1.92472C94.6661 2.17509 94.7366 2.38895 94.7366 2.56891C94.7731 2.88969 94.8096 3.21048 94.8096 3.56778C94.8096 4.10243 94.8096 4.60056 94.7731 5.1013V5.45599C94.7731 5.59943 94.7731 5.70636 94.7366 5.8498C94.7366 6.02715 94.7027 6.2071 94.7027 6.42096V7.09644C95.3781 7.13295 96.0927 7.16946 96.7343 7.23988C96.9482 7.23988 97.162 7.27639 97.4124 7.27639L98.8025 7.38332L99.1963 7.41723C99.6944 7.45374 100.302 7.52416 100.871 7.59718C101.298 7.63369 101.622 7.95448 101.799 8.20224C101.836 8.27527 101.906 8.34569 101.943 8.45261C102.12 8.66647 102.227 8.95335 102.227 9.23763V9.41498C102.263 9.77227 102.263 10.1296 102.263 10.4869C102.263 11.1624 102.227 11.877 102.156 12.4481V12.7689C102.156 13.0897 102.156 13.5174 102.083 13.9086V14.0155C102.083 14.159 102.049 14.3024 102.013 14.4798C101.943 14.7666 101.836 15.0509 101.585 15.3352C101.335 15.6221 101.051 15.7629 100.837 15.8698C100.623 15.9794 100.443 16.0133 100.302 16.0498C100.052 16.0863 99.8379 16.1567 99.6579 16.1567C99.3736 16.0863 99.0528 16.0863 98.6616 16.0863H98.4452C97.9835 16.0863 97.5558 16.0498 97.1255 16.0498H96.7708C96.6274 16.0498 96.5204 16.0498 96.377 16.0133C96.1997 16.0133 96.0223 15.9794 95.8085 15.9794H94.7366V19.1168C94.7366 19.615 94.7027 20.1522 94.6661 20.6504L94.6296 21.1485V21.7196C94.6296 21.8631 94.6296 22.0404 94.5592 22.2204C94.4888 22.4681 94.3819 22.7185 94.1654 22.9689C93.8811 23.2897 93.4899 23.467 93.0622 23.467H92.9553C92.8457 23.467 92.7388 23.467 92.6319 23.4331H92.5249L92.2772 23.3966H91.7764C91.5991 23.3966 91.3852 23.4331 91.1349 23.467C90.7072 23.54 90.2794 23.5739 89.8856 23.6105L89.6379 23.647C89.424 23.6809 89.2101 23.6809 88.9598 23.7174C88.8528 23.7539 88.7094 23.7539 88.566 23.7539Z" fill="#209FDA"/>
<path d="M69.1518 35.1927H68.8493C68.7841 35.1927 68.7189 35.1927 68.6771 35.1719C68.6119 35.1719 68.5467 35.1484 68.4815 35.1275C68.3511 35.1067 68.2207 35.0415 68.1138 34.9319C67.9391 34.8015 67.7669 34.5851 67.7435 34.1313C67.7435 34.1313 67.7226 33.8287 67.7226 33.7401C67.7017 33.3071 67.6809 32.9394 67.6809 32.5925V32.1805C67.6809 31.9431 67.6809 31.6823 67.6574 31.445C67.6365 31.1633 67.6365 30.8373 67.6157 30.5113H65.837C65.5136 30.5113 65.2085 30.4905 64.9059 30.4696H64.2565C64.1705 30.4696 64.0609 30.4696 63.954 30.4253C63.8001 30.3835 63.6489 30.3183 63.4976 30.1879C63.302 30.0132 63.1951 29.7759 63.1951 29.515V29.1917L63.2159 29.0169V28.6935C63.2159 28.584 63.1951 28.4536 63.1742 28.3023C63.1299 28.0415 63.109 27.7833 63.0855 27.5434L63.0647 27.3921C63.0438 27.2617 63.0438 27.1313 63.0203 26.98V26.4167C63.0203 26.3515 63.0203 26.2863 63.0438 26.2446C63.0438 26.1794 63.0647 26.1142 63.0855 26.049C63.1299 25.9186 63.1742 25.7882 63.2811 25.6813C63.4115 25.5508 63.628 25.3552 64.0818 25.3344L64.473 25.3135C64.9059 25.29 65.2737 25.2692 65.6205 25.2692H66.0326C66.2725 25.2692 66.5099 25.2692 66.7707 25.2483C66.9871 25.2483 67.2245 25.2248 67.4618 25.2248C67.4853 24.8571 67.5061 24.4685 67.5505 24.1217C67.5505 23.9912 67.5713 23.8608 67.5713 23.7096L67.6365 22.8646L67.6574 22.6246C67.7017 22.3012 67.7226 21.9544 67.7669 21.6075C67.7878 21.3467 67.9834 21.1537 68.1347 21.0442C68.179 21.0233 68.2207 20.979 68.2859 20.9581C68.4163 20.8486 68.5885 20.7834 68.7632 20.7834H68.8701C69.0892 20.7625 69.3057 20.7625 69.5221 20.7625H69.6525C70.0203 20.7625 70.388 20.7834 70.6905 20.8277H70.8861C71.0817 20.8277 71.3191 20.8277 71.5799 20.872H71.6451C71.7311 20.872 71.8172 20.8929 71.9267 20.9138C72.0989 20.9581 72.2736 21.0233 72.4457 21.1746C72.6205 21.3258 72.7065 21.498 72.7717 21.6284C72.7926 21.7171 72.8369 21.8448 72.8369 21.9335C72.8578 22.0848 72.9021 22.2152 72.9021 22.3221C72.923 22.5177 72.9439 22.7133 72.9439 22.9298C72.9439 23.2532 72.9439 23.5583 72.923 23.8608V24.0773C72.923 24.1634 72.923 24.2286 72.9021 24.3146C72.9021 24.4242 72.8787 24.5337 72.8787 24.6615V25.0736C73.2907 25.0971 73.7237 25.1179 74.1149 25.1596C74.2453 25.1596 74.3757 25.1831 74.5269 25.1831L75.3719 25.2483L75.6093 25.2692C75.9118 25.29 76.2821 25.3344 76.629 25.3787C76.8872 25.3996 77.0828 25.5952 77.1923 25.7465C77.2132 25.7882 77.2575 25.8325 77.2784 25.8977C77.3853 26.0281 77.4505 26.2002 77.4505 26.375V26.4819C77.474 26.6984 77.474 26.9148 77.474 27.1313C77.474 27.5434 77.4505 27.9763 77.4088 28.3232V28.5188C77.4088 28.7144 77.4088 28.9752 77.3645 29.2125V29.2777C77.3645 29.3638 77.3436 29.4498 77.3201 29.5594C77.2784 29.7315 77.2132 29.9063 77.0619 30.0784C76.9107 30.2531 76.7359 30.3392 76.6055 30.4044C76.4751 30.4696 76.3682 30.4905 76.2821 30.5113C76.1309 30.5348 76.0005 30.5765 75.8909 30.5765C75.7188 30.5348 75.5232 30.5348 75.2859 30.5348H75.1555C74.8738 30.5348 74.613 30.5113 74.3522 30.5113H74.1357C74.0497 30.5113 73.9845 30.5113 73.8984 30.4905C73.7889 30.4905 73.6819 30.4696 73.5515 30.4696H72.9021V32.3761C72.9021 32.6786 72.8787 33.0046 72.8578 33.3071L72.8369 33.6097V33.9565C72.8369 34.0452 72.8369 34.1521 72.7926 34.2617C72.7509 34.4129 72.6857 34.5642 72.5553 34.7155C72.3805 34.9111 72.1432 35.018 71.8824 35.018H71.8172C71.752 35.018 71.6868 35.018 71.6242 34.9971H71.559L71.4051 34.9763H71.1026C70.9957 34.9763 70.8653 34.9971 70.714 35.018C70.4532 35.0623 70.1924 35.0832 69.9551 35.1067L69.8038 35.1275C69.6734 35.1484 69.543 35.1484 69.3917 35.1719C69.3265 35.1927 69.2405 35.1927 69.1518 35.1927Z" fill="#00BFBA"/>
<path d="M95.4277 48.8301H95.0026C94.9113 48.8301 94.8174 48.8301 94.7574 48.8014C94.6661 48.8014 94.5749 48.7701 94.4836 48.7388C94.301 48.7101 94.1184 48.6189 93.9646 48.465C93.722 48.2824 93.4769 47.9773 93.4482 47.3383C93.4482 47.3383 93.4169 46.9106 93.4169 46.7906C93.3856 46.1803 93.3569 45.6614 93.3569 45.1736V44.5947C93.3569 44.2608 93.3569 43.8957 93.3256 43.5593C93.2943 43.1629 93.2943 42.7065 93.2656 42.2501H90.7671C90.3081 42.2501 89.883 42.2188 89.4553 42.1875H88.5425C88.4199 42.1875 88.266 42.1875 88.1148 42.1275C87.9009 42.0675 87.6871 41.9762 87.4758 41.791C87.202 41.5485 87.0481 41.2121 87.0481 40.8469V40.3905L87.0794 40.148V39.689C87.0794 39.5377 87.0481 39.3551 87.0168 39.1413C86.9568 38.7762 86.9255 38.411 86.8968 38.0746L86.8655 37.8607C86.8342 37.6782 86.8342 37.4956 86.8055 37.2818V36.4889C86.8055 36.3976 86.8055 36.3064 86.8342 36.2464C86.8342 36.1551 86.8655 36.0638 86.8968 35.9725C86.9568 35.79 87.0168 35.6074 87.1707 35.4535C87.3532 35.271 87.6584 34.9971 88.2973 34.9658L88.845 34.9371C89.4553 34.9058 89.9743 34.8746 90.462 34.8746H91.041C91.3748 34.8746 91.7112 34.8746 92.0764 34.8459C92.3815 34.8459 92.7153 34.8146 93.0518 34.8146C93.0805 34.2956 93.1118 33.7479 93.1743 33.2602C93.1743 33.0776 93.203 32.8951 93.203 32.6812L93.2943 31.4919L93.3256 31.1581C93.3856 30.7017 93.4169 30.214 93.4769 29.7263C93.5082 29.3586 93.782 29.0847 93.9959 28.9335C94.0559 28.9022 94.1184 28.8422 94.2097 28.8109C94.3923 28.6596 94.6348 28.5683 94.88 28.5683H95.0313C95.3364 28.537 95.6415 28.537 95.9467 28.537H96.1292C96.6456 28.537 97.1646 28.5683 97.5923 28.6283H97.8662C98.14 28.6283 98.4765 28.6283 98.8416 28.6883H98.9329C99.0554 28.6883 99.1754 28.7196 99.3293 28.7509C99.5718 28.8109 99.817 28.9022 100.06 29.116C100.305 29.3299 100.425 29.5724 100.516 29.755C100.547 29.8776 100.607 30.0601 100.607 30.1827C100.639 30.3966 100.698 30.5791 100.698 30.7304C100.73 31.0042 100.761 31.2807 100.761 31.5832C100.761 32.0422 100.761 32.4673 100.73 32.8951V33.2002C100.73 33.3202 100.73 33.4114 100.698 33.534C100.698 33.6879 100.67 33.8392 100.67 34.0217V34.6007C101.249 34.632 101.856 34.6607 102.407 34.7233C102.589 34.7233 102.772 34.752 102.986 34.752L104.172 34.8459L104.509 34.8746C104.934 34.9058 105.453 34.9658 105.941 35.0284C106.306 35.0571 106.58 35.331 106.733 35.5448C106.762 35.6074 106.825 35.6674 106.856 35.7587C107.007 35.9412 107.099 36.1864 107.099 36.4289V36.5828C107.13 36.8853 107.13 37.1905 107.13 37.4956C107.13 38.0746 107.099 38.6849 107.039 39.1726V39.4464C107.039 39.7203 107.039 40.0854 106.976 40.4218V40.5131C106.976 40.6331 106.947 40.7557 106.916 40.9095C106.856 41.1521 106.762 41.3972 106.551 41.6398C106.337 41.8823 106.092 42.0049 105.909 42.0962C105.727 42.1875 105.576 42.2188 105.453 42.2501C105.239 42.2787 105.057 42.3413 104.905 42.3413C104.66 42.2787 104.386 42.2787 104.052 42.2787H103.87C103.473 42.2787 103.106 42.2501 102.741 42.2501H102.435C102.315 42.2501 102.224 42.2501 102.102 42.2188C101.948 42.2188 101.796 42.1875 101.614 42.1875H100.698V44.8685C100.698 45.2962 100.67 45.7526 100.639 46.1803L100.607 46.6055V47.0932C100.607 47.2157 100.607 47.3696 100.547 47.5209C100.487 47.7347 100.396 47.9486 100.211 48.1598C99.9683 48.4337 99.6318 48.5876 99.2667 48.5876H99.1754C99.0841 48.5876 98.9929 48.5876 98.9016 48.5563H98.8103L98.5964 48.5276H98.1713C98.0174 48.5276 97.8349 48.5563 97.621 48.5876C97.2559 48.6475 96.8908 48.6788 96.5543 48.7101L96.3431 48.7388C96.1605 48.7701 95.9754 48.7701 95.7641 48.8014C95.6728 48.8301 95.5503 48.8301 95.4277 48.8301Z" fill="#5E8FFF" fill-opacity="0.5"/>
</g>
<defs>
<filter id="filter0_d_227_106" x="-4" y="0" width="115.13" height="123" filterUnits="userSpaceOnUse" color-interpolation-filters="sRGB">
<feFlood flood-opacity="0" result="BackgroundImageFix"/>
<feColorMatrix in="SourceAlpha" type="matrix" values="0 0 0 0 0 0 0 0 0 0 0 0 0 0 0 0 0 0 127 0" result="hardAlpha"/>
<feOffset dy="4"/>
<feGaussianBlur stdDeviation="2"/>
<feComposite in2="hardAlpha" operator="out"/>
<feColorMatrix type="matrix" values="0 0 0 0 0 0 0 0 0 0 0 0 0 0 0 0 0 0 0.25 0"/>
<feBlend mode="normal" in2="BackgroundImageFix" result="effect1_dropShadow_227_106"/>
<feBlend mode="normal" in="SourceGraphic" in2="effect1_dropShadow_227_106" result="shape"/>
</filter>
</defs>
</svg>
