<svg width="83" height="102" viewBox="0 0 83 102" fill="none" xmlns="http://www.w3.org/2000/svg">
<g filter="url(#filter0_d_341_406)">
<path d="M69.3223 93.6999C74.6656 93.6999 78.9971 90.984 78.9971 87.6338C78.9971 84.2835 74.6656 81.5676 69.3223 81.5676C63.9791 81.5676 59.6476 84.2835 59.6476 87.6338C59.6476 90.984 63.9791 93.6999 69.3223 93.6999Z" fill="#E6E6E6"/>
</g>
<path d="M50.8378 49.0676L49.5335 48.322C49.4759 48.2788 49.4303 48.2215 49.4011 48.1557C49.3719 48.0898 49.3601 48.0176 49.3668 47.9458V39.2554C49.3798 39.0224 49.4578 38.7976 49.5921 38.6067L50.8896 39.3545C50.7597 39.545 50.6863 39.7684 50.6778 39.9988V48.6959C50.6696 48.7665 50.6801 48.8379 50.7081 48.9031C50.7362 48.9684 50.7809 49.0251 50.8378 49.0676Z" fill="#00BFBA"/>
<path opacity="0.55" d="M50.8378 49.0676L49.5335 48.322C49.4759 48.2788 49.4303 48.2215 49.4011 48.1557C49.3719 48.0898 49.3601 48.0176 49.3668 47.9458V39.2554C49.3798 39.0224 49.4578 38.7976 49.5921 38.6067L50.8896 39.3545C50.7597 39.545 50.6863 39.7684 50.6778 39.9988V48.6959C50.6696 48.7665 50.6801 48.8379 50.7081 48.9031C50.7362 48.9684 50.7809 49.0251 50.8378 49.0676Z" fill="white"/>
<path d="M51.2522 38.9761L69.4484 28.4724C69.775 28.2832 70.0385 28.4364 70.0385 28.8126V37.521C70.0277 37.7256 69.9686 37.9247 69.866 38.1021C69.7634 38.2794 69.6203 38.43 69.4484 38.5414L51.2522 49.0293C50.9278 49.2163 50.662 49.0631 50.662 48.6869V39.9988C50.6735 39.794 50.7329 39.5949 50.8354 39.4173C50.9379 39.2396 51.0807 39.0886 51.2522 38.9761Z" fill="#00BFBA"/>
<path opacity="0.7" d="M51.2522 38.9761L69.4484 28.4724C69.775 28.2832 70.0385 28.4364 70.0385 28.8126V37.521C70.0277 37.7256 69.9686 37.9247 69.866 38.1021C69.7634 38.2794 69.6203 38.43 69.4484 38.5414L51.2522 49.0293C50.9278 49.2163 50.662 49.0631 50.662 48.6869V39.9988C50.6735 39.794 50.7329 39.5949 50.8354 39.4173C50.9379 39.2396 51.0807 39.0886 51.2522 38.9761Z" fill="white"/>
<path d="M68.561 27.6863L69.8449 28.4184C69.7796 28.3941 69.7094 28.3861 69.6403 28.3951C69.5712 28.4042 69.5053 28.4299 69.4485 28.4702L51.2523 38.9761C51.0985 39.0712 50.9689 39.2008 50.8738 39.3546L49.5763 38.6067C49.6689 38.4544 49.7963 38.3263 49.948 38.2328L68.1442 27.7268C68.2236 27.6779 68.3145 27.6507 68.4078 27.648C68.4613 27.6475 68.514 27.6607 68.561 27.6863Z" fill="#00BFBA"/>
<path opacity="0.85" d="M68.561 27.6863L69.8449 28.4184C69.7796 28.3941 69.7094 28.3861 69.6403 28.3951C69.5712 28.4042 69.5053 28.4299 69.4485 28.4702L51.2523 38.9761C51.0985 39.0712 50.9689 39.2008 50.8738 39.3546L49.5763 38.6067C49.6689 38.4544 49.7963 38.3263 49.948 38.2328L68.1442 27.7268C68.2236 27.6779 68.3145 27.6507 68.4078 27.648C68.4613 27.6475 68.514 27.6607 68.561 27.6863Z" fill="white"/>
<path d="M52.6758 39.7803L68.0248 30.9007C68.1825 30.8106 68.3086 30.8737 68.3086 31.0426C68.3018 31.1379 68.2725 31.2302 68.2232 31.312C68.1738 31.3938 68.1059 31.4628 68.0248 31.5134L52.6758 40.3885C52.5204 40.4786 52.392 40.4155 52.392 40.2466C52.3997 40.1521 52.4294 40.0608 52.4787 39.9798C52.528 39.8988 52.5955 39.8305 52.6758 39.7803Z" fill="#00BFBA"/>
<path d="M52.6758 45.9929L68.0248 37.1178C68.1825 37.0277 68.3086 37.0907 68.3086 37.2619C68.3018 37.3569 68.2725 37.4489 68.2232 37.5304C68.1738 37.6118 68.1058 37.6804 68.0248 37.7305L52.6758 46.5965C52.5204 46.6866 52.392 46.6213 52.392 46.4524C52.4011 46.3592 52.4314 46.2693 52.4806 46.1897C52.5298 46.11 52.5966 46.0427 52.6758 45.9929Z" fill="#00BFBA"/>
<path d="M52.6758 42.8821L68.0248 34.0047C68.1825 33.9146 68.3086 33.9799 68.3086 34.1489C68.3014 34.2441 68.272 34.3363 68.2227 34.418C68.1734 34.4998 68.1056 34.5689 68.0248 34.6197L52.6758 43.4948C52.5204 43.5849 52.392 43.5195 52.392 43.3506C52.3994 43.2558 52.4289 43.1639 52.4782 43.0826C52.5275 43.0012 52.5952 42.9325 52.6758 42.8821Z" fill="#00BFBA"/>
<path d="M52.6758 44.4318L68.0248 35.5567C68.1825 35.4666 68.3086 35.5297 68.3086 35.6986C68.3018 35.7939 68.2725 35.8863 68.2232 35.9681C68.1738 36.0499 68.1059 36.1189 68.0248 36.1694L52.6758 45.0445C52.5204 45.1346 52.392 45.0716 52.392 44.9026C52.399 44.8074 52.4284 44.7151 52.4777 44.6333C52.527 44.5515 52.5949 44.4825 52.6758 44.4318Z" fill="#00BFBA"/>
<path d="M52.6758 41.3301L68.0248 32.455C68.1825 32.3648 68.3086 32.4279 68.3086 32.5991C68.3018 32.6941 68.2725 32.7861 68.2232 32.8676C68.1738 32.949 68.1058 33.0176 68.0248 33.0676L52.6758 41.9382C52.5204 42.0284 52.392 41.963 52.392 41.7941C52.4004 41.7001 52.4304 41.6093 52.4796 41.5288C52.5288 41.4484 52.596 41.3803 52.6758 41.3301Z" fill="#00BFBA"/>
<path d="M50.7387 35.8045L49.4998 35.0995C49.442 35.0564 49.3963 34.9991 49.3671 34.9332C49.3379 34.8673 49.3262 34.795 49.3331 34.7233V11.6075C49.3452 11.3742 49.4233 11.1493 49.5584 10.9587L50.7657 11.657C50.6429 11.8435 50.5736 12.0601 50.5653 12.2832V35.4238C50.5568 35.4971 50.5685 35.5712 50.5991 35.6383C50.6297 35.7053 50.6779 35.7628 50.7387 35.8045Z" fill="#263238"/>
<path d="M69.6603 0.678032C69.551 0.668294 69.4416 0.695242 69.3494 0.754619L51.1532 11.2606C50.9939 11.3602 50.8604 11.4961 50.7635 11.657L49.5539 10.9587C49.6479 10.8076 49.775 10.6798 49.9256 10.5848L68.1218 0.0811026C68.2007 0.0308631 68.2918 0.00284851 68.3853 1.02048e-05C68.4388 -0.000419985 68.4915 0.0127576 68.5385 0.0383038L69.6603 0.678032Z" fill="#37474F"/>
<path d="M51.1532 11.2606L69.3494 0.75687C69.676 0.567655 69.9396 0.720829 69.9396 1.09701V24.2579C69.9288 24.4625 69.8697 24.6616 69.7671 24.839C69.6645 25.0163 69.5214 25.1669 69.3494 25.2783L51.1555 35.7662C50.8288 35.9532 50.563 35.8 50.563 35.4238V12.2832C50.5746 12.0785 50.634 11.8793 50.7365 11.7017C50.839 11.5241 50.9817 11.373 51.1532 11.2606Z" fill="#455A64"/>
<path d="M52.1623 12.0152L68.4934 2.58595C68.7862 2.41701 69.0227 2.55442 69.0227 2.8923V23.6925C69.0128 23.8762 68.9597 24.0549 68.8677 24.2142C68.7758 24.3735 68.6475 24.5089 68.4934 24.6093L52.1623 34.0205C51.8694 34.1894 51.6329 34.052 51.6329 33.7141V12.932C51.6428 12.7483 51.6959 12.5695 51.7879 12.4102C51.8799 12.2509 52.0081 12.1156 52.1623 12.0152Z" fill="#F0F0F0"/>
<mask id="mask0_341_406" style="mask-type:luminance" maskUnits="userSpaceOnUse" x="51" y="2" width="19" height="33">
<path d="M52.1623 12.0152L68.4934 2.58595C68.7862 2.41701 69.0227 2.55442 69.0227 2.8923V23.6925C69.0128 23.8762 68.9597 24.0549 68.8677 24.2142C68.7758 24.3735 68.6475 24.5089 68.4934 24.6093L52.1623 34.0205C51.8694 34.1894 51.6329 34.052 51.6329 33.7141V12.932C51.6428 12.7483 51.6959 12.5695 51.7879 12.4102C51.8799 12.2509 52.0081 12.1156 52.1623 12.0152Z" fill="white"/>
</mask>
<g mask="url(#mask0_341_406)">
<path d="M65.7385 20.5389C65.4517 20.0378 64.996 19.655 64.453 19.459C63.9099 19.263 63.3148 19.2665 62.7741 19.4689C62.7741 19.4689 62.6795 21.2101 63.5715 23.7105C63.5715 23.7105 67.4572 29.3734 68.2321 29.9005L69.3065 26.337C69.3065 26.337 66.4706 21.6854 65.7385 20.5389Z" fill="#B16668"/>
<path d="M56.217 21.7485C55.3002 22.0977 55.4376 23.1 55.4669 23.9898C55.4826 24.5372 55.5727 25.4652 55.6313 26.7379L55.8926 30.8354L55.834 39.724C58.8142 40.7399 62.6052 39.8456 65.7859 36.3113C65.7859 36.3113 65.6079 24.9359 65.6079 23.0685C65.6079 22.9829 65.6079 22.8996 65.6079 22.814C65.4953 20.2596 64.2271 19.1671 62.7787 19.4734C62.3147 19.5725 61.31 19.8924 60.6455 20.0996L58.8209 20.6898C58.8209 20.6898 57.1315 21.3994 56.217 21.7485Z" fill="#00BFBA"/>
<path opacity="0.2" d="M56.217 21.7485C55.3002 22.0977 55.4376 23.1 55.4669 23.9898C55.4826 24.5372 55.5727 25.4652 55.6313 26.7379L55.8926 30.8354L55.834 39.724C58.8142 40.7399 62.6052 39.8456 65.7859 36.3113C65.7859 36.3113 65.6079 24.9359 65.6079 23.0685C65.6079 22.9829 65.6079 22.8996 65.6079 22.814C65.4953 20.2596 64.2271 19.1671 62.7787 19.4734C62.3147 19.5725 61.31 19.8924 60.6455 20.0996L58.8209 20.6898C58.8209 20.6898 57.1315 21.3994 56.217 21.7485Z" fill="black"/>
<path d="M63.1187 12.8982C63.1187 12.076 63.2471 10.997 64.0828 10.6028C64.5063 10.4023 65.11 10.319 65.5132 10.5803C65.9164 10.8416 66.1732 11.211 66.1011 11.7246C66.0306 12.108 65.8387 12.4587 65.5537 12.7247C65.5045 12.7627 65.4676 12.8144 65.4479 12.8734C65.4403 12.9209 65.4442 12.9696 65.4591 13.0153C65.5673 13.5221 65.5605 14.1033 65.2159 14.4907C65.0973 14.6225 64.9474 14.7223 64.7801 14.781C64.6128 14.8396 64.4334 14.8553 64.2585 14.8264C64.062 14.7799 63.8787 14.6892 63.7226 14.5612C63.5664 14.4331 63.4415 14.2711 63.3575 14.0875C63.1858 13.7153 63.104 13.3079 63.1187 12.8982Z" fill="#263238"/>
<path d="M57.609 15.786C57.609 15.786 58.073 18.1759 58.2577 18.5386C58.3134 18.6442 58.3948 18.734 58.4944 18.7998C58.594 18.8655 58.7086 18.9051 58.8276 18.9148L58.7961 17.1578L57.609 15.786Z" fill="#263238"/>
<path d="M58.1789 12.0309C58.1789 12.0309 57.7487 12.1368 57.7284 12.1481C57.53 12.2221 57.3517 12.3417 57.208 12.4972C57.0964 12.6159 57.0151 12.7598 56.9712 12.9167C56.9272 13.0736 56.9219 13.2389 56.9558 13.3983C57.028 13.6305 57.1592 13.84 57.3364 14.0064C57.2 14.1456 57.0935 14.3112 57.0233 14.493C56.9546 14.6767 56.9546 14.8791 57.0233 15.0629C57.0713 15.1698 57.1335 15.2698 57.208 15.3602C57.3725 15.5697 57.5662 15.7747 57.85 15.7432C58.0573 15.7206 58.2667 15.6869 58.474 15.6598L58.1789 12.0309Z" fill="#263238"/>
<path d="M58.7353 15.599C58.5618 15.7679 58.3118 15.4458 58.0956 15.2431C57.8793 15.0404 57.1765 14.8737 56.8251 15.822C56.4737 16.7703 57.136 17.7592 57.6901 17.8133C58.6452 17.9034 58.7893 17.1578 58.7893 17.1578L58.8209 21.0817C59.8638 23.2645 64.1617 22.4333 61.9745 20.1672V18.9621C62.4125 18.9239 62.8443 18.8332 63.2607 18.6918C63.9635 18.3787 64.4072 17.6196 64.6122 16.6847C64.9546 15.1823 64.9253 14.2925 64.8104 11.5827C64.7316 9.72206 61.4136 9.14766 59.7602 10.792C58.1068 12.4364 58.7353 15.599 58.7353 15.599Z" fill="#B16668"/>
<path d="M58.091 15.2431C57.9784 15.1552 57.9897 14.8985 57.9829 14.7746C57.9713 14.4742 57.9766 14.1734 57.9987 13.8735C58.028 13.4005 58.1586 12.9049 58.0505 12.4409C57.9968 12.2722 57.9807 12.0939 58.0032 11.9183C58.016 11.8304 58.0566 11.7489 58.119 11.6857C58.1814 11.6225 58.2624 11.5809 58.3501 11.5669C58.2465 11.2959 58.2179 11.0019 58.2673 10.716C58.3168 10.4301 58.4424 10.1628 58.6311 9.94232C58.8197 9.72185 59.0644 9.55635 59.3392 9.46327C59.614 9.3702 59.9089 9.35299 60.1927 9.41346C60.2688 9.1539 60.4136 8.91972 60.6119 8.73573C60.8101 8.55174 61.0544 8.42478 61.319 8.36827C61.6219 8.30435 61.9357 8.31518 62.2335 8.39981C62.3852 8.44083 62.5261 8.51478 62.646 8.6164C62.7659 8.71801 62.8619 8.84479 62.9273 8.98773C63.1143 8.58677 63.7607 8.22636 64.3509 8.29394C64.8465 8.35251 65.3556 8.65886 65.5245 9.05981C65.6397 9.32019 65.6992 9.60177 65.6992 9.8865C65.6992 10.1712 65.6397 10.4528 65.5245 10.7132C65.4322 10.8942 65.3019 11.0531 65.1425 11.1791C64.9831 11.3051 64.7984 11.3951 64.601 11.443C64.1986 11.5404 63.774 11.474 63.4206 11.2583C63.4197 11.4713 63.3502 11.6784 63.2224 11.8488C63.0946 12.0192 62.9153 12.1439 62.7111 12.2044C62.4272 12.2961 62.124 12.3108 61.8326 12.2472C61.5586 12.1425 61.3094 11.9822 61.1005 11.7764C61.0823 11.9689 61.0115 12.1526 60.8959 12.3075C60.7803 12.4625 60.6243 12.5827 60.445 12.6549C60.2649 12.7225 60.0723 12.75 59.8805 12.7356C59.6888 12.7212 59.5024 12.6652 59.3345 12.5716C59.4182 12.8395 59.4652 13.1176 59.4741 13.3983C59.4866 13.5441 59.4643 13.6908 59.4088 13.8262C59.3787 13.8922 59.3306 13.9483 59.27 13.9882C59.2095 14.028 59.1389 14.05 59.0664 14.0515C59.2288 14.4619 59.2869 14.9061 59.2353 15.3445C59.2304 15.5198 59.1615 15.6872 59.0416 15.8153C58.6519 16.1757 58.3321 15.4323 58.091 15.2431Z" fill="#263238"/>
<path d="M58.1811 12.2539L57.1224 11.8823C57.2733 11.4926 57.6315 11.2606 57.9243 11.3619C58.2171 11.4633 58.3298 11.8643 58.1811 12.2539Z" fill="#263238"/>
<path d="M61.9631 18.9621C61.9631 18.9621 60.3863 19.0161 59.8457 18.8269C59.5168 18.7123 59.2448 18.475 59.0866 18.1647C59.1638 18.4928 59.3114 18.8002 59.5191 19.0657C59.9201 19.55 61.9631 19.4396 61.9631 19.4396V18.9621Z" fill="#9A4A4D"/>
<path d="M61.5578 14.7025C61.5574 14.8008 61.527 14.8966 61.4706 14.9771C61.4143 15.0576 61.3347 15.119 61.2424 15.153C61.069 15.2003 60.9271 15.0674 60.9271 14.8602C60.9278 14.762 60.9583 14.6663 61.0146 14.5858C61.0709 14.5053 61.1504 14.4439 61.2424 14.4097C61.4159 14.3623 61.5578 14.4952 61.5578 14.7025Z" fill="#263238"/>
<path d="M61.319 13.6708L60.5531 14.1574C60.5198 14.0415 60.5236 13.9182 60.564 13.8047C60.6044 13.6912 60.6794 13.5931 60.7784 13.5244C60.8218 13.4925 60.8717 13.4709 60.9246 13.461C60.9776 13.4512 61.032 13.4533 61.0839 13.4674C61.1359 13.4815 61.184 13.5071 61.2247 13.5423C61.2654 13.5775 61.2976 13.6214 61.319 13.6708Z" fill="#263238"/>
<path d="M61.8212 16.8267L62.5376 16.9438C62.5174 17.0579 62.4574 17.1612 62.3684 17.2354C62.2793 17.3096 62.1669 17.35 62.051 17.3492C61.8528 17.3177 61.7492 17.0834 61.8212 16.8267Z" fill="#9A4A4D"/>
<path d="M64.405 13.5199L63.7923 13.1392C63.9162 12.9027 64.155 12.7968 64.3239 12.9004C64.4104 12.9762 64.4664 13.0809 64.4813 13.1949C64.4962 13.3089 64.4691 13.4244 64.405 13.5199Z" fill="#263238"/>
<path d="M64.245 14.0695C64.2448 14.1675 64.2147 14.2632 64.1588 14.3437C64.1028 14.4241 64.0237 14.4857 63.9319 14.52C63.7585 14.5673 63.6165 14.4344 63.6165 14.2272C63.6175 14.1291 63.6482 14.0335 63.7045 13.9531C63.7607 13.8727 63.84 13.8112 63.9319 13.7767C64.1053 13.7294 64.245 13.86 64.245 14.0695Z" fill="#263238"/>
<path d="M62.5375 14.1574L62.5735 16.3469L63.6998 15.7589L62.5375 14.1574Z" fill="#9A4A4D"/>
<path d="M55.647 40.4966C55.6983 41.088 55.8692 41.6627 56.1494 42.186C56.4598 42.6729 56.8391 43.1122 57.2756 43.4903C57.3223 43.526 57.3562 43.5757 57.3725 43.6322C57.3883 43.7493 57.2554 43.8304 57.1472 43.8574C56.901 43.894 56.6496 43.8447 56.4354 43.7178C56.2749 43.6239 56.1272 43.5096 55.9962 43.3776C55.9511 43.3371 55.6718 43.1389 55.6718 43.0938C55.7603 43.5682 55.9262 44.0248 56.1629 44.4453C56.3957 44.8072 56.6056 45.1834 56.7913 45.5716C56.8972 45.8262 56.9468 46.155 56.7508 46.3488C56.6679 46.4189 56.57 46.469 56.4647 46.4952C56.108 46.5957 55.7309 46.5999 55.3721 46.5073C55.0132 46.4147 54.6852 46.2286 54.4216 45.9681C54.1906 45.7169 53.9978 45.433 53.8495 45.1256C53.7593 44.9566 53.6781 44.7829 53.6062 44.6053C53.4863 44.2956 53.3936 43.976 53.3291 43.6502C53.1557 42.8685 53.0904 42.0734 52.971 41.2895C52.6163 38.7929 52.4747 36.2707 52.5475 33.7502C52.953 25.4022 53.5229 22.5797 56.2214 21.7485C56.9851 22.3162 57.3274 24.7467 56.5233 26.9136C56.1242 29.3342 55.8625 31.7753 55.7394 34.2255C55.6898 35.3833 55.5029 37.7169 55.5569 38.8747C55.5817 39.3928 55.5817 39.9109 55.647 40.4966Z" fill="#B16668"/>
</g>
<path d="M1.49095 77.54L0.186718 76.7944C0.129086 76.7512 0.0834999 76.6939 0.0543167 76.6281C0.0251334 76.5622 0.013328 76.49 0.0200278 76.4182V67.7301C0.0329644 67.497 0.111005 67.2723 0.245284 67.0814L1.52024 67.8292C1.39035 68.0197 1.31694 68.243 1.30849 68.4734V77.1593C1.30102 77.2334 1.31409 77.3081 1.34627 77.3753C1.37846 77.4424 1.42851 77.4994 1.49095 77.54Z" fill="#00BFBA"/>
<path opacity="0.55" d="M1.49095 77.54L0.186718 76.7944C0.129086 76.7512 0.0834999 76.6939 0.0543167 76.6281C0.0251334 76.5622 0.013328 76.49 0.0200278 76.4182V67.7301C0.0329644 67.497 0.111005 67.2723 0.245284 67.0814L1.52024 67.8292C1.39035 68.0197 1.31694 68.243 1.30849 68.4734V77.1593C1.30102 77.2334 1.31409 77.3081 1.34627 77.3753C1.37846 77.4424 1.42851 77.4994 1.49095 77.54Z" fill="white"/>
<path d="M1.90534 67.4508L20.1016 56.9448C20.4259 56.7556 20.6917 56.9088 20.6917 57.285V65.9934C20.6801 66.1984 20.6204 66.3977 20.5175 66.5754C20.4146 66.753 20.2713 66.904 20.0993 67.016L1.90534 77.5017C1.57872 77.6887 1.31517 77.5355 1.31517 77.1593V68.4712C1.32599 68.2666 1.38511 68.0675 1.48769 67.8901C1.59027 67.7127 1.73339 67.5622 1.90534 67.4508Z" fill="#00BFBA"/>
<path opacity="0.7" d="M1.90534 67.4508L20.1016 56.9448C20.4259 56.7556 20.6917 56.9088 20.6917 57.285V65.9934C20.6801 66.1984 20.6204 66.3977 20.5175 66.5754C20.4146 66.753 20.2713 66.904 20.0993 67.016L1.90534 77.5017C1.57872 77.6887 1.31517 77.5355 1.31517 77.1593V68.4712C1.32599 68.2666 1.38511 68.0675 1.48769 67.8901C1.59027 67.7127 1.73339 67.5622 1.90534 67.4508Z" fill="white"/>
<path d="M19.2141 56.1609L20.498 56.893C20.4327 56.8687 20.3625 56.8608 20.2934 56.8698C20.2243 56.8788 20.1584 56.9046 20.1016 56.9448L1.90536 67.4508C1.74914 67.5451 1.61721 67.6747 1.52017 67.8292L0.222697 67.0814C0.318289 66.9316 0.447964 66.8065 0.601127 66.7165L18.7973 56.2105C18.8767 56.1615 18.9676 56.1344 19.0609 56.1317C19.1136 56.1284 19.1663 56.1385 19.2141 56.1609Z" fill="#00BFBA"/>
<path opacity="0.85" d="M19.2141 56.1609L20.498 56.893C20.4327 56.8687 20.3625 56.8608 20.2934 56.8698C20.2243 56.8788 20.1584 56.9046 20.1016 56.9448L1.90536 67.4508C1.74914 67.5451 1.61721 67.6747 1.52017 67.8292L0.222697 67.0814C0.318289 66.9316 0.447964 66.8065 0.601127 66.7165L18.7973 56.2105C18.8767 56.1615 18.9676 56.1344 19.0609 56.1317C19.1136 56.1284 19.1663 56.1385 19.2141 56.1609Z" fill="white"/>
<path d="M3.32218 68.2527L18.6712 59.3776C18.8266 59.2875 18.955 59.3506 18.955 59.5218C18.9476 59.6166 18.9181 59.7084 18.8688 59.7898C18.8195 59.8712 18.7518 59.9398 18.6712 59.9903L3.32218 68.8654C3.1645 68.9555 3.03836 68.8924 3.03836 68.7235C3.0452 68.6282 3.07448 68.5359 3.12381 68.4541C3.17314 68.3722 3.24111 68.3032 3.32218 68.2527Z" fill="#00BFBA"/>
<path d="M3.32218 74.4563L18.6779 65.5902C18.8333 65.5001 18.9617 65.5654 18.9617 65.7343C18.9544 65.8292 18.9249 65.921 18.8756 66.0024C18.8263 66.0837 18.7586 66.1524 18.6779 66.2029L3.32218 75.069C3.1645 75.1591 3.03836 75.0937 3.03836 74.9248C3.04519 74.8298 3.07449 74.7378 3.12383 74.6563C3.17317 74.5749 3.24116 74.5063 3.32218 74.4563Z" fill="#00BFBA"/>
<path d="M3.32218 71.3545L18.6712 62.4794C18.8266 62.3893 18.955 62.4523 18.955 62.6213C18.9476 62.7164 18.9181 62.8086 18.8688 62.8903C18.8195 62.972 18.7519 63.0411 18.6712 63.0921L3.32218 71.9672C3.1645 72.0573 3.03836 71.9942 3.03836 71.8253C3.04484 71.7299 3.07398 71.6374 3.12333 71.5555C3.17269 71.4737 3.24086 71.4047 3.32218 71.3545Z" fill="#00BFBA"/>
<path d="M3.32218 72.9043L18.6712 64.0291C18.8266 63.939 18.955 64.0021 18.955 64.1711C18.948 64.2663 18.9186 64.3586 18.8693 64.4403C18.82 64.5221 18.7521 64.5912 18.6712 64.6418L3.32218 73.5169C3.1645 73.6071 3.03836 73.544 3.03836 73.375C3.0452 73.2797 3.07448 73.1874 3.12381 73.1056C3.17314 73.0238 3.24111 72.9548 3.32218 72.9043Z" fill="#00BFBA"/>
<path d="M3.32218 69.8047L18.6712 60.9274C18.8266 60.8373 18.955 60.9026 18.955 61.0715C18.9476 61.1664 18.9181 61.2582 18.8688 61.3396C18.8195 61.4209 18.7518 61.4896 18.6712 61.5401L3.32218 70.4174C3.1645 70.5075 3.03836 70.4422 3.03836 70.2732C3.04519 70.1783 3.07449 70.0862 3.12383 70.0048C3.17317 69.9233 3.24116 69.8548 3.32218 69.8047Z" fill="#00BFBA"/>
<path d="M1.41429 64.2386L0.168625 63.5426C0.11083 63.4995 0.0651231 63.4423 0.0359227 63.3764C0.00672224 63.3105 -0.00498442 63.2382 0.00193536 63.1664V40.0506C0.0140241 39.8174 0.0921441 39.5924 0.227192 39.4019L1.43457 40.1002C1.31173 40.2866 1.24239 40.5032 1.23409 40.7264V63.867C1.22806 63.9394 1.24161 64.0121 1.27331 64.0775C1.30502 64.1428 1.35371 64.1985 1.41429 64.2386Z" fill="#263238"/>
<path d="M20.3358 29.1212C20.2265 29.1114 20.1172 29.1384 20.0249 29.1977L1.82874 39.7037C1.66945 39.8033 1.53593 39.9392 1.43904 40.1002L0.229416 39.4019C0.323468 39.2507 0.45054 39.1229 0.601089 39.0279L18.7973 28.5242C18.8763 28.474 18.9673 28.446 19.0608 28.4431C19.1143 28.4427 19.167 28.4559 19.214 28.4814L20.3358 29.1212Z" fill="#37474F"/>
<path d="M1.82875 39.7015L20.025 29.1977C20.3493 29.0085 20.6151 29.1617 20.6151 29.5379V52.6987C20.6036 52.9035 20.5442 53.1027 20.4417 53.2803C20.3392 53.4579 20.1965 53.609 20.025 53.7214L1.82875 64.2071C1.50213 64.3941 1.23858 64.2431 1.23858 63.867V40.7241C1.24976 40.5193 1.30901 40.32 1.41155 40.1423C1.51408 39.9646 1.657 39.8136 1.82875 39.7015Z" fill="#455A64"/>
<path d="M2.76133 40.42L19.0902 30.9908C19.383 30.8218 19.6195 30.9593 19.6195 31.2971V52.0748C19.61 52.2586 19.5571 52.4375 19.465 52.5968C19.373 52.7562 19.2446 52.8915 19.0902 52.9916L2.76133 62.4141C2.4685 62.583 2.23198 62.4456 2.23198 62.1077V41.3368C2.24187 41.1531 2.29496 40.9744 2.38694 40.8151C2.47892 40.6558 2.60719 40.5204 2.76133 40.42Z" fill="#F0F0F0"/>
<mask id="mask1_341_406" style="mask-type:luminance" maskUnits="userSpaceOnUse" x="2" y="30" width="18" height="33">
<path d="M2.76133 40.42L19.0902 30.9908C19.383 30.8218 19.6195 30.9593 19.6195 31.2971V52.0748C19.61 52.2586 19.5571 52.4375 19.465 52.5968C19.373 52.7562 19.2446 52.8915 19.0902 52.9916L2.76133 62.4141C2.4685 62.583 2.23198 62.4456 2.23198 62.1077V41.3368C2.24187 41.1531 2.29496 40.9744 2.38694 40.8151C2.47892 40.6558 2.60719 40.5204 2.76133 40.42Z" fill="white"/>
</mask>
<g mask="url(#mask1_341_406)">
<path d="M15.8735 49.0901C14.5985 47.4345 12.4946 47.6688 12.4946 47.6688C12.6801 49.1081 13.0301 50.5214 13.5376 51.8811C13.5376 51.8811 17.4255 57.5417 18.2004 58.0711L19.2748 54.5053C19.2748 54.5053 16.7002 50.1669 15.8735 49.0901Z" fill="#FFBDA7"/>
<path d="M12.0397 47.7499C12.5907 47.5729 13.1691 47.4966 13.7471 47.5246C14.6639 47.5832 15.7925 48.6216 16.466 49.7028C17.367 51.149 17.9662 52.1807 17.9662 52.1807C17.9662 52.1807 17.6666 53.8791 15.3487 54.6112L13.2043 51.8135L12.0397 47.7499Z" fill="#00BFBA"/>
<path opacity="0.5" d="M12.0397 47.7499C12.5907 47.5729 13.1691 47.4966 13.7471 47.5246C14.6639 47.5832 15.7925 48.6216 16.466 49.7028C17.367 51.149 17.9662 52.1807 17.9662 52.1807C17.9662 52.1807 17.6666 53.8791 15.3487 54.6112L13.2043 51.8135L12.0397 47.7499Z" fill="black"/>
<path d="M6.12441 54.3859L5.82482 59.1163L6.06585 67.9666C9.04599 68.9825 12.8371 68.0883 16.0177 64.554C16.0177 64.554 15.887 52.8001 15.4726 50.7931C14.9747 48.3761 13.7876 47.0538 11.3819 47.9143L9.02346 48.8559L6.59745 49.8222C6.59745 49.8222 6.12441 53.4714 6.12441 54.3859Z" fill="#00BFBA"/>
<path opacity="0.4" d="M6.12441 54.3859L5.82482 59.1163L6.06585 67.9666C9.04599 68.9825 12.8371 68.0883 16.0177 64.554C16.0177 64.554 15.887 52.8001 15.4726 50.7931C14.9747 48.3761 13.7876 47.0538 11.3819 47.9143L9.02346 48.8559L6.59745 49.8222C6.59745 49.8222 6.12441 53.4714 6.12441 54.3859Z" fill="black"/>
<path d="M9.23748 41.1949C9.23748 43.1997 10.6453 44.4476 12.3911 43.9813C14.1368 43.515 15.5447 41.5148 15.5447 39.51C15.5447 37.5052 14.0467 37.5052 12.31 37.9715C10.5732 38.4378 9.23748 39.1901 9.23748 41.1949Z" fill="#263238"/>
<path d="M8.72838 45.3892L8.20128 44.7787L8.41528 43.9002L7.96476 40.429C7.7816 40.3984 7.59345 40.4274 7.428 40.5118C7.26256 40.5961 7.12856 40.7314 7.04572 40.8976C6.29111 42.2671 8.05036 46.4772 8.20128 46.77C8.25685 46.8759 8.33819 46.966 8.43779 47.0322C8.53739 47.0983 8.65205 47.1383 8.77118 47.1484L8.72838 45.3892Z" fill="#263238"/>
<path d="M8.66758 43.8304C8.49414 43.9993 8.2441 43.6772 8.02785 43.4745C7.81161 43.2718 7.10881 43.1051 6.75741 44.0534C6.40601 45.0017 7.06601 45.9929 7.62014 46.0447C8.57748 46.1348 8.71939 45.3892 8.71939 45.3892L8.75318 49.4663C10.3548 51.167 14.0445 50.3358 11.9068 48.4099V47.2002C12.3453 47.1621 12.7779 47.0722 13.1952 46.9322C13.898 46.6168 14.3395 45.86 14.5468 44.9229C14.8892 43.4227 15.0198 42.2491 14.7292 39.5528C14.4094 36.5974 11.3504 37.3858 9.6925 39.0302C8.03461 40.6746 8.66758 43.8304 8.66758 43.8304Z" fill="#FFBDA7"/>
<path d="M8.63601 44.1165C8.34318 44.0399 8.15171 43.5713 8.02782 43.4745C7.90393 43.3776 7.9242 43.1298 7.91969 43.006C7.93033 42.7017 7.9228 42.397 7.89717 42.0937C7.8345 41.7744 7.79983 41.4503 7.79355 41.1251C7.79355 40.4493 7.80932 39.5077 8.08638 38.8838C8.59772 37.7327 9.39512 37.4421 10.357 37.1335C11.0958 36.9083 11.9045 36.9308 12.6298 36.656C13.2231 36.3902 13.7664 36.0245 14.2359 35.5747C14.4138 35.4238 14.6616 35.2661 14.8576 35.39C14.9504 35.4623 15.0143 35.5654 15.0378 35.6806C15.1451 36.0272 15.1782 36.3926 15.1347 36.7528C15.2185 36.7589 15.3026 36.7459 15.3807 36.7147C15.4587 36.6834 15.5287 36.6349 15.5852 36.5726C15.619 36.5321 15.655 36.4848 15.7068 36.4848C15.7586 36.4848 15.8149 36.5681 15.8262 36.638C15.8687 36.9404 15.8417 37.2485 15.7474 37.539C15.3329 38.9896 13.8912 39.8681 12.4203 40.206C11.597 40.4313 10.7325 40.4622 9.89519 40.2961C9.79456 40.2747 9.68955 40.2933 9.60236 40.3479C9.52761 40.4047 9.47248 40.4835 9.44468 40.5732C9.28475 40.9854 9.44468 41.8279 9.40413 42.3955C9.34331 43.087 9.23744 43.6727 8.97615 43.9993C8.94056 44.0539 8.88779 44.0951 8.82619 44.1163C8.76458 44.1375 8.69765 44.1376 8.63601 44.1165Z" fill="#263238"/>
<path d="M7.87248 40.4876L6.81603 40.1137C6.9647 39.724 7.32285 39.492 7.61569 39.5956C7.90852 39.6992 8.0234 40.0956 7.87248 40.4876Z" fill="#263238"/>
<path d="M11.8977 47.2002C11.8977 47.2002 10.3209 47.2565 9.78257 47.0651C9.45364 46.9504 9.18169 46.7132 9.02345 46.4028C9.10039 46.7306 9.24714 47.038 9.4537 47.3039C9.85465 47.7882 11.8977 47.6778 11.8977 47.6778V47.2002Z" fill="#F0997A"/>
<path d="M11.5215 42.9204C11.5213 43.0184 11.4912 43.114 11.4352 43.1945C11.3793 43.275 11.3002 43.3365 11.2083 43.3709C11.0326 43.4159 10.893 43.2853 10.893 43.0758C10.8937 42.9776 10.9242 42.8819 10.9805 42.8014C11.0368 42.721 11.1163 42.6595 11.2083 42.6253C11.3818 42.5802 11.5215 42.7109 11.5215 42.9204Z" fill="#263238"/>
<path d="M11.017 41.5531L10.3412 42.1612C10.297 42.0483 10.2885 41.9245 10.3167 41.8066C10.3449 41.6886 10.4084 41.5821 10.4989 41.5012C10.531 41.4604 10.5728 41.4284 10.6206 41.4081C10.6684 41.3878 10.7205 41.3798 10.7721 41.385C10.8238 41.3901 10.8733 41.4082 10.9161 41.4376C10.9589 41.467 10.9936 41.5067 11.017 41.5531Z" fill="#263238"/>
<path d="M11.7559 45.0468L12.4744 45.1662C12.4529 45.2799 12.3922 45.3825 12.3029 45.4561C12.2136 45.5298 12.1014 45.5698 11.9856 45.5694C11.7896 45.5423 11.686 45.3036 11.7559 45.0468Z" fill="#F0997A"/>
<path d="M14.4048 40.9629L13.7921 40.5867C13.916 40.3615 14.1547 40.2443 14.3237 40.3615C14.4064 40.4358 14.4599 40.5371 14.4748 40.6473C14.4896 40.7574 14.4648 40.8693 14.4048 40.9629Z" fill="#263238"/>
<path d="M14.2718 42.0779C14.2712 42.1761 14.2406 42.2718 14.1843 42.3523C14.128 42.4327 14.0485 42.4942 13.9565 42.5284C13.783 42.5757 13.6434 42.4428 13.6434 42.2356C13.6416 42.1357 13.6707 42.0377 13.7267 41.9551C13.7828 41.8724 13.863 41.8091 13.9565 41.7738C14.1344 41.7378 14.2718 41.8684 14.2718 42.0779Z" fill="#263238"/>
<path d="M12.5825 42.0959L12.6185 44.2877L13.7448 43.6975L12.5825 42.0959Z" fill="#F0997A"/>
<path d="M2.3941 63.5336C3.38523 52.96 4.73226 50.3763 6.67397 50.1105C7.43534 50.6782 7.67636 53.1065 7.138 55.6248C7.138 55.6248 6.03875 61.3261 5.94189 63.3781C5.85629 65.1802 5.35848 67.3877 5.57923 68.8068C5.61977 69.0569 5.75042 69.7867 5.88558 69.9556C6.33609 70.5098 6.22571 70.7665 6.56134 71.199C6.83165 71.5369 7.27991 71.7397 7.23711 71.8748C7.17179 72.037 6.8767 72.2465 6.40817 72.0302C6.13568 71.8841 5.90355 71.6728 5.7324 71.4153C5.7324 71.4153 5.78196 72.0911 6.40817 73.1182C6.99609 74.1026 7.16954 75.1298 5.53192 74.9406C4.60612 74.8347 3.92584 74.5734 3.32666 72.1857C3.15997 71.5257 3.02482 70.3273 2.89417 69.4646C2.50898 66.9755 2.2567 64.9887 2.3941 63.5336Z" fill="#FFBDA7"/>
<path d="M6.701 49.7884C6.701 49.7884 4.73902 50.1736 4.19164 51.9982C3.74113 53.5389 3.3672 54.9265 2.88065 58.1612C3.39156 58.6285 4.0254 58.9399 4.70747 59.0588C5.38953 59.1778 6.09138 59.0992 6.73028 58.8325C6.73028 58.8325 7.76646 54.6134 7.87008 52.7168C7.98271 50.6399 6.701 49.7884 6.701 49.7884Z" fill="#00BFBA"/>
<path opacity="0.5" d="M6.701 49.7884C6.701 49.7884 4.73902 50.1736 4.19164 51.9982C3.74113 53.5389 3.3672 54.9265 2.88065 58.1612C3.39156 58.6285 4.0254 58.9399 4.70747 59.0588C5.38953 59.1778 6.09138 59.0992 6.73028 58.8325C6.73028 58.8325 7.76646 54.6134 7.87008 52.7168C7.98271 50.6399 6.701 49.7884 6.701 49.7884Z" fill="black"/>
</g>
<path d="M26.1858 63.0876L24.8816 62.342C24.8243 62.2985 24.7789 62.2411 24.7498 62.1754C24.7206 62.1096 24.7086 62.0375 24.7149 61.9658V53.2777C24.7278 53.0446 24.8059 52.8198 24.9402 52.6289L26.2376 53.3768C26.1084 53.5675 26.0358 53.7908 26.0282 54.021V62.7069C26.018 62.7786 26.0273 62.8518 26.055 62.9188C26.0828 62.9857 26.1279 63.044 26.1858 63.0876Z" fill="#00BFBA"/>
<path opacity="0.55" d="M26.1858 63.0876L24.8816 62.342C24.8243 62.2985 24.7789 62.2411 24.7498 62.1754C24.7206 62.1096 24.7086 62.0375 24.7149 61.9658V53.2777C24.7278 53.0446 24.8059 52.8198 24.9402 52.6289L26.2376 53.3768C26.1084 53.5675 26.0358 53.7908 26.0282 54.021V62.7069C26.018 62.7786 26.0273 62.8518 26.055 62.9188C26.0828 62.9857 26.1279 63.044 26.1858 63.0876Z" fill="white"/>
<path d="M26.6024 52.9983L44.7963 42.4924C45.123 42.3032 45.3865 42.4563 45.3865 42.8325V51.5409C45.3757 51.7455 45.3166 51.9447 45.214 52.122C45.1114 52.2994 44.9683 52.4499 44.7963 52.5613L26.6024 63.0493C26.2758 63.2362 26.0122 63.0831 26.0122 62.7069V54.0188C26.023 53.8141 26.0821 53.615 26.1847 53.4377C26.2873 53.2603 26.4304 53.1097 26.6024 52.9983Z" fill="#00BFBA"/>
<path opacity="0.7" d="M26.6024 52.9983L44.7963 42.4924C45.123 42.3032 45.3865 42.4563 45.3865 42.8325V51.5409C45.3757 51.7455 45.3166 51.9447 45.214 52.122C45.1114 52.2994 44.9683 52.4499 44.7963 52.5613L26.6024 63.0493C26.2758 63.2362 26.0122 63.0831 26.0122 62.7069V54.0188C26.023 53.8141 26.0821 53.615 26.1847 53.4377C26.2873 53.2603 26.4304 53.1097 26.6024 52.9983Z" fill="white"/>
<path d="M43.9089 41.713L45.1928 42.4451C45.1275 42.4208 45.0573 42.4128 44.9882 42.4218C44.9191 42.4309 44.8533 42.4566 44.7964 42.4969L26.6002 52.9983C26.4464 53.0935 26.3169 53.223 26.2217 53.3768L24.9243 52.6289C25.0168 52.4766 25.1442 52.3485 25.2959 52.255L43.4921 41.749C43.5724 41.7001 43.664 41.6729 43.7579 41.6702C43.8112 41.6708 43.8633 41.6856 43.9089 41.713Z" fill="#00BFBA"/>
<path opacity="0.85" d="M43.9089 41.713L45.1928 42.4451C45.1275 42.4208 45.0573 42.4128 44.9882 42.4218C44.9191 42.4309 44.8533 42.4566 44.7964 42.4969L26.6002 52.9983C26.4464 53.0935 26.3169 53.223 26.2217 53.3768L24.9243 52.6289C25.0168 52.4766 25.1442 52.3485 25.2959 52.255L43.4921 41.749C43.5724 41.7001 43.664 41.6729 43.7579 41.6702C43.8112 41.6708 43.8633 41.6856 43.9089 41.713Z" fill="white"/>
<path d="M28.0238 53.8002L43.375 44.9251C43.5305 44.835 43.6566 44.8981 43.6566 45.0671C43.65 45.1621 43.6211 45.2543 43.5721 45.3361C43.5232 45.4179 43.4557 45.487 43.375 45.5378L28.0238 54.4129C27.8684 54.5031 27.7422 54.44 27.7422 54.271C27.7492 54.176 27.7783 54.084 27.8272 54.0022C27.8761 53.9205 27.9434 53.8513 28.0238 53.8002Z" fill="#00BFBA"/>
<path d="M28.0238 60.0038L43.375 51.1265C43.5305 51.0364 43.6566 51.1017 43.6566 51.2706C43.6497 51.3653 43.6206 51.4571 43.5717 51.5384C43.5227 51.6198 43.4554 51.6886 43.375 51.7392L28.0238 60.6165C27.8684 60.7066 27.7422 60.6413 27.7422 60.4723C27.7492 60.3776 27.7783 60.2859 27.8272 60.2045C27.8761 60.1231 27.9435 60.0544 28.0238 60.0038Z" fill="#00BFBA"/>
<path d="M28.0238 56.902L43.375 48.0202C43.5305 47.9301 43.6566 47.9931 43.6566 48.1621C43.6497 48.2571 43.6206 48.3491 43.5717 48.4309C43.5228 48.5126 43.4554 48.5818 43.375 48.6329L28.0238 57.508C27.8684 57.5981 27.7422 57.535 27.7422 57.3638C27.7502 57.2703 27.7798 57.1799 27.8286 57.0998C27.8775 57.0196 27.9443 56.9519 28.0238 56.902Z" fill="#00BFBA"/>
<path d="M28.0238 58.4518L43.375 49.5767C43.5305 49.4866 43.6566 49.5497 43.6566 49.7186C43.65 49.8137 43.6211 49.9059 43.5721 49.9877C43.5232 50.0695 43.4557 50.1386 43.375 50.1894L28.0238 59.0577C27.8684 59.1478 27.7422 59.0848 27.7422 58.9158C27.7502 58.822 27.7798 58.7313 27.8286 58.6508C27.8775 58.5703 27.9443 58.5022 28.0238 58.4518Z" fill="#00BFBA"/>
<path d="M28.0238 55.3523L43.375 46.4749C43.5305 46.3848 43.6566 46.4501 43.6566 46.6191C43.6497 46.7138 43.6206 46.8055 43.5717 46.8869C43.5227 46.9683 43.4554 47.037 43.375 47.0876L28.0238 55.965C27.8684 56.0551 27.7422 55.9897 27.7422 55.8208C27.7492 55.7261 27.7783 55.6344 27.8272 55.553C27.8761 55.4716 27.9435 55.4028 28.0238 55.3523Z" fill="#00BFBA"/>
<path d="M26.161 50.07L24.9243 49.3717C24.8665 49.3286 24.8208 49.2714 24.7916 49.2055C24.7624 49.1396 24.7507 49.0673 24.7576 48.9955V25.873C24.7697 25.6397 24.8478 25.4148 24.9829 25.2242L26.1902 25.9225C26.0674 26.109 25.9981 26.3256 25.9898 26.5487V49.6893C25.9811 49.7623 25.9925 49.8363 26.0226 49.9034C26.0528 49.9704 26.1006 50.028 26.161 50.07Z" fill="#263238"/>
<path d="M45.0826 14.9435C44.9733 14.9338 44.8639 14.9607 44.7717 15.0201L26.5755 25.5261C26.4162 25.6257 26.2827 25.7615 26.1858 25.9225L24.9762 25.2242C25.0702 25.0731 25.1973 24.9453 25.3479 24.8503L43.5441 14.3466C43.623 14.2964 43.7141 14.2683 43.8076 14.2655C43.8611 14.2651 43.9138 14.2782 43.9608 14.3038L45.0826 14.9435Z" fill="#37474F"/>
<path d="M26.5754 25.5261L44.7694 15.0201C45.096 14.8331 45.3596 14.9841 45.3596 15.3625V38.5234C45.3488 38.728 45.2896 38.9271 45.1871 39.1045C45.0845 39.2818 44.9414 39.4324 44.7694 39.5438L26.5732 50.0295C26.2488 50.2187 25.983 50.0655 25.983 49.6893V26.5487C25.9946 26.3437 26.0543 26.1444 26.1572 25.9667C26.2601 25.7891 26.4034 25.6381 26.5754 25.5261Z" fill="#455A64"/>
<path d="M27.5103 26.2424L43.8414 16.8131C44.1342 16.6442 44.3707 16.7816 44.3707 17.1195V37.9084C44.3609 38.0921 44.3078 38.2709 44.2158 38.4302C44.1238 38.5895 43.9955 38.7248 43.8414 38.8252L27.5103 48.2454C27.2175 48.4144 26.9809 48.277 26.9809 47.9391V27.1614C26.9908 26.9774 27.0439 26.7984 27.1359 26.6387C27.2278 26.479 27.3561 26.3433 27.5103 26.2424Z" fill="#F0F0F0"/>
<mask id="mask2_341_406" style="mask-type:luminance" maskUnits="userSpaceOnUse" x="26" y="16" width="19" height="33">
<path d="M27.5103 26.2424L43.8414 16.8131C44.1342 16.6442 44.3707 16.7816 44.3707 17.1195V37.9084C44.3609 38.0921 44.3078 38.2709 44.2158 38.4302C44.1238 38.5895 43.9955 38.7248 43.8414 38.8252L27.5103 48.2454C27.2175 48.4144 26.9809 48.277 26.9809 47.9391V27.1592C26.991 26.9755 27.0442 26.7968 27.1361 26.6376C27.2281 26.4783 27.3563 26.3429 27.5103 26.2424Z" fill="white"/>
</mask>
<g mask="url(#mask2_341_406)">
<path d="M41.1923 44.7877C38.7753 36.2663 38.7483 34.8765 38.8924 33.8718C41.0864 33.3425 42.046 34.8472 42.6317 37.3836C42.9132 38.6022 43.7242 43.2402 44.2265 45.1797C44.677 46.8804 45.2221 48.7049 45.8844 49.9101C45.9381 50.0121 46.0154 50.0999 46.1098 50.1661C46.2042 50.2323 46.313 50.275 46.4272 50.2907C47.0422 50.3786 47.2246 50.7232 47.7247 50.98C48.1167 51.1783 48.4005 51.1287 48.3892 51.2661C48.3602 51.419 48.2854 51.5594 48.1748 51.6688C48.0642 51.7782 47.9229 51.8514 47.7698 51.8788C47.5233 51.9054 47.2742 51.8894 47.0332 51.8315C47.3297 52.2197 47.6927 52.5523 48.1054 52.8136C49.0695 53.4376 49.3691 54.3904 47.6999 54.8612C47.0444 55.0437 45.8236 54.8364 44.3707 52.8744C43.8868 52.172 43.4854 51.4162 43.1745 50.6219C42.3478 48.5292 41.6743 46.4907 41.1923 44.7877Z" fill="#FFA8A7"/>
<path d="M35.3244 34.8517C35.3244 34.8517 32.9322 35.7009 32.315 35.9915C33.8918 37.8836 32.0042 43.0465 32.0042 43.0465L33.011 46.5245L40.5797 43.8732C41.8321 40.7196 42.0776 39.2892 41.9672 38.4242C41.7172 36.4645 40.5459 35.1783 38.8925 33.8718L35.3244 34.8517Z" fill="#00BFBA"/>
<path d="M41.0076 32.7523L37.0612 33.9912C36.4595 34.1802 35.8218 34.2251 35.1996 34.1221C34.5774 34.0192 33.9882 33.7713 33.4795 33.3985C32.9708 33.0258 32.5569 32.5386 32.2712 31.9763C31.9856 31.4141 31.8362 30.7925 31.8352 30.1618V29.3239C31.8352 26.4947 33.822 23.67 36.2728 23.0167L36.6039 22.9289C39.0547 22.2711 41.0414 24.0326 41.0414 26.8618V27.6525C41.0414 30.1844 41.0076 32.7523 41.0076 32.7523Z" fill="#37474F"/>
<path d="M33.3624 24.1903C33.1191 23.9515 32.7114 24.0416 32.4501 24.3908L32.9367 24.8728C32.8215 24.8592 32.7049 24.882 32.6033 24.9381C32.4271 25.0371 32.2849 25.1872 32.1957 25.3685C32.1064 25.5499 32.0742 25.754 32.1032 25.9541L33.3669 25.3076C33.3603 25.2786 33.352 25.25 33.3422 25.222C33.5809 24.8751 33.5967 24.4223 33.3624 24.1903Z" fill="#37474F"/>
<path d="M39.3137 25.1341C39.7642 25.4292 40.395 25.9586 40.3364 28.9342C40.2868 31.4548 39.5818 32.2635 39.2281 32.5383C38.8745 32.8131 38.1919 32.8852 37.5297 32.9347V34.5251C37.5297 34.5251 38.6762 35.6108 38.6177 36.3271C38.5591 37.0434 37.5297 37.6313 35.9754 36.6785C35.4282 36.3137 34.967 35.834 34.6239 35.2729L34.6374 31.8715C34.6374 31.8715 34.2477 32.4122 33.5877 31.9211C33.309 31.7003 33.123 31.3832 33.0663 31.0322C33.0097 30.6812 33.0864 30.3217 33.2814 30.0244C33.3667 29.8921 33.4794 29.7796 33.6119 29.6945C33.7444 29.6094 33.8936 29.5537 34.0495 29.5311C34.1408 29.5269 34.2321 29.5412 34.3178 29.5732C34.4034 29.6053 34.4817 29.6544 34.5478 29.7175C34.614 29.7807 34.6666 29.8567 34.7025 29.9408C34.7384 30.0249 34.7569 30.1154 34.7568 30.2069V30.3939C34.7568 30.3939 35.2388 30.4682 35.2704 29.5266C35.2884 29.004 35.9124 28.1751 36.5228 27.6525C37.5612 26.7582 38.8835 26.747 39.3137 25.1341Z" fill="#FFA8A7"/>
<path d="M37.6355 28.7788C37.6395 28.8654 37.6168 28.9512 37.5705 29.0245C37.5242 29.0978 37.4564 29.1552 37.3765 29.1887C37.2255 29.2383 37.0972 29.1324 37.0904 28.9635C37.0862 28.8765 37.1089 28.7904 37.1552 28.7167C37.2015 28.643 37.2693 28.5852 37.3494 28.5513C37.4981 28.495 37.6288 28.5986 37.6355 28.7788Z" fill="#263238"/>
<path d="M37.818 30.939L38.6222 31.0201C38.6022 31.1471 38.5392 31.2635 38.4436 31.3496C38.3481 31.4357 38.2258 31.4864 38.0973 31.4931C37.8766 31.4706 37.7504 31.2228 37.818 30.939Z" fill="#F28F8F"/>
<path d="M40.0007 27.4092L39.4488 27.1141C39.5479 26.9046 39.7552 26.801 39.8993 26.8889C39.9779 26.9475 40.0318 27.0332 40.0505 27.1295C40.0693 27.2257 40.0515 27.3254 40.0007 27.4092Z" fill="#263238"/>
<path d="M36.8539 28.2269L37.4058 27.6345C37.3044 27.4813 37.0994 27.4858 36.9553 27.6502C36.8799 27.7235 36.8296 27.8187 36.8114 27.9222C36.7932 28.0257 36.808 28.1323 36.8539 28.2269Z" fill="#263238"/>
<path d="M39.9354 28.308C39.9402 28.3951 39.9178 28.4815 39.8714 28.5553C39.825 28.6291 39.7569 28.6868 39.6763 28.7202C39.5254 28.7698 39.397 28.6639 39.3902 28.4949C39.3858 28.4079 39.4083 28.3217 39.4546 28.2479C39.501 28.1741 39.569 28.1164 39.6493 28.0827C39.798 28.0242 39.9286 28.13 39.9354 28.308Z" fill="#263238"/>
<path d="M38.6222 28.3981L38.665 30.2857L39.5299 29.7451L38.6222 28.3981Z" fill="#F28F8F"/>
<path d="M37.5296 32.928C36.8313 33.0091 35.3942 32.928 35.1689 32.3221C35.2478 32.6091 35.4268 32.8584 35.6735 33.0249C36.1038 33.3335 37.5296 33.4303 37.5296 33.4303V32.928Z" fill="#F28F8F"/>
<path d="M28.1927 49.6105C28.9383 41.4675 29.3641 36.879 32.3149 35.9915C32.7542 36.1514 33.1619 37.1178 33.2385 37.8183C33.3714 39.0032 33.2115 41.0485 32.4771 42.0982C32.4771 42.0982 31.5513 46.9772 31.1932 49.7862C30.9454 51.7301 30.4115 54.5301 30.5354 56.1069C30.5941 56.3917 30.7191 56.6588 30.9003 56.8863L31.4004 57.7175C31.4989 57.8919 31.6119 58.0576 31.7383 58.213C31.8532 58.3459 31.9861 58.4608 32.11 58.5847C32.2023 58.6748 32.2924 58.81 32.2158 58.9181C32.1861 58.9531 32.147 58.9789 32.1032 58.9924C31.9564 59.0479 31.7989 59.069 31.6427 59.0542C31.4866 59.0394 31.3358 58.9889 31.2022 58.9068C31.0355 58.8032 30.9003 58.6523 30.7269 58.5622C30.7412 58.8528 30.8238 59.136 30.9679 59.3889C31.067 59.5938 31.1661 59.8011 31.2765 60.0038C31.3955 60.2068 31.5009 60.4175 31.5919 60.6345C31.6855 60.8517 31.7083 61.0929 31.6572 61.3238C31.5999 61.5 31.4944 61.6567 31.3527 61.7761C31.211 61.8956 31.0387 61.973 30.8553 61.9996C30.4868 62.0469 30.1129 61.9734 29.7898 61.7901C28.6793 61.2157 28.3076 60.0624 28.168 58.9046C28.0324 57.9416 27.9571 56.9711 27.9427 55.9988C27.9855 53.4263 28.0486 51.1963 28.1927 49.6105Z" fill="#FFA8A7"/>
<path d="M34.6328 35.0386C34.1521 35.1414 33.6941 35.3307 33.2812 35.5973C33.2812 35.5973 34.3444 37.6516 36.169 37.949C37.9936 38.2463 38.1242 37.0186 38.1242 37.0186C36.9822 37.066 35.8289 36.5704 34.6328 35.0386Z" fill="#455A64"/>
<path d="M37.5297 34.2142V34.5251C38.3046 35.5342 38.5411 36.4059 38.1131 37.0186C38.1131 37.0186 39.3903 37.4534 39.6156 36.5163C39.8408 35.5793 38.219 34.061 38.219 34.061C37.983 34.0782 37.7507 34.1298 37.5297 34.2142Z" fill="#455A64"/>
</g>
<path d="M58.8906 53.2011C58.573 52.9398 58.0842 52.8857 57.4985 53.1042C56.3249 53.539 55.2031 54.8927 54.9914 56.1249C54.8855 56.7421 55.0297 57.2129 55.3451 57.4764L76.8683 76.7629C77.3053 77.1751 78.0126 77.2765 78.8731 76.9589C80.513 76.3507 82.083 74.4608 82.3758 72.7353C82.5313 71.8343 82.3015 71.1585 81.8127 70.8004L58.8906 53.2011Z" fill="#00BFBA"/>
<path opacity="0.15" d="M58.3513 56.3564C59.3299 55.1769 59.5706 53.7621 58.8889 53.1966C58.2072 52.631 56.8612 53.1288 55.8826 54.3084C54.904 55.4879 54.6633 56.9027 55.345 57.4682C56.0267 58.0338 57.3727 57.536 58.3513 56.3564Z" fill="black"/>
<path d="M50.7859 48.5405C50.4073 48.704 50.0728 48.9547 49.8097 49.2722C49.5466 49.5897 49.3624 49.965 49.2722 50.3674C49.2318 50.5098 49.2302 50.6605 49.2674 50.8038C49.3046 50.9471 49.3793 51.0779 49.4839 51.1828L56.0456 56.6272C56.1675 56.7113 56.3097 56.7613 56.4574 56.772C56.6052 56.7827 56.7531 56.7537 56.8858 56.6881C57.2645 56.5244 57.5992 56.2737 57.8626 55.9562C58.126 55.6387 58.3108 55.2636 58.4018 54.8612C58.4423 54.7182 58.4438 54.567 58.4061 54.4232C58.3685 54.2795 58.2931 54.1484 58.1878 54.0435L51.6283 48.6013C51.5061 48.5171 51.3635 48.467 51.2154 48.4563C51.0673 48.4456 50.919 48.4747 50.7859 48.5405Z" fill="#263238"/>
<path opacity="0.1" d="M57.7778 56.9336L79.9971 76.3282C79.6513 76.5849 79.2724 76.794 78.8709 76.9499C78.0104 77.2675 77.2941 77.1751 76.8638 76.7516L55.3563 57.4809C55.6762 57.7445 56.1605 57.7941 56.7484 57.5778C57.1255 57.4228 57.4736 57.205 57.7778 56.9336Z" fill="black"/>
<path d="M62.2921 27.5218C62.2921 27.2966 62.2741 27.0713 62.2561 26.8461C62.2381 26.6208 62.2291 26.4068 62.2065 26.1906C62.2065 26.0442 62.1795 25.9022 62.1615 25.7558C62.1232 25.3796 62.0691 25.0057 62.0061 24.6521C61.979 24.4899 61.9498 24.3254 61.9182 24.1633C61.8867 24.0011 61.8551 23.8569 61.8236 23.7127C61.729 23.3028 61.6276 22.9018 61.5128 22.5166C61.4519 22.3342 61.3956 22.1517 61.3348 21.9738C61.3228 21.9471 61.3137 21.9191 61.3078 21.8904C61.2425 21.7125 61.1794 21.5413 61.1118 21.3723C61.0442 21.2034 60.9586 20.9849 60.8685 20.8002C60.8054 20.6628 60.7469 20.5299 60.6748 20.397C60.634 20.2974 60.5858 20.201 60.5306 20.1086C60.4749 19.99 60.4132 19.8742 60.3459 19.7618C60.3327 19.7352 60.3177 19.7096 60.3009 19.6852C60.2468 19.5861 60.1837 19.4847 60.1252 19.3856C60.0666 19.2865 60.0418 19.2594 60.0035 19.1964C59.7199 18.7473 59.3997 18.3224 59.0462 17.9259C58.9854 17.8583 58.9246 17.7908 58.8705 17.7254L58.7196 17.5678C58.6588 17.5024 58.5912 17.4416 58.5236 17.374C58.3419 17.19 58.1493 17.017 57.9469 16.8559C57.8523 16.7749 57.7532 16.6983 57.6519 16.6307C57.5505 16.5631 57.4536 16.482 57.3478 16.4054C57.1889 16.2887 57.0234 16.1811 56.8522 16.0833L56.7193 16L56.6923 15.9774L53.586 14.1529L53.5409 14.1258C52.0264 13.2823 50.3164 12.8526 48.583 12.8802C46.0038 12.8802 43.0958 13.7249 40.012 15.4999C29.425 21.6156 20.8405 36.4848 20.8405 48.714C20.8405 54.8139 22.9736 59.1028 26.4223 61.1031L26.4538 61.1188L29.5646 62.9389L29.6007 62.9592L29.6457 62.9839L29.6953 63.011C29.844 63.0966 29.9926 63.1754 30.1458 63.2497C30.299 63.3241 30.5287 63.4277 30.7225 63.502C30.8949 63.5777 31.0717 63.6431 31.2518 63.698C31.3433 63.7309 31.4365 63.7588 31.5311 63.7814C31.6308 63.8192 31.7332 63.8493 31.8375 63.8715C31.9397 63.9023 32.0435 63.9278 32.1483 63.948C32.2222 63.9697 32.2975 63.9863 32.3736 63.9976C32.5065 64.0246 32.6507 64.0539 32.7903 64.0719C32.821 64.0815 32.8528 64.0869 32.8849 64.0877C33.0494 64.1147 33.2183 64.1395 33.3827 64.1553C36.239 64.4549 39.5593 63.6485 43.1138 61.5986C53.7009 55.4852 62.2944 40.6092 62.2944 28.3846C62.3079 28.1007 62.3012 27.8124 62.2921 27.5218ZM27.3504 56.3772C26.907 54.7415 26.6887 53.0531 26.7016 51.3585C26.7016 39.7713 35.1803 25.0823 45.2155 19.2887C46.6807 18.421 48.2622 17.7664 49.912 17.3447C50.703 17.1491 51.5143 17.0471 52.3291 17.0407C52.7394 17.0388 53.1492 17.0704 53.5544 17.1353H53.5882C55.6426 19.5658 55.9444 23.4582 55.9444 25.5396C55.9444 37.1268 47.4748 51.8157 37.4351 57.6071C34.8807 59.0803 32.4254 59.8596 30.3192 59.8596C29.8821 59.8626 29.4465 59.8073 29.024 59.6952C28.245 58.7154 27.6754 57.5861 27.3504 56.3772Z" fill="#00BFBA"/>
<path opacity="0.15" d="M59.5508 27.5736C59.5508 33.7299 57.1585 40.7579 53.4103 46.8669C53.2346 47.1574 53.0544 47.4413 52.8697 47.7273C52.7142 47.9729 52.5543 48.2184 52.3876 48.4617C52.0362 48.9843 51.6803 49.5001 51.3064 50.0047C51.1307 50.2457 50.9527 50.4845 50.7703 50.7187C50.5878 50.953 50.3738 51.2346 50.1711 51.4891C49.7859 51.9757 49.3872 52.4487 48.9817 52.9105C48.7159 53.2191 48.4434 53.5209 48.1686 53.8115C45.961 56.1857 43.5485 58.1905 41.0392 59.6367C40.5594 59.9137 40.0864 60.166 39.6156 60.3935C38.0893 61.1688 36.4357 61.6625 34.7343 61.8509C34.4594 61.8779 34.1891 61.8892 33.9278 61.8892C33.7882 61.8892 33.6553 61.8892 33.5224 61.8779H33.5066C33.2515 61.8671 32.9972 61.8408 32.7452 61.7991C32.6214 61.7811 32.4997 61.7608 32.3826 61.7338C32.2648 61.7111 32.1483 61.6825 32.0334 61.6482C30.8449 61.3463 29.7884 60.6626 29.0263 59.702C29.448 59.8141 29.8828 59.8694 30.3192 59.8664C32.4254 59.8664 34.8807 59.0893 37.4351 57.6138C47.4748 51.8225 55.9444 37.1335 55.9444 25.5463C55.9444 23.465 55.6426 19.5725 53.5882 17.142H53.5544C56.1719 17.561 57.6609 19.3405 58.4988 21.3971C58.7365 21.9819 58.9278 22.5844 59.071 23.1992C59.071 23.233 59.0867 23.2667 59.0935 23.3005C59.1205 23.4109 59.1476 23.5258 59.1678 23.6339C59.1881 23.742 59.2106 23.8592 59.2309 23.9583C59.2376 23.9858 59.2429 24.0136 59.2467 24.0416C59.2692 24.1588 59.2895 24.2736 59.3075 24.3863C59.3728 24.8165 59.4269 25.2355 59.4629 25.6364C59.4629 25.7536 59.4832 25.8617 59.4899 25.9743C59.4967 26.087 59.5035 26.1433 59.508 26.2244C59.508 26.2582 59.508 26.2942 59.508 26.328C59.508 26.4181 59.5192 26.5059 59.5237 26.5938C59.5237 26.6186 59.5237 26.6411 59.5237 26.6681C59.5237 26.7785 59.5237 26.8934 59.535 26.9947C59.5485 27.1885 59.5508 27.3867 59.5508 27.5736Z" fill="black"/>
<path opacity="0.1" d="M29.2988 62.797L26.42 61.1053C22.9713 59.0893 20.8381 54.7981 20.8381 48.7162C20.8381 43.2605 22.5478 37.2845 25.3771 31.7972L28.6545 33.6826C25.8231 39.1699 23.9467 45.0851 23.9467 50.5385C23.9467 56.5011 25.9762 60.7314 29.2988 62.797Z" fill="black"/>
<path opacity="0.4" d="M56.7214 16L56.6944 15.9775L53.5904 14.1529H53.5791L53.5363 14.1258C52.023 13.2833 50.3147 12.8537 48.5829 12.8802C46.006 12.8802 43.0957 13.7226 40.0119 15.4999C34.1553 18.8788 28.891 24.9607 25.3703 31.7995L28.632 33.7186L28.5621 33.8538C32.0874 27.0961 37.3156 20.9849 43.1205 17.3267C48.3757 14.0155 53.3629 13.9704 56.8453 16.0878L56.7214 16Z" fill="white"/>
<path opacity="0.3" d="M57.8816 26.5915C57.8816 38.1787 49.403 52.8677 39.3678 58.6613C37.9025 59.529 36.3211 60.1835 34.6712 60.6052C33.8802 60.801 33.069 60.9031 32.2542 60.9093C31.4171 60.92 30.5851 60.778 29.7989 60.4904C28.5532 59.4452 27.8009 57.9315 27.3504 56.3772C26.907 54.7416 26.6887 53.0531 26.7016 51.3585C26.7016 39.7713 35.1803 25.0823 45.2154 19.2887C46.6807 18.421 48.2621 17.7665 49.912 17.3448C50.703 17.1491 51.5142 17.0471 52.329 17.0407C53.1659 17.0302 53.9978 17.1714 54.7843 17.4574C56.0322 18.5026 56.7846 20.0185 57.2351 21.5728C57.6768 23.2087 57.8943 24.8971 57.8816 26.5915Z" fill="white"/>
<mask id="mask3_341_406" style="mask-type:luminance" maskUnits="userSpaceOnUse" x="26" y="17" width="30" height="43">
<path d="M37.4351 57.6183C47.4748 51.827 55.9444 37.138 55.9444 25.5508C55.9444 23.4695 55.6426 19.577 53.5882 17.1465H53.5544C53.1492 17.0817 52.7394 17.05 52.329 17.0519C51.5143 17.0583 50.703 17.1604 49.912 17.356C48.2643 17.7746 46.6845 18.4253 45.22 19.2887C35.1848 25.0823 26.7061 39.7713 26.7061 51.3585C26.6932 53.0531 26.9115 54.7416 27.3549 56.3772C27.6853 57.613 28.2742 58.7646 29.0826 59.756C29.4924 59.8274 29.9078 59.862 30.3238 59.8596C32.4254 59.8687 34.8807 59.0915 37.4351 57.6183Z" fill="white"/>
</mask>
<g mask="url(#mask3_341_406)">
<path d="M53.1288 9.80768C52.9703 9.79517 52.8122 9.83472 52.6783 9.92031L25.9403 25.3549C25.7069 25.5013 25.5109 25.7003 25.3682 25.936L23.5954 24.9111C23.7323 24.6883 23.9188 24.5002 24.1405 24.3615L50.8694 8.93143C50.9855 8.85756 51.1194 8.81632 51.2569 8.81205C51.3355 8.81143 51.413 8.83081 51.4821 8.86836L53.1288 9.80768Z" fill="#37474F"/>
<path d="M25.9425 25.3526L52.6714 9.92256C53.149 9.6455 53.5386 9.8685 53.5386 10.4226V44.4363C53.522 44.7369 53.4349 45.0294 53.2842 45.29C53.1336 45.5507 52.9236 45.7722 52.6714 45.9365L25.9425 61.3508C25.4627 61.6257 25.0753 61.4027 25.0753 60.8485V26.8461C25.0927 26.5466 25.1803 26.2554 25.3309 25.996C25.4816 25.7366 25.691 25.5162 25.9425 25.3526Z" fill="#455A64"/>
<path d="M27.3144 26.4068L51.3019 12.5558C51.7299 12.308 52.0791 12.5085 52.0791 13.0063V43.5421C52.0652 43.8127 51.9876 44.0762 51.8526 44.311C51.7175 44.5459 51.5288 44.7455 51.3019 44.8936L27.3121 58.7199C26.8819 58.9676 26.5327 58.7672 26.5327 58.2693V27.7471C26.5492 27.4781 26.6284 27.2168 26.7642 26.984C26.8999 26.7512 27.0884 26.5536 27.3144 26.4068Z" fill="#F0F0F0"/>
<mask id="mask4_341_406" style="mask-type:luminance" maskUnits="userSpaceOnUse" x="26" y="12" width="27" height="47">
<path d="M27.3144 26.4068L51.3019 12.5558C51.7299 12.308 52.0791 12.5085 52.0791 13.0063V43.5421C52.0652 43.8127 51.9876 44.0762 51.8526 44.311C51.7175 44.5459 51.5288 44.7455 51.3019 44.8936L27.3121 58.7199C26.8819 58.9676 26.5327 58.7672 26.5327 58.2693V27.7471C26.5492 27.4781 26.6284 27.2168 26.7642 26.984C26.8999 26.7512 27.0884 26.5536 27.3144 26.4068Z" fill="white"/>
</mask>
<g mask="url(#mask4_341_406)">
<path d="M47.4118 53.6516C43.8617 41.1341 43.8234 39.0843 44.0329 37.6178C47.2564 36.8407 48.6597 39.0482 49.5247 42.7762C49.9414 44.5783 51.1308 51.3855 51.8696 54.2282C52.5183 56.7263 53.3315 59.4091 54.3024 61.1932C54.3818 61.3424 54.4954 61.4707 54.6341 61.5674C54.7727 61.6641 54.9323 61.7266 55.0998 61.7496C56.0008 61.878 56.2711 62.387 57.0077 62.761C57.5844 63.056 58.0101 62.9862 57.9831 63.1844C57.9407 63.4096 57.8307 63.6165 57.6677 63.7774C57.5047 63.9384 57.2964 64.0459 57.0708 64.0855C56.7622 64.1395 56.5234 64.0855 55.9918 64.0134C56.4271 64.5855 56.9611 65.0752 57.5686 65.4595C58.9832 66.3763 59.4247 67.7864 56.9717 68.4667C56.0098 68.7325 54.2145 68.4284 52.0836 65.5496C51.3731 64.5183 50.7836 63.4088 50.3266 62.2429C49.1102 59.1456 48.1236 56.1519 47.4118 53.6516Z" fill="#FFA8A7"/>
<path d="M38.7958 39.0527C38.7958 39.0527 35.2818 40.3006 34.3717 40.7286C36.6738 43.506 33.9212 51.0904 33.9212 51.0904L35.4011 56.2015C33.8086 58.9812 46.2923 53.8205 46.5198 52.3046C48.3579 47.6575 48.716 45.5716 48.5471 44.3012C48.1822 41.4224 46.4612 39.5325 44.042 37.6133L38.7958 39.0527Z" fill="#00BFBA"/>
<path d="M35.3967 56.2015C38.3971 56.1226 45.1615 53.5322 46.5153 52.3045C48.3534 47.6575 48.7116 45.5716 48.5426 44.3012" fill="#00BFBA"/>
<path d="M47.1414 35.9667L41.3456 37.7868C40.4612 38.0647 39.5239 38.1305 38.6095 37.9789C37.695 37.8274 36.829 37.4627 36.0816 36.9145C35.3342 36.3662 34.7263 35.6497 34.3072 34.8229C33.888 33.9961 33.6693 33.0823 33.6688 32.1554V30.9457C33.6688 26.7898 36.5859 22.6383 40.1855 21.6742L40.672 21.5435C44.2761 20.5772 47.191 23.1654 47.191 27.3236V28.4837C47.191 32.1959 47.1414 35.9667 47.1414 35.9667Z" fill="#37474F"/>
<path d="M35.9102 23.3906C35.5565 23.0415 34.9551 23.1654 34.5699 23.6857L35.2862 24.393C35.1165 24.375 34.9453 24.4087 34.7952 24.4899C34.5361 24.6352 34.3273 24.8558 34.1965 25.1226C34.0657 25.3893 34.0192 25.6895 34.0631 25.9833L35.9192 25.035C35.9095 24.9914 35.8967 24.9485 35.8809 24.9066C36.2346 24.3975 36.2548 23.7308 35.9102 23.3906Z" fill="#37474F"/>
<path d="M44.6524 24.7805C45.3282 25.2107 46.2427 25.9878 46.1549 30.3601C46.0828 34.0633 45.0466 35.2526 44.5285 35.6536C44.0104 36.0546 43.0058 36.1627 42.0327 36.237V38.5729C42.0327 38.5729 43.7154 40.17 43.632 41.2062C43.5487 42.2423 42.0327 43.1208 39.7508 41.722C38.9497 41.1851 38.2743 40.4812 37.7708 39.6587L37.7911 34.6602C37.7911 34.6602 37.219 35.4576 36.2481 34.7368C35.8387 34.412 35.5655 33.9458 35.4821 33.4298C35.3988 32.9139 35.5113 32.3854 35.7976 31.9481C35.9224 31.7538 36.0876 31.5886 36.2819 31.4639C36.4763 31.3391 36.6952 31.2576 36.9239 31.2251C37.0588 31.2169 37.194 31.2369 37.3208 31.2836C37.4477 31.3304 37.5635 31.403 37.6608 31.4967C37.7582 31.5905 37.8351 31.7035 37.8866 31.8285C37.9381 31.9535 37.9631 32.0878 37.9601 32.2229V32.4978C37.9601 32.4978 38.6696 32.6081 38.7169 31.2251C38.7439 30.4569 39.6607 29.2428 40.5573 28.4724C42.0845 27.1637 44.0217 27.1479 44.6524 24.7805Z" fill="#FFA8A7"/>
<path d="M42.188 30.1303C42.1944 30.2582 42.1613 30.3849 42.0932 30.4933C42.0251 30.6017 41.9253 30.6865 41.8074 30.7363C41.5821 30.8083 41.3974 30.6529 41.3861 30.3894C41.3806 30.2619 41.414 30.1359 41.4821 30.028C41.5501 29.9201 41.6494 29.8356 41.7668 29.7857C41.9876 29.7136 42.1768 29.869 42.188 30.1303Z" fill="#263238"/>
<path d="M42.456 33.3064L43.6364 33.4258C43.5373 33.8425 43.1859 34.1534 42.8683 34.1196C42.5507 34.0858 42.3569 33.7231 42.456 33.3064Z" fill="#F28F8F"/>
<path d="M45.6706 28.121L44.8596 27.6885C45.0083 27.3799 45.3102 27.238 45.5354 27.3484C45.7607 27.4588 45.8102 27.8124 45.6706 28.121Z" fill="#263238"/>
<path d="M41.0393 29.3239L41.8502 28.4567C41.7015 28.2314 41.3997 28.2314 41.1744 28.4769C41.066 28.5861 40.9946 28.7267 40.9703 28.8786C40.9461 29.0306 40.9702 29.1864 41.0393 29.3239Z" fill="#263238"/>
<path d="M45.5669 29.441C45.5732 29.5689 45.5401 29.6956 45.472 29.804C45.4039 29.9124 45.3041 29.9972 45.1862 30.047C44.9609 30.1168 44.7762 29.9636 44.765 29.7001C44.7594 29.5727 44.7928 29.4466 44.8609 29.3387C44.9289 29.2308 45.0283 29.1463 45.1456 29.0964C45.3664 29.0243 45.5556 29.1797 45.5669 29.441Z" fill="#263238"/>
<path d="M43.6365 29.5739L43.7018 32.3468L44.9722 31.5517L43.6365 29.5739Z" fill="#F28F8F"/>
<path d="M42.0327 36.237C41.0055 36.3564 38.8948 36.2212 38.566 35.3473C38.6822 35.7685 38.945 36.1343 39.3071 36.3789C39.9378 36.8294 42.0327 36.9759 42.0327 36.9759V36.237Z" fill="#F28F8F"/>
<path d="M28.3258 60.7337C29.4228 48.7703 30.0467 42.0374 34.3806 40.7286C35.0271 40.9539 35.6263 42.391 35.7322 43.4114C35.9259 45.1504 35.6916 48.1576 34.6059 49.7051C34.6059 49.7051 33.2544 56.8728 32.7205 60.9972C32.3556 63.8534 31.5717 67.9689 31.7542 70.2845C31.7902 70.7215 32.0695 71.0617 32.2903 71.4288L33.0246 72.6475C33.1696 72.9044 33.3361 73.1485 33.5224 73.3773C33.6891 73.5733 33.8851 73.7422 34.0675 73.9224C34.2027 74.0553 34.3356 74.2626 34.223 74.4135C34.1797 74.4646 34.1226 74.5022 34.0585 74.5216C33.8416 74.6046 33.6086 74.6366 33.3773 74.6151C33.1461 74.5937 32.9229 74.5193 32.725 74.3977C32.4795 74.2445 32.2745 74.0215 32.0245 73.8909C32.0457 74.3173 32.1677 74.7326 32.3804 75.1028C32.5245 75.4069 32.6687 75.711 32.8309 76.0038C33.0097 76.2992 33.1685 76.6062 33.3062 76.9228C33.4431 77.2432 33.477 77.5983 33.403 77.9387C33.317 78.1964 33.161 78.425 32.9526 78.5993C32.7442 78.7735 32.4915 78.8864 32.2227 78.9254C31.681 78.9931 31.1319 78.884 30.6572 78.6145C29.0286 77.772 28.4834 76.0781 28.2762 74.3774C28.0809 72.9626 27.9748 71.5369 27.9586 70.1088C28.0126 66.3448 28.1005 63.0605 28.3258 60.7337Z" fill="#FFA8A7"/>
<path d="M37.7707 39.3275C37.0613 39.4778 36.3851 39.7556 35.775 40.1475C35.775 40.1475 37.3383 43.1659 40.0188 43.6029C42.6994 44.0399 42.8886 42.2356 42.8886 42.2356C41.2284 42.3054 39.5323 41.5801 37.7707 39.3275Z" fill="#455A64"/>
<path d="M42.0326 38.1089V38.5594C43.1702 40.0416 43.5193 41.3211 42.8886 42.2221C42.8886 42.2221 44.7672 42.8596 45.0961 41.4855C45.425 40.1114 43.0463 37.8814 43.0463 37.8814C42.6991 37.9073 42.3576 37.9839 42.0326 38.1089Z" fill="#455A64"/>
</g>
</g>
<path d="M73.0594 48.9212C74.6204 48.7478 75.2196 49.205 75.8007 50.498C76.3549 51.7324 78.0533 55.4536 77.9677 56.3209C77.8821 57.1881 74.3321 60.8801 74.3321 60.8801L73.3207 59.6502L75.5147 55.9605L73.7689 52.237L73.0594 48.9212Z" fill="#FFA8A7"/>
<path d="M69.9238 47.7093L70.2166 50.7728L72.9535 50.6016L72.735 47.2047L69.9238 47.7093Z" fill="#FFA8A7"/>
<path d="M66.4166 41.8211C66.3931 41.6772 66.3931 41.5303 66.4166 41.3864C66.4509 41.2001 66.5253 41.0235 66.6346 40.8688C66.7439 40.7141 66.8854 40.585 67.0495 40.4903C67.2135 40.3956 67.3962 40.3377 67.5848 40.3205C67.7735 40.3033 67.9636 40.3273 68.142 40.3907C68.0891 40.1095 68.1321 39.8186 68.264 39.5646C68.3959 39.3106 68.6091 39.1082 68.8696 38.9896C69.072 38.9128 69.2879 38.8776 69.5042 38.8862C69.7206 38.8947 69.933 38.9467 70.1288 39.0392C70.3639 39.1217 70.5594 39.2898 70.6762 39.51C70.8147 39.2779 71.0183 39.0915 71.2617 38.974C71.5052 38.8566 71.7778 38.8131 72.0457 38.8491C72.3136 38.8851 72.565 38.9989 72.7688 39.1764C72.9727 39.354 73.1199 39.5874 73.1923 39.8479C73.609 39.7555 74.1969 39.9402 74.3839 40.3547C74.5956 40.8255 74.3366 41.4089 74.4334 41.9022C74.4965 42.2221 74.6339 42.5217 74.6925 42.846C74.7522 43.2073 74.7861 43.5724 74.7939 43.9385C74.8547 45.45 71.3429 46.4321 71.415 47.4705L69.5476 45.1932C69.5476 45.0986 69.2818 44.8621 69.2233 44.7832C69.1106 44.6323 69.0115 44.4724 68.9079 44.3147C68.5862 43.8544 68.139 43.4963 67.6194 43.283C67.2524 43.1141 66.9346 42.8544 66.6959 42.5284C66.5504 42.3169 66.4549 42.075 66.4166 41.8211Z" fill="#263238"/>
<path d="M67.8921 44.3485C67.8921 44.3485 67.2862 45.2495 67.365 45.3441C67.5067 45.4371 67.6638 45.5043 67.829 45.5424L67.8921 44.3485Z" fill="#F28F8F"/>
<path d="M69.7437 41.4877C69.1557 41.7873 68.1376 42.3392 67.874 44.4746C67.606 46.6641 68.0993 47.4255 68.4056 47.7116C68.6106 47.9053 69.6693 47.9751 70.2212 47.8084C70.9105 47.5967 72.4084 46.8714 73.109 45.7406C73.9334 44.4093 74.1046 42.6365 73.1518 41.9428C71.8115 40.9719 70.2437 41.2422 69.7437 41.4877Z" fill="#FFA8A7"/>
<path d="M68.4619 47.7589C68.7097 47.894 69.4147 47.9503 69.9396 47.8738L69.9216 47.4818C69.6963 47.5786 69.4626 47.654 69.2233 47.7071C68.9735 47.7621 68.7168 47.7796 68.4619 47.7589Z" fill="#F28F8F"/>
<path d="M69.4869 41.4292C69.2366 41.5205 69.0041 41.6547 68.7998 41.8256C68.6975 41.9107 68.6145 42.0167 68.5566 42.1365C68.5121 42.2479 68.4951 42.3685 68.507 42.4879C68.5245 42.6522 68.5846 42.8091 68.6814 42.9431C68.7782 43.077 68.9083 43.1833 69.0589 43.2515C68.9789 43.3593 68.9241 43.4836 68.8984 43.6154C68.8727 43.7471 68.8767 43.8829 68.9102 44.0129C69.0179 44.3155 69.2046 44.5838 69.4508 44.79C69.4632 44.8043 69.4786 44.8159 69.4959 44.8238C69.5132 44.8266 69.5309 44.8255 69.5477 44.8204C69.5645 44.8153 69.5799 44.8065 69.5927 44.7945C69.9622 44.5467 70.1919 44.1187 70.719 44.2922C71.406 44.5174 71.3723 45.3644 70.8339 45.8915C70.6418 46.0858 70.3874 46.2062 70.1153 46.2316C69.9772 46.2349 69.8427 46.1876 69.7369 46.0987C69.7369 46.0987 69.7572 47.2025 70.7168 47.6417C71.3858 47.8366 72.0953 47.8451 72.7688 47.6665C73.1315 47.2047 73.7397 46.6168 74.2398 46.0897C75.8864 44.3575 75.981 41.8414 73.5505 41.0462C73.4671 41.0192 73.3838 40.9944 73.2982 40.9719C72.5166 40.7679 71.698 40.7501 70.9082 40.9201C70.519 41.004 70.141 41.1333 69.7819 41.3053L69.4869 41.4292Z" fill="#263238"/>
<path d="M69.408 45.5626C69.3442 45.5412 69.2854 45.5071 69.235 45.4625C69.1846 45.4179 69.1437 45.3637 69.1147 45.3029C69.0858 45.2422 69.0693 45.1763 69.0662 45.1091C69.0632 45.0418 69.0737 44.9747 69.0971 44.9116C69.1448 44.7835 69.2411 44.6795 69.3652 44.6221C69.4892 44.5647 69.6309 44.5587 69.7594 44.6053L69.408 45.5626Z" fill="#263238"/>
<path d="M69.6783 87.5729C69.7765 87.8733 69.8592 88.1786 69.926 88.4875C69.9959 88.8276 70.095 89.3885 69.9756 89.6498C69.8562 89.9111 69.3922 90.071 68.6736 90.0643C68.2096 90.0643 67.4843 90.3774 66.9864 90.6545C66.4886 90.9315 65.4097 91.0554 64.8645 90.9901C64.2248 90.9158 63.5626 90.5396 63.4589 90.2805C63.3553 90.0215 63.2697 89.6521 64.9997 89.0979C65.0155 89.0979 67.0946 88.4222 67.8244 87.6112L69.6783 87.5729Z" fill="#263238"/>
<path d="M69.6782 87.6203L69.3471 87.5797L67.8244 87.6112C67.0945 88.4154 65.0154 89.0934 64.9997 89.0979L64.7226 89.1903C64.423 89.4336 64.6775 89.8458 65.3984 89.9089C66.1192 89.9719 68.338 89.2331 68.8313 88.9876C69.0896 88.866 69.3071 88.6722 69.4574 88.4295C69.6078 88.1868 69.6845 87.9057 69.6782 87.6203Z" fill="#FFA8A7"/>
<path d="M69.6783 86.967C69.6783 86.967 69.6783 87.3837 69.6783 87.6202C69.6783 87.8568 69.399 88.2127 68.6714 88.1879C68.1601 88.1699 67.8042 88.0325 67.8244 87.6112V87.0053L69.6783 86.967Z" fill="#FFA8A7"/>
<path d="M74.5665 84.8361C74.6971 84.8901 74.7241 85.1424 74.7309 85.6448C74.7309 86.0232 74.7985 86.6877 74.3502 86.8071C73.9019 86.9265 73.2555 86.8431 72.9784 86.4782C72.636 86.0277 72.4062 85.6222 71.9152 85.0658C71.4872 84.5815 71.0142 84.1288 70.8632 83.4598C70.7191 82.8583 70.8632 82.6015 71.2732 82.4394C71.6832 82.2772 72.0594 82.4101 72.6247 82.8899C72.7847 82.9967 72.9553 83.0865 73.1338 83.1579C73.5145 83.2705 74.4358 84.782 74.5665 84.8361Z" fill="#263238"/>
<path d="M74.5776 84.372L74.5618 84.987C74.5618 84.987 74.1496 85.7934 73.0053 84.987C72.9805 84.9284 72.8792 83.7368 72.8792 83.7368L74.5776 84.372Z" fill="#FFA8A7"/>
<path d="M73.1382 83.1602C72.9597 83.0887 72.7891 82.9989 72.6292 82.8921C72.1786 82.7434 71.1965 82.9146 71.6358 83.5837C71.9987 84.1357 72.4635 84.6135 73.0053 84.9915C73.5234 85.246 73.7059 84.9307 73.7059 84.9307L73.5212 83.4868C73.4202 83.3501 73.2892 83.2384 73.1382 83.1602Z" fill="#FFA8A7"/>
<path d="M75.4043 75.8574C75.2981 74.7746 75.0714 73.707 74.7285 72.6745C74.7285 72.6745 75.116 69.9579 75.4201 67.3494C76.1364 61.2315 75.6588 61.1346 74.7938 59.0149C74.7938 59.0149 66.9504 58.0058 66.6238 61.2675C66.2138 65.3221 66.3985 73.2061 66.4684 74.6477C66.5382 76.0894 66.6531 76.7404 67.0811 79.7588C67.4077 82.0564 67.7163 87.0774 67.7163 87.0774C68.7435 87.6698 69.7436 86.976 69.7436 86.976C69.7436 86.976 70.7257 80.7995 70.7032 79.1371C70.6872 77.9079 70.5123 76.6858 70.1828 75.5015C70.1828 75.5015 70.8586 68.8812 71.0185 67.8292C71.0185 67.8292 71.2078 69.9399 71.2776 71.3815C71.3474 72.8232 71.7281 74.2062 72.0818 76.889C72.3791 79.2159 72.8747 84.0725 72.8747 84.0725C73.9041 84.6649 74.6227 84.3968 74.6227 84.3968C74.6227 84.3968 75.6408 77.8757 75.4043 75.8574Z" fill="#00BFBA"/>
<g opacity="0.4">
<path d="M75.4043 75.8574C75.2981 74.7746 75.0714 73.707 74.7285 72.6745C74.7285 72.6745 75.116 69.9579 75.4201 67.3494C76.1364 61.2315 75.6588 61.1346 74.7938 59.0149C74.7938 59.0149 66.9504 58.0058 66.6238 61.2675C66.2138 65.3221 66.3985 73.2061 66.4684 74.6477C66.5382 76.0894 66.6531 76.7404 67.0811 79.7588C67.4077 82.0564 67.7163 87.0774 67.7163 87.0774C68.7435 87.6698 69.7436 86.976 69.7436 86.976C69.7436 86.976 70.7257 80.7995 70.7032 79.1371C70.6872 77.9079 70.5123 76.6858 70.1828 75.5015C70.1828 75.5015 70.8586 68.8812 71.0185 67.8292C71.0185 67.8292 71.2078 69.9399 71.2776 71.3815C71.3474 72.8232 71.7281 74.2062 72.0818 76.889C72.3791 79.2159 72.8747 84.0725 72.8747 84.0725C73.9041 84.6649 74.6227 84.3968 74.6227 84.3968C74.6227 84.3968 75.6408 77.8757 75.4043 75.8574Z" fill="black"/>
</g>
<path opacity="0.15" d="M71.0186 67.818L71.397 64.9572C72.5024 64.9551 73.575 64.5814 74.4425 63.8962C74.4425 63.8962 73.9289 64.9414 71.8453 65.3987L71.4375 68.3428L71.2911 71.5865C71.222 70.319 71.1312 69.0629 71.0186 67.818Z" fill="black"/>
<path d="M75.0686 50.1961C74.8028 49.4077 74.26 48.9437 73.0594 48.9302H72.8476C72.762 49.3807 71.3542 49.7727 70.077 49.3221C69.9013 49.3537 69.2931 49.4213 69.0138 49.4596L68.4033 49.5474C67.4753 49.8515 67.0653 51.4666 66.9752 54.0232C66.8851 56.5799 66.5044 62.0514 66.5044 62.0514C66.5044 62.0514 68.5024 63.1236 71.6538 62.7091C74.4762 62.3375 75.7287 60.6818 75.6318 60.8891C75.2045 59.4794 74.6652 58.1062 74.019 56.7826C75.5056 53.1402 75.4651 51.3697 75.0686 50.1961Z" fill="#455A64"/>
<path d="M70.0927 62.8083C70.6146 62.8146 71.1363 62.7837 71.6537 62.7159C74.2284 62.378 75.5214 60.9679 75.6295 60.8823C75.2078 59.4755 74.669 58.1064 74.0189 56.7894C74.7713 54.9446 75.1317 53.5818 75.2533 52.5321C75.1317 53.2979 74.0009 56.2623 72.521 57.1498C72.521 57.1498 73.3544 57.2805 74.0685 58.2603C74.7826 59.2402 74.1969 62.5988 70.0927 62.8083Z" fill="#37474F"/>
<path d="M69.0138 49.4663C67.7839 49.6217 66.8108 49.8785 66.2724 51.0431C65.3714 53.0321 64.378 54.6652 63.6617 55.4334C62.8958 56.2533 59.7557 57.6859 59.0484 57.5801C58.3411 57.4742 57.6361 56.652 57.2712 56.8615C56.9062 57.071 57.582 57.8616 57.537 58.0396C57.4919 58.2175 56.2102 58.1229 55.6043 57.6949C54.9983 57.2669 54.7731 58.1454 55.557 59.069C56.3409 59.9925 57.8095 60.0601 59.4156 59.7448C61.0217 59.4294 64.0379 58.5802 65.2723 57.5688C66.7612 56.3434 67.268 55.4153 67.901 54.3161C70.1874 51.9554 69.0138 49.4663 69.0138 49.4663Z" fill="#FFA8A7"/>
<defs>
<filter id="filter0_d_341_406" x="55.6446" y="81.5676" width="27.3554" height="20.1382" filterUnits="userSpaceOnUse" color-interpolation-filters="sRGB">
<feFlood flood-opacity="0" result="BackgroundImageFix"/>
<feColorMatrix in="SourceAlpha" type="matrix" values="0 0 0 0 0 0 0 0 0 0 0 0 0 0 0 0 0 0 127 0" result="hardAlpha"/>
<feOffset dy="4"/>
<feGaussianBlur stdDeviation="2"/>
<feComposite in2="hardAlpha" operator="out"/>
<feColorMatrix type="matrix" values="0 0 0 0 0 0 0 0 0 0 0 0 0 0 0 0 0 0 0.25 0"/>
<feBlend mode="normal" in2="BackgroundImageFix" result="effect1_dropShadow_341_406"/>
<feBlend mode="normal" in="SourceGraphic" in2="effect1_dropShadow_341_406" result="shape"/>
</filter>
</defs>
</svg>
