<svg width="60" height="65" viewBox="0 0 60 65" fill="none" xmlns="http://www.w3.org/2000/svg">
<path d="M11.8607 31.3446C13.8647 20.2698 20.5312 23.0275 28.4729 24.589C25.1835 23.1721 23.7432 21.5435 20.2332 20.7679C17.5412 20.1602 14.5512 19.9382 11.9819 21.1009C9.73394 22.119 8.26158 23.9799 7.29754 26.2059C6.40068 28.2991 6.36709 31.6104 6.81113 35.376C7.86282 35.6974 10.6863 36.8148 11.7394 37.0806C11.5393 35.043 11.5393 33.0945 11.8607 31.3446Z" fill="#36454F"/>
<path d="M16.2354 54.8336C14.8726 50.7802 13.7216 47.2147 12.5253 41.8102C11.4181 41.4334 8.56102 40.1933 7.48596 39.739C8.77135 46.6056 11.0412 53.947 12.3369 57.8017C12.8685 59.3967 13.5886 61.3117 14.5746 62.6964C15.2275 63.6151 16.1361 64.4346 17.3426 64.3908C18.6718 64.3353 19.8345 63.3157 20.4655 62.2538C25.4493 53.8593 29.7787 55.7524 30.3776 55.6092C25.9138 51.1235 18.2058 60.7245 16.2354 54.8336Z" fill="#36454F"/>
<path d="M45.5496 22.3745C44.4307 21.2995 42.9569 20.9898 41.4509 21.0789C32.4473 21.6427 21.4295 30.9238 20.6758 30.88C27.465 31.1999 42.7465 20.7576 41.5619 36.6161C42.8473 36.2947 44.8397 35.5308 46.1134 35.1437C47.1548 31.4891 48.4504 25.1644 45.5496 22.3745ZM44.6074 31.5329C44.4862 27.4679 43.6551 24.4224 37.8635 24.0134C42.8137 22.3307 46.6012 24.7335 44.6074 31.5329Z" fill="#36454F"/>
<path d="M36.5459 54.7227C34.5857 61.3892 29.4807 60.393 26.5228 56.8494C26.479 57.2803 30.433 61.7324 32.6693 63.4385C36.3356 66.2181 37.9964 62.4525 38.9268 59.2741C40.7644 53.0064 42.6691 46.7489 44.53 40.4928C43.2782 40.9909 41.9826 41.4335 40.6767 41.7986C39.2803 46.838 38.2403 48.9311 36.5459 54.7227Z" fill="#36454F"/>
<mask id="mask0_371_1228" style="mask-type:luminance" maskUnits="userSpaceOnUse" x="0" y="34" width="20" height="9">
<path d="M0 34.9159H19.2575V42.3945H0V34.9159Z" fill="white"/>
</mask>
<g mask="url(#mask0_371_1228)">
<path d="M18.9259 42.0425V39.6178C13.0672 39.0861 6.76583 37.7014 0 35.1321C5.78134 38.9079 12.3587 41.134 18.9259 42.0425Z" fill="#5E17EB"/>
</g>
<path d="M20.6978 45.0106H23.7885C23.7885 43.0504 23.7885 41.0902 23.7885 39.1183V37.0149H20.6978C20.6978 39.6952 20.6978 42.3522 20.6978 45.0106ZM23.3664 37.3801V39.761L22.6244 37.9117L21.6618 37.3465L23.3664 37.3801ZM21.1739 42.1638L21.7392 43.9356L22.7807 44.6557L21.0629 44.6338L21.1739 42.1638Z" fill="#5E17EB"/>
<path d="M31.761 39.517V42.209C39.3579 41.3341 46.1355 38.7531 50.6212 34.9218C45.0502 36.9375 38.7941 38.7531 31.761 39.517Z" fill="#5E17EB"/>
<path d="M26.6777 45.0106H29.7349C29.7349 42.3419 29.7349 39.6952 29.7349 37.0251H26.6777C26.6777 39.6952 26.6777 42.3522 26.6777 45.0106ZM29.3026 37.5246L29.3581 40.094L28.638 38.144L27.2868 37.491L29.3026 37.5246ZM27.1875 42.0089L27.7747 43.991L28.8483 44.7666L27.132 44.7447L27.1875 42.0089Z" fill="#5E17EB"/>
<path d="M49.603 13.3038H49.324C49.2641 13.3038 49.2042 13.3038 49.1648 13.2833C49.1049 13.2833 49.045 13.2629 48.9851 13.2439C48.8639 13.2235 48.7441 13.1636 48.6448 13.0642C48.4856 12.9445 48.3249 12.7444 48.3059 12.3251C48.3059 12.3251 48.2855 12.0447 48.2855 11.9644C48.265 11.5656 48.246 11.2253 48.246 10.9068V10.5271C48.246 10.3065 48.246 10.0669 48.2256 9.84785C48.2051 9.58785 48.2051 9.28841 48.1861 8.98897H46.5473C46.2478 8.98897 45.9688 8.96852 45.6884 8.94953H45.0895C45.0092 8.94953 44.9099 8.94953 44.8091 8.90863C44.6703 8.8692 44.5301 8.80931 44.3899 8.68953C44.2102 8.52886 44.1109 8.30976 44.1109 8.07021V7.77077L44.1299 7.6101V7.31066C44.1299 7.21133 44.1109 7.09156 44.0904 6.95133C44.051 6.71178 44.0305 6.47223 44.0101 6.25167L43.9911 6.11291C43.9706 5.99313 43.9706 5.87336 43.9502 5.73313V5.21314C43.9502 5.15325 43.9502 5.09336 43.9706 5.05392C43.9706 4.99404 43.9911 4.93415 44.0101 4.87426C44.051 4.75449 44.0904 4.63471 44.1897 4.53392C44.311 4.41415 44.5096 4.23449 44.9288 4.21404L45.2896 4.19505C45.6884 4.1746 46.0287 4.15415 46.3472 4.15415H46.7269C46.9475 4.15415 47.1666 4.15415 47.4061 4.13516C47.6063 4.13516 47.8254 4.11471 48.0459 4.11471C48.0649 3.77584 48.0854 3.41505 48.1248 3.09662C48.1248 2.97685 48.1452 2.85707 48.1452 2.71685L48.2051 1.93831L48.2256 1.71775C48.265 1.41831 48.2855 1.09842 48.3249 0.778538C48.3454 0.538988 48.525 0.359326 48.6652 0.259999C48.7047 0.23955 48.7441 0.200112 48.804 0.179663C48.9238 0.0803369 49.0845 0.0204494 49.2437 0.0204494H49.3445C49.5431 -1.86663e-07 49.7432 0 49.9433 0H50.0631C50.402 0 50.7423 0.0204497 51.0213 0.0598875H51.201C51.3821 0.0598875 51.6012 0.0598874 51.8407 0.0993256H51.9006C51.981 0.0993256 52.0598 0.119775 52.1606 0.140224C52.3198 0.179663 52.4805 0.23955 52.6397 0.379775C52.7989 0.519999 52.8793 0.679212 52.9392 0.798987C52.9596 0.879324 52.9991 0.999099 52.9991 1.07798C53.0195 1.2182 53.0589 1.33798 53.0589 1.43876C53.0794 1.61842 53.0998 1.79809 53.0998 1.9982C53.0998 2.29764 53.0998 2.57662 53.0794 2.85707V3.05572C53.0794 3.13606 53.0794 3.19595 53.0589 3.27629C53.0589 3.37561 53.04 3.4764 53.04 3.59617V3.97449C53.4183 3.99494 53.8185 4.01539 54.1778 4.05482C54.2976 4.05482 54.4174 4.07527 54.5576 4.07527L55.3361 4.13516L55.5567 4.15415C55.8357 4.1746 56.176 4.21404 56.4944 4.25494C56.734 4.27538 56.9151 4.45505 57.0144 4.59381C57.0349 4.63471 57.0743 4.67415 57.0948 4.73404C57.1941 4.85381 57.254 5.01448 57.254 5.1737V5.27302C57.2744 5.47314 57.2744 5.67325 57.2744 5.87336C57.2744 6.25167 57.254 6.6519 57.2146 6.97178V7.15145C57.2146 7.33111 57.2146 7.57066 57.1737 7.78976V7.84965C57.1737 7.92998 57.1547 8.01032 57.1342 8.10965C57.0948 8.27032 57.0349 8.42953 56.8947 8.58875C56.7544 8.74942 56.5952 8.8283 56.4755 8.88818C56.3557 8.94953 56.2549 8.96852 56.176 8.98897C56.0358 9.00942 55.916 9.04886 55.8152 9.04886C55.656 9.00942 55.4764 9.00942 55.2573 9.00942H55.136C54.8775 9.00942 54.6379 8.98897 54.3969 8.98897H54.1983C54.1179 8.98897 54.058 8.98897 53.9777 8.96852C53.8784 8.96852 53.7791 8.94953 53.6593 8.94953H53.0589V10.7067C53.0589 10.9857 53.04 11.2866 53.0195 11.5656L52.9991 11.8446V12.1645C52.9991 12.2448 52.9991 12.3441 52.9596 12.4449C52.9202 12.5837 52.8603 12.7239 52.7391 12.8641C52.5798 13.0438 52.3607 13.1431 52.1212 13.1431H52.0613C52 13.1431 51.9401 13.1431 51.8802 13.1241H51.8203L51.6815 13.1037H51.4011C51.3018 13.1037 51.182 13.1241 51.0418 13.1431C50.8022 13.184 50.5627 13.203 50.3421 13.2235L50.2033 13.2439C50.0836 13.2629 49.9638 13.2629 49.8236 13.2833C49.7637 13.3038 49.6833 13.3038 49.603 13.3038Z" fill="#209FDA"/>
<path d="M38.7297 19.7103H38.5603C38.5237 19.7103 38.4872 19.7103 38.4638 19.6986C38.4273 19.6986 38.3908 19.6855 38.3543 19.6738C38.2813 19.6621 38.2082 19.6256 38.1483 19.5642C38.0505 19.4912 37.9541 19.37 37.9409 19.1158C37.9409 19.1158 37.9292 18.9464 37.9292 18.8967C37.9176 18.6542 37.9059 18.4483 37.9059 18.254V18.0232C37.9059 17.8903 37.9059 17.7442 37.8927 17.6113C37.881 17.4536 37.881 17.271 37.8694 17.0884H36.8732C36.6921 17.0884 36.5212 17.0767 36.3517 17.065H35.988C35.9398 17.065 35.8785 17.065 35.8186 17.0402C35.7324 17.0168 35.6477 16.9803 35.563 16.9073C35.4534 16.8094 35.3935 16.6765 35.3935 16.5304V16.3493L35.4052 16.2514V16.0703C35.4052 16.009 35.3935 15.9359 35.3818 15.8512C35.357 15.7052 35.3453 15.5605 35.3322 15.4262L35.3205 15.3414C35.3088 15.2684 35.3088 15.1954 35.2957 15.1107V14.7952C35.2957 14.7586 35.2957 14.7221 35.3088 14.6987C35.3088 14.6622 35.3205 14.6257 35.3322 14.5892C35.357 14.5162 35.3818 14.4431 35.4417 14.3832C35.5148 14.3102 35.636 14.2007 35.8901 14.189L36.1092 14.1773C36.3517 14.1641 36.5577 14.1525 36.7519 14.1525H36.9827C37.1171 14.1525 37.25 14.1525 37.3961 14.1408C37.5173 14.1408 37.6503 14.1276 37.7832 14.1276C37.7963 13.9217 37.808 13.704 37.8328 13.5098C37.8328 13.4367 37.8445 13.3637 37.8445 13.279L37.881 12.8057L37.8927 12.6713C37.9176 12.4902 37.9292 12.2959 37.9541 12.1017C37.9658 11.9556 38.0753 11.8475 38.16 11.7862C38.1849 11.7745 38.2082 11.7497 38.2447 11.738C38.3178 11.6766 38.4142 11.6401 38.5121 11.6401H38.5719C38.6946 11.6284 38.8159 11.6284 38.9371 11.6284H39.0101C39.2161 11.6284 39.422 11.6401 39.5915 11.6649H39.701C39.8106 11.6649 39.9435 11.6649 40.0896 11.6898H40.1261C40.1743 11.6898 40.2225 11.7015 40.2838 11.7131C40.3802 11.738 40.4781 11.7745 40.5745 11.8592C40.6724 11.9439 40.7206 12.0403 40.7571 12.1134C40.7688 12.163 40.7936 12.2346 40.7936 12.2843C40.8053 12.369 40.8301 12.442 40.8301 12.5019C40.8418 12.6114 40.8535 12.721 40.8535 12.8422C40.8535 13.0234 40.8535 13.1943 40.8418 13.3637V13.4849C40.8418 13.5331 40.8418 13.5697 40.8301 13.6179C40.8301 13.6792 40.817 13.7405 40.817 13.8121V14.0429C41.0478 14.0561 41.2902 14.0677 41.5093 14.0911C41.5824 14.0911 41.6554 14.1043 41.7401 14.1043L42.2134 14.1408L42.3463 14.1525C42.5158 14.1641 42.7232 14.189 42.9174 14.2138C43.062 14.2255 43.1716 14.335 43.2329 14.4198C43.2446 14.4431 43.2695 14.468 43.2811 14.5045C43.341 14.5775 43.3775 14.6739 43.3775 14.7718V14.8317C43.3907 14.9529 43.3907 15.0741 43.3907 15.1954C43.3907 15.4262 43.3775 15.6686 43.3542 15.8629V15.9725C43.3542 16.082 43.3542 16.2281 43.3293 16.361V16.3975C43.3293 16.4457 43.3177 16.4939 43.3045 16.5553C43.2811 16.6517 43.2446 16.7495 43.1599 16.8459C43.0752 16.9438 42.9773 16.992 42.9043 17.0285C42.8313 17.065 42.7714 17.0767 42.7232 17.0884C42.6384 17.1016 42.5654 17.1249 42.5041 17.1249C42.4077 17.1016 42.2981 17.1016 42.1652 17.1016H42.0922C41.9344 17.1016 41.7883 17.0884 41.6423 17.0884H41.521C41.4728 17.0884 41.4363 17.0884 41.3881 17.0767C41.3268 17.0767 41.2669 17.065 41.1938 17.065H40.8301V18.1328C40.8301 18.3022 40.817 18.4848 40.8053 18.6542L40.7936 18.8237V19.018C40.7936 19.0676 40.7936 19.1275 40.7688 19.1889C40.7454 19.2736 40.7089 19.3583 40.6359 19.443C40.538 19.5526 40.4051 19.6124 40.259 19.6124H40.2225C40.186 19.6124 40.1495 19.6124 40.1144 19.6008H40.0779L39.9917 19.5891H39.8223C39.7624 19.5891 39.6894 19.6008 39.6046 19.6124C39.4586 19.6373 39.3125 19.649 39.1796 19.6621L39.0949 19.6738C39.0218 19.6855 38.9488 19.6855 38.8641 19.6986C38.8276 19.7103 38.7794 19.7103 38.7297 19.7103Z" fill="#00BFBA"/>
<path d="M53.4459 27.3481H53.2078C53.1567 27.3481 53.1041 27.3481 53.0705 27.3321C53.0194 27.3321 52.9683 27.3146 52.9172 27.297C52.8149 27.281 52.7127 27.2298 52.6265 27.1437C52.4906 27.0414 52.3533 26.8705 52.3373 26.5126C52.3373 26.5126 52.3197 26.2731 52.3197 26.2059C52.3022 25.8641 52.2861 25.5734 52.2861 25.3003V24.976C52.2861 24.7891 52.2861 24.5846 52.2686 24.3961C52.2511 24.1741 52.2511 23.9185 52.235 23.6629H50.8357C50.5786 23.6629 50.3405 23.6453 50.101 23.6278H49.5898C49.5211 23.6278 49.4349 23.6278 49.3502 23.5942C49.2304 23.5606 49.1107 23.5095 48.9923 23.4058C48.839 23.27 48.7528 23.0815 48.7528 22.877V22.6214L48.7703 22.4856V22.2285C48.7703 22.1438 48.7528 22.0415 48.7353 21.9218C48.7017 21.7173 48.6841 21.5128 48.6681 21.3243L48.6505 21.2046C48.633 21.1023 48.633 21.0001 48.6169 20.8803V20.4363C48.6169 20.3851 48.6169 20.334 48.633 20.3004C48.633 20.2493 48.6505 20.1982 48.6681 20.147C48.7017 20.0448 48.7353 19.9425 48.8214 19.8564C48.9237 19.7541 49.0946 19.6007 49.4524 19.5832L49.7592 19.5672C50.101 19.5496 50.3917 19.5321 50.6648 19.5321H50.9891C51.176 19.5321 51.3645 19.5321 51.569 19.516C51.7399 19.516 51.9268 19.4985 52.1153 19.4985C52.1313 19.2078 52.1488 18.9011 52.1839 18.6279C52.1839 18.5257 52.2 18.4234 52.2 18.3037L52.2511 17.6376L52.2686 17.4506C52.3022 17.195 52.3197 16.9219 52.3533 16.6487C52.3709 16.4428 52.5242 16.2894 52.644 16.2047C52.6776 16.1872 52.7127 16.1536 52.7638 16.136C52.866 16.0513 53.0019 16.0002 53.1392 16.0002H53.2239C53.3948 15.9827 53.5657 15.9827 53.7366 15.9827H53.8388C54.1281 15.9827 54.4187 16.0002 54.6583 16.0338H54.8117C54.965 16.0338 55.1534 16.0338 55.3579 16.0674H55.4091C55.4777 16.0674 55.5449 16.0849 55.6311 16.1024C55.7669 16.136 55.9042 16.1872 56.0401 16.3069C56.1774 16.4267 56.2446 16.5626 56.2957 16.6648C56.3132 16.7335 56.3468 16.8357 56.3468 16.9043C56.3643 17.0241 56.3979 17.1264 56.3979 17.2111C56.4155 17.3645 56.433 17.5193 56.433 17.6887C56.433 17.9458 56.433 18.1839 56.4155 18.4234V18.5943C56.4155 18.6615 56.4155 18.7127 56.3979 18.7813C56.3979 18.8675 56.3819 18.9522 56.3819 19.0545V19.3787C56.7061 19.3963 57.0465 19.4123 57.3547 19.4474C57.4569 19.4474 57.5592 19.4634 57.6789 19.4634L58.3436 19.516L58.532 19.5321C58.7701 19.5496 59.0607 19.5832 59.3339 19.6183C59.5384 19.6343 59.6918 19.7877 59.7779 19.9075C59.794 19.9425 59.8291 19.9761 59.8466 20.0273C59.9313 20.1295 59.9824 20.2668 59.9824 20.4027V20.4888C60 20.6583 60 20.8292 60 21.0001C60 21.3243 59.9824 21.6661 59.9488 21.9393V22.0927C59.9488 22.246 59.9488 22.4505 59.9138 22.6389V22.6901C59.9138 22.7573 59.8977 22.8259 59.8802 22.9121C59.8466 23.0479 59.794 23.1852 59.6757 23.3211C59.5559 23.4569 59.4186 23.5256 59.3164 23.5767C59.2141 23.6278 59.1294 23.6453 59.0607 23.6629C58.941 23.6789 58.8387 23.714 58.754 23.714C58.6167 23.6789 58.4633 23.6789 58.2764 23.6789H58.1741C57.9521 23.6789 57.7461 23.6629 57.5416 23.6629H57.3707C57.3036 23.6629 57.2524 23.6629 57.1838 23.6453C57.0976 23.6453 57.0129 23.6278 56.9106 23.6278H56.3979V25.1294C56.3979 25.3689 56.3819 25.6246 56.3643 25.8641L56.3468 26.1022V26.3753C56.3468 26.444 56.3468 26.5302 56.3132 26.6149C56.2796 26.7347 56.2285 26.8544 56.1248 26.9728C55.989 27.1261 55.8005 27.2123 55.596 27.2123H55.5449C55.4938 27.2123 55.4427 27.2123 55.3915 27.1948H55.3404L55.2206 27.1787H54.9825C54.8964 27.1787 54.7941 27.1948 54.6743 27.2123C54.4699 27.2459 54.2654 27.2634 54.0769 27.281L53.9586 27.297C53.8564 27.3146 53.7527 27.3146 53.6343 27.3321C53.5832 27.3481 53.5146 27.3481 53.4459 27.3481Z" fill="#5E8FFF" fill-opacity="0.5"/>
</svg>
