<svg width="56" height="126" viewBox="0 0 56 126" fill="none" xmlns="http://www.w3.org/2000/svg">
<path d="M4.64961 116.126C5.39494 116.372 26.6768 116.311 27.4893 115.806C27.7932 115.614 27.9659 112.511 28.0683 108.769C28.0907 107.959 28.1195 94.8985 28.1195 94.8985H14.2653L14.3485 108.769C14.3485 108.769 6.21064 112.441 5.39174 113.1C4.57284 113.759 3.90108 115.889 4.64961 116.126Z" fill="#F7A9A0"/>
<path d="M28.0171 110.394C27.9115 113.372 27.7484 115.633 27.4861 115.8C26.68 116.311 5.39812 116.372 4.6496 116.119C3.90107 115.867 4.56003 113.733 5.38213 113.077C5.83957 112.713 8.5042 111.44 10.8202 110.368C10.014 110.867 8.98722 111.577 9.07999 111.999C9.24633 112.831 19.8441 113.368 28.0171 110.394Z" fill="#00BFBA"/>
<g opacity="0.4" filter="url(#filter0_d_289_2507)">
<path d="M28.0171 110.394C27.9115 113.372 27.7484 115.633 27.4861 115.8C26.68 116.311 5.39812 116.372 4.6496 116.119C3.90107 115.867 4.56003 113.733 5.38213 113.077C5.83957 112.713 8.5042 111.44 10.8202 110.368C10.014 110.867 8.98722 111.577 9.07999 111.999C9.24633 112.831 19.8441 113.368 28.0171 110.394Z" fill="black"/>
</g>
<path d="M33.2088 35.8415C33.2088 35.8415 29.4629 72.8744 29.3702 73.3415C29.3702 73.4054 29.3318 74.1188 29.2966 75.28C29.0983 81.6616 28.852 103.414 28.852 103.414H13.5935C13.5935 103.414 14.3196 78.0022 14.8922 72.5098C15.6216 65.5011 20.2471 35.8543 20.2471 35.8543L33.2088 35.8415Z" fill="#37474F"/>
<path d="M27.5532 74.6466C28.0245 66.6239 28.7325 58.6194 29.6772 50.633C30.2146 46.1322 30.8608 41.6506 31.5005 37.1627C31.5005 37.1243 31.5677 37.1275 31.5645 37.1627C30.3809 45.1438 29.5428 53.192 28.8231 61.2275C28.5672 64.0681 28.0842 68.9591 27.8283 74.6626C27.358 85.0748 27.1597 97.5279 27.0637 100.477C27.0599 100.497 27.0493 100.515 27.0339 100.527C27.0184 100.54 26.999 100.547 26.979 100.547C26.9589 100.547 26.9395 100.54 26.9241 100.527C26.9086 100.515 26.898 100.497 26.8942 100.477C27.1117 92.3362 27.0765 82.7717 27.5532 74.6466Z" fill="#263238"/>
<path d="M14.6428 100.855C21.6034 100.637 27.63 100.791 28.1482 100.832C28.5801 100.864 28.3402 100.912 28.1259 100.925C22.2144 101.277 14.8731 100.944 14.6396 100.925C14.6302 100.925 14.6214 100.92 14.6152 100.914C14.6089 100.907 14.6056 100.898 14.606 100.888C14.6064 100.879 14.6105 100.87 14.6174 100.864C14.6243 100.858 14.6334 100.854 14.6428 100.855Z" fill="#263238"/>
<path d="M33.2088 35.8415C33.2088 35.8415 29.4629 72.8744 29.3702 73.3415C29.3702 73.4054 29.3318 74.1188 29.2966 75.28L22.096 35.8415H33.2088Z" fill="#263238"/>
<path d="M28.7912 117.972C29.5621 118.106 51.0135 114.802 51.7397 114.175C52.0148 113.938 48.2018 93.6285 48.2018 93.6285L34.2037 95.6949L36.7627 109.594C36.7627 109.594 29.7733 114.072 29.0535 114.85C28.3338 115.627 28.0203 117.837 28.7912 117.972Z" fill="#F7A9A0"/>
<path d="M51.7396 114.171C51.0135 114.811 29.5621 118.106 28.788 117.972C28.0138 117.837 28.3497 115.62 29.0695 114.85C29.4885 114.402 31.9996 112.716 34.0437 111.369C33.3175 112.009 32.2971 112.969 32.4666 113.384C32.7865 114.171 43.3587 112.921 50.9207 108.605C51.4581 111.731 51.8324 114.095 51.7396 114.171Z" fill="#00BFBA"/>
<g opacity="0.4" filter="url(#filter1_d_289_2507)">
<path d="M51.7396 114.171C51.0135 114.811 29.5621 118.106 28.788 117.972C28.0138 117.837 28.3497 115.62 29.0695 114.85C29.4885 114.402 31.9996 112.716 34.0437 111.369C33.3175 112.009 32.2971 112.969 32.4666 113.384C32.7865 114.171 43.3587 112.921 50.9207 108.605C51.4581 111.731 51.8324 114.095 51.7396 114.171Z" fill="black"/>
</g>
<path d="M20.2471 35.8416C20.2471 35.8416 20.7013 39.6098 22.8638 42.3288C23.382 42.9686 24.9718 43.586 25.7939 44.1874C25.7939 44.1874 28.868 72.4203 29.802 75.6223C30.8416 79.173 34.901 103.452 34.901 103.452L50.6456 101.28C50.6456 101.28 46.0649 78.4885 44.9293 72.5834C44.6734 71.2655 41.2571 46.4137 41.3338 45.8379C42.2519 38.9956 38.9219 35.8288 38.9219 35.8288L20.2471 35.8416Z" fill="#37474F"/>
<path d="M32.278 36.1103C32.5673 37.3988 33.2279 38.5743 34.1781 39.4914C35.1131 40.4301 36.3257 41.0426 37.6361 41.238C37.8408 41.2604 37.8152 41.4012 37.5977 41.398C35.1058 41.398 32.5691 39.3667 32.1756 36.1295C32.1731 36.1159 32.1761 36.1019 32.1838 36.0905C32.1916 36.0791 32.2037 36.0712 32.2172 36.0687C32.2308 36.0661 32.2448 36.0691 32.2562 36.0769C32.2676 36.0847 32.2755 36.0967 32.278 36.1103Z" fill="#263238"/>
<path d="M22.5662 42.2168C23.4655 42.5796 24.3234 43.0375 25.1253 43.5827C25.9794 44.1105 26.7695 44.7311 27.5948 45.3037C27.6268 45.3229 27.5948 45.3773 27.566 45.3549C26.6991 44.8558 25.7971 44.424 24.943 43.9122C24.0873 43.442 23.2749 42.8971 22.5151 42.284C22.5023 42.2584 22.5311 42.204 22.5662 42.2168Z" fill="#263238"/>
<path d="M22.2176 37.0219C22.352 37.5945 22.5151 38.1575 22.6655 38.7237C22.8158 39.2899 22.9182 39.7985 23.0845 40.3231C23.2224 40.8316 23.5046 41.2894 23.897 41.641C24.1177 41.8266 24.3576 41.9897 24.5912 42.1592C24.7159 42.2488 24.8503 42.3384 24.9814 42.4279C24.9622 42.3544 24.943 42.2776 24.927 42.2008C24.8791 41.9833 24.8311 41.7658 24.7863 41.561C24.6807 41.0812 24.5816 40.6014 24.4856 40.1184C24.2969 39.1587 24.1177 38.1991 23.8746 37.2746C23.8729 37.2668 23.8741 37.2586 23.8781 37.2517C23.8821 37.2447 23.8886 37.2396 23.8962 37.2371C23.9038 37.2347 23.9121 37.2353 23.9194 37.2387C23.9266 37.242 23.9323 37.248 23.9354 37.2554C24.2137 38.1831 24.5208 39.0979 24.7703 40.032C24.8918 40.4926 25.3589 42.7606 25.3813 42.911C25.4037 43.0613 25.4293 43.2308 25.4421 43.41C25.4712 43.58 25.4798 43.7529 25.4676 43.925C25.4639 43.9324 25.4582 43.9386 25.4511 43.943C25.4441 43.9473 25.436 43.9496 25.4277 43.9496C25.4194 43.9496 25.4112 43.9473 25.4042 43.943C25.3971 43.9386 25.3914 43.9324 25.3877 43.925C25.309 43.7693 25.252 43.6035 25.2181 43.4324C25.1702 43.2724 25.1254 43.1125 25.087 42.9429C25.087 42.8854 25.0614 42.8246 25.0518 42.7638C24.8215 42.6359 24.6008 42.4631 24.3832 42.3224C24.1657 42.1816 23.9098 42.0185 23.6891 41.8457C23.2763 41.5299 22.9695 41.0959 22.8094 40.6014C22.6448 40.0693 22.5291 39.5232 22.4639 38.97C22.3616 38.3302 22.2784 37.6713 22.1441 37.0283C22.1345 37.0027 22.208 36.9835 22.2176 37.0219Z" fill="#263238"/>
<path d="M35.6335 100.359C42.495 99.1721 48.4832 98.4843 49.0046 98.4396C49.4365 98.414 49.2062 98.4907 49.0046 98.5355C43.1988 99.7063 35.8894 100.4 35.6495 100.407C35.6449 100.405 35.6407 100.403 35.6373 100.399C35.6339 100.396 35.6313 100.391 35.6297 100.387C35.6282 100.382 35.6277 100.377 35.6284 100.372C35.629 100.368 35.6308 100.363 35.6335 100.359Z" fill="#263238"/>
<path d="M45.8953 84.7646C44.9932 80.814 44.1775 76.8539 43.509 72.8585C42.8404 68.8632 42.303 64.8838 41.7912 60.8853C41.2794 56.8867 40.758 52.8178 40.2398 48.7841C40.115 47.8052 39.9199 46.7976 39.9551 45.806C39.9903 44.8143 40.3325 43.909 40.4253 42.9462C40.5661 41.0734 40.2964 39.1924 39.6352 37.4346C39.4785 36.9868 39.3153 36.5485 39.1106 36.1135C39.085 36.0591 38.9954 36.0815 39.0178 36.1455C39.6192 37.9688 40.179 39.8433 40.2078 41.7818C40.1912 42.7674 40.0646 43.7481 39.8303 44.7056C39.6534 45.6417 39.6361 46.601 39.7791 47.5429C40.2803 51.5564 40.7964 55.572 41.3274 59.5897C41.8392 63.5883 42.3638 67.5868 42.9972 71.5694C43.6305 75.5519 44.3759 79.4833 45.2747 83.4051C46.1736 87.3268 47.1013 91.303 48.0897 95.2408C48.2113 95.7302 48.3328 96.2164 48.464 96.7058C48.464 96.7602 48.5599 96.7346 48.5504 96.677C47.7442 92.6817 46.8006 88.7247 45.8953 84.7646Z" fill="#263238"/>
<path d="M24.0793 1.55962C25.2789 0.104145 27.3197 -0.250925 29.2998 0.158526C31.2799 0.567977 33.6502 1.598 33.8581 5.02715C34.0309 7.81334 33.1896 10.5324 33.196 13.6384C33.2024 16.7445 36.5676 24.3097 31.1295 28.0332C26.2449 31.3632 16.3637 28.3531 16.0758 21.5076C15.8487 16.0919 22.0544 11.073 22.7102 8.92654C23.366 6.78012 22.7742 3.15264 24.0793 1.55962Z" fill="#263238"/>
<path d="M23.1837 4.61772C23.1809 6.18695 22.8802 7.74138 22.2976 9.19846C22.1396 9.56826 21.9319 9.9148 21.6802 10.2285C21.4403 10.5484 21.1844 10.8363 20.9317 11.1306C20.4167 11.7127 19.9049 12.2885 19.4251 12.8899C18.4398 14.0678 17.6286 15.381 17.0163 16.7893C16.4273 18.2115 16.1022 19.729 16.0567 21.2677C15.998 20.4899 16.0227 19.7082 16.1303 18.9357C16.2476 18.1589 16.4426 17.3959 16.7124 16.6581C17.2734 15.1889 18.072 13.8218 19.0764 12.6116C19.569 12.0038 20.0936 11.4216 20.6118 10.8491C21.1517 10.3158 21.6127 9.70834 21.9809 9.04491C22.3124 8.35564 22.5657 7.63138 22.7359 6.8857C22.9284 6.1389 23.0779 5.38166 23.1837 4.61772Z" fill="#263238"/>
<path d="M33.7111 7.36869C33.6727 8.94892 33.5735 10.5291 33.6087 12.0966C33.6254 12.8779 33.6873 13.6576 33.7942 14.4317C33.903 15.193 34.1141 15.9544 34.3028 16.7253C34.4916 17.4962 34.6483 18.2767 34.7667 19.0636C34.8834 19.8556 34.9315 20.6561 34.9106 21.4564C34.8752 22.2606 34.7288 23.0561 34.4756 23.8203C34.1881 24.567 33.7529 25.2481 33.196 25.8228C33.6844 25.2093 34.0552 24.5109 34.29 23.7627C34.4939 23.0121 34.595 22.2373 34.5907 21.4596C34.5356 19.8966 34.3038 18.3449 33.8998 16.834C33.7271 16.0663 33.5095 15.305 33.404 14.4957C33.3076 13.7031 33.2702 12.9044 33.292 12.1062C33.3381 10.5201 33.478 8.9382 33.7111 7.36869Z" fill="#263238"/>
<path d="M26.952 20.6279C25.4965 24.2489 19.7066 35.9407 15.9032 36.766C13.4081 37.3066 3.32221 36.3309 1.58844 33.9446C0.830321 32.905 2.10986 25.6564 3.45337 25.9475C4.79688 26.2386 12.8835 27.3038 13.8752 27.0159C14.8668 26.728 22.3105 18.1584 25.0903 16.0311C29.8853 12.3589 27.7357 18.6798 26.952 20.6279Z" fill="#F7A9A0"/>
<path d="M6.50488 25.423L6.29055 36.299C6.29055 36.299 14.2876 37.7577 17.7008 36.4366C21.8593 34.8371 27.5276 21.6004 28.2953 19.4316C29.5493 15.8713 29.0919 13.76 27.1502 14.3486C26.3952 14.5725 25.4164 15.2091 24.2296 16.3319C22.9853 17.5027 15.8775 25.0743 13.6031 26.5362C12.33 27.3679 6.50488 25.423 6.50488 25.423Z" fill="#EBEBEB"/>
<path d="M8.31563 35.8512C8.3956 34.2518 8.48196 27.6494 8.40519 26.2227C8.40519 26.1267 8.33482 26.1043 8.32842 26.2067C7.97015 31.0209 8.24846 34.2646 8.25165 35.848C8.25123 35.8565 8.25419 35.8648 8.25989 35.8711C8.26559 35.8774 8.27356 35.8812 8.28204 35.8816C8.29053 35.882 8.29883 35.879 8.30513 35.8733C8.31143 35.8676 8.3152 35.8597 8.31563 35.8512Z" fill="#263238"/>
<path d="M9.65892 36.7789C12.2596 37.0508 15.7367 37.2075 17.6848 36.459C21.8433 34.8596 27.5116 21.626 28.2762 19.454C29.5333 15.8937 29.0759 13.7824 27.1342 14.371C27.0734 14.3902 27.0126 14.4094 26.9518 14.435L9.65892 36.7789Z" fill="#A6A6A6"/>
<path d="M20.8805 29.7829L19.3611 40.2399C19.3611 40.2399 36.3981 40.4894 40.6269 40.1919C40.6269 40.1919 37.1754 20.6471 32.6298 15.7113C30.3555 13.2418 27.6844 13.4241 25.9827 15.1515C25.5508 15.5897 20.4135 22.3808 19.8697 24.9751C19.3995 27.2814 20.8805 29.7829 20.8805 29.7829Z" fill="#00BFBA"/>
<path d="M30.7426 14.2622C30.7426 14.2622 29.2647 70.405 30.6722 72.8169C31.5327 74.2883 45.7259 70.7632 45.7259 70.7632C45.7259 70.7632 42.0569 37.4953 37.8408 25.6596C33.9318 14.6844 30.7426 14.2622 30.7426 14.2622Z" fill="#EBEBEB"/>
<path d="M41.4266 51.2184C41.5002 53.5471 41.3914 56.183 40.8956 56.6564C39.9679 57.5649 37.4952 57.4881 36.7371 57.4817C35.979 57.4753 33.1928 57.4817 32.5434 56.0454C32.2555 55.4056 32.1788 52.1652 32.1884 51.0136C32.1884 50.5466 32.2971 48.2467 32.3291 47.9875C32.3291 47.9268 32.505 47.9364 32.5082 47.9875C32.5498 48.2499 32.5242 49.2063 32.537 49.3886C36.993 49.9612 39.7536 49.4814 41.1739 49.2063C41.1739 48.7745 41.1739 48.4418 41.1739 48.0099C39.7808 48.2663 38.3679 48.4001 36.9514 48.4098C35.4064 48.4098 33.0808 48.1795 32.3227 48.0899C32.2875 48.0899 32.3227 47.914 32.3675 47.914C32.9465 47.914 34.9618 48.1187 36.9898 48.1187C38.4413 48.0884 39.8897 47.9719 41.3274 47.77C41.3914 47.7924 41.3914 50.102 41.4266 51.2184ZM40.6269 56.4005C41.1195 55.8375 41.1771 54.2093 41.1771 53.2368C41.1771 51.8965 41.1771 50.8281 41.1771 49.4878C37.7479 50.2843 33.9701 49.8909 32.5402 49.603C32.5402 49.6605 32.5146 52.4819 32.5402 53.3872C32.5754 54.5388 32.6106 55.5784 33.0521 56.1766C33.4327 56.6884 34.5011 57.2034 36.9546 57.2002C38.7172 57.197 40.2142 56.8739 40.6269 56.3909V56.4005Z" fill="#A6A6A6"/>
<path d="M19.6105 71.7677C19.0284 72.4714 14.3485 70.1683 14.3485 70.1683L20.7877 29.5942C19.9503 28.226 19.6239 26.6056 19.8665 25.0199C20.3079 22.4608 25.6499 15.0715 26.5136 14.6877C25.6204 18.5049 25.0015 22.3811 24.6615 26.2867C23.1772 42.2712 20.4358 70.7633 19.6105 71.7677Z" fill="#EBEBEB"/>
<path d="M21.5492 21.5651C22.0226 20.807 22.5089 20.0585 22.9791 19.294C22.9791 19.2716 22.9599 19.246 22.9439 19.2684C22.4673 19.9081 22.0034 20.5287 21.5428 21.1653C21.6932 20.823 21.8435 20.4807 21.981 20.1321C21.997 20.0937 21.9395 20.0585 21.9203 20.1001C21.7091 20.5479 21.5172 21.0022 21.3317 21.4596C20.9204 22.0297 20.5556 22.6319 20.2409 23.2605C19.555 24.5658 19.3511 26.0711 19.6651 27.5118C19.7603 27.9154 19.9031 28.3062 20.0905 28.6762C20.2153 28.9289 20.6247 29.4727 20.6215 29.4887C20.356 30.9793 20.1545 32.486 19.9466 33.9862C19.7387 35.4865 19.5179 37.0219 19.342 38.5414C19.2396 39.4051 19.1757 40.2719 19.0509 41.1292C19.0509 41.1612 19.0957 41.174 19.0989 41.1292C19.2077 40.3839 19.3708 39.6418 19.502 38.89C19.6331 38.1383 19.7611 37.3994 19.8826 36.6509C20.1257 35.141 20.3401 33.6248 20.5576 32.1117C20.6823 31.2544 20.8167 30.4003 20.9158 29.5526C20.7715 29.2297 20.6081 28.9157 20.4264 28.6122C20.273 28.2965 20.1478 27.9678 20.0522 27.6301C19.8545 26.9428 19.7926 26.2235 19.8698 25.5125C20.0362 24.0826 20.7879 22.7807 21.5492 21.5651Z" fill="#263238"/>
<path d="M26.472 14.8539C25.9709 15.6152 25.4612 16.3691 24.943 17.1155C24.4215 17.8608 23.9097 18.6157 23.3787 19.3547V19.1755L24.6583 20.5158L24.7638 20.6246L24.6519 20.7334C24.1145 21.2548 23.5675 21.7666 23.0237 22.2784L23.0684 22.144C23.2668 23.5323 23.4779 24.9142 23.6538 26.3025C23.8298 27.6908 24.0153 29.0791 24.1688 30.461C23.9065 29.0855 23.6613 27.7068 23.4331 26.3249C23.1932 24.9462 22.9853 23.5611 22.7678 22.1664V22.0897L22.8253 22.0353C23.3659 21.5171 23.9033 20.9957 24.4503 20.487V20.7046L23.1964 19.3451L23.094 19.2843L23.1612 19.1947C23.6986 18.459 24.2552 17.7392 24.8022 17.0131C25.3492 16.287 25.9058 15.5672 26.472 14.8539Z" fill="#A6A6A6"/>
<path d="M35.3649 17.6178C42.0825 23.9067 49.958 34.8084 47.175 37.4794C45.3261 39.2515 36.0622 27.4062 36.2254 27.435C36.5709 27.499 34.562 23.5644 32.0989 18.7982C29.3511 13.4721 31.5327 14.0255 35.3649 17.6178Z" fill="#F7A9A0"/>
<path d="M32.0956 14.8763C36.7628 17.1891 49.6061 32.15 47.9267 36.7659C46.2473 41.3819 35.6432 27.4893 35.7519 27.3006C35.8607 27.1119 33.1705 21.8338 32.0733 19.6938C30.9761 17.5537 29.6102 13.6416 32.0956 14.8763Z" fill="#EBEBEB"/>
<path d="M32.7323 22.1921C32.9882 22.464 33.2409 22.7391 33.484 23.0238L33.6151 23.187L33.3944 22.7327C33.1166 22.2138 32.8678 21.6798 32.6491 21.1333C32.6491 21.1077 32.6747 21.0949 32.6907 21.1141C33.0209 21.6361 33.3231 22.1753 33.5959 22.7295C33.8806 23.2573 34.1717 23.7883 34.4468 24.3289C34.7219 24.8695 35.0034 25.3974 35.2689 25.9284C35.5499 26.4507 35.7926 26.9927 35.9951 27.5502C35.9956 27.5567 35.9942 27.5633 35.991 27.569C35.9877 27.5746 35.9828 27.5792 35.9768 27.582C35.9709 27.5848 35.9642 27.5857 35.9578 27.5846C35.9513 27.5835 35.9453 27.5804 35.9407 27.5758C35.5935 27.0655 35.2835 26.531 35.013 25.9763C34.7315 25.4453 34.4628 24.9047 34.1909 24.3769C34.0758 24.153 33.9638 23.9259 33.855 23.6988L33.7239 23.5516C33.6023 23.4173 33.4904 23.2733 33.3784 23.1294C33.1481 22.8351 32.9306 22.5312 32.7131 22.2241C32.6907 22.1953 32.7227 22.1825 32.7323 22.1921Z" fill="#263238"/>
<path d="M30.7713 14.9051C31.1232 15.7208 31.4782 16.5333 31.8461 17.3426C32.214 18.152 32.5722 18.9421 32.9529 19.7578L32.9881 19.585L31.6382 20.743L31.5262 20.839L31.6126 20.9605C32.0284 21.5459 32.4539 22.1249 32.8761 22.7007L32.8537 22.5631C32.4795 23.9099 32.0892 25.2534 31.7341 26.6065C31.3791 27.9596 31.0112 29.3095 30.6753 30.6658C31.1018 29.3393 31.5198 28.0065 31.9293 26.6673C32.3451 25.3333 32.7258 23.9898 33.1224 22.6495L33.1448 22.5727L33.1 22.512C32.681 21.9266 32.2651 21.3412 31.8397 20.7654L31.8141 20.9829L33.1448 19.7994L33.228 19.7258L33.18 19.6266C32.7962 18.8301 32.3899 18.0464 31.9933 17.2563C31.5966 16.4662 31.1839 15.6825 30.7713 14.9051Z" fill="#A6A6A6"/>
<path d="M31.4591 16.1943C31.5711 14.5181 30.202 13.9232 28.948 13.7536C27.4638 13.5521 26.4721 13.6769 25.7492 15.1195C24.9975 16.639 24.6072 18.4047 24.3129 20.0681C24.2965 20.1265 24.2591 20.1767 24.2079 20.2092C24.1568 20.2417 24.0954 20.2542 24.0356 20.2443C23.9758 20.2344 23.9218 20.2028 23.8838 20.1555C23.8459 20.1083 23.8267 20.0487 23.8299 19.9882C24.169 18.0689 24.652 14.499 26.5585 13.4529C28.3115 12.4933 32.1181 13.4337 31.9293 16.2711C31.9101 16.591 31.4239 16.5078 31.4463 16.1943H31.4591Z" fill="#455A64"/>
<path d="M22.8255 20.7654C22.7899 20.9857 22.8206 21.2117 22.9138 21.4145C23.0069 21.6174 23.1582 21.7879 23.3484 21.9046C23.5387 22.0213 23.7594 22.0788 23.9824 22.0698C24.2054 22.0608 24.4207 21.9858 24.601 21.8542C24.7812 21.7226 24.9183 21.5404 24.9948 21.3307C25.0713 21.121 25.0838 20.8934 25.0307 20.6766C24.9775 20.4598 24.8611 20.2637 24.6963 20.1132C24.5315 19.9627 24.3257 19.8646 24.105 19.8313C23.8117 19.7871 23.5128 19.8604 23.2732 20.0353C23.0336 20.2102 22.8727 20.4726 22.8255 20.7654Z" fill="#263238"/>
<path d="M23.2701 20.8358C23.2489 20.9684 23.2675 21.1042 23.3236 21.2262C23.3796 21.3482 23.4707 21.4507 23.5851 21.5209C23.6995 21.5911 23.8322 21.6258 23.9663 21.6205C24.1005 21.6153 24.23 21.5703 24.3386 21.4913C24.4471 21.4124 24.5298 21.303 24.5762 21.177C24.6225 21.051 24.6304 20.9141 24.5989 20.7836C24.5674 20.6531 24.4978 20.535 24.3991 20.444C24.3003 20.3531 24.1768 20.2935 24.0442 20.2728C23.8669 20.2452 23.6859 20.2889 23.5408 20.3944C23.3957 20.5 23.2984 20.6587 23.2701 20.8358Z" fill="#EBEBEB"/>
<path d="M29.7668 21.4436C28.5353 26.1491 28.7272 27.2975 29.127 27.8413C29.4225 28.219 29.8013 28.5234 30.2339 28.7306L30.3746 28.4107C30.0019 28.2246 29.6744 27.9593 29.415 27.6334C29.1335 27.2399 28.8967 26.1843 30.1155 21.5236L29.7668 21.4436Z" fill="#C7C7C7"/>
<path d="M30.8792 28.8733L30.8699 28.8901C30.7752 29.0618 30.5592 29.1243 30.3875 29.0296L29.9729 28.801C29.8012 28.7064 29.7387 28.4904 29.8334 28.3187L29.8427 28.3019C29.9374 28.1301 30.1533 28.0677 30.3251 28.1623L30.7397 28.3909C30.9114 28.4856 30.9738 28.7016 30.8792 28.8733Z" fill="#263238"/>
<path d="M32.8377 21.5556C33.7781 25.0999 34.0052 27.0384 33.5574 27.6622C33.2994 27.9903 32.9716 28.2569 32.5978 28.4427L32.7417 28.7626C33.1728 28.5532 33.5503 28.2479 33.8453 27.8701C34.3795 27.128 34.1844 25.2759 33.1767 21.4724L32.8377 21.5556Z" fill="#C7C7C7"/>
<path d="M33.1205 28.3494C33.0748 28.2671 32.9982 28.2063 32.9076 28.1804C32.8171 28.1546 32.72 28.1658 32.6377 28.2115L32.2267 28.44C32.1856 28.4629 32.1493 28.4936 32.1201 28.5305C32.0908 28.5673 32.0692 28.6096 32.0562 28.6548C32.0433 28.7001 32.0394 28.7474 32.0448 28.7941C32.0502 28.8409 32.0648 28.8861 32.0876 28.9272C32.1334 29.0095 32.2099 29.0703 32.3005 29.0961C32.3911 29.122 32.4882 29.1108 32.5705 29.065L32.9815 28.8366C33.0638 28.7908 33.1245 28.7142 33.1504 28.6237C33.1762 28.5331 33.165 28.436 33.1193 28.3537L33.1205 28.3494Z" fill="#263238"/>
<path d="M33.2856 21.3189C33.1274 20.5342 32.9223 19.7598 32.6714 18.9997C32.5202 18.6645 32.2829 18.3754 31.9836 18.1616C31.9165 18.1616 31.9453 17.5602 31.9836 17.0708C32.0124 16.6422 32.0572 16.14 31.9548 16.0024C31.895 15.9381 31.8126 15.8994 31.7249 15.8947C31.6372 15.8899 31.551 15.9193 31.4846 15.9768C31.3663 16.1048 31.3631 16.6166 31.3471 17.0388C31.3311 17.5282 31.2991 18.1264 31.2319 18.1264C30.9302 18.3222 30.68 18.5877 30.5026 18.9006C30.1754 19.6513 29.9049 20.4254 29.6933 21.2165C29.5845 21.7219 29.7509 21.7827 29.8948 21.8339C30.0995 21.9011 30.2147 21.7635 30.3874 21.1941C30.6401 20.3112 30.96 18.8206 31.5742 18.827C32.1852 18.8878 32.4347 20.4648 32.633 21.3413C32.7578 21.8915 32.8729 21.9458 33.084 21.8979C33.2312 21.8691 33.3815 21.8051 33.2856 21.3189Z" fill="#263238"/>
<path d="M27.4732 21.901C27.4732 21.901 28.6567 20.1257 27.3836 19.4187C26.1105 18.7118 25.2244 20.6503 25.2244 20.6503L27.4732 21.901Z" fill="#455A64"/>
<path d="M17.9759 33.6791L17.9215 35.7648L17.9023 36.4525L18.4813 36.075L20.2151 34.9331L27.4988 21.8178L25.2596 20.5703L17.9759 33.6791Z" fill="#455A64"/>
<path d="M17.9247 35.768L17.9055 36.4557L18.4845 36.0783L17.9247 35.768Z" fill="#37474F"/>
<path d="M25.1187 20.3942L27.7438 21.8541L27.4546 22.3741L24.8296 20.9142L25.1187 20.3942Z" fill="#263238"/>
<path d="M24.7959 20.9754L27.4209 22.4353L27.1317 22.9553L24.5067 21.4954L24.7959 20.9754Z" fill="#263238"/>
<path d="M27.131 22.9566L26.2865 22.4864L24.1177 27.4862L24.4376 27.6429L27.131 22.9566Z" fill="#263238"/>
<path d="M47.1749 37.4794C44.6479 39.9329 34.5779 38.6181 28.1579 36.6924C26.9359 36.3278 30.8833 25.4613 32.1404 25.9859C33.4647 26.5545 34.8237 27.0385 36.2093 27.435C36.5708 27.499 49.9419 34.7891 47.1749 37.4794Z" fill="#F7A9A0"/>
<path d="M16.9618 26.4402C17.0546 27.6557 20.0359 27.1727 20.0359 27.1727C19.6221 27.4977 19.3347 27.9571 19.2234 28.4714C19.0699 29.3863 20.439 30.0293 20.439 30.0293C20.0781 30.4552 19.8551 30.9805 19.7992 31.5359C19.7384 32.4252 21.0276 33.2697 21.0276 33.2697C20.9141 33.844 21.0106 34.4399 21.2995 34.9491C22.128 36.2798 24.5303 36.1103 26.0369 36.3022C27.728 36.5489 29.3959 36.934 31.0239 37.4538L32.8856 26.2898C32.8856 26.2898 26.1457 22.9982 24.3544 23.2317C22.8477 23.4429 16.8179 24.5784 16.9618 26.4402Z" fill="#F7A9A0"/>
<path d="M20.0584 27.1343C21.613 26.5425 23.3052 26.3218 24.9398 26.1299C24.975 26.1299 24.9814 26.1811 24.9398 26.1843C23.3116 26.3602 21.6898 26.9744 20.0712 27.2111C20.0629 27.2095 20.0553 27.2053 20.0494 27.1993C20.0435 27.1932 20.0396 27.1855 20.0382 27.1772C20.0368 27.1688 20.038 27.1602 20.0416 27.1526C20.0452 27.1449 20.0511 27.1386 20.0584 27.1343Z" fill="#263238"/>
<path d="M20.4708 29.9013C20.8367 29.8008 21.2142 29.7492 21.5936 29.7477C21.9967 29.7189 22.3965 29.6998 22.7964 29.6838C23.6025 29.655 24.3958 29.6454 25.2083 29.6614C25.2435 29.6614 25.2531 29.7157 25.2083 29.7157C24.4086 29.7435 23.6089 29.7883 22.8092 29.8501C22.4083 29.8821 22.0084 29.9173 21.6096 29.9557C21.2353 30.0153 20.8555 30.0335 20.4772 30.01C20.4657 30.0068 20.4554 30.0001 20.4478 29.9907C20.4403 29.9814 20.4359 29.9699 20.4352 29.9579C20.4345 29.946 20.4375 29.9341 20.4439 29.9239C20.4503 29.9137 20.4597 29.9058 20.4708 29.9013Z" fill="#263238"/>
<path d="M21.0629 33.2696C21.3943 33.1815 21.7386 33.1522 22.0801 33.1833L23.1805 33.1609C23.913 33.1417 24.6456 33.1225 25.3749 33.0777C25.4133 33.0777 25.4197 33.1321 25.3749 33.1353C24.6328 33.1833 23.8906 33.244 23.1357 33.2856L22.0385 33.34C21.7076 33.3893 21.3703 33.3774 21.0437 33.3048C21.039 33.3023 21.0356 33.298 21.0341 33.2929C21.0326 33.2878 21.0331 33.2823 21.0357 33.2776C21.0382 33.273 21.0425 33.2695 21.0476 33.268C21.0527 33.2665 21.0582 33.2671 21.0629 33.2696Z" fill="#263238"/>
<path d="M47.9267 36.766C46.2474 41.3563 31.5583 37.8376 31.5583 37.8376L31.7055 25.746C31.7055 25.746 35.6432 27.5021 35.752 27.3006C35.8607 27.0991 49.6061 32.1596 47.9267 36.766Z" fill="#EBEBEB"/>
<path d="M33.2984 36.99C33.4167 35.3905 33.6534 28.7945 33.6182 27.3679C33.6182 27.2687 33.5511 27.2463 33.5415 27.3487C33.0744 32.1469 33.2792 35.4033 33.244 36.9836C33.2344 37.0251 33.2952 37.0315 33.2984 36.99Z" fill="#263238"/>
<path d="M31.7951 25.7493C32.224 25.8633 32.6433 26.0109 33.049 26.1907C33.4169 26.3346 33.7848 26.4754 34.1526 26.6257C34.9459 26.9456 35.7361 27.2911 36.5198 27.6398C37.3035 27.9884 38.0872 28.3435 38.8645 28.7114C39.6418 29.0792 40.3904 29.4887 41.1677 29.8566C41.2029 29.8566 41.1677 29.9269 41.1357 29.9109C40.352 29.5559 39.5363 29.252 38.7462 28.9193L36.4142 27.9309C35.6369 27.611 34.8564 27.2911 34.0791 26.9488C33.6984 26.7889 33.3209 26.6289 32.9403 26.4594C32.5256 26.3027 32.1226 26.1167 31.7343 25.9028C31.7164 25.8931 31.7027 25.8772 31.6958 25.8581C31.6889 25.839 31.6892 25.818 31.6966 25.7991C31.7041 25.7802 31.7183 25.7647 31.7364 25.7555C31.7546 25.7463 31.7754 25.7441 31.7951 25.7493Z" fill="#263238"/>
<path d="M31.507 37.5753C31.507 37.4954 31.5486 37.4762 31.571 37.5593L31.6062 37.7385C32.1052 37.8216 33.9286 38.1991 34.3732 38.2887C35.3073 38.471 36.2253 38.6981 37.169 38.8165C38.4806 38.9845 39.8006 39.0795 41.1227 39.1012C41.1291 39.1033 41.1347 39.1074 41.1387 39.1128C41.1426 39.1183 41.1447 39.1248 41.1447 39.1316C41.1447 39.1383 41.1426 39.1449 41.1387 39.1503C41.1347 39.1558 41.1291 39.1599 41.1227 39.162C39.8016 39.1985 38.4795 39.1612 37.1626 39.05C36.2029 38.9412 35.2433 38.7877 34.2836 38.5926C33.8102 38.4923 33.34 38.3857 32.8729 38.2727C32.417 38.1848 31.9711 38.0508 31.5422 37.8728C31.5272 37.8646 31.5147 37.8526 31.5057 37.838C31.4967 37.8234 31.4917 37.8068 31.491 37.7897L31.507 37.5753Z" fill="#263238"/>
<path d="M8.12674 37.425L20.7909 37.6969L15.225 21.3252L2.56077 21.0533L8.12674 37.425Z" fill="white"/>
<path d="M7.25997 37.4059L19.9242 37.6778L14.3582 21.3061L1.694 21.0342L7.25997 37.4059Z" fill="#37474F"/>
<path d="M13.0114 21.2772C13.0512 21.4192 13.1185 21.5518 13.2096 21.6677C13.3008 21.7835 13.4139 21.8802 13.5424 21.9522C13.6608 22.0194 13.696 21.8626 13.5776 21.7987C13.4139 21.701 13.2878 21.5512 13.2194 21.3732C13.2194 21.3444 13.197 21.3124 13.1906 21.2836C13.1619 21.179 13.1619 21.0685 13.1906 20.9638C13.2009 20.9188 13.227 20.8791 13.2641 20.8518H13.2801H13.3025C13.3316 20.8423 13.363 20.8423 13.3921 20.8518C13.447 20.8719 13.4964 20.9048 13.536 20.9478C13.5843 20.9995 13.6252 21.0576 13.6576 21.1205C13.6776 21.1503 13.6958 21.1813 13.712 21.2133V21.2357C13.7192 21.2453 13.7246 21.2561 13.728 21.2677C13.728 21.2677 13.728 21.2677 13.728 21.29H13.9071C13.868 21.1763 13.8131 21.0686 13.744 20.9702C13.6922 20.885 13.6225 20.8122 13.5396 20.757C13.4567 20.7017 13.3626 20.6653 13.2641 20.6503C13.1927 20.6467 13.1227 20.6711 13.069 20.7183C13.0152 20.7655 12.982 20.8317 12.9762 20.903C12.9558 21.0287 12.9679 21.1575 13.0114 21.2772Z" fill="#C7C7C7"/>
<path d="M12.0198 21.2581C12.102 21.5429 12.2927 21.784 12.5508 21.9298C12.6691 21.997 12.7043 21.8402 12.586 21.7763C12.4216 21.6794 12.2952 21.5293 12.2277 21.3508C12.2277 21.322 12.2085 21.29 12.2021 21.2613C12.1719 21.1568 12.1719 21.0459 12.2021 20.9414C12.2133 20.8977 12.2393 20.8593 12.2757 20.8326C12.2841 20.8343 12.2928 20.8343 12.3013 20.8326C12.3293 20.8231 12.3596 20.8231 12.3876 20.8326C12.4431 20.8532 12.4926 20.8872 12.5316 20.9318C12.5807 20.9823 12.6227 21.0394 12.6563 21.1013C12.6753 21.1323 12.6924 21.1643 12.7075 21.1973V21.2197C12.7093 21.2303 12.7093 21.2411 12.7075 21.2517C12.7075 21.2517 12.7075 21.2517 12.7075 21.2741H12.8899C12.8481 21.1609 12.7922 21.0534 12.7235 20.9542C12.6713 20.8694 12.6014 20.797 12.5186 20.7418C12.4358 20.6866 12.342 20.6499 12.2437 20.6343C12.1725 20.6315 12.1029 20.6562 12.0493 20.7032C11.9958 20.7502 11.9623 20.816 11.9558 20.887C11.9456 21.0141 11.9676 21.1417 12.0198 21.2581Z" fill="#C7C7C7"/>
<path d="M11.0313 21.2356C11.1111 21.5216 11.3008 21.7642 11.5591 21.9106C11.6774 21.9778 11.7126 21.8178 11.5942 21.7539C11.4309 21.6572 11.3048 21.5085 11.236 21.3316C11.236 21.3028 11.2168 21.2676 11.2104 21.2388C11.1812 21.1342 11.1812 21.0236 11.2104 20.919C11.2207 20.874 11.2468 20.8343 11.284 20.807H11.3H11.3255C11.3547 20.7979 11.3859 20.7979 11.4151 20.807C11.4695 20.8264 11.518 20.8594 11.5559 20.903C11.6058 20.954 11.6478 21.0123 11.6806 21.0757C11.6996 21.1055 11.7167 21.1365 11.7318 21.1685V21.1909C11.7331 21.2015 11.7331 21.2122 11.7318 21.2229C11.7331 21.2303 11.7331 21.2378 11.7318 21.2452H11.9109C11.8705 21.1315 11.8145 21.0238 11.7446 20.9254C11.6922 20.8408 11.6223 20.7684 11.5395 20.7132C11.4567 20.658 11.363 20.6213 11.2648 20.6055C11.1937 20.6035 11.1246 20.6284 11.0712 20.6753C11.0178 20.7222 10.9841 20.7875 10.9769 20.8582C10.9609 20.9866 10.9797 21.117 11.0313 21.2356Z" fill="#C7C7C7"/>
<path d="M10.0397 21.2037C10.1208 21.4881 10.3103 21.7293 10.5675 21.8754C10.6858 21.9426 10.721 21.7859 10.6058 21.7219C10.4413 21.6252 10.3149 21.475 10.2476 21.2964C10.2351 21.2676 10.2255 21.2376 10.2188 21.2069C10.1902 21.1022 10.1902 20.9917 10.2188 20.887C10.2284 20.8426 10.2547 20.8036 10.2924 20.7782H10.318C10.3473 20.7705 10.3782 20.7705 10.4075 20.7782C10.4618 20.7995 10.5109 20.8322 10.5515 20.8742C10.598 20.9273 10.6387 20.9852 10.673 21.0469C10.6922 21.0757 10.7082 21.1077 10.7274 21.1429V21.1621C10.7287 21.1738 10.7287 21.1856 10.7274 21.1973C10.7274 21.1973 10.7274 21.1973 10.7274 21.2165H10.9065C10.8673 21.1028 10.8124 20.9951 10.7434 20.8966C10.6917 20.8114 10.6219 20.7386 10.539 20.6834C10.4561 20.6281 10.3621 20.5917 10.2636 20.5767C10.1918 20.5731 10.1214 20.5974 10.0672 20.6445C10.0129 20.6916 9.979 20.7579 9.97248 20.8294C9.96123 20.9579 9.98442 21.0871 10.0397 21.2037Z" fill="#C7C7C7"/>
<path d="M9.04806 21.2037C9.12829 21.4886 9.31805 21.7301 9.57586 21.8754C9.69422 21.9426 9.7326 21.7859 9.61425 21.7219C9.44902 21.626 9.32234 21.4756 9.25598 21.2965C9.25598 21.2677 9.23359 21.2357 9.22719 21.2069C9.19863 21.1022 9.19863 20.9917 9.22719 20.887C9.23973 20.8439 9.26547 20.8059 9.30077 20.7782H9.31676H9.33915C9.36828 20.7689 9.39959 20.7689 9.42872 20.7782C9.4846 20.7964 9.53441 20.8296 9.57267 20.8742C9.62084 20.9248 9.66174 20.9819 9.69422 21.0437C9.71341 21.0725 9.72941 21.1077 9.7486 21.1397V21.1621V21.1941C9.7486 21.1941 9.7486 21.1941 9.7486 21.2165H9.92774C9.88847 21.1028 9.83356 20.9951 9.76459 20.8966C9.71189 20.8123 9.64186 20.7401 9.55913 20.685C9.4764 20.6298 9.38287 20.5929 9.28477 20.5767C9.2134 20.5747 9.14386 20.5995 9.08995 20.6463C9.03603 20.6931 9.00167 20.7585 8.99368 20.8294C8.98004 20.9568 8.99874 21.0855 9.04806 21.2037Z" fill="#C7C7C7"/>
<path d="M8.05951 21.1718C8.13962 21.4575 8.32931 21.7001 8.58731 21.8467C8.70887 21.9139 8.74405 21.754 8.6257 21.6932C8.46116 21.5965 8.33472 21.4463 8.26743 21.2677C8.25593 21.2374 8.24632 21.2065 8.23864 21.175C8.20944 21.0704 8.20944 20.9597 8.23864 20.8551C8.25036 20.8108 8.27619 20.7715 8.31222 20.7431H8.32821H8.3506C8.3797 20.7336 8.41107 20.7336 8.44017 20.7431C8.4951 20.7632 8.54445 20.7961 8.58412 20.8391C8.6331 20.8902 8.67407 20.9485 8.70567 21.0118C8.72567 21.0416 8.74384 21.0726 8.76005 21.1046V21.127C8.76728 21.1366 8.77269 21.1474 8.77604 21.159C8.77709 21.1664 8.77709 21.174 8.77604 21.1814H8.95518C8.91521 21.068 8.86036 20.9604 8.79204 20.8615C8.73999 20.7766 8.67012 20.7041 8.58727 20.6488C8.50443 20.5936 8.41059 20.557 8.31222 20.5416C8.2408 20.5381 8.1708 20.5625 8.11705 20.6096C8.06331 20.6568 8.03006 20.723 8.02432 20.7943C8.00163 20.921 8.01379 21.0515 8.05951 21.1718Z" fill="#C7C7C7"/>
<path d="M7.06489 21.1525C7.14621 21.4377 7.3371 21.6792 7.59589 21.8242C7.71425 21.8914 7.74944 21.7347 7.63108 21.6707C7.46671 21.5738 7.34032 21.4237 7.27281 21.2452C7.27281 21.2164 7.25042 21.1845 7.24402 21.1557C7.2153 21.051 7.2153 20.9405 7.24402 20.8358C7.25447 20.7918 7.28063 20.7531 7.31759 20.727C7.31759 20.727 7.3176 20.727 7.33359 20.727H7.35598C7.38531 20.7191 7.41621 20.7191 7.44554 20.727C7.49986 20.7483 7.54896 20.781 7.58949 20.823C7.63703 20.8753 7.67787 20.9333 7.71105 20.9957C7.73173 21.0262 7.74991 21.0583 7.76543 21.0917V21.1141C7.77385 21.1229 7.77942 21.134 7.78143 21.1461C7.78143 21.1461 7.78143 21.1461 7.78143 21.1685H7.96376C7.92197 21.0553 7.86608 20.9478 7.79742 20.8486C7.74569 20.7634 7.67592 20.6906 7.59302 20.6354C7.51012 20.5801 7.4161 20.5437 7.31759 20.5287C7.24617 20.5251 7.17618 20.5495 7.12244 20.5967C7.0687 20.6439 7.03543 20.7101 7.0297 20.7814C7.01037 20.9061 7.02247 21.0336 7.06489 21.1525Z" fill="#C7C7C7"/>
<path d="M6.07317 21.1301C6.1548 21.4152 6.34562 21.6566 6.60418 21.8018C6.72254 21.869 6.75772 21.7123 6.63936 21.6483C6.47521 21.5526 6.34878 21.4036 6.2811 21.2261C6.2811 21.1941 6.2619 21.1621 6.2555 21.1333C6.22511 21.0288 6.22511 20.9179 6.2555 20.8134C6.26672 20.7697 6.29272 20.7313 6.32908 20.7046H6.34508H6.37066C6.39871 20.6954 6.42898 20.6954 6.45703 20.7046C6.51291 20.7228 6.56272 20.756 6.60098 20.8006C6.65012 20.8512 6.69209 20.9082 6.72573 20.9701C6.74492 21.0021 6.76092 21.0341 6.77691 21.0661V21.0885C6.77819 21.0991 6.77819 21.1099 6.77691 21.1205C6.77691 21.1205 6.77691 21.1365 6.77691 21.1429H6.95925C6.91746 21.0297 6.86157 20.9222 6.79291 20.823C6.74021 20.7387 6.67017 20.6666 6.58744 20.6114C6.50471 20.5562 6.41119 20.5193 6.31309 20.5031C6.24206 20.5011 6.17292 20.5261 6.11952 20.573C6.06613 20.6198 6.03243 20.6851 6.02519 20.7558C6.00939 20.8826 6.02589 21.0114 6.07317 21.1301Z" fill="#C7C7C7"/>
<path d="M5.08468 21.1077C5.12372 21.2495 5.19046 21.3822 5.28105 21.498C5.37164 21.6139 5.48429 21.7106 5.61249 21.7827C5.73085 21.8499 5.76603 21.6931 5.64767 21.6291C5.48476 21.5305 5.35886 21.381 5.2894 21.2037C5.2894 21.1749 5.27022 21.1429 5.26382 21.1141C5.23526 21.0094 5.23526 20.899 5.26382 20.7942C5.2741 20.7493 5.30021 20.7096 5.33739 20.6823H5.36298C5.39214 20.6732 5.42339 20.6732 5.45255 20.6823C5.50693 20.7016 5.55541 20.7347 5.5933 20.7782C5.64252 20.8299 5.68449 20.888 5.71805 20.951C5.737 20.9808 5.75409 21.0118 5.76923 21.0438V21.0661C5.77 21.0768 5.77 21.0875 5.76923 21.0981C5.76923 21.0981 5.76923 21.0981 5.76923 21.1205H5.94836C5.9074 21.007 5.85146 20.8994 5.78203 20.8006C5.73064 20.7152 5.66097 20.6422 5.578 20.5869C5.49504 20.5316 5.40084 20.4953 5.3022 20.4808C5.23078 20.4772 5.16078 20.5016 5.10704 20.5488C5.0533 20.5959 5.02004 20.6622 5.01431 20.7335C5.00326 20.8623 5.02759 20.9917 5.08468 21.1077Z" fill="#C7C7C7"/>
<path d="M4.09313 21.0885C4.1743 21.3729 4.36382 21.6141 4.62094 21.7603C4.73929 21.8274 4.77448 21.6707 4.65932 21.6067C4.49409 21.5108 4.36742 21.3604 4.30105 21.1813C4.28858 21.1524 4.27894 21.1224 4.27226 21.0917C4.2437 20.987 4.2437 20.8765 4.27226 20.7718C4.28349 20.7281 4.30949 20.6897 4.34584 20.6631H4.37143C4.40076 20.6552 4.43166 20.6552 4.46099 20.6631C4.51607 20.6844 4.56538 20.7184 4.60494 20.7622C4.65212 20.8136 4.69292 20.8706 4.72649 20.9318C4.74569 20.9605 4.76168 20.9957 4.78088 21.0277V21.0501C4.78267 21.0607 4.78267 21.0715 4.78088 21.0821C4.78264 21.0895 4.78264 21.0971 4.78088 21.1045H4.96001C4.92074 20.9908 4.86583 20.8831 4.79687 20.7846C4.74465 20.6999 4.67474 20.6274 4.59192 20.5722C4.50911 20.517 4.41534 20.4803 4.31704 20.4647C4.24528 20.4611 4.17491 20.4854 4.12066 20.5325C4.0664 20.5796 4.03247 20.6459 4.02596 20.7174C4.01513 20.8449 4.0383 20.9729 4.09313 21.0885Z" fill="#C7C7C7"/>
<path d="M3.10121 21.0661C3.18226 21.3513 3.3717 21.5936 3.62902 21.741C3.75057 21.8082 3.78576 21.6483 3.6674 21.5843C3.50239 21.4896 3.37567 21.3403 3.30913 21.162C3.30913 21.1332 3.28674 21.0981 3.28034 21.0693C3.25114 20.9646 3.25114 20.854 3.28034 20.7494C3.29206 20.7051 3.31789 20.6658 3.35392 20.6374H3.36991H3.39231C3.42144 20.6281 3.45274 20.6281 3.48187 20.6374C3.5368 20.6575 3.58615 20.6904 3.62582 20.7334C3.6748 20.7845 3.71577 20.8428 3.74737 20.9061C3.76656 20.9349 3.78256 20.9669 3.80176 20.9989V21.0213C3.80834 21.0313 3.81371 21.042 3.81775 21.0533C3.81775 21.0533 3.81775 21.0533 3.81775 21.0757H3.99688C3.95761 20.962 3.90271 20.8543 3.83375 20.7558C3.78105 20.6715 3.71101 20.5993 3.62827 20.5442C3.54554 20.489 3.45202 20.4521 3.35392 20.4359C3.28255 20.4339 3.21302 20.4587 3.1591 20.5055C3.10518 20.5523 3.07082 20.6177 3.06283 20.6886C3.04342 20.8157 3.05663 20.9455 3.10121 21.0661Z" fill="#C7C7C7"/>
<path d="M2.1097 21.0469C2.19087 21.3313 2.38038 21.5725 2.6375 21.7187C2.75906 21.7859 2.79425 21.6291 2.6759 21.5651C2.50536 21.4713 2.37297 21.3208 2.30163 21.1397C2.30163 21.1109 2.27924 21.0789 2.27284 21.0501C2.24428 20.9454 2.24428 20.835 2.27284 20.7303C2.28382 20.6865 2.30987 20.648 2.34642 20.6215H2.36241H2.3848C2.41414 20.6136 2.44503 20.6136 2.47437 20.6215C2.52868 20.6428 2.57777 20.6755 2.61831 20.7175C2.66585 20.7698 2.70668 20.8278 2.73987 20.8902C2.76055 20.9207 2.77874 20.9528 2.79425 20.9862V21.0054C2.79667 21.017 2.79667 21.0289 2.79425 21.0405C2.79425 21.0405 2.79425 21.0405 2.79425 21.0597H2.97339C2.93412 20.946 2.87921 20.8384 2.81024 20.7398C2.75852 20.6547 2.68875 20.5819 2.60584 20.5266C2.52294 20.4714 2.42892 20.435 2.33042 20.42C2.259 20.4164 2.189 20.4408 2.13525 20.488C2.08151 20.5351 2.04826 20.6014 2.04252 20.6727C2.03096 20.8012 2.05416 20.9305 2.1097 21.0469Z" fill="#C7C7C7"/>
<path d="M2.50632 24.7384C1.90814 26.1395 0.334312 27.9117 0.244745 29.0376C0.209442 29.3146 0.265667 29.5954 0.404852 29.8374C0.544038 30.0794 0.758549 30.2692 1.01567 30.378C1.01567 30.378 -0.081536 30.9825 0.00483264 32.019C0.0496159 32.5532 0.942088 32.9498 0.942088 32.9498C0.942088 32.9498 0.0847979 33.4712 0.219149 34.3893C0.32471 35.1186 1.20119 35.4097 1.20119 35.4097C1.20119 35.4097 0.612605 36.2926 0.958079 37.0091C1.66502 38.4486 7.99552 38.1991 8.88479 35.8256C9.30064 34.7188 7.7556 34.8659 7.7556 34.8659C7.7556 34.8659 9.92442 34.1206 9.90842 32.8123C9.89243 31.5039 7.89316 31.8142 7.89316 31.8142C7.89316 31.8142 9.99159 31.0753 9.83485 29.719C9.67491 28.3115 7.73002 28.9641 7.73002 28.9641C7.73002 28.9641 9.10232 27.9532 8.74405 26.9424C8.15547 25.2758 5.574 27.5022 4.16651 27.2271L3.30923 24.9623L2.50632 24.7384Z" fill="#F7A9A0"/>
<path d="M1.31649 26.7857C1.76433 25.4102 0.0209608 23.8043 0.264072 22.4256C0.583956 20.5639 2.73997 22.2913 3.30936 24.9559L3.38614 27.0991L1.31649 26.7857Z" fill="#F7A9A0"/>
<path d="M1.34212 35.4737C1.33869 35.4752 1.33578 35.4777 1.33373 35.4808C1.33168 35.4839 1.3306 35.4876 1.3306 35.4913C1.3306 35.4951 1.33168 35.4987 1.33373 35.5019C1.33578 35.505 1.33869 35.5074 1.34212 35.5089C3.52769 35.9613 5.79916 35.7382 7.85494 34.8692C7.91892 34.8404 7.89973 34.722 7.81976 34.7412C5.70779 35.2998 3.52549 35.5466 1.34212 35.4737Z" fill="#263238"/>
<path d="M0.913299 32.9658C0.887708 32.9658 0.88451 33.0042 0.913299 33.0106C3.08531 33.4361 5.82991 33.161 7.97313 31.8622C8.0467 31.8174 8.0691 31.7055 7.97313 31.7503C6.48567 32.5052 2.96055 33.0586 0.913299 32.9658Z" fill="#263238"/>
<path d="M7.85814 28.8137C5.75331 29.9781 3.48853 30.3524 1.1054 30.4131C1.07341 30.4131 1.07981 30.4579 1.1054 30.4643C2.27618 30.7586 3.79242 30.5699 4.95999 30.3204C6.04867 30.1051 7.06212 29.6089 7.89973 28.8809C7.93171 28.8585 7.90292 28.7881 7.85814 28.8137Z" fill="#263238"/>
<path d="M30.1317 14.726C30.0038 15.0459 28.7786 17.1923 27.2528 17.1923C26.2931 17.1923 26.5234 13.8911 26.5234 13.8911L26.5074 13.6832L26.2835 10.8043L29.8662 9.17285L30.3812 8.96173C30.3812 8.96173 30.3812 9.75504 30.3812 10.7403V10.881C30.3812 10.9386 30.3812 10.9898 30.3812 11.041C30.3812 11.1913 30.3812 11.3417 30.3812 11.4888C30.3812 11.636 30.3812 11.7159 30.3812 11.8343V12.1926C30.3548 13.0417 30.2714 13.8881 30.1317 14.726Z" fill="#F7A9A0"/>
<path d="M30.4002 10.7371C30.0057 11.4807 29.4539 12.1294 28.7833 12.6382C28.1126 13.147 27.3392 13.5036 26.5168 13.6832L26.2929 10.8043L29.8756 9.17285L30.3906 8.96173C30.3906 8.96173 30.4002 9.75184 30.4002 10.7371Z" fill="#263238"/>
<path d="M22.32 7.12888C22.4479 12.199 25.5028 12.6949 26.5936 12.6661C27.5884 12.6373 30.9632 12.4198 31.3567 7.36239C31.7501 2.30503 29.351 0.763194 27.0798 0.705615C24.8086 0.648036 22.1888 2.04273 22.32 7.12888Z" fill="#F7A9A0"/>
<path d="M23.5291 5.84929C23.6475 5.8237 23.753 5.78211 23.865 5.74692C23.9872 5.72874 24.0998 5.67019 24.1849 5.58059C24.2069 5.54697 24.217 5.50693 24.2135 5.4669C24.21 5.42687 24.1932 5.38917 24.1657 5.35986C24.1037 5.30988 24.0296 5.27731 23.9509 5.2655C23.8722 5.25369 23.7917 5.26308 23.7179 5.29269C23.5593 5.32968 23.4202 5.42432 23.3276 5.55819C23.3072 5.59007 23.2967 5.62726 23.2974 5.66508C23.2981 5.7029 23.31 5.73967 23.3315 5.77078C23.3531 5.80188 23.3833 5.82592 23.4185 5.83989C23.4536 5.85386 23.4921 5.85713 23.5291 5.84929Z" fill="#263238"/>
<path d="M26.8336 5.57738C26.7178 5.56873 26.6024 5.55378 26.4882 5.53259C26.3629 5.53375 26.2406 5.49449 26.1395 5.42063C26.1154 5.3889 26.1023 5.35014 26.1023 5.31027C26.1023 5.27041 26.1154 5.23164 26.1395 5.19991C26.1927 5.14065 26.2608 5.09665 26.3367 5.07248C26.4126 5.0483 26.4936 5.04481 26.5713 5.06236C26.7334 5.07238 26.886 5.14187 27 5.25749C27.0265 5.28652 27.0435 5.32301 27.0487 5.36203C27.0538 5.40104 27.0468 5.44068 27.0287 5.47559C27.0105 5.5105 26.9821 5.53899 26.9472 5.55719C26.9123 5.5754 26.8727 5.58245 26.8336 5.57738Z" fill="#263238"/>
<path d="M26.216 6.91449C26.216 6.91449 26.2448 6.91449 26.2448 6.94328C26.2448 7.28876 26.3216 7.68221 26.6415 7.77818C26.6415 7.77818 26.6415 7.80057 26.6415 7.79737C26.2544 7.76858 26.168 7.24397 26.216 6.91449Z" fill="#263238"/>
<path d="M26.5039 6.53701C27.0541 6.46024 27.1629 7.57024 26.6511 7.64061C26.1392 7.71099 26.0401 6.59779 26.5039 6.53701Z" fill="#263238"/>
<path d="M26.7248 6.57221C26.8303 6.62659 26.9359 6.72895 27.0447 6.72895C27.1534 6.72895 27.2718 6.601 27.3485 6.48264H27.3677C27.3933 6.69696 27.3325 6.92088 27.1054 6.97526C26.8783 7.02964 26.7344 6.8505 26.6608 6.65538C26.6576 6.61379 26.6864 6.55301 26.7248 6.57221Z" fill="#263238"/>
<path d="M24.3 7.04239C24.3 7.04239 24.2744 7.06158 24.2776 7.07437C24.3224 7.41665 24.3192 7.8165 24.0217 7.96365C24.0217 7.96365 24.0217 7.98604 24.0217 7.98284C24.3992 7.89008 24.3992 7.35907 24.3 7.04239Z" fill="#263238"/>
<path d="M23.9546 6.71612C23.398 6.73212 23.4716 7.84212 23.9866 7.82932C24.5016 7.81653 24.4216 6.70013 23.9546 6.71612Z" fill="#263238"/>
<path d="M23.7338 6.80897C23.6506 6.87294 23.5706 6.9881 23.4651 7.0009C23.3595 7.01369 23.2476 6.90173 23.1612 6.79297H23.1452C23.1452 7.00729 23.238 7.22161 23.4459 7.2504C23.6538 7.27919 23.7658 7.08407 23.7946 6.86974C23.7946 6.83456 23.7626 6.77698 23.7338 6.80897Z" fill="#263238"/>
<path d="M24.8823 8.53306C24.8823 8.53306 24.8567 9.05447 24.8823 9.29758C24.8823 9.31997 24.9431 9.32637 25.0263 9.32317C25.2381 9.3433 25.4513 9.30469 25.6426 9.21158C25.8339 9.11847 25.9959 8.97447 26.1107 8.79536C26.1133 8.78987 26.114 8.7836 26.1124 8.77769C26.1109 8.77178 26.1072 8.76662 26.1022 8.76315C26.0972 8.75967 26.0911 8.75811 26.085 8.75873C26.0789 8.75936 26.0733 8.76214 26.0691 8.76657C25.7784 9.00493 25.4179 9.14194 25.0423 9.15683C25.0199 9.09285 25.119 8.26755 25.0807 8.26755C24.8937 8.30149 24.712 8.35955 24.5401 8.44029C24.5656 7.35589 24.764 6.28428 24.7736 5.20307C24.7736 5.16468 24.716 5.15829 24.7096 5.20307C24.4605 6.34585 24.3265 7.51071 24.3097 8.6802C24.3065 8.80816 24.7896 8.58424 24.8823 8.53306Z" fill="#263238"/>
<path d="M25.17 9.17918C25.3078 9.34265 25.4851 9.46818 25.685 9.54384C25.7961 9.58068 25.9162 9.58068 26.0273 9.54384C26.2704 9.47027 26.2672 9.24315 26.2128 9.05122C26.1845 8.94955 26.1436 8.85177 26.0912 8.76013C25.8368 8.9947 25.514 9.14156 25.17 9.17918Z" fill="#263238"/>
<path d="M25.685 9.54392C25.7961 9.58076 25.9162 9.58076 26.0273 9.54392C26.2704 9.47034 26.2672 9.24322 26.2128 9.05129C26.0822 9.06204 25.9591 9.11651 25.8633 9.20591C25.7675 9.2953 25.7047 9.41439 25.685 9.54392Z" fill="#FF9CBD"/>
<path d="M31.4111 6.62023C30.8545 6.6938 29.1304 5.47184 28.561 2.8392C28.561 2.8392 29.2359 5.16795 29.4854 5.48144C29.7349 5.79492 28.5258 4.79369 28.03 2.67286C27.4513 3.29066 26.7865 3.8218 26.0563 4.24989C25.0966 4.73291 24.4856 4.84487 24.3993 4.78729C24.3129 4.72971 25.7012 3.96519 25.9987 3.42459C25.9987 3.42459 23.5676 5.20314 22.352 5.54222C22.2113 5.5806 21.4564 2.66326 23.1166 1.06385C24.7767 -0.535572 28.0683 0.180968 29.0376 0.804741C29.0376 0.804741 30.0196 0.750361 31.3376 1.95632C32.6555 3.16228 31.9933 6.53706 31.4111 6.62023Z" fill="#263238"/>
<path d="M30.4897 7.15443C30.4897 7.15443 31.411 5.45584 32.1723 5.76933C32.9337 6.08282 32.3579 8.45635 31.555 8.8626C31.4562 8.92215 31.3464 8.96116 31.2322 8.97729C31.118 8.99342 31.0017 8.98634 30.8903 8.95647C30.7789 8.92661 30.6747 8.87457 30.5839 8.80348C30.4931 8.73238 30.4175 8.64369 30.3618 8.54272L30.4897 7.15443Z" fill="#F7A9A0"/>
<path d="M31.9902 6.44426V6.46665C31.4304 6.77054 31.1841 7.35272 31.0306 7.94131C31.0577 7.87851 31.0982 7.82238 31.1493 7.77685C31.2003 7.73131 31.2607 7.69746 31.3262 7.67767C31.3917 7.65787 31.4607 7.6526 31.5284 7.66222C31.5961 7.67185 31.6609 7.69613 31.7183 7.73339C31.7226 7.73339 31.7266 7.73507 31.7296 7.73807C31.7326 7.74107 31.7343 7.74514 31.7343 7.74938C31.7343 7.75362 31.7326 7.75769 31.7296 7.76069C31.7266 7.76369 31.7226 7.76537 31.7183 7.76537C31.6112 7.74519 31.5004 7.75828 31.4009 7.80288C31.3014 7.84748 31.218 7.92146 31.1617 8.01488C31.0708 8.17186 30.9968 8.33807 30.941 8.5107C30.9186 8.56828 30.8195 8.54909 30.8323 8.48831C30.7299 7.72699 31.1937 6.61059 31.9902 6.44426Z" fill="#263238"/>
<defs>
<filter id="filter0_d_289_2507" x="0.310024" y="110.368" width="31.7193" height="13.9207" filterUnits="userSpaceOnUse" color-interpolation-filters="sRGB">
<feFlood flood-opacity="0" result="BackgroundImageFix"/>
<feColorMatrix in="SourceAlpha" type="matrix" values="0 0 0 0 0 0 0 0 0 0 0 0 0 0 0 0 0 0 127 0" result="hardAlpha"/>
<feOffset dy="4"/>
<feGaussianBlur stdDeviation="2"/>
<feComposite in2="hardAlpha" operator="out"/>
<feColorMatrix type="matrix" values="0 0 0 0 0 0 0 0 0 0 0 0 0 0 0 0 0 0 0.25 0"/>
<feBlend mode="normal" in2="BackgroundImageFix" result="effect1_dropShadow_289_2507"/>
<feBlend mode="normal" in="SourceGraphic" in2="effect1_dropShadow_289_2507" result="shape"/>
</filter>
<filter id="filter1_d_289_2507" x="24.3332" y="108.605" width="31.4327" height="17.3946" filterUnits="userSpaceOnUse" color-interpolation-filters="sRGB">
<feFlood flood-opacity="0" result="BackgroundImageFix"/>
<feColorMatrix in="SourceAlpha" type="matrix" values="0 0 0 0 0 0 0 0 0 0 0 0 0 0 0 0 0 0 127 0" result="hardAlpha"/>
<feOffset dy="4"/>
<feGaussianBlur stdDeviation="2"/>
<feComposite in2="hardAlpha" operator="out"/>
<feColorMatrix type="matrix" values="0 0 0 0 0 0 0 0 0 0 0 0 0 0 0 0 0 0 0.25 0"/>
<feBlend mode="normal" in2="BackgroundImageFix" result="effect1_dropShadow_289_2507"/>
<feBlend mode="normal" in="SourceGraphic" in2="effect1_dropShadow_289_2507" result="shape"/>
</filter>
</defs>
</svg>
