<svg width="30" height="53" viewBox="0 0 30 53" fill="none" xmlns="http://www.w3.org/2000/svg">
<path d="M12.3792 25.961C12.3792 25.961 7.22522 24.7941 4.40189 22.1912C1.57855 19.5883 -5.2344e-05 14.9303 -5.2344e-05 14.9303C1.9607 15.3046 3.89382 15.8114 5.78599 16.4473C6.49315 17.1749 7.08261 18.0082 7.53316 18.9173C7.57772 18.3293 7.57772 17.7387 7.53316 17.1507C8.19291 17.4366 8.81024 17.8118 9.36783 18.2658C11.7179 20.3144 12.3792 25.961 12.3792 25.961Z" fill="#00BFBA"/>
<path d="M3.21877 17.196C2.51537 16.7098 1.80224 16.2398 1.10208 15.7503C1.05994 15.7212 1.10209 15.6531 1.14422 15.6823C2.47323 16.4732 3.77955 17.3225 5.034 18.2074C5.4662 18.5186 5.8984 18.8427 6.33059 19.1798C6.30142 19.128 6.27225 19.0761 6.23983 19.0242C6.08748 18.7682 5.91569 18.5121 5.7601 18.2592C5.43735 17.7434 5.07194 17.2554 4.66771 16.8006C4.65151 16.7844 4.66772 16.7584 4.69365 16.7746C5.09235 17.2382 5.4943 17.6952 5.86059 18.1879C6.03563 18.4213 6.18473 18.6612 6.35004 18.9075C6.43108 19.0372 6.50564 19.1669 6.5802 19.2965L6.65799 19.4294C7.32573 19.9545 7.97403 20.4991 8.60288 21.0761C8.98537 21.4326 9.35166 21.8022 9.70822 22.1814C9.51049 21.5591 9.33545 20.927 9.1053 20.3143C9.1053 20.2917 9.13124 20.2852 9.13772 20.3143C9.36138 20.9626 9.60773 21.6109 9.78601 22.2592C10.1782 22.6839 10.5575 23.1247 10.9108 23.585C10.9108 23.5591 10.9108 23.5299 10.8946 23.5007C10.8363 23.2576 10.7747 23.0177 10.7098 22.7746C10.5834 22.3079 10.4473 21.8476 10.2917 21.3905C9.9948 20.441 9.52561 19.5542 8.90758 18.7746C8.90758 18.7584 8.90758 18.7357 8.93027 18.7519C9.89717 19.9547 10.5728 21.3647 10.9043 22.8719C10.9594 23.0923 11.0113 23.3127 11.0632 23.5202C11.0891 23.6369 11.1183 23.7568 11.1377 23.8767C11.2933 24.0842 11.4619 24.2981 11.5948 24.525C12.4724 25.8677 13.2028 27.3012 13.773 28.8005C14.4164 30.4853 14.9683 32.2037 15.4262 33.948C15.4242 33.9537 15.4205 33.9587 15.4155 33.9622C15.4106 33.9657 15.4047 33.9676 15.3986 33.9676C15.3926 33.9676 15.3867 33.9657 15.3817 33.9622C15.3768 33.9587 15.3731 33.9537 15.3711 33.948C14.3662 30.9334 13.3354 27.8767 11.611 25.196C11.2464 24.6289 10.8537 24.0804 10.4343 23.5526C9.581 23.4954 8.73873 23.3276 7.92864 23.0534C7.04438 22.7546 6.20056 22.3474 5.41649 21.8411C4.96593 21.5461 4.55102 21.1928 4.1199 20.8686C4.11701 20.8676 4.1144 20.8659 4.1123 20.8636C4.11019 20.8614 4.10865 20.8587 4.10779 20.8558C4.10694 20.8528 4.10678 20.8497 4.10736 20.8467C4.10794 20.8437 4.10923 20.8408 4.11112 20.8384C4.113 20.836 4.11544 20.834 4.11822 20.8327C4.121 20.8314 4.12406 20.8308 4.12713 20.8309C4.13021 20.831 4.13321 20.8318 4.1359 20.8333C4.13859 20.8348 4.14088 20.8369 4.14259 20.8395C4.8627 21.4196 5.65749 21.9004 6.50564 22.269C7.3365 22.6512 8.20583 22.9435 9.09882 23.1409C9.47808 23.2252 9.86381 23.2868 10.2495 23.3386C9.77129 22.7517 9.2639 22.1892 8.72929 21.6531C8.55749 21.4813 8.37597 21.3289 8.19769 21.1474C7.59611 20.7273 6.95825 20.3617 6.2917 20.055C5.44891 19.6498 4.6191 19.2155 3.78279 18.7908C3.30954 18.551 2.84277 18.3046 2.36627 18.0745C2.34682 18.0745 2.36627 18.0356 2.38572 18.0453C3.23174 18.4537 4.09398 18.8362 4.94649 19.2284C5.75037 19.5947 6.56723 19.9643 7.3387 20.3986L7.43594 20.457C6.73578 19.8497 6.01617 19.2684 5.27711 18.713C4.61585 18.2041 3.92217 17.6823 3.21877 17.196Z" fill="#263238"/>
<path d="M3.51713 19.8509C3.93852 20.0356 4.36316 20.1977 4.77807 20.3922C5.2009 20.5947 5.6131 20.8186 6.01308 21.0632C6.03252 21.0632 6.01307 21.0988 5.99686 21.0891C5.58519 20.8946 5.17029 20.7099 4.7651 20.5057C4.35992 20.3014 3.93528 20.0713 3.50741 19.8833C3.48148 19.8768 3.4912 19.8411 3.51713 19.8509Z" fill="#263238"/>
<path d="M29.1248 0C28.1732 1.22823 27.6343 2.72584 27.5851 4.27876C27.5689 4.73905 27.6402 5.3841 27.6953 6.13937C26.4086 6.8857 25.2684 7.85997 24.3306 9.01456C25.3605 8.41776 26.5424 8.13498 27.7309 8.20096C27.7033 8.71839 27.6372 9.23305 27.5332 9.74066C26.7839 9.74138 26.0419 9.8878 25.3484 10.1718C26.0255 10.1639 26.6968 10.2974 27.3193 10.564C26.3987 13.4813 23.6694 16.4862 16.1329 17.7633C15.3285 14.1806 15.7961 10.4296 17.4554 7.15395C19.7245 2.70988 29.1248 0 29.1248 0Z" fill="#00BFBA"/>
<path d="M13.5138 30.2625C13.6434 29.0145 13.8088 27.7698 14 26.5315C14.3799 24.0476 14.8841 21.5842 15.5105 19.1507C15.807 18.0097 16.1707 16.8873 16.5997 15.7893C16.5786 15.589 16.5689 15.3877 16.5705 15.1863C16.5705 14.9432 16.5705 14.7034 16.5705 14.4603C16.5705 13.9773 16.5997 13.4878 16.6418 13.0145C16.7174 12.0613 16.8714 11.1159 17.1021 10.188C17.2415 9.65313 17.4003 9.12477 17.5592 8.59317C17.5592 8.58887 17.5609 8.58475 17.5639 8.58171C17.5669 8.57867 17.5711 8.57696 17.5754 8.57696C17.5797 8.57696 17.5838 8.57867 17.5868 8.58171C17.5899 8.58475 17.5916 8.58887 17.5916 8.59317C17.3418 9.51926 17.1566 10.4615 17.0373 11.4133C16.9012 12.3512 16.8168 13.2959 16.7844 14.2431C16.7844 14.5024 16.7682 14.7617 16.7682 15.021C16.7682 15.1312 16.7682 15.2414 16.7682 15.3452C17.1378 14.4438 17.5621 13.5659 18.0389 12.7163C18.8074 11.3686 19.6742 10.0794 20.6321 8.85897C20.6328 8.71632 20.6535 8.57446 20.6937 8.43758L20.8006 7.93191C20.8784 7.58831 20.9659 7.24472 21.06 6.90436C21.248 6.22041 21.4943 5.56239 21.7082 4.88816C21.7082 4.88386 21.71 4.87973 21.713 4.87669C21.716 4.87365 21.7202 4.87195 21.7245 4.87195C21.7288 4.87195 21.7329 4.87365 21.7359 4.87669C21.739 4.87973 21.7407 4.88386 21.7407 4.88816C21.5429 5.5559 21.4165 6.24633 21.2577 6.92704C21.1799 7.25119 21.1086 7.59804 21.034 7.93515C20.9984 8.10371 20.9595 8.2593 20.9271 8.44082C20.9255 8.45374 20.9255 8.4668 20.9271 8.47972C21.2318 8.09398 21.5397 7.71472 21.8606 7.34195C23.2998 5.65314 24.8784 4.10048 26.4667 2.55105C26.6612 2.3598 26.8622 2.17504 27.0599 1.98703C27.0761 1.97082 27.0988 1.98703 27.0826 2.01296C25.5591 3.6175 24.068 5.23824 22.6418 6.90112C22.3047 7.3009 21.9741 7.70392 21.6499 8.11018L22.1621 7.76983C22.6029 7.48458 23.047 7.20581 23.504 6.94974C23.9611 6.69366 24.4214 6.44082 24.8914 6.20743C25.3614 5.97405 25.893 5.77308 26.3565 5.50404C26.3792 5.50404 26.3954 5.52349 26.376 5.53321C25.8994 5.75444 25.4391 6.00899 24.9984 6.29496C24.5413 6.56725 24.081 6.84276 23.6304 7.12801C23.1799 7.41326 22.7423 7.68555 22.3047 7.9708C21.9384 8.21067 21.5754 8.46999 21.1961 8.69041C20.3218 9.81249 19.5154 10.9858 18.7812 12.2042C18.3239 12.9705 17.9073 13.7603 17.5332 14.5705L17.8023 14.4538L18.4927 14.1491C18.9368 13.9513 19.3809 13.7601 19.8282 13.5656C20.671 13.1993 21.53 12.859 22.3598 12.457C22.8271 12.2377 23.2787 11.9865 23.7115 11.705C23.7309 11.705 23.7471 11.7244 23.7309 11.7374C22.1847 12.8006 20.4506 13.5526 18.7423 14.3079L18 14.6321C17.7958 14.7228 17.5916 14.8233 17.3809 14.9011C16.8757 16.0349 16.45 17.2025 16.107 18.3954C15.4325 20.7949 14.885 23.2283 14.4668 25.6855C14.0357 28.149 13.7439 30.6255 13.517 33.115C13.4879 33.4391 13.4587 33.7373 13.423 34.0453C13.423 34.0711 13.4128 34.0958 13.3945 34.114C13.3763 34.1323 13.3516 34.1425 13.3258 34.1425C13.3 34.1425 13.2753 34.1323 13.257 34.114C13.2388 34.0958 13.2285 34.0711 13.2285 34.0453C13.2415 32.7908 13.3809 31.5202 13.5138 30.2625Z" fill="#263238"/>
<path d="M18.1038 9.45217C18.2399 8.68718 18.4442 7.9384 18.6516 7.18313C18.6516 7.16368 18.6905 7.18313 18.684 7.18313C18.4928 7.92219 18.3599 8.67097 18.2205 9.41975C18.0811 10.1685 17.9547 10.9465 17.8445 11.7147H17.825C17.8746 10.9558 17.9676 10.2004 18.1038 9.45217Z" fill="#263238"/>
<path d="M21.3453 11.5234C21.8689 11.1789 22.4158 10.8713 22.9822 10.6029C23.2577 10.4602 23.5365 10.3241 23.8153 10.1912C24.094 10.0583 24.3987 9.93511 24.684 9.79248C24.6879 9.79212 24.6918 9.79295 24.6952 9.79485C24.6987 9.79676 24.7014 9.79965 24.7032 9.80315C24.7049 9.80666 24.7056 9.81061 24.7051 9.81449C24.7045 9.81837 24.7028 9.82199 24.7002 9.8249C24.4247 9.96104 24.1654 10.1296 23.8931 10.2755L23.0568 10.7358C22.5057 11.0307 21.9644 11.3581 21.3842 11.598C21.3744 11.6023 21.3633 11.6027 21.3532 11.5992C21.3432 11.5956 21.3348 11.5884 21.3298 11.5789C21.3249 11.5694 21.3237 11.5584 21.3266 11.5481C21.3295 11.5378 21.3361 11.529 21.3453 11.5234Z" fill="#263238"/>
<path opacity="0.1" d="M12.2691 17.0372C12.2691 17.0372 7.5009 15.8994 5.3129 12.7001C3.22214 9.64659 2.54791 4.44077 2.4928 3.98372C2.58032 4.40188 3.56249 8.95291 6.80721 11.0728C9.30964 12.6936 11.7116 14.0323 12.2691 17.0372Z" fill="#263238"/>
<path d="M7.88345 8.80376C8.73168 9.58312 9.34192 10.5867 9.64357 11.6984C9.64357 11.7146 9.64357 11.6984 9.64357 11.6984C9.29472 10.6118 8.68869 9.62544 7.87697 8.82321C7.84455 8.80376 7.86724 8.78431 7.88345 8.80376Z" fill="#263238"/>
<path d="M12.2692 17.0373C12.2692 17.0373 7.50096 15.8995 5.31296 12.7002C3.22221 9.64668 2.54798 4.44087 2.49287 3.98382C2.4937 3.97303 2.4937 3.96219 2.49287 3.9514C2.49287 3.9514 4.78136 7.19288 7.1833 8.02918C9.58523 8.86549 12.9726 11.7212 12.2692 17.0373Z" fill="#00BFBA"/>
<path d="M3.34847 5.74397C3.77484 6.62006 4.26791 7.46208 4.82334 8.2626C5.37924 9.02426 6.03939 9.70405 6.78443 10.282C7.43272 10.7942 8.11668 11.2545 8.77146 11.7666V11.7407C8.64828 11.5592 8.51863 11.3809 8.38249 11.2091C8.1102 10.859 7.81198 10.5316 7.51053 10.2043C6.91734 9.55596 6.31441 8.93035 5.78281 8.23667C5.48716 7.85277 5.23087 7.44011 5.01783 7.00491C5.01783 6.98546 5.04052 6.9725 5.05024 7.00491C5.82496 8.62565 7.3679 9.64671 8.47 11.0081C8.62733 11.2013 8.77449 11.4026 8.91085 11.6111C9.02142 11.7618 9.11389 11.925 9.18637 12.0973C9.78994 12.5788 10.334 13.1305 10.8071 13.7407C10.7665 13.4274 10.7026 13.1175 10.6159 12.8136C10.5056 12.3902 10.3365 11.9843 10.1134 11.6078C10.1109 11.6039 10.1099 11.5992 10.1108 11.5947C10.1117 11.5901 10.1144 11.5861 10.1183 11.5835C10.1222 11.5809 10.1269 11.58 10.1315 11.5809C10.136 11.5818 10.14 11.5845 10.1426 11.5884C10.3722 11.9659 10.5581 12.3682 10.6969 12.7877C10.7983 13.1226 10.8572 13.4689 10.8719 13.8185C11.1098 14.1367 11.3263 14.4702 11.5202 14.8169L11.4619 14.5122C11.3679 14.0389 11.2609 13.5657 11.1377 13.0956C10.9134 12.1409 10.5264 11.2319 9.9935 10.4085C9.9935 10.3923 10.0097 10.3728 10.0227 10.3923C10.5693 11.2024 10.9972 12.0865 11.2933 13.0179C11.4424 13.4846 11.5656 13.9611 11.6726 14.4409C11.7245 14.6775 11.7731 14.9109 11.8184 15.1475C11.8411 15.2707 11.8671 15.3939 11.8865 15.5203C12.3602 16.5613 12.7283 17.6473 12.9854 18.7618C13.4541 20.7464 13.7941 22.7592 14.0032 24.7877C14.2473 26.9126 14.3555 29.0509 14.3274 31.1896C14.3274 31.4586 14.3079 31.7245 14.2917 31.9935C14.2917 32.0616 14.1847 32.0713 14.1815 31.9935C14.1361 30.9368 14.1069 29.8768 14.0454 28.8201C13.9838 27.7634 13.8898 26.7066 13.7763 25.6532C13.5607 23.5833 13.2295 21.5272 12.7844 19.4943C12.3987 17.7537 11.8963 15.9968 10.9433 14.47C10.4704 13.7103 9.89195 13.0216 9.22526 12.4247C8.55428 11.825 7.82495 11.2999 7.12155 10.7456C6.4022 10.2054 5.74936 9.58194 5.17666 8.88821C4.59334 8.11861 4.08534 7.29472 3.65965 6.42793C3.54943 6.21075 3.43275 5.99681 3.31929 5.77963C3.30957 5.74397 3.33874 5.72452 3.34847 5.74397Z" fill="#263238"/>
<path d="M4.16532 6.44084C4.47722 7.0827 4.83131 7.70318 5.22528 8.29821C5.22528 8.31442 5.22528 8.32738 5.20583 8.31442C4.79725 7.72501 4.43838 7.10267 4.1329 6.45381C4.12966 6.43436 4.16532 6.42139 4.16532 6.44084Z" fill="#263238"/>
<path d="M29.7731 14.9303C29.7731 14.9303 29.8476 21.705 25.7958 23.6596C21.7439 25.6142 19.5754 23.9837 16.8234 24.632C16.9303 24.4699 18.8947 21.6466 22.0097 20.8687C25.235 20.0745 28.8006 17.7536 29.7731 14.9303Z" fill="#00BFBA"/>
<path opacity="0.1" d="M29.7731 14.9303C29.7731 14.9303 29.8476 21.705 25.7958 23.6596C21.7439 25.6142 19.5754 23.9837 16.8234 24.632C18.2779 23.9404 19.8324 23.482 21.4295 23.2738C23.9935 22.9724 28.872 21.3063 29.7731 14.9303Z" fill="black"/>
<path d="M16.561 24.7616C17.0458 24.3222 17.5917 23.9554 18.1817 23.6725C18.2693 23.6303 18.36 23.5947 18.4475 23.559C18.4894 23.5042 18.5349 23.4522 18.5837 23.4034C18.7048 23.2759 18.8325 23.1547 18.9662 23.0404C19.2192 22.8208 19.4915 22.6244 19.7798 22.4537C20.4508 22.0582 21.1866 21.7827 21.8738 21.4164C21.8932 21.4164 21.9094 21.4359 21.8738 21.4456C21.5496 21.6206 21.206 21.8151 20.8754 22.0096C20.5448 22.2041 20.2271 22.3759 19.903 22.5769C19.6232 22.7589 19.3557 22.9592 19.1023 23.1765C19.031 23.2414 18.9629 23.3094 18.8949 23.3775C19.3421 23.2259 19.7992 23.1046 20.2628 23.0145C21.0051 22.8621 21.7538 22.7584 22.4961 22.5996C22.8589 22.5221 23.2171 22.4247 23.5691 22.3078C23.8932 22.0388 24.2401 21.7697 24.561 21.4748C24.9458 21.1218 25.2963 20.7333 25.608 20.3143C25.608 20.2981 25.6501 20.3143 25.6371 20.3338C25.1466 20.9982 24.5906 21.6118 23.9775 22.1652C24.1493 22.1004 24.3243 22.0291 24.4929 21.9513C25.8846 21.3277 27.0787 20.3344 27.9451 19.0793C27.9464 19.0774 27.948 19.0757 27.9499 19.0745C27.9518 19.0732 27.954 19.0723 27.9562 19.0718C27.9585 19.0714 27.9608 19.0714 27.9631 19.0718C27.9653 19.0723 27.9675 19.0732 27.9694 19.0744C27.9713 19.0757 27.973 19.0774 27.9742 19.0793C27.9755 19.0812 27.9764 19.0833 27.9769 19.0856C27.9773 19.0879 27.9773 19.0902 27.9769 19.0924C27.9764 19.0947 27.9755 19.0968 27.9743 19.0988C27.2381 20.1746 26.288 21.0872 25.1833 21.7795C24.6294 22.1238 24.0377 22.4033 23.42 22.6125C22.7016 22.8369 21.9683 23.0102 21.2255 23.1312C20.499 23.2512 19.782 23.4223 19.0796 23.6433C18.434 23.8625 17.8269 24.182 17.2806 24.5898C16.2513 25.3932 15.4234 26.4254 14.8625 27.6044C14.1363 29.1667 13.6834 30.842 13.5237 32.5574C13.5237 32.6287 13.4038 32.6287 13.4103 32.5574C13.6048 29.7016 14.3665 26.7389 16.561 24.7616Z" fill="#263238"/>
<path d="M21.2642 22.5543C21.4753 22.2376 21.7615 21.9781 22.0973 21.799C22.4812 21.5986 22.8181 21.3191 23.0859 20.9789C23.0885 20.975 23.0925 20.9723 23.0971 20.9714C23.1017 20.9705 23.1064 20.9715 23.1103 20.974C23.1141 20.9766 23.1168 20.9806 23.1177 20.9852C23.1186 20.9897 23.1177 20.9945 23.1151 20.9983C22.8723 21.3089 22.5759 21.5734 22.2399 21.7795C21.8728 21.9758 21.5488 22.2436 21.2869 22.5672C21.2772 22.5834 21.2513 22.5705 21.2642 22.5543Z" fill="#263238"/>
<g filter="url(#filter0_d_289_2487)">
<path d="M19.1152 29.7633L18.9304 33.4878L18.3631 44.8686H9.86723L9.30321 33.4878L9.11845 29.7633H19.1152Z" fill="#455A64"/>
</g>
<path d="M19.1152 29.7633L18.9304 33.4878H9.30321L9.11845 29.7633H19.1152Z" fill="#263238"/>
<path d="M19.7083 31.76H8.52194V28.2074L19.7083 28.2074V31.76Z" fill="#455A64"/>
<defs>
<filter id="filter0_d_289_2487" x="5.05281" y="29.7633" width="18.128" height="23.2367" filterUnits="userSpaceOnUse" color-interpolation-filters="sRGB">
<feFlood flood-opacity="0" result="BackgroundImageFix"/>
<feColorMatrix in="SourceAlpha" type="matrix" values="0 0 0 0 0 0 0 0 0 0 0 0 0 0 0 0 0 0 127 0" result="hardAlpha"/>
<feOffset dy="4"/>
<feGaussianBlur stdDeviation="2"/>
<feComposite in2="hardAlpha" operator="out"/>
<feColorMatrix type="matrix" values="0 0 0 0 0 0 0 0 0 0 0 0 0 0 0 0 0 0 0.25 0"/>
<feBlend mode="normal" in2="BackgroundImageFix" result="effect1_dropShadow_289_2487"/>
<feBlend mode="normal" in="SourceGraphic" in2="effect1_dropShadow_289_2487" result="shape"/>
</filter>
</defs>
</svg>
