<svg width="20" height="23" viewBox="0 0 20 23" fill="none" xmlns="http://www.w3.org/2000/svg">
<path d="M19.1114 10.0531C19.0804 12.3785 18.1642 14.6046 16.5496 16.2783L15.7803 16.9916C14.0062 18.441 11.7533 19.173 9.46611 19.0433C7.17888 18.9136 5.02326 17.9317 3.42434 16.291C1.82542 14.6504 0.899269 12.4702 0.828524 10.1804C0.75778 7.89056 1.54758 5.65735 3.04217 3.92113L3.78905 3.17425C5.10893 1.96879 6.75265 1.17583 8.51766 0.893075C10.2827 0.61032 12.0918 0.850129 13.7222 1.58295C15.3526 2.31577 16.733 3.50959 17.6932 5.01728C18.6535 6.52497 19.1516 8.28066 19.1263 10.068L19.1114 10.0531Z" fill="white"/>
<path d="M9.94339 0C7.44949 0.000348249 5.04673 0.937707 3.21143 2.62627C1.37613 4.31483 0.242256 6.63132 0.0345653 9.11657C-0.173126 11.6018 0.560526 14.0744 2.0901 16.0441C3.61968 18.0139 5.83352 19.3371 8.29277 19.7513L9.4131 22.6306C9.45532 22.7394 9.52945 22.8329 9.62575 22.8988C9.72205 22.9647 9.83602 23 9.95273 23C10.0694 23 10.1834 22.9647 10.2797 22.8988C10.376 22.8329 10.4501 22.7394 10.4924 22.6306L11.6127 19.7476C14.0688 19.3282 16.278 18.002 17.8031 16.0316C19.3281 14.0611 20.058 11.5899 19.8481 9.1071C19.6382 6.62427 18.5039 4.31068 16.6697 2.62418C14.8355 0.937689 12.4351 0.00118457 9.94339 0ZM19.1151 9.94476C19.1144 12.2704 18.2278 14.5085 16.6355 16.2036L15.8886 16.9281C14.1381 18.443 11.879 19.239 9.56554 19.156C7.25207 19.073 5.05581 18.1171 3.41842 16.4807C1.78102 14.8442 0.823921 12.6485 0.739573 10.3351C0.655224 8.02168 1.44989 5.76211 2.96376 4.01077L3.6845 3.26388C4.98783 2.04024 6.62072 1.2247 8.38189 0.917784C10.1431 0.610863 11.9556 0.825974 13.596 1.53661C15.2364 2.24724 16.633 3.42234 17.6137 4.91705C18.5944 6.41177 19.1163 8.16077 19.1151 9.94849V9.94476Z" fill="#455A64"/>
<path d="M8.15457 15.8265C7.95779 15.8264 7.76313 15.7859 7.58263 15.7076C7.40213 15.6292 7.23963 15.5146 7.1052 15.3709L3.84879 11.8904C3.71417 11.7537 3.60828 11.5914 3.53736 11.4131C3.46643 11.2348 3.43192 11.0442 3.43584 10.8523C3.43975 10.6605 3.48203 10.4714 3.56017 10.2961C3.63831 10.1209 3.75073 9.96308 3.89082 9.83197C4.03091 9.70086 4.19582 9.59911 4.37585 9.53273C4.55587 9.46634 4.74735 9.43666 4.93902 9.44543C5.13069 9.4542 5.31867 9.50125 5.49187 9.5838C5.66508 9.66636 5.82001 9.78274 5.94753 9.9261L8.06121 12.1668L13.0691 5.81824C13.1783 5.65026 13.3213 5.50695 13.4891 5.39751C13.657 5.28807 13.8458 5.2149 14.0435 5.18271C14.2413 5.15052 14.4436 5.16001 14.6374 5.21058C14.8313 5.26115 15.0124 5.35167 15.1693 5.47635C15.3261 5.60102 15.4551 5.7571 15.5481 5.93457C15.6411 6.11204 15.6959 6.30698 15.7092 6.50689C15.7224 6.7068 15.6937 6.90726 15.6249 7.09543C15.5561 7.2836 15.4488 7.45531 15.3097 7.59956L9.26744 15.2514C9.13965 15.4143 8.97791 15.5475 8.79348 15.6417C8.60904 15.7358 8.40632 15.7887 8.19939 15.7966L8.15457 15.8265Z" fill="#00BFBA"/>
</svg>
