<svg width="48" height="89" viewBox="0 0 48 89" fill="none" xmlns="http://www.w3.org/2000/svg">
<path d="M33.2056 82.3655L32.3708 82.0108L33.1613 81.74L33.2056 82.3655Z" fill="#263238"/>
<path d="M25.2169 84.3306C25.2169 84.3306 34.5748 79.4276 34.7324 80.0703C34.766 80.199 34.7718 80.3333 34.7497 80.4644L34.7743 80.4274L34.6659 81.6587C34.2584 82.0329 33.7512 82.281 33.2056 82.3729C33.2056 82.3162 33.1761 81.9542 33.1613 81.7474C32.8717 81.8843 32.5962 82.0492 32.3388 82.2399C31.7453 82.6856 31.3907 83.4244 30.7849 84.2937C30.3416 84.9266 29.5093 85.259 28.2607 85.5102C26.9186 85.7811 25.7095 85.5866 25.3524 85.2393C25.0741 84.9635 25.1726 84.4193 25.2169 84.3306Z" fill="#263238"/>
<path d="M25.4657 84.04C25.5519 83.939 25.8745 83.5475 26.3153 83.0993C26.7324 82.655 27.1721 82.2325 27.6328 81.8335C28.0271 81.4574 28.3957 81.055 28.736 80.6293C29.1985 80.0171 29.5932 79.3566 29.9131 78.6592C30.0461 78.3219 30.1421 77.9204 30.0609 76.6744C29.9501 74.9309 29.8811 74.5393 29.7998 73.212L34.6512 72.8894C34.5601 73.6281 34.3532 74.6747 34.2498 75.6795C34.1192 76.9502 33.708 77.0955 34.2744 78.3342C34.4394 78.7011 34.6758 79.0459 34.7177 79.4448C34.7841 80.0949 34.3089 80.6761 33.7597 81.0356C33.3041 81.3262 32.7747 81.469 32.3265 81.7744C31.8792 82.1202 31.4973 82.543 31.1986 83.0229C30.8982 83.4564 30.6667 83.9637 30.2283 84.2813C29.764 84.5919 29.2424 84.8071 28.6941 84.9142C28.0079 85.0773 27.3038 85.1535 26.5985 85.1408C25.5962 85.1088 24.8279 84.7788 25.4657 84.04Z" fill="#C8856A"/>
<path d="M29.1079 81.8902C28.8763 81.7743 28.6225 81.7098 28.3637 81.7008C28.1049 81.6919 27.8472 81.7389 27.6082 81.8385C26.9334 82.4418 26.3769 82.9762 25.9804 83.3505C25.5026 83.8036 25.084 84.2173 25.1308 84.7025C25.2022 85.4659 28.1647 85.5274 29.7728 84.7025C30.2707 84.4979 30.6686 84.1062 30.881 83.6115C30.881 83.6115 30.5781 82.5625 29.1079 81.8902ZM34.5601 78.8267C34.4184 78.5928 34.2886 78.352 34.171 78.1052C33.6144 78.4499 32.6934 79.9472 33.2401 81.3706C33.5321 81.2962 33.8059 81.1631 34.0447 80.9793C34.2835 80.7955 34.4823 80.565 34.629 80.3018C34.7574 80.0743 34.819 79.8153 34.8068 79.5543C34.7946 79.2934 34.7091 79.0412 34.5601 78.8267Z" fill="#37474F"/>
<path d="M42.4183 79.2724C42.172 79.7132 42.6448 81.8631 42.6645 82.9786C42.6891 83.9908 42.6916 85.8057 43.1053 86.7686C43.5978 87.9088 44.5041 89.2016 45.9053 87.9531C46.7795 87.1823 47.2376 86.2564 47.2376 84.7788C47.2376 83.7642 46.7007 82.4122 46.2304 81.2105C45.6812 79.8093 45.4546 79.0533 45.4546 79.0533L42.4183 79.2724Z" fill="#263238"/>
<path d="M45.0212 72.2196C45.3167 74.5566 45.3191 75.8962 45.4226 77.391C45.4996 78.1774 45.6229 78.9586 45.7919 79.7305C45.9988 80.6909 46.4076 81.9788 46.6071 82.5871C46.8903 83.4367 47.0996 83.9686 46.8533 84.9734C46.8318 85.0534 46.8021 85.1309 46.7647 85.2048C46.378 86.052 45.2871 86.7661 44.9054 86.7046C44.8349 86.8022 44.7393 86.8789 44.6288 86.9266C44.5182 86.9742 44.3968 86.9911 44.2775 86.9755C44.2362 86.973 44.195 86.968 44.1543 86.9607C44.111 86.9515 44.0683 86.94 44.0263 86.9262C43.8732 86.8662 43.7345 86.7747 43.6191 86.6576C43.5037 86.5405 43.4142 86.4004 43.3564 86.2465C43.3281 86.179 43.3034 86.1099 43.2826 86.0397C43.0366 85.2506 42.9145 84.4282 42.9206 83.6017C42.9058 83.0525 42.8221 82.097 42.6989 81.2204C42.5758 80.3437 41.9158 77.9476 41.5538 76.635C41.2534 75.5465 40.6697 73.313 40.6697 73.313L45.0212 72.2196Z" fill="#C8856A"/>
<path d="M46.9198 83.7026C45.9865 83.417 43.2948 83.6608 42.9796 84.8872C43.0584 86.0052 43.1766 86.7193 44.0139 87.6206C45.1246 88.815 46.3312 87.3202 46.7671 86.3893C47.203 85.4585 47.0922 84.2863 46.9198 83.7026Z" fill="#37474F"/>
<path d="M41.6916 41.3115C42.6324 43.6115 43.5238 46.1431 43.6617 51.0141C43.8563 57.439 44.1542 59.7588 44.2207 60.532C44.3266 61.852 44.8955 63.0464 45.5087 66.8338C46.1219 70.6213 45.7968 77.5757 45.7968 77.5757C45.1359 78.1577 44.3209 78.5365 43.4499 78.6666C42.1127 78.8636 41.5242 78.3391 41.5242 78.3391C41.5242 78.3391 38.9902 68.0898 38.3499 65.8168C37.7096 63.5438 35.7962 56.0895 35.7962 56.0895L35.0402 62.3691C35.0402 62.3691 35.7962 64.3392 35.577 67.7105C35.3578 71.0818 34.1684 77.3738 34.1684 77.3738C34.1684 77.3738 33.4543 77.918 32.0112 77.8466C30.5681 77.7752 29.9894 77.2753 29.9894 77.2753C29.9894 77.2753 28.6941 64.785 28.4773 60.9999C28.2606 57.2149 27.7386 47.2439 29.1152 41.3115H41.6916Z" fill="#455A64"/>
<path d="M30.147 47.4532C30.8069 48.9849 32.9469 49.9626 33.8729 50.1276L35.2864 56.0378L35.0402 62.3642L35.7962 56.092L34.1856 48.8815C34.1856 48.8815 31.6393 48.8446 30.147 47.4532ZM38.7661 46.1973C38.9508 46.8031 39.1207 47.4138 39.3004 48.0245C39.4802 48.6352 39.6551 49.2435 39.8447 49.8592C39.8122 49.2176 39.7298 48.5795 39.5984 47.9506C39.4786 47.3202 39.3265 46.6964 39.1428 46.0815C38.9599 45.4663 38.742 44.862 38.4903 44.2715C38.2452 43.676 37.9364 43.1088 37.5692 42.5797C37.7958 43.1806 38.0002 43.779 38.1972 44.3823C38.3942 44.9857 38.5888 45.589 38.7661 46.1973ZM39.7757 44.9512C40.0023 45.3107 40.219 45.6752 40.4382 46.0397L41.0858 47.1528C41.0179 46.7212 40.8955 46.3 40.7214 45.8993C40.5504 45.4977 40.3487 45.11 40.118 44.7394C39.8871 44.371 39.6312 44.0188 39.3522 43.6854C39.0748 43.3494 38.7664 43.0402 38.4311 42.762C38.6429 43.1461 38.8695 43.5007 39.0985 43.8701C39.3275 44.2395 39.5541 44.5892 39.7757 44.9512ZM39.8102 62.3002C39.3325 60.3597 38.9606 58.3921 38.5789 56.4195C38.1972 54.447 37.8549 52.4794 37.4658 50.5093C37.6998 52.504 37.9583 54.4938 38.2711 56.4786C38.5838 58.4635 38.9335 60.4434 39.4088 62.4012C39.8841 64.3589 40.4062 66.2896 40.9282 68.2277C41.4503 70.1657 41.9921 72.0964 42.5609 74.0222C42.1439 72.0521 41.7023 70.0943 41.236 68.1489C40.7829 66.1936 40.2978 64.2383 39.8102 62.3002ZM29.8588 56.257L29.9524 51.0141C29.753 52.765 29.6298 54.4888 29.5461 56.2471C29.4624 58.0054 29.3959 59.7391 29.4698 61.5048C29.6077 63.2606 29.8194 64.9918 30.0411 66.728C30.2627 68.4641 30.5139 70.1928 30.7971 71.9191C30.669 70.174 30.5213 68.4313 30.3538 66.691L30.1076 64.0831C30.0238 63.2163 29.9327 62.3445 29.8761 61.4802C29.8194 60.6158 29.8342 59.7563 29.8367 58.8747C29.8391 57.9931 29.8515 57.1312 29.8588 56.257Z" fill="#37474F"/>
<path d="M16.5437 27.3633C16.2753 27.3092 16.226 27.5653 16.3935 27.7549C16.7924 28.2031 17.5263 28.1711 17.871 28.3558C17.9523 28.4124 18.9324 29.2891 18.962 29.56C18.6861 29.4418 17.8464 28.996 17.5657 28.8926C17.4844 28.8631 17.2529 28.8212 16.5412 28.6981C16.4199 28.6668 16.2941 28.6568 16.1694 28.6685C16.0856 28.6956 15.997 28.8778 16.1571 29.0551C16.4378 29.3704 16.95 29.3531 17.344 29.5058C17.5386 29.5772 18.137 29.8309 18.3291 30.215C17.743 30.0525 17.3662 30.0771 16.4698 30.1682C16.3664 30.1682 16.3467 30.2347 16.3541 30.3037C16.3633 30.3612 16.3862 30.4156 16.4209 30.4623C16.4557 30.509 16.5011 30.5467 16.5535 30.5721C16.7998 30.7002 17.1643 30.6435 17.5607 30.6928C17.9678 30.764 18.3515 30.933 18.6788 31.1853C18.8038 31.2729 18.9088 31.3863 18.9866 31.5177C19.0737 31.6872 19.151 31.8615 19.2181 32.0398C19.3847 32.3827 19.65 32.668 19.98 32.8589C20.3101 33.0498 20.6896 33.1376 21.0699 33.111C21.1196 33.11 21.1681 33.0955 21.2103 33.0692C21.2406 33.0365 21.2628 32.9973 21.2752 32.9545C21.2876 32.9118 21.2898 32.8667 21.2817 32.8229C21.2399 31.961 20.8138 31.1754 20.4986 30.3726C20.3927 30.1091 19.5751 28.1415 19.5333 28.075C19.5136 28.0455 17.445 27.5185 17.381 27.5111C17.1766 27.4939 16.8023 27.4151 16.5437 27.3633Z" fill="#AF6152"/>
<path d="M29.593 30.6608C29.2137 31.2666 27.5564 34.0788 27.5564 34.0788C27.5564 34.0788 24.1728 32.4363 23.3429 31.9536C22.4389 31.4224 21.73 30.6142 21.3211 29.6486C20.8606 28.6242 20.6956 28.5725 20.2031 28.2573C19.8977 28.0602 19.2181 27.5185 19.186 27.4889C19.0768 27.4228 18.9554 27.3793 18.829 27.3609C18.7649 27.3412 18.4916 27.2796 18.4251 27.2648C18.0434 27.1786 17.8045 27.1466 17.4253 27.0604C17.309 27.0316 17.1903 27.0135 17.0707 27.0063C17.0441 27.0044 17.0175 27.0104 16.9943 27.0235C16.9549 27.0506 16.9549 27.1097 16.9648 27.1589C16.9963 27.2731 17.0511 27.3794 17.1257 27.4714C17.2003 27.5634 17.293 27.6389 17.3982 27.6933C17.6094 27.8013 17.8326 27.8839 18.0631 27.9396C18.2035 27.9814 18.2823 27.9913 18.5556 28.0726C18.6679 28.112 18.768 28.1798 18.8462 28.2696C19.2604 28.6576 19.6311 29.0894 19.9519 29.5575C19.4605 29.4426 19.0095 29.1966 18.6467 28.8458C18.3118 28.5134 18.004 28.9493 18.3217 29.4836C18.6837 30.0993 19.2279 30.1805 19.6884 31.008C20.1489 31.8354 19.4865 32.6456 20.5626 33.3105C21.2024 33.73 21.8098 34.1968 22.38 34.7068C23.3158 35.4998 25.808 37.295 26.4285 37.7284C27.7436 38.6494 28.5538 38.5509 30.317 36.3617C32.6491 33.4681 32.952 33.1234 32.952 33.1234V27.9987C31.4202 28.2449 30.8415 28.6611 29.593 30.6608Z" fill="#C8856A"/>
<path d="M19.9616 29.5502C20.2391 29.6614 20.5008 29.8088 20.7398 29.9885C20.8284 30.0649 20.7989 29.794 20.4196 29.5108C20.0404 29.2276 19.7227 29.2645 19.6365 29.1291L19.9616 29.5502Z" fill="#AF6152"/>
<path d="M32.8215 27.745C31.2652 27.9765 30.4697 28.4666 29.1744 30.6878C28.5465 31.7136 27.9711 32.7706 27.4506 33.8547L23.1041 31.6064C23.0421 32.7015 22.6555 33.7534 21.9935 34.628C21.9935 34.628 25.2737 37.0906 26.5074 37.9156C27.7412 38.7405 28.7238 38.5829 29.6472 37.524C30.5707 36.4651 32.9225 33.4927 32.9225 33.4927L32.8215 27.745Z" fill="#E0E0E0"/>
<path d="M41.7139 30.3308C41.7312 29.4245 41.7459 28.5183 41.7139 27.6219C41.7079 27.332 41.6857 27.0426 41.6474 26.7551C41.5046 25.7701 41.0342 25.2283 40.3398 24.5067C40.222 24.3752 40.0907 24.2564 39.9482 24.1521C39.6577 23.9576 39.1085 23.7729 38.781 23.9871V30.3308H41.7139Z" fill="#263238"/>
<path d="M43.0314 44.6015C42.5069 42.3852 41.8321 40.9889 41.8715 40.5062C42.039 38.4081 42.7827 35.6894 43.0511 34.4827C43.6323 31.8576 42.4231 29.3975 41.842 28.8311L40.4531 28.4001C39.9999 28.2573 39.2612 28.1095 38.5642 27.9618C37.0177 27.6318 36.3676 27.6047 35.7791 27.6219C35.4885 27.6219 34.1094 27.7721 34.1094 27.7721C33.6908 27.8386 32.9274 27.9224 32.9249 27.9248C32.141 28.5449 31.4688 29.2945 30.9376 30.1412C30.1791 31.2961 29.7284 32.2762 29.428 34.8447C29.0488 38.1151 28.5858 41.7696 28.4257 44.0598C31.0262 45.9215 39.3818 46.4017 43.0314 44.6015Z" fill="#00BFBA"/>
<path opacity="0.25" d="M43.0314 44.6015C42.5069 42.3852 41.8321 40.9889 41.8715 40.5062C42.039 38.4081 42.7827 35.6894 43.0511 34.4827C43.6323 31.8576 42.4231 29.3975 41.842 28.8311L40.4531 28.4001C39.9999 28.2573 39.2612 28.1095 38.5642 27.9618C37.0177 27.6318 36.3676 27.6047 35.7791 27.6219C35.4885 27.6219 34.1094 27.7721 34.1094 27.7721C33.6908 27.8386 32.9274 27.9224 32.9249 27.9248C32.141 28.5449 31.4688 29.2945 30.9376 30.1412C30.1791 31.2961 29.7284 32.2762 29.428 34.8447C29.0488 38.1151 28.5858 41.7696 28.4257 44.0598C31.0262 45.9215 39.3818 46.4017 43.0314 44.6015Z" fill="black"/>
<path d="M32.516 20.4065C31.9619 18.8649 32.8977 16.4787 34.9786 15.8975C37.0595 15.3163 40.9258 16.4073 41.7089 19.0028C42.492 21.5984 41.2779 22.8199 40.4776 23.928C39.6772 25.0362 38.6799 26.2946 38.6799 26.2946L32.516 20.4065Z" fill="#263238"/>
<path d="M39.4113 27.0137C39.4286 26.4522 39.4975 24.8269 39.4975 24.8269C39.4975 24.9993 40.4013 25.6986 41.2534 24.9032C42.1054 24.1078 42.2704 23.1794 41.8936 22.517C41.4775 21.7929 40.3742 21.6994 39.8054 22.7287C39.4508 23.0834 38.7366 22.6721 39.1183 21.6477C39.1405 20.9089 37.919 21.197 38.3327 18.8378C36.3897 17.1854 33.6538 17.5597 32.9815 18.8034C32.7603 19.2465 32.6747 19.745 32.7352 20.2366C32.7599 20.9212 32.6072 21.2832 32.5235 21.7831C32.2206 23.6202 32.8485 25.1051 33.4913 25.7233C33.725 25.9398 33.9996 26.1075 34.299 26.2166C34.5984 26.3257 34.9165 26.374 35.2348 26.3586C35.2348 26.3586 35.2348 26.5729 35.2175 26.9422C35.2175 26.9422 35.0378 27.4495 34.6487 27.5308C34.3877 27.585 33.7326 27.6983 33.7326 27.6983C33.7326 27.6983 32.7279 29.0207 35.1067 29.4467C38.8967 30.1264 40.655 28.3336 40.655 28.3336C40.655 28.3336 40.4998 28.2696 39.9162 28.0873C39.3572 27.8928 39.3916 27.5751 39.4113 27.0137Z" fill="#C8856A"/>
<path d="M35.2249 26.3537C36.8847 26.3857 38.4263 25.9375 38.8892 24.7604C38.8843 25.0858 38.7925 25.404 38.6232 25.682C38.4539 25.96 38.2133 26.1877 37.9264 26.3414C36.9783 26.8782 35.2175 26.9373 35.2175 26.9373L35.2249 26.3537Z" fill="#AF6152"/>
<path d="M36.4465 23.3296L34.9886 23.7802C35.0139 23.8779 35.0586 23.9694 35.12 24.0494C35.1814 24.1294 35.2583 24.1962 35.3461 24.2459C35.4339 24.2955 35.5308 24.327 35.631 24.3384C35.7312 24.3498 35.8327 24.3408 35.9293 24.3122C36.1263 24.2476 36.2904 24.109 36.3869 23.9256C36.4834 23.7422 36.5048 23.5285 36.4465 23.3296Z" fill="#AF6152"/>
<path d="M36.353 23.667C36.1589 23.66 35.9685 23.7205 35.8141 23.8382C35.6596 23.9558 35.5507 24.1233 35.5058 24.3122C35.644 24.3535 35.7912 24.3535 35.9294 24.3122C36.0682 24.2671 36.1918 24.1843 36.2862 24.0729C36.3806 23.9616 36.4421 23.8261 36.4638 23.6818C36.4274 23.6732 36.3903 23.6683 36.353 23.667Z" fill="#F0997A"/>
<path d="M33.0085 20.1011L33.9936 19.7293C33.9736 19.664 33.9403 19.6036 33.8957 19.5519C33.8512 19.5002 33.7964 19.4583 33.7348 19.4289C33.6732 19.3995 33.6062 19.3832 33.5379 19.3811C33.4697 19.379 33.4018 19.391 33.3385 19.4165C33.2062 19.4666 33.0982 19.5655 33.0368 19.693C32.9754 19.8204 32.9653 19.9665 33.0085 20.1011Z" fill="#263238"/>
<path d="M37.4807 20.6478L36.572 20.111C36.6041 20.0503 36.6482 19.9967 36.7016 19.9536C36.755 19.9104 36.8166 19.8786 36.8827 19.8599C36.9488 19.8413 37.018 19.8362 37.0861 19.8451C37.1541 19.854 37.2197 19.8766 37.2788 19.9115C37.4005 19.985 37.4893 20.1023 37.5268 20.2394C37.5644 20.3764 37.5479 20.5226 37.4807 20.6478Z" fill="#263238"/>
<path d="M36.2618 21.1699C36.2623 21.2488 36.2861 21.3258 36.3304 21.3912C36.3746 21.4565 36.4372 21.5072 36.5103 21.537C36.5834 21.5667 36.6637 21.5741 36.741 21.5583C36.8182 21.5424 36.8891 21.5039 36.9445 21.4478C37 21.3917 37.0375 21.3204 37.0525 21.2429C37.0674 21.1654 37.059 21.0852 37.0283 21.0125C36.9977 20.9398 36.9462 20.8778 36.8803 20.8344C36.8144 20.791 36.7372 20.768 36.6583 20.7685C36.6059 20.7689 36.5541 20.7795 36.5058 20.7998C36.4575 20.8202 36.4137 20.8498 36.3769 20.8871C36.3401 20.9244 36.3109 20.9686 36.2912 21.0171C36.2714 21.0656 36.2615 21.1175 36.2618 21.1699Z" fill="#263238"/>
<path d="M33.2745 20.9064C33.275 20.9853 33.2989 21.0623 33.3431 21.1276C33.3874 21.193 33.45 21.2437 33.5231 21.2735C33.5962 21.3032 33.6764 21.3106 33.7537 21.2947C33.831 21.2789 33.9018 21.2404 33.9573 21.1843C34.0127 21.1282 34.0503 21.0568 34.0652 20.9794C34.0801 20.9019 34.0717 20.8217 34.0411 20.749C34.0104 20.6763 33.9589 20.6143 33.8931 20.5709C33.8272 20.5275 33.7499 20.5045 33.671 20.505C33.6186 20.5053 33.5668 20.516 33.5185 20.5363C33.4702 20.5567 33.4264 20.5863 33.3896 20.6236C33.3528 20.6609 33.3237 20.705 33.304 20.7536C33.2842 20.8021 33.2742 20.854 33.2745 20.9064Z" fill="#263238"/>
<path d="M33.831 22.3101L35.2815 22.8716L35.4194 20.1553L33.831 22.3101Z" fill="#AF6152"/>
<path d="M39.4041 27.3338C39.3055 28.8778 37.7393 29.9885 37.0449 33.8818C36.3504 37.7752 37.8551 56.2324 37.8551 56.2324C37.8551 56.2324 42.2163 56.1265 44.0608 53.6097C44.0608 53.6097 44.2307 48.3964 43.5043 45.1901C42.7778 41.9838 42.0513 41.309 42.2434 39.9054C42.4355 38.5017 43.5757 34.3694 43.3147 32.0521C43.0536 29.7348 41.9061 28.7178 41.9061 28.7178L39.4041 27.3338Z" fill="#F0F0F0"/>
<path d="M35.2077 27.0013C35.2077 27.0013 35.2077 27.4003 34.496 27.8534C33.7227 28.3459 31.3069 30.1436 30.775 34.2365C30.2431 38.3293 29.79 46.744 29.5265 56.1265C28.7899 55.8569 28.1299 55.4124 27.6032 54.8312C27.6032 54.8312 28.1376 43.9243 28.7113 38.0486C29.2851 32.1728 29.6003 31.1681 30.5952 29.7151C31.1477 28.8747 31.9122 28.1951 32.8116 27.745L35.2077 27.0013Z" fill="#F0F0F0"/>
<path d="M22.5254 49.6844C22.5179 49.6734 22.5114 49.6619 22.5057 49.6499L15.3002 33.0199C15.1549 32.722 15.2041 32.328 15.4898 31.9093C15.8285 31.4706 16.266 31.1179 16.7666 30.88C17.2672 30.6421 17.8169 30.5257 18.371 30.5401C18.8832 30.5795 19.228 30.7864 19.3758 31.0843L28.1919 46.9484C28.1919 46.9484 28.1919 46.9706 28.2091 46.9804L28.2387 47.0371C28.4227 47.4064 28.5312 47.8087 28.5578 48.2205C28.5844 48.6323 28.5285 49.0452 28.3934 49.4351C28.2583 49.8251 28.0467 50.1841 27.7711 50.4912C27.4954 50.7982 27.1613 51.0472 26.7882 51.2235C26.0288 51.5828 25.1587 51.6293 24.3654 51.3529C23.5721 51.0765 22.9192 50.4993 22.5476 49.7459L22.5254 49.6844Z" fill="#00BFBA"/>
<path opacity="0.25" d="M18.371 30.5401C19.393 30.6189 19.7575 31.3602 19.1861 32.1974C18.8478 32.6366 18.4104 32.9896 17.9097 33.2275C17.409 33.4655 16.8591 33.5817 16.3049 33.5666C15.2854 33.4854 14.9209 32.7441 15.4898 31.9093C15.8285 31.4706 16.266 31.1179 16.7666 30.88C17.2672 30.6421 17.8169 30.5257 18.371 30.5401Z" fill="black"/>
<path opacity="0.1" d="M26.0419 47.074L18.4842 32.8894C18.7561 32.7007 18.9935 32.4666 19.186 32.1974C19.4692 31.7813 19.5259 31.3922 19.3781 31.0917L28.1918 46.9484C28.1918 46.9484 28.1918 46.9706 28.209 46.9804L28.2385 47.037C28.4226 47.4064 28.5311 47.8087 28.5577 48.2205C28.5843 48.6323 28.5284 49.0452 28.3933 49.4351C28.2582 49.825 28.0466 50.1841 27.771 50.4911C27.4953 50.7982 27.1612 51.0472 26.7881 51.2235C27.5613 50.5758 27.0269 48.9406 26.0419 47.074Z" fill="black"/>
<path d="M13.4705 26.3783C13.6752 26.1126 13.9399 25.8991 14.2429 25.7553C14.5459 25.6115 14.8787 25.5414 15.214 25.5509C15.335 25.5478 15.4548 25.5767 15.5611 25.6347C15.6675 25.6926 15.7567 25.7775 15.8198 25.8809L18.568 31.4685C18.6111 31.5804 18.6233 31.7019 18.6033 31.8201C18.5834 31.9384 18.5321 32.0491 18.4548 32.1408C18.2497 32.4061 17.9849 32.6192 17.682 32.763C17.379 32.9068 17.0465 32.9771 16.7112 32.9682C16.5902 32.9713 16.4705 32.9424 16.3641 32.8844C16.2578 32.8265 16.1685 32.7416 16.1054 32.6382L13.3547 27.0506C13.3118 26.9385 13.2998 26.8169 13.3202 26.6985C13.3406 26.5802 13.3925 26.4696 13.4705 26.3783Z" fill="#E0E0E0"/>
<path opacity="0.25" d="M17.3341 28.9517L16.3121 26.8758C15.5799 27.4635 14.8354 28.011 14.0786 28.5183L15.0858 30.5623C15.8516 30.0599 16.6027 29.5206 17.3341 28.9517Z" fill="black"/>
<path d="M22.5919 2.35568L19.819 0.769771C17.7209 -0.439364 14.8175 -0.26452 11.6087 1.58243C5.20594 5.27633 0 14.2919 0 21.6969C0 25.3908 1.29779 27.9987 3.40331 29.2128L6.16635 30.7938C7.0879 31.3153 8.13164 31.5822 9.19042 31.567C10.7517 31.567 12.5125 31.0573 14.3766 29.9811C20.7794 26.2872 25.9878 17.2741 25.9878 9.86907C25.9878 6.17025 24.69 3.56974 22.5919 2.35568ZM7.76457 12.7552C9.79868 9.23372 12.4731 6.39681 15.3001 4.7641C16.7777 3.90712 18.2208 3.44662 19.4693 3.42691C19.6831 3.42155 19.897 3.4306 20.1096 3.454C20.9936 4.56463 21.4763 6.24905 21.4763 8.39397C21.4763 11.6569 20.3558 15.3927 18.3217 18.9167C16.2876 22.4406 13.6132 25.2775 10.7911 26.9078C9.27415 27.7845 7.80151 28.2474 6.52835 28.2474C6.34571 28.2477 6.1632 28.2378 5.98165 28.2179C5.81927 28.0114 5.67352 27.7924 5.54578 27.5628C4.93998 26.4867 4.61491 25.0387 4.61491 23.2804C4.60999 20.0125 5.73047 16.2792 7.76457 12.7552Z" fill="#455A64"/>
<path opacity="0.1" d="M3.03387 10.9009L7.3976 13.4054C7.5158 13.1862 7.64385 12.9695 7.76452 12.7503C8.3895 11.6647 9.0915 10.6253 9.86512 9.64007L5.48908 7.13314C4.57238 8.3222 3.7514 9.58207 3.03387 10.9009ZM8.32846 4.03273C7.78669 4.52525 7.2638 5.05389 6.75979 5.61865L11.1506 8.14281C11.659 7.59464 12.1967 7.07428 12.7611 6.58398L8.32846 4.03273Z" fill="white"/>
<path d="M6.15156 30.7839L3.4033 29.2128C1.3027 27.9987 0.00245375 25.4007 0.00245375 21.6969C0.00245375 21.5541 0.00245375 21.4113 0.00245375 21.2684L2.76795 22.8494C2.76795 22.9922 2.76795 23.1351 2.76795 23.2779C2.76549 26.9693 4.06081 29.5674 6.15156 30.7839Z" fill="#37474F"/>
<path d="M22.9192 5.12119C22.5992 4.65679 22.1822 4.26728 21.6972 3.97947C21.2121 3.69166 20.6704 3.51239 20.1094 3.45402C20.9935 4.56465 21.4762 6.24906 21.4762 8.39399C21.4762 11.6569 20.3557 15.3927 18.3216 18.9167C16.2875 22.4406 13.6131 25.2776 10.791 26.9078C9.27399 27.7845 7.80136 28.2475 6.52819 28.2475C6.34556 28.2477 6.16304 28.2378 5.9815 28.2179C6.3361 28.6718 6.78668 29.0416 7.30098 29.3009C7.81528 29.5601 8.38055 29.7025 8.95631 29.7176C9.03512 29.7176 9.11638 29.7176 9.20257 29.7176C10.4757 29.7176 11.9508 29.2547 13.4678 28.378C16.2924 26.7477 18.9668 23.9108 21.0033 20.3868C23.0399 16.8629 24.1555 13.1271 24.1555 9.86416C24.1432 7.84483 23.7122 6.22198 22.9192 5.12119Z" fill="#263238"/>
<path d="M14.3765 3.16588C7.9737 6.85978 2.76531 15.8729 2.76531 23.2779C2.76531 30.683 7.96385 33.6849 14.3765 29.9811C20.7891 26.2774 25.9876 17.2741 25.9876 9.86907C25.9876 2.46404 20.7891 -0.535403 14.3765 3.16588ZM13.4554 28.3853C11.936 29.262 10.4634 29.725 9.19023 29.725C8.44024 29.7437 7.70015 29.5508 7.0547 29.1684C6.40925 28.786 5.88454 28.2296 5.54066 27.5628C4.93486 26.4867 4.60979 25.0362 4.60979 23.2804C4.60979 20.0174 5.73028 16.2817 7.76438 12.7577C9.79849 9.23372 12.4729 6.39681 15.2999 4.76657C16.7775 3.90959 18.2206 3.44908 19.4716 3.42938H19.5627C22.4316 3.42938 24.1431 5.84026 24.1431 9.874C24.1431 13.1369 23.0251 16.8752 20.991 20.3967C18.9569 23.9182 16.28 26.7526 13.4554 28.3853Z" fill="#37474F"/>
<path d="M5.58274 12.8981C4.51224 14.985 3.71913 17.2029 3.22357 19.4954C2.98415 20.6405 2.85224 21.8054 2.82956 22.975C2.79957 24.1427 2.92797 25.3091 3.21126 26.4424C3.4819 27.5787 4.0083 28.6382 4.75038 29.5403C5.50891 30.4314 6.52924 31.0605 7.6661 31.338C8.80749 31.6005 9.99546 31.5828 11.1285 31.2863C12.2673 31.0064 13.3608 30.567 14.3767 29.9811C13.3695 30.5879 12.2818 31.0496 11.1457 31.3528C10.0017 31.6598 8.80032 31.686 7.64393 31.4291C6.48484 31.1516 5.44189 30.5177 4.66172 29.6167C3.90208 28.7046 3.35978 27.6318 3.07582 26.4793C2.7976 25.3304 2.67583 24.1491 2.71381 22.9676C2.74547 21.7915 2.88645 20.6208 3.13492 19.4707C3.38058 18.3228 3.7098 17.1944 4.11996 16.0945C4.5411 14.9999 5.02963 13.9323 5.58274 12.8981Z" fill="#455A64"/>
<path d="M19.5629 3.42442C20.1461 3.41478 20.7253 3.52109 21.267 3.73717C21.8086 3.96355 22.2925 4.30858 22.683 4.74684C23.0693 5.18848 23.3782 5.69219 23.5967 6.23671C23.8241 6.7777 23.9894 7.3428 24.0892 7.92113C24.2733 9.07592 24.3064 10.2498 24.1877 11.4131C24.0734 12.5734 23.8533 13.7208 23.5302 14.841C23.2159 15.9654 22.8149 17.0637 22.3309 18.1261C21.8524 19.1895 21.3045 20.2203 20.6908 21.2118C19.4761 23.2108 17.9762 25.0218 16.2384 26.5876C15.3593 27.3629 14.402 28.0446 13.3818 28.6217C12.3585 29.2161 11.2365 29.6215 10.0696 29.8185C9.47741 29.9109 8.87394 29.9034 8.28422 29.7964C7.68968 29.6816 7.12842 29.435 6.64167 29.0748C6.39998 28.8951 6.17941 28.6885 5.98416 28.4592C5.78567 28.2317 5.61151 27.9841 5.46454 27.7204C5.17006 27.205 4.94799 26.6514 4.80457 26.0754C4.53048 24.9338 4.43166 23.7572 4.51152 22.5859C4.57864 21.4219 4.75927 20.2672 5.05083 19.1383C5.34269 18.0126 5.72058 16.9111 6.18116 15.8433C6.63774 14.7758 7.16679 13.7407 7.76461 12.7454C6.62637 14.7639 5.77279 16.9302 5.22814 19.1826C4.95363 20.3025 4.78868 21.4464 4.73562 22.5982C4.67471 23.7439 4.78762 24.8921 5.07053 26.004C5.21545 26.5526 5.43503 27.0788 5.72312 27.5677C6.00217 28.0531 6.37662 28.477 6.8239 28.8138C7.27317 29.1436 7.79072 29.3683 8.3384 29.4713C8.89349 29.5649 9.46034 29.5649 10.0154 29.4713C11.1394 29.2751 12.2188 28.878 13.202 28.2991C14.1973 27.7292 15.1307 27.0574 15.9872 26.2946C17.705 24.7672 19.19 22.9967 20.3953 21.0394C21.6213 19.0857 22.5812 16.9772 23.2494 14.7696C23.5846 13.6679 23.8179 12.5378 23.9463 11.3934C24.0812 10.2471 24.0663 9.08817 23.902 7.94575C23.8213 7.37777 23.6759 6.82088 23.4686 6.28596C23.267 5.74874 22.9764 5.24925 22.6091 4.8084C22.2359 4.37067 21.7699 4.02156 21.2449 3.78642C20.7137 3.55552 20.142 3.43247 19.5629 3.42442Z" fill="#455A64"/>
<path opacity="0.3" d="M20.9001 3.62145C20.467 3.48781 20.0161 3.42137 19.5629 3.42444H19.4693C18.2208 3.44414 16.7801 3.91696 15.3001 4.76163C12.4731 6.39434 9.79867 9.23125 7.76456 12.7528C5.73046 16.2743 4.60998 20.0125 4.60998 23.2779C4.60998 25.0362 4.93504 26.4793 5.54084 27.5604C5.79977 28.0287 6.14192 28.446 6.5505 28.7917C6.98244 28.9267 7.43269 28.994 7.88524 28.9911C9.1584 28.9911 10.631 28.5282 12.1504 27.6515C14.975 26.0212 17.6519 23.1819 19.6835 19.6604C21.7152 16.1388 22.8381 12.4006 22.8381 9.13767C22.8381 6.58149 22.1437 4.67052 20.9001 3.62145Z" fill="white"/>
<path d="M41.9577 29.0158C40.0763 29.6733 38.9287 32.1605 38.9287 32.1605L34.8728 38.1643C34.8728 38.1643 30.0264 40.5432 28.4134 41.1613C27.7239 41.4248 26.559 41.0333 25.6208 41.053C25.3745 41.053 25.1529 41.0727 24.9362 41.0899L25.6085 42.2966C25.9754 42.5699 25.148 43.0206 24.0965 43.2324C22.9957 43.4515 21.7939 43.3284 21.4344 43.9711C21.262 44.2765 21.4516 44.3996 21.8949 44.4637C21.8579 44.6385 21.922 44.8454 22.4243 44.9857C22.6382 45.3072 22.9566 45.5447 23.3257 45.658C24.0447 45.7935 25.478 45.8599 26.527 45.4118C27.5761 44.9636 28.2878 44.3356 29.3886 44.0056C30.4894 43.6756 34.2744 42.6389 35.7002 42.0823C37.1261 41.5258 37.589 41.2844 38.1628 40.5654C38.7366 39.8463 42.3172 35.4432 43.2235 33.6504C44.2504 31.5867 43.8194 29.7718 41.9577 29.0158Z" fill="#C8856A"/>
<path d="M41.8421 28.8311C40.7019 29.3236 40.1971 29.5699 38.7959 31.7296C37.3947 33.8893 34.7769 38.0461 34.7769 38.0461L30.396 40.159C30.8503 40.6444 31.1733 41.2378 31.3342 41.8829C31.4993 42.4815 31.5069 43.1126 31.3564 43.715C31.3564 43.715 36.119 42.3729 37.1706 42.0602C38.2221 41.7474 38.4142 41.2106 39.8597 39.5114C41.1885 37.9099 42.389 36.2063 43.4502 34.4163C44.2333 33.0938 44.748 30.0254 41.8421 28.8311Z" fill="#E0E0E0"/>
<path d="M36.6353 4.54604C35.9397 5.83645 35.7628 7.34367 36.1406 8.76009L36.3451 9.38791C36.8737 10.7374 37.8904 11.8388 39.1934 12.4734C40.4964 13.108 41.9905 13.2294 43.3788 12.8134C44.7672 12.3974 45.9483 11.4746 46.6877 10.228C47.4272 8.98152 47.6707 7.50251 47.3702 6.08469L47.1966 5.44735C46.8389 4.37879 46.1764 3.43823 45.2907 2.74161C44.405 2.04498 43.3348 1.62274 42.212 1.52693C41.0893 1.43111 39.963 1.6659 38.9721 2.20237C37.9811 2.73884 37.1688 3.55353 36.6353 4.54604Z" fill="white"/>
<path d="M36.2095 4.30344C35.5061 5.60661 35.2862 7.11652 35.5886 8.56618C35.8911 10.0158 36.6964 11.3118 37.8623 12.225L37.6244 14.156C37.615 14.2289 37.6279 14.3029 37.6614 14.3683C37.6949 14.4337 37.7474 14.4875 37.812 14.5225C37.8766 14.5575 37.9503 14.5721 38.0233 14.5644C38.0964 14.5568 38.1654 14.5271 38.2213 14.4795L39.7053 13.2167C40.8366 13.603 42.0548 13.6578 43.2162 13.3747C44.3776 13.0915 45.4338 12.4821 46.2604 11.6185C47.0869 10.7548 47.6492 9.67275 47.881 8.50001C48.1128 7.32726 48.0045 6.11268 47.5688 4.99947C47.1331 3.88626 46.3881 2.92085 45.4218 2.21707C44.4555 1.51328 43.3081 1.10048 42.1149 1.02732C40.9217 0.954161 39.7324 1.2237 38.6874 1.80417C37.6423 2.38463 36.785 3.2518 36.2166 4.30344H36.2095ZM44.4735 2.20355C45.7629 2.90043 46.7377 4.06321 47.1988 5.45446L47.3724 6.0918C47.6705 7.50992 47.4245 8.98828 46.6832 10.2334C45.9418 11.4786 44.7595 12.3994 43.3707 12.8133C41.9819 13.2271 40.4883 13.1036 39.1864 12.4673C37.8844 11.831 36.8694 10.7284 36.3426 9.37838L36.1381 8.74817C35.8517 7.65878 35.8903 6.50942 36.2489 5.44165C36.6076 4.37388 37.2707 3.43432 38.1567 2.73871C39.0426 2.0431 40.1127 1.6218 41.2351 1.52672C42.3574 1.43163 43.4831 1.6669 44.4735 2.20355Z" fill="#455A64"/>
<path d="M40.8921 10.4937C40.7749 10.4938 40.6588 10.4698 40.5512 10.4231C40.4437 10.3765 40.3468 10.3083 40.2667 10.2226L38.3237 8.14891C38.1683 7.98303 38.085 7.76218 38.0924 7.53495C38.0998 7.30772 38.1971 7.09272 38.363 6.93725C38.5288 6.78178 38.7497 6.69857 38.9769 6.70593C39.2041 6.71329 39.4192 6.81061 39.5746 6.97649L40.8374 8.32489L43.822 4.54366C43.9667 4.3769 44.1701 4.27233 44.39 4.25165C44.6098 4.23098 44.8291 4.2958 45.0024 4.43265C45.1757 4.5695 45.2896 4.76785 45.3204 4.98649C45.3513 5.20513 45.2967 5.42725 45.168 5.60668L41.5746 10.1679C41.4981 10.2649 41.4015 10.3442 41.2915 10.4004C41.1815 10.4567 41.0607 10.4885 40.9373 10.4937H40.8921Z" fill="#00BFBA"/>
</svg>
