<svg width="80" height="91" viewBox="0 0 80 91" fill="none" xmlns="http://www.w3.org/2000/svg">
<path d="M55.1642 6.17511C55.1451 7.60349 54.5824 8.97091 53.5906 9.99898L53.118 10.4371C52.0283 11.3274 50.6445 11.777 49.2396 11.6974C47.8346 11.6177 46.5105 11.0145 45.5284 10.0068C44.5463 8.99901 43.9774 7.65983 43.9339 6.25331C43.8905 4.84679 44.3756 3.47505 45.2937 2.40858L45.7524 1.9498C46.5632 1.20935 47.5728 0.722275 48.657 0.548593C49.7411 0.37491 50.8524 0.522213 51.8539 0.972349C52.8554 1.42248 53.7032 2.15578 54.2931 3.08188C54.8829 4.00798 55.1889 5.08641 55.1733 6.18428L55.1642 6.17511Z" fill="white"/>
<path d="M49.5327 0C48.0009 0.000213912 46.525 0.575987 45.3976 1.61318C44.2703 2.65038 43.5738 4.07329 43.4463 5.59985C43.3187 7.12641 43.7693 8.64518 44.7089 9.85511C45.6484 11.065 47.0083 11.8778 48.5189 12.1323L49.207 13.9008C49.233 13.9677 49.2785 14.0251 49.3376 14.0656C49.3968 14.1061 49.4668 14.1277 49.5385 14.1277C49.6102 14.1277 49.6802 14.1061 49.7393 14.0656C49.7985 14.0251 49.844 13.9677 49.8699 13.9008L50.5581 12.13C52.0668 11.8723 53.4238 11.0577 54.3606 9.84738C55.2973 8.63703 55.7456 7.11912 55.6167 5.59404C55.4878 4.06895 54.7911 2.64783 53.6644 1.6119C52.5377 0.575975 51.0633 0.000727624 49.5327 0ZM55.1665 6.10857C55.1661 7.53712 54.6214 8.91186 53.6434 9.95309L53.1846 10.3981C52.1094 11.3286 50.7217 11.8175 49.3007 11.7665C47.8796 11.7156 46.5306 11.1284 45.5248 10.1232C44.519 9.11806 43.9311 7.76935 43.8793 6.34833C43.8275 4.92732 44.3156 3.53938 45.2455 2.46361L45.6882 2.00484C46.4888 1.25322 47.4918 0.752274 48.5736 0.563748C49.6554 0.375222 50.7687 0.507354 51.7763 0.943861C52.784 1.38037 53.6419 2.10217 54.2442 3.0203C54.8466 3.93843 55.1672 5.01275 55.1665 6.11086V6.10857Z" fill="#455A64"/>
<path d="M48.434 9.7214C48.3132 9.72135 48.1936 9.69648 48.0827 9.64835C47.9719 9.60021 47.872 9.52983 47.7895 9.44155L45.7892 7.30367C45.7065 7.21968 45.6415 7.12 45.5979 7.01049C45.5544 6.90098 45.5332 6.78386 45.5356 6.66603C45.538 6.54819 45.5639 6.43203 45.6119 6.32439C45.6599 6.21675 45.729 6.11981 45.815 6.03927C45.9011 5.95874 46.0024 5.89624 46.113 5.85546C46.2235 5.81468 46.3412 5.79645 46.4589 5.80184C46.5766 5.80723 46.6921 5.83613 46.7985 5.88684C46.9049 5.93754 47 6.00903 47.0784 6.09709L48.3767 7.47341L51.4528 3.57384C51.5198 3.47066 51.6077 3.38263 51.7108 3.31541C51.8139 3.24818 51.9299 3.20324 52.0513 3.18347C52.1728 3.16369 52.2971 3.16952 52.4161 3.20058C52.5352 3.23164 52.6465 3.28725 52.7428 3.36383C52.8392 3.44041 52.9184 3.53628 52.9755 3.64529C53.0326 3.7543 53.0663 3.87404 53.0745 3.99684C53.0826 4.11963 53.0649 4.24277 53.0227 4.35835C52.9804 4.47393 52.9145 4.57941 52.8291 4.66801L49.1176 9.36815C49.0391 9.46824 48.9398 9.55005 48.8265 9.60788C48.7132 9.66571 48.5887 9.69819 48.4616 9.70305L48.434 9.7214Z" fill="#00BFBA"/>
<path d="M79.3665 70.9321L45.9924 90.2247C45.7987 90.3227 45.5847 90.3737 45.3677 90.3737C45.1507 90.3737 44.9367 90.3227 44.743 90.2247L0.620864 64.754C0.438996 64.6359 0.287836 64.4762 0.179877 64.2882C0.0719183 64.1002 0.0102614 63.8891 0 63.6725V63.53C0.0126398 63.3134 0.0758405 63.1028 0.18454 62.915C0.29324 62.7272 0.444416 62.5675 0.625954 62.4486L34.0229 43.1738C34.2166 43.0759 34.4306 43.0248 34.6476 43.0248C34.8646 43.0248 35.0786 43.0759 35.2723 43.1738L79.3716 68.6191C79.5533 68.7375 79.7045 68.8972 79.8129 69.0851C79.9212 69.273 79.9836 69.4839 79.995 69.7005V69.8481C79.9826 70.0654 79.9193 70.2768 79.8101 70.4651C79.7009 70.6535 79.5489 70.8134 79.3665 70.9321Z" fill="#00BFBA"/>
<path opacity="0.45" d="M79.3665 70.9321L45.9924 90.2247C45.7987 90.3227 45.5847 90.3737 45.3677 90.3737C45.1507 90.3737 44.9367 90.3227 44.743 90.2247L0.620864 64.754C0.438996 64.6359 0.287836 64.4762 0.179877 64.2882C0.0719183 64.1002 0.0102614 63.8891 0 63.6725V63.53C0.0126398 63.3134 0.0758405 63.1028 0.18454 62.915C0.29324 62.7272 0.444416 62.5675 0.625954 62.4486L34.0229 43.1738C34.2166 43.0759 34.4306 43.0248 34.6476 43.0248C34.8646 43.0248 35.0786 43.0759 35.2723 43.1738L79.3716 68.6191C79.5533 68.7375 79.7045 68.8972 79.8129 69.0851C79.9212 69.273 79.9836 69.4839 79.995 69.7005V69.8481C79.9826 70.0654 79.9193 70.2768 79.8101 70.4651C79.7009 70.6535 79.5489 70.8134 79.3665 70.9321Z" fill="black"/>
<path d="M35.2339 43.1433C34.7581 42.8685 34.2619 43.0262 33.7861 43.3036L0.867514 62.3087C0.394231 62.5835 0.391687 63.0288 0.867514 63.3061L44.5113 88.497C44.7722 88.6483 45.0685 88.7279 45.3701 88.7279C45.6717 88.7279 45.9679 88.6483 46.2289 88.497L79.1551 69.4944C79.2429 69.4441 79.3158 69.3714 79.3665 69.2839C79.4172 69.1963 79.4439 69.0969 79.4439 68.9957C79.4439 68.8945 79.4172 68.7951 79.3665 68.7076C79.3158 68.62 79.2429 68.5474 79.1551 68.497L35.2339 43.1433Z" fill="#00BFBA"/>
<path opacity="0.3" d="M35.2339 43.1433C34.7581 42.8685 34.2619 43.0262 33.7861 43.3036L0.867514 62.3087C0.394231 62.5835 0.391687 63.0288 0.867514 63.3061L44.5113 88.497C44.7722 88.6483 45.0685 88.7279 45.3701 88.7279C45.6717 88.7279 45.9679 88.6483 46.2289 88.497L79.1551 69.4944C79.2429 69.4441 79.3158 69.3714 79.3665 69.2839C79.4172 69.1963 79.4439 69.0969 79.4439 68.9957C79.4439 68.8945 79.4172 68.7951 79.3665 68.7076C79.3158 68.62 79.2429 68.5474 79.1551 68.497L35.2339 43.1433Z" fill="black"/>
<path d="M79.3715 68.6191L79.1603 68.497C79.2474 68.5479 79.3197 68.6207 79.3699 68.7082C79.4201 68.7957 79.4465 68.8948 79.4465 68.9957C79.4465 69.0966 79.4201 69.1957 79.3699 69.2832C79.3197 69.3707 79.2474 69.4436 79.1603 69.4944L46.2341 88.497C45.974 88.6493 45.6779 88.7292 45.3766 88.7286H45.3613V90.3749C45.583 90.3803 45.8023 90.3277 45.9974 90.2222L79.3741 70.9321C79.5559 70.8135 79.7073 70.6539 79.816 70.466C79.9247 70.2782 79.9878 70.0674 80 69.8507V69.7056C79.9895 69.4875 79.927 69.2751 79.8176 69.0861C79.7083 68.8971 79.5553 68.737 79.3715 68.6191Z" fill="#00BFBA"/>
<path opacity="0.2" d="M79.3715 68.6191L79.1603 68.497C79.2474 68.5479 79.3197 68.6207 79.3699 68.7082C79.4201 68.7957 79.4465 68.8948 79.4465 68.9957C79.4465 69.0966 79.4201 69.1957 79.3699 69.2832C79.3197 69.3707 79.2474 69.4436 79.1603 69.4944L46.2341 88.497C45.974 88.6493 45.6779 88.7292 45.3766 88.7286H45.3613V90.3749C45.583 90.3803 45.8023 90.3277 45.9974 90.2222L79.3741 70.9321C79.5559 70.8135 79.7073 70.6539 79.816 70.466C79.9247 70.2782 79.9878 70.0674 80 69.8507V69.7056C79.9895 69.4875 79.927 69.2751 79.8176 69.0861C79.7083 68.8971 79.5553 68.737 79.3715 68.6191Z" fill="black"/>
<path opacity="0.25" d="M38.1501 45.7183C37.6616 45.4359 37.1501 45.6013 36.659 45.8837L5.54706 63.8481C5.05851 64.1306 5.05596 64.5911 5.54706 64.8659L44.4479 87.324C44.7186 87.4803 45.0258 87.5626 45.3384 87.5626C45.6511 87.5626 45.9583 87.4803 46.229 87.324L77.3385 69.3825C77.4265 69.3299 77.4994 69.2553 77.55 69.1661C77.6006 69.0769 77.6272 68.9761 77.6272 68.8736C77.6272 68.771 77.6006 68.6702 77.55 68.581C77.4994 68.4918 77.4265 68.4173 77.3385 68.3647L76.7685 68.0339L38.1501 45.7183Z" fill="black"/>
<path d="M45.5901 87.0822L76.5901 69.184C76.6654 69.1323 76.7276 69.0637 76.7717 68.9838C76.8159 68.9038 76.8408 68.8147 76.8445 68.7234V68.3799C76.8408 68.2887 76.8159 68.1995 76.7717 68.1196C76.7276 68.0396 76.6654 67.9711 76.5901 67.9194L37.2898 45.2323C37.2077 45.1909 37.1171 45.1694 37.0252 45.1694C36.9332 45.1694 36.8426 45.1909 36.7605 45.2323L5.7605 63.1306C5.68555 63.182 5.62357 63.2502 5.57942 63.3296C5.53526 63.4091 5.51015 63.4978 5.50605 63.5886V63.9346C5.50976 64.0259 5.53469 64.115 5.57886 64.195C5.62303 64.2749 5.68522 64.3435 5.7605 64.3952L45.0608 87.0822C45.1429 87.1236 45.2335 87.1452 45.3254 87.1452C45.4173 87.1452 45.508 87.1236 45.5901 87.0822Z" fill="#F5F5F5"/>
<path d="M5.70489 63.1713C5.67866 63.1924 5.65478 63.2163 5.63365 63.2425L5.60311 63.2832C5.57221 63.3276 5.54659 63.3754 5.52677 63.4257C5.51473 63.4578 5.5062 63.491 5.50133 63.5249C5.49997 63.547 5.49997 63.5691 5.50133 63.5911V63.9346C5.50464 64.0256 5.52941 64.1145 5.57364 64.1941C5.61786 64.2737 5.68027 64.3417 5.75578 64.3926L45.0535 87.0797C45.1313 87.1227 45.2191 87.1447 45.308 87.1433V86.1764C45.2194 86.1749 45.1324 86.1531 45.0535 86.1127L5.76087 63.4359C5.63619 63.3646 5.61583 63.2552 5.70489 63.1713Z" fill="#E0E0E0"/>
<path d="M76.6591 67.9677C76.738 68.0491 76.7151 68.156 76.5955 68.2222L45.5904 86.1229C45.5122 86.1652 45.4247 86.187 45.3359 86.1865V87.1433C45.4248 87.1447 45.5126 87.1227 45.5904 87.0797L76.5904 69.184C76.6653 69.1325 76.7273 69.0644 76.7715 68.9849C76.8156 68.9054 76.8407 68.8168 76.8448 68.726V68.3799C76.8432 68.3022 76.8259 68.2257 76.794 68.1549C76.7621 68.084 76.7162 68.0204 76.6591 67.9677Z" fill="#F0F0F0"/>
<path d="M46.8114 50.7311L37.2898 45.2323C37.2077 45.1909 37.1171 45.1694 37.0252 45.1694C36.9332 45.1694 36.8426 45.1909 36.7605 45.2323L5.7605 63.1306C5.68555 63.182 5.62357 63.2502 5.57942 63.3296C5.53526 63.4091 5.51015 63.4978 5.50605 63.5886V63.9346C5.50976 64.0259 5.53469 64.115 5.57886 64.195C5.62303 64.2749 5.68522 64.3435 5.7605 64.3952L14.4526 69.413L46.8114 50.7311Z" fill="#00BFBA"/>
<path opacity="0.6" d="M46.8114 50.7311L37.2898 45.2323C37.2077 45.1909 37.1171 45.1694 37.0252 45.1694C36.9332 45.1694 36.8426 45.1909 36.7605 45.2323L5.7605 63.1306C5.68555 63.182 5.62357 63.2502 5.57942 63.3296C5.53526 63.4091 5.51015 63.4978 5.50605 63.5886V63.9346C5.50976 64.0259 5.53469 64.115 5.57886 64.195C5.62303 64.2749 5.68522 64.3435 5.7605 64.3952L14.4526 69.413L46.8114 50.7311Z" fill="white"/>
<path d="M15.2825 68.9346L5.76087 63.4359C5.63619 63.3647 5.61583 63.2553 5.70489 63.1815C5.67866 63.2026 5.65478 63.2265 5.63365 63.2527L5.60311 63.2934C5.57221 63.3378 5.54659 63.3856 5.52677 63.4359C5.51473 63.468 5.5062 63.5012 5.50133 63.5351C5.49997 63.5572 5.49997 63.5793 5.50133 63.6013V63.9448C5.50464 64.0358 5.52941 64.1247 5.57364 64.2043C5.61786 64.2839 5.68027 64.3519 5.75578 64.4028L15.2825 69.8914V68.9346Z" fill="#00BFBA"/>
<path d="M15.1145 60.3697C13.8719 60.9835 12.4856 61.2474 11.1043 61.1331C11.3766 61.8812 10.7761 62.8099 9.80152 63.4486C11.5114 64.5809 13.1985 65.4537 15.5165 65.726C16.6722 65.8586 17.8399 65.8458 18.9924 65.6878C19.2621 65.0498 19.2856 64.3345 19.0585 63.6802C18.5903 62.3316 17.0763 61.357 15.1145 60.3697Z" fill="#00BFBA"/>
<path d="M15.5267 63.6751C15.6769 63.6165 15.8375 63.5894 15.9986 63.5956C16.1597 63.6017 16.3178 63.6409 16.4631 63.7107C16.7616 63.8322 17.0493 63.9786 17.3232 64.1484C17.4708 64.24 17.7049 64.2018 17.6794 64.0084C17.5915 63.7275 17.4006 63.4902 17.1451 63.3443C16.715 63.0313 16.458 62.9652 16.2239 62.7641C15.9898 62.5631 15.8881 62.2858 15.486 62.0542C15.2528 61.9132 14.9934 61.8211 14.7235 61.7835C14.4536 61.7459 14.1789 61.7635 13.916 61.8354C13.4071 62.0237 13.5038 62.2501 13.2825 62.3799C13.0611 62.5097 12.6667 62.4461 12.341 62.7463C12.0153 63.0466 12.313 63.4181 12.7176 63.6522C13.1222 63.8863 13.5751 63.9321 13.9491 64.0771C14.3232 64.2222 14.4097 64.3621 14.9517 64.6089C15.3136 64.7824 15.7043 64.8876 16.1043 64.9194C16.4377 64.9321 16.5038 64.7972 16.3435 64.7133C16.0747 64.5712 15.8192 64.4051 15.5802 64.2171C15.3639 64.0161 15.2952 63.8074 15.5267 63.6751Z" fill="white"/>
<path d="M26.6972 50.4842C26.7778 50.4282 26.8416 50.3511 26.8815 50.2614C26.9215 50.1717 26.936 50.0727 26.9236 49.9753C26.909 49.7096 26.8324 49.4511 26.6998 49.2204C26.5672 48.9898 26.3824 48.7934 26.1603 48.647C26.0823 48.5908 25.9907 48.5564 25.8949 48.5475C25.7992 48.5385 25.7028 48.5553 25.6157 48.5961L13.3765 55.6623L14.4605 57.5402L26.6972 50.4842Z" fill="#37474F"/>
<path d="M13.9133 56.6062L26.6971 49.227C26.8368 49.4578 26.9148 49.7207 26.9235 49.9904C26.925 50.0175 26.925 50.0447 26.9235 50.0718L14.3408 57.3364L13.9133 56.6062Z" fill="#455A64"/>
<path d="M14.6841 57.0513C14.6841 57.5397 14.3406 57.7381 13.9209 57.4939C13.6985 57.3479 13.5135 57.1516 13.381 56.921C13.2484 56.6903 13.1719 56.4317 13.1577 56.166C13.1577 55.6776 13.5011 55.4792 13.9209 55.7234C14.1433 55.8694 14.3283 56.0657 14.4608 56.2963C14.5934 56.527 14.6699 56.7856 14.6841 57.0513Z" fill="#263238"/>
<path opacity="0.2" d="M15.5038 61.0745C15.2673 61.077 15.0341 61.0182 14.827 60.904L11.5725 59.0236C11.4745 58.9773 11.3905 58.9058 11.3293 58.8164C11.268 58.7269 11.2317 58.6228 11.2239 58.5147C11.2285 58.4263 11.2559 58.3406 11.3037 58.2661C11.3514 58.1916 11.4178 58.1308 11.4962 58.0897L13.8092 56.7615C13.8535 56.7419 13.9036 56.7394 13.9496 56.7546C13.9956 56.7697 14.0344 56.8014 14.0585 56.8435C14.0825 56.8856 14.0901 56.9351 14.0798 56.9824C14.0695 57.0298 14.042 57.0717 14.0026 57.0999L11.6896 58.4409C11.6413 58.4689 11.6107 58.5019 11.6107 58.5299C11.6107 58.5579 11.6591 58.6368 11.7659 58.6979L15.0204 60.5783C15.1472 60.648 15.2882 60.6881 15.4327 60.6956C15.5773 60.7031 15.7216 60.6778 15.855 60.6215L22.1196 57.0032C22.6021 56.7206 23.0138 56.3316 23.3232 55.8658C23.6053 55.4361 23.9779 55.0731 24.4148 54.8022C24.6794 54.6342 24.9868 54.5459 25.3003 54.5477C25.9984 54.5607 26.6861 54.3773 27.285 54.0185L32.9721 50.736C33.0229 50.7055 33.0535 50.6724 33.0535 50.6444C33.0535 50.6164 33.0051 50.5376 32.8983 50.4765L29.6413 48.5961C29.5142 48.5271 29.3733 48.4874 29.2289 48.4799C29.0844 48.4724 28.9402 48.4973 28.8067 48.5528L26.771 49.7259C26.715 49.6085 26.6477 49.4968 26.57 49.3925L28.6056 48.217C28.7982 48.1275 29.0093 48.0848 29.2215 48.0923C29.4337 48.0998 29.6412 48.1573 29.827 48.2602L33.084 50.1406C33.1824 50.1864 33.2666 50.2578 33.328 50.3474C33.3893 50.4369 33.4254 50.5412 33.4326 50.6495C33.4283 50.7386 33.4006 50.825 33.3524 50.9C33.3042 50.9751 33.2371 51.0361 33.1578 51.077L27.4708 54.362C26.8087 54.7576 26.0485 54.9587 25.2774 54.9421C25.0384 54.9437 24.8048 55.0125 24.6031 55.1406C24.2154 55.3815 23.8853 55.7047 23.6362 56.0872C23.2937 56.6002 22.8396 57.029 22.3079 57.3416L16.0484 60.9472C15.881 61.0362 15.6933 61.0801 15.5038 61.0745Z" fill="black"/>
<path d="M15.5038 60.7311C15.2673 60.7336 15.0341 60.6748 14.827 60.5606L11.5725 58.6802C11.4745 58.6339 11.3905 58.5624 11.3293 58.473C11.268 58.3835 11.2317 58.2794 11.2239 58.1713C11.2285 58.0829 11.2559 57.9972 11.3037 57.9227C11.3514 57.8481 11.4178 57.7874 11.4962 57.7463L13.8092 56.4054C13.8535 56.3858 13.9036 56.3833 13.9496 56.3985C13.9956 56.4136 14.0344 56.4453 14.0585 56.4874C14.0825 56.5294 14.0901 56.579 14.0798 56.6263C14.0695 56.6737 14.042 56.7155 14.0026 56.7438L11.6947 58.0746C11.6463 58.1026 11.6158 58.1382 11.6158 58.1636C11.6158 58.1891 11.6642 58.2705 11.771 58.3316L15.0204 60.2222C15.1472 60.2919 15.2882 60.332 15.4327 60.3395C15.5773 60.3469 15.7216 60.3216 15.855 60.2654L22.1196 56.6598C22.6021 56.3772 23.0138 55.9882 23.3232 55.5224C23.6053 55.0926 23.9779 54.7297 24.4148 54.4588C24.6794 54.2908 24.9868 54.2024 25.3003 54.2043C25.9984 54.2173 26.6861 54.0339 27.285 53.6751L32.9721 50.3926C33.0229 50.3621 33.0535 50.329 33.0535 50.301C33.0535 50.273 33.0051 50.1942 32.8983 50.1331L29.6413 48.2527C29.5142 48.1837 29.3733 48.144 29.2289 48.1365C29.0844 48.129 28.9402 48.1539 28.8067 48.2094L26.771 49.3825C26.715 49.2651 26.6477 49.1534 26.57 49.0491L28.6056 47.8735C28.7982 47.7841 29.0093 47.7414 29.2215 47.7489C29.4337 47.7564 29.6412 47.8139 29.827 47.9168L33.084 49.7972C33.1824 49.843 33.2666 49.9144 33.328 50.004C33.3893 50.0935 33.4254 50.1978 33.4326 50.3061C33.4287 50.3956 33.4013 50.4826 33.353 50.5581C33.3048 50.6336 33.2374 50.695 33.1578 50.7361L27.4708 54.0186C26.8087 54.4142 26.0485 54.6153 25.2774 54.5987C25.0384 54.6003 24.8048 54.669 24.6031 54.7972C24.2154 55.0381 23.8853 55.3613 23.6362 55.7438C23.2937 56.2568 22.8396 56.6856 22.3079 56.9982L16.0484 60.6013C15.8812 60.6911 15.6936 60.7359 15.5038 60.7311Z" fill="#455A64"/>
<path opacity="0.05" d="M49.3309 75.0439C59.9358 75.0439 68.5328 70.0804 68.5328 63.9576C68.5328 57.8348 59.9358 52.8713 49.3309 52.8713C38.7259 52.8713 30.1289 57.8348 30.1289 63.9576C30.1289 70.0804 38.7259 75.0439 49.3309 75.0439Z" fill="black"/>
<path d="M66.7115 66.1024C64.7365 66.1024 63.8281 62.3014 61.4608 58.2C60.5662 56.6516 59.1303 55.0551 58.0017 55.0643C58.0017 55.0643 57.2241 55.156 57.1002 55.4841C56.9763 55.8121 56.5611 57.5141 56.3983 60.5833C56.2859 62.6685 56.0565 64.2535 55.3569 64.2535C54.2696 64.2535 53.953 62.93 52.7189 59.4731C51.0605 54.8349 48.1495 52.9081 44.6009 52.9081C41.0523 52.9081 39.4076 54.7776 37.8432 56.9636C36.7998 58.4342 35.8535 59.9713 35.0103 61.5651C33.6936 64.109 32.7898 65.834 31.7346 65.834C31.7346 65.834 30.3147 58.7597 32.2897 53.2682C34.2648 47.7767 40.9904 45.6984 47.9041 45.6984C54.8178 45.6984 66.7115 49.442 66.7115 66.1024Z" fill="#E0E0E0"/>
<path opacity="0.2" d="M66.7115 66.1024C64.7365 66.1024 63.8281 62.3014 61.4608 58.2C60.5662 56.6516 59.1303 55.0551 58.0017 55.0643C58.0017 55.0643 57.2241 55.156 57.1002 55.4841C56.9763 55.8121 56.5611 57.5141 56.3983 60.5833C56.2859 62.6685 56.0565 64.2535 55.3569 64.2535C54.2696 64.2535 53.953 62.93 52.7189 59.4731C51.0605 54.8349 48.1495 52.9081 44.6009 52.9081C41.0523 52.9081 39.4076 54.7776 37.8432 56.9636C36.7998 58.4342 35.8535 59.9713 35.0103 61.5651C33.6936 64.109 32.7898 65.834 31.7346 65.834C31.7346 65.834 30.3147 58.7597 32.2897 53.2682C34.2648 47.7767 40.9904 45.6984 47.9041 45.6984C54.8178 45.6984 66.7115 49.442 66.7115 66.1024Z" fill="black"/>
<path d="M49.2186 17.126C54.0242 17.126 55.373 18.8625 57.9742 21.2045C60.5755 23.5466 62.2202 23.4571 64.4751 23.8906C66.7299 24.3242 69.5032 26.8543 68.8082 31.0934C68.1131 35.3325 67.2438 37.1607 66.902 40.9708C66.5602 44.7809 67.0465 46.9234 68.2783 49.7976C69.5101 52.6718 69.5881 57.9775 68.2783 62.8841C66.9685 67.7907 66.1266 65.9969 65.6931 64.6205C65.2596 63.2442 64.131 58.9409 61.7935 56.5415C59.4561 54.1422 57.5476 54.1857 55.2055 57.8926C52.8635 61.5995 51.6455 64.7857 50.9573 68.4352C50.2691 72.0848 50.003 75.5761 48.8768 76.005C47.7505 76.434 42.9815 72.0091 41.596 67.153C40.2105 62.2969 39.2586 56.0025 38.903 54.6835C38.5475 53.3645 37.6896 53.4402 36.4761 55.6974C35.2627 57.9546 33.4413 62.1202 32.7486 64.3292C32.0558 66.5382 31.1888 66.3318 30.4088 63.5745C29.6289 60.8173 28.6747 55.7616 30.4088 51.05C32.143 46.3384 32.4022 43.884 31.9687 41.8195C31.5351 39.755 30.3217 37.4084 29.801 33.7703C29.2803 30.1323 30.0625 26.8383 32.8358 25.283C35.609 23.7278 38.7241 23.6773 40.7771 21.8629C43.0251 19.8649 44.4129 17.126 49.2186 17.126Z" fill="#F0F0F0"/>
<path d="M34.7442 54.851C35.3062 53.5572 35.8912 52.2429 36.0173 50.8413C36.2008 48.9076 35.5058 46.9853 34.5332 45.3062C33.751 43.9528 32.7899 42.7164 31.8815 41.441C31.3906 39.466 30.2895 37.1882 29.8009 33.7703C29.4592 31.3755 29.6863 29.1321 30.668 27.4324C31.288 26.7176 32.0579 26.1483 32.9229 25.7648C34.5286 25.0766 36.1343 25.0926 37.8134 25.3863C38.3658 25.5014 38.9282 25.5621 39.4925 25.5675C40.1461 25.5424 40.7917 25.4147 41.4056 25.189C42.0563 24.9631 42.6672 24.6356 43.2155 24.2187C44.1445 23.4915 44.4588 22.4363 45.101 21.505C45.5068 20.9166 46.0269 20.4159 46.6304 20.0328C47.2339 19.6498 47.9084 19.3922 48.6136 19.2756C49.3188 19.1589 50.0403 19.1855 50.735 19.3537C51.4297 19.522 52.0834 19.8285 52.657 20.2549C53.804 21.1082 54.5931 22.4111 55.8432 23.1039C56.7952 23.6292 57.9077 23.7461 58.9422 24.1017C59.9768 24.4572 61.0067 25.2028 61.1375 26.2832C61.2911 27.5425 59.8827 27.9095 58.972 28.249C57.0268 28.9762 55.3133 30.6622 55.1206 32.7312C54.4978 31.7815 53.652 30.9986 52.6571 30.4508C51.6622 29.903 50.5484 29.6069 49.4128 29.5884C48.2773 29.5698 47.1544 29.8294 46.1421 30.3444C45.1299 30.8594 44.259 31.6143 43.6054 32.5431C42.9344 33.5535 42.4525 34.6774 42.1832 35.8601C41.3668 39.1047 41.4949 42.5151 42.5525 45.6893C43.0388 47.1436 43.7178 48.5337 44.1261 50.0132C45.3671 54.5092 43.9908 59.2736 44.0459 63.937C44.0768 66.6645 44.5998 69.3641 45.5896 71.9059C46.1287 73.2822 46.8352 74.6585 47.8399 75.7183C46.0048 74.6677 42.7062 71.0503 41.5914 67.1461C40.2151 62.29 39.2494 56.0025 38.903 54.6835C38.5566 53.3646 37.6896 53.4402 36.4761 55.6974C35.2626 57.9546 33.4413 62.1202 32.7486 64.3292C32.5192 65.0312 32.2898 65.4876 32.0443 65.7056C31.6819 63.7145 32.1797 61.5215 32.861 59.558C33.4138 57.9546 34.0698 56.397 34.7442 54.851Z" fill="#E0E0E0"/>
<path d="M63.6997 23.7553C63.952 23.7966 64.2089 23.8402 64.475 23.8906C66.7276 24.3242 69.5032 26.8543 68.8081 31.0934C68.1131 35.3324 67.2437 37.1607 66.9019 40.9708C66.5602 44.7809 67.0465 46.9233 68.2783 49.7976C69.5101 52.6718 69.5881 57.9775 68.2783 62.8841C68.0778 63.7173 67.7974 64.5293 67.441 65.3087C68.1429 61.2302 68.877 57.1012 67.7461 53.1696C67.0946 50.9009 65.8422 48.8112 65.3765 46.5173C64.8053 43.6913 65.4499 40.7827 66.1335 37.9773C66.8171 35.1719 67.7392 31.676 67.3378 28.8224C67.0143 26.5584 65.8674 24.7554 63.6997 23.7553Z" fill="#FAFAFA"/>
<path d="M49.1222 75.8353C49.7852 74.3672 49.659 67.9444 50.8036 64.3017C52.6869 58.3147 54.6757 56.4315 57.5109 55.3029C56.7654 55.7616 56.0038 56.6012 55.1895 57.8903C52.8498 61.5949 51.6363 64.7834 50.9436 68.4421C50.315 71.7981 50.0398 75.0095 49.1222 75.8353Z" fill="#FAFAFA"/>
<path d="M66.2619 31.2631C66.367 32.1019 66.3006 32.9533 66.067 33.7657C65.8949 34.4149 65.1494 35.321 64.6906 34.2635C64.5959 33.9795 64.5479 33.682 64.5484 33.3827C64.5011 32.6557 64.2366 31.9597 63.7892 31.3847C63.5636 31.1014 63.2797 30.8699 62.9567 30.706C62.6337 30.5422 62.2792 30.4497 61.9174 30.4351C61.1787 30.4351 59.5639 31.4099 59.1991 30.5291C58.8803 29.7607 59.9745 28.9945 60.5181 28.694C62.7432 27.5104 65.3352 27.9898 66.1289 30.6323C66.1884 30.8391 66.2329 31.0499 66.2619 31.2631Z" fill="#FAFAFA"/>
<path d="M54.7766 36.4725C54.8247 37.6194 54.7169 40.4409 53.4461 41.0121C51.6431 41.8241 52.7419 38.8535 52.7924 38.1195C52.8726 36.9313 52.5997 35.6352 51.7097 34.8439C51.0536 34.2612 50.1613 34.0341 49.3997 33.5937C48.2941 32.9583 49.4548 31.5499 50.3769 31.465C53.047 31.2287 54.6825 34.2176 54.7766 36.4725Z" fill="#FAFAFA"/>
<path d="M45.7617 70.1212C45.3977 66.2773 45.5133 62.4031 46.1057 58.5877C46.3351 57.1471 46.6953 55.4497 46.03 54.071C45.9887 56.5255 44.9978 58.7597 44.7684 61.1958C44.6261 62.7125 44.6399 64.2398 44.8097 65.7537C44.9736 67.2388 45.2927 68.7026 45.7617 70.1212Z" fill="#FAFAFA"/>
<path d="M54.9509 26.024C54.0261 26.5227 53.0231 26.8601 51.9849 27.0218C50.8985 27.1229 49.8029 27.0187 48.7551 26.7144C47.5417 26.4047 46.358 25.9827 45.1423 25.6822C43.9002 25.379 42.6336 25.187 41.3574 25.1087C40.6271 25.0514 39.8937 25.0422 39.1622 25.0812C38.4445 25.1434 37.7323 25.2576 37.0312 25.423C36.9945 25.423 36.9922 25.5262 37.0312 25.5285C39.7288 25.5858 42.4218 25.806 45.0322 26.5286C47.427 27.1915 49.7965 28.3155 52.3427 27.8774C53.4438 27.687 54.3269 27.1548 55.2146 26.5125C56.0496 25.907 56.9052 25.283 57.9099 24.994C57.1846 25.0068 56.4743 25.2034 55.8455 25.5652L54.9509 26.024Z" fill="#E0E0E0"/>
<path opacity="0.2" d="M54.9509 26.024C54.0261 26.5227 53.0231 26.8601 51.9849 27.0218C50.8985 27.1229 49.8029 27.0187 48.7551 26.7144C47.5417 26.4047 46.358 25.9827 45.1423 25.6822C43.9002 25.379 42.6336 25.187 41.3574 25.1087C40.6271 25.0514 39.8937 25.0422 39.1622 25.0812C38.4445 25.1434 37.7323 25.2576 37.0312 25.423C36.9945 25.423 36.9922 25.5262 37.0312 25.5285C39.7288 25.5858 42.4218 25.806 45.0322 26.5286C47.427 27.1915 49.7965 28.3155 52.3427 27.8774C53.4438 27.687 54.3269 27.1548 55.2146 26.5125C56.0496 25.907 56.9052 25.283 57.9099 24.994C57.1846 25.0068 56.4743 25.2034 55.8455 25.5652L54.9509 26.024Z" fill="black"/>
<path d="M48.7001 76.1564C48.442 76.136 48.1918 76.0576 47.9683 75.927C46.0208 74.9429 42.6076 71.142 41.4767 67.1805C40.5224 63.8429 39.7792 59.8562 39.286 57.2182C39.0567 56.0483 38.8961 55.1239 38.7883 54.7156C38.7011 54.3807 38.5337 53.9747 38.2423 53.9403C38.0497 53.9196 37.4991 54.0504 36.5816 55.757C35.3039 58.1358 33.5307 62.2395 32.8609 64.3682C32.5283 65.4348 32.1567 65.9533 31.7278 65.9533C31.2116 65.9533 30.746 65.1779 30.301 63.6089C29.5486 60.9503 28.5485 55.78 30.301 51.011C32.1361 46.0173 32.253 43.7349 31.8562 41.8355C31.6561 40.9872 31.4079 40.1509 31.113 39.3306C30.46 37.5306 29.9829 35.6715 29.6885 33.7795C29.1013 29.678 30.2 26.618 32.7829 25.166C34.001 24.4779 35.2764 24.0902 36.5082 23.7094C38.0795 23.2277 39.5636 22.7712 40.7014 21.7619C41.1601 21.3513 41.5983 20.9017 42.0203 20.4659C43.6627 18.7615 45.3625 16.9998 49.2231 16.9998C53.5814 16.9998 55.1504 18.4358 57.3067 20.4223C57.536 20.6517 57.7953 20.8811 58.0568 21.1105C60.2245 23.0625 61.7269 23.308 63.4795 23.5924C63.8098 23.6452 64.147 23.7002 64.5025 23.769C66.7689 24.2049 69.6408 26.7694 68.9297 31.1094C68.6315 32.9445 68.3058 34.291 67.9938 35.6008C67.5236 37.3647 67.1961 39.1635 67.0143 40.9799C66.6611 44.8795 67.1978 46.9853 68.3906 49.7494C69.666 52.7314 69.6683 58.1472 68.3906 62.9162C67.6038 65.8661 67.0327 66.2193 66.6725 66.2262H66.661C66.1403 66.2262 65.8077 65.3867 65.5761 64.6526C65.5348 64.5219 65.4866 64.3636 65.4315 64.1824C64.9039 62.4253 63.8006 58.7712 61.704 56.6126C60.5571 55.4267 59.5707 54.9175 58.6394 55.0069C57.5659 55.1193 56.4763 56.0782 55.3018 57.9339C53.0607 61.4825 51.7968 64.6228 51.0719 68.4375C50.9137 69.2725 50.7783 70.0914 50.6476 70.8805C50.2026 73.5964 49.8493 75.7389 48.9157 76.0876C48.8492 76.1249 48.7759 76.1483 48.7001 76.1564ZM38.1988 53.7086H38.2699C38.6116 53.7499 38.864 54.0687 39.0177 54.6583C39.1278 55.078 39.2929 55.9589 39.52 57.1815C40.0109 59.8149 40.7541 63.7947 41.7038 67.1231C42.8025 70.9631 46.2112 74.7801 48.0761 75.7205C48.411 75.8903 48.6794 75.9499 48.8308 75.8949C49.6337 75.5944 49.9938 73.406 50.4113 70.8736C50.542 70.0799 50.6774 69.2679 50.8357 68.4238C51.5651 64.5769 52.8405 61.4114 55.1 57.8376C56.3295 55.8878 57.4466 54.9243 58.6119 54.8005C59.6212 54.695 60.658 55.2248 61.8715 56.4681C64.0093 58.6588 65.1219 62.3496 65.6586 64.125C65.7114 64.304 65.7596 64.4622 65.8008 64.5838C66.1656 65.7445 66.4684 65.99 66.6588 65.99C66.9065 65.99 67.4295 65.5702 68.1544 62.8542C69.4137 58.1312 69.416 52.7819 68.1544 49.8434C66.957 47.0426 66.4133 44.8979 66.778 40.9593C66.9596 39.1345 67.2871 37.3273 67.7575 35.5549C68.0695 34.2497 68.3929 32.9009 68.6911 31.0819C69.3793 26.9002 66.6266 24.4297 64.4521 24.0145C64.1011 23.9457 63.7639 23.8906 63.4359 23.8379C61.6535 23.5465 60.1144 23.2965 57.8939 21.2986C57.6324 21.0615 57.3816 20.8321 57.1415 20.6104C55.0243 18.6606 53.4943 17.2499 49.2185 17.2499C45.4588 17.2499 43.7958 18.9772 42.1855 20.6448C41.7634 21.0829 41.3253 21.5371 40.8551 21.9523C39.6783 22.996 38.1689 23.4617 36.5724 23.9526C35.3521 24.3265 34.0904 24.7141 32.9022 25.3885C30.4134 26.7878 29.3559 29.7606 29.9202 33.7588C30.2125 35.6352 30.6857 37.4789 31.3332 39.2641C31.6321 40.0901 31.8833 40.9326 32.0856 41.7874C32.5696 44.0996 32.1315 46.7077 30.5189 51.0844C28.7893 55.7891 29.778 60.9045 30.5189 63.5355C31.0694 65.4876 31.542 65.7032 31.7186 65.7055C31.8929 65.7055 32.2393 65.5197 32.6361 64.2879C33.3082 62.1477 35.0883 58.0234 36.3705 55.6354C37.0656 54.3509 37.678 53.6971 38.1988 53.6971V53.7086Z" fill="#E0E0E0"/>
</svg>
