<svg width="15" height="19" viewBox="0 0 15 19" fill="none" xmlns="http://www.w3.org/2000/svg">
<path d="M1.87465 11.1858V16.2359L6.24977 13.7108V18.765L10.6249 16.2359V11.1858L15 8.66075V3.60659L10.6127 6.14384L10.6249 1.08155L6.24977 3.60659V8.66075L1.87465 11.1858Z" fill="#F6F4F4"/>
<path d="M1.87453 16.2359L6.33864e-05 15.1543V10.1042L1.87453 11.1858V16.2359Z" fill="#F6F4F4"/>
<path d="M6.24965 8.66075L4.37518 7.57917L6.33864e-05 10.1042L1.87453 11.1858L6.24965 8.66075Z" fill="#F6F4F4"/>
<path d="M6.24978 3.60653L4.37531 2.52495V7.5791L6.24978 8.66069V3.60653Z" fill="#F6F4F4"/>
<path d="M10.6249 1.08158L8.75043 0L4.37531 2.52505L6.24978 3.60663L10.6249 1.08158Z" fill="#F6F4F4"/>
<path d="M6.24978 18.7651L4.37531 17.6794V14.7925L6.24978 13.7109V18.7651Z" fill="#F6F4F4"/>
<g opacity="0.2">
<path d="M1.87447 16.2358L0 15.1542V10.1041L1.87447 11.1857V16.2358Z" fill="black"/>
<path d="M6.24952 3.60653L4.37505 2.52495V7.5791L6.24952 8.66069V3.60653Z" fill="black"/>
<path d="M6.24952 18.765L4.37505 17.6793V14.7924L6.24952 13.7108V18.765Z" fill="black"/>
</g>
<path d="M14.9999 3.60653L13.1254 2.52495L10.6167 3.96435L10.6126 6.14377L14.9999 3.60653Z" fill="#F6F4F4"/>
<g opacity="0.5">
<path d="M6.24965 8.66075L4.37518 7.57917L6.33864e-05 10.1042L1.87453 11.1858L6.24965 8.66075Z" fill="white"/>
<path d="M10.6249 1.08158L8.75043 0L4.37531 2.52505L6.24978 3.60663L10.6249 1.08158Z" fill="white"/>
<path d="M14.9999 3.60653L13.1254 2.52495L10.6167 3.96435L10.6126 6.14377L14.9999 3.60653Z" fill="white"/>
</g>
</svg>
