<svg width="303" height="633" viewBox="0 0 303 633" fill="none" xmlns="http://www.w3.org/2000/svg">
<g filter="url(#filter0_d_289_3184)">
<path d="M25.2979 624.227C13.5354 624.227 3.99995 618.722 3.99995 611.93C3.99995 605.139 13.5354 599.634 25.2979 599.634C37.0604 599.634 46.5958 605.139 46.5958 611.93C46.5958 618.722 37.0604 624.227 25.2979 624.227Z" fill="#E6E6E6"/>
</g>
<path d="M33.7776 595.693C33.5202 592.758 35.1145 586.491 37.8219 582.41C40.5293 578.329 45.075 575.123 48.5812 575.989C51.8467 576.795 51.8668 580.983 48.267 584.074C44.6672 587.166 39.1856 591.134 37.9055 596.047L34.8705 602.2L33.7776 595.693Z" fill="#5E8FFF"/>
<path opacity="0.1" d="M33.7776 595.693C33.5202 592.758 35.1145 586.491 37.8219 582.41C40.5293 578.329 45.075 575.123 48.5812 575.989C51.8467 576.795 51.8668 580.983 48.267 584.074C44.6672 587.166 39.1856 591.134 37.9055 596.047L34.8705 602.2L33.7776 595.693Z" fill="black"/>
<path d="M33.9147 599.73C33.9608 599.722 34.003 599.699 34.0349 599.665C34.0669 599.63 34.0868 599.586 34.0918 599.54C35.1781 589.345 42.5682 580.488 47.2643 578.262C47.2899 578.25 47.3128 578.233 47.3318 578.212C47.3507 578.191 47.3652 578.166 47.3745 578.139C47.3839 578.112 47.3878 578.084 47.3861 578.056C47.3844 578.028 47.3771 578 47.3646 577.974C47.3517 577.95 47.334 577.929 47.3126 577.911C47.2912 577.894 47.2666 577.881 47.2401 577.873C47.2137 577.865 47.1859 577.863 47.1585 577.866C47.1311 577.869 47.1046 577.877 47.0805 577.891C42.2942 580.157 34.767 589.162 33.664 599.513C33.6608 599.541 33.6632 599.569 33.671 599.596C33.6789 599.623 33.6921 599.648 33.7099 599.67C33.7277 599.692 33.7496 599.71 33.7744 599.723C33.7993 599.736 33.8265 599.745 33.8545 599.747C33.8754 599.745 33.8958 599.739 33.9147 599.73Z" fill="white"/>
<path d="M35.9704 606.014C36.3046 604.323 38.0761 601.422 41.1378 598.885C44.527 596.08 48.9892 594.539 49.8716 592.507C50.9311 590.067 48.7752 588.042 45.1119 588.831C41.4486 589.619 35.3821 595.238 35.0044 602.939L35.9704 606.014Z" fill="#5E8FFF"/>
<path d="M35.1012 604.346C35.1425 604.339 35.1807 604.32 35.2115 604.291C35.2422 604.263 35.2643 604.226 35.275 604.186C37.5947 595.332 43.8818 591.742 46.88 591.084C46.9105 591.08 46.9401 591.071 46.9667 591.056C46.9933 591.04 47.0164 591.02 47.0344 590.995C47.0524 590.97 47.065 590.941 47.0712 590.911C47.0774 590.881 47.0772 590.85 47.0705 590.82C47.0639 590.79 47.0509 590.762 47.0325 590.737C47.0142 590.713 46.9908 590.692 46.9639 590.677C46.9371 590.662 46.9074 590.653 46.8768 590.651C46.8462 590.648 46.8153 590.652 46.7864 590.662C43.4707 591.391 37.227 595.038 34.8572 604.079C34.8494 604.114 34.8501 604.15 34.8591 604.184C34.8682 604.218 34.8855 604.25 34.9095 604.276C34.9334 604.303 34.9634 604.323 34.9968 604.335C35.0302 604.347 35.066 604.351 35.1012 604.346Z" fill="white"/>
<path d="M27.9218 527.654C30.2615 527.718 30.93 528.657 32.3271 530.662C33.7243 532.668 38.5273 540.295 38.5273 540.295L45.3158 542.902L44.4067 546.867C44.4067 546.867 38.6644 545.723 35.7164 545.122C35.3327 545.069 34.9665 544.928 34.6465 544.71C34.3264 544.492 34.0611 544.203 33.8713 543.865C33.4936 543.293 29.72 537.357 29.72 537.357L27.9218 527.654Z" fill="#E6E6E6"/>
<path d="M26.1302 527.718C28.3395 527.166 29.3155 528.386 30.0509 529.75C31.2274 531.909 31.936 536.321 32.0363 544.383C32.0998 549.567 33.9047 555.834 34.2256 560.761C34.7135 568.141 34.9408 573.88 34.9408 573.88C30.5701 573.315 26.1652 573.056 21.7583 573.105L26.1302 527.718Z" fill="#E0E0E0"/>
<path d="M13.3958 602.899C13.3958 602.899 12.0588 593.824 12.6237 588.507C13.0983 583.944 13.7701 582.036 13.8637 580.996C13.8637 580.996 14.6325 570.3 14.4219 561.212C14.325 556.911 14.5422 552.168 17.6039 547.097L17.7142 546.897C17.9849 548.568 20.5486 549.637 22.8348 549.905C25.0363 550.15 27.7771 549.714 31.0571 548.598C31.7891 552.9 32.6181 561.099 33.467 570.033C33.8782 574.401 33.8013 578.078 33.8815 580.886C33.9784 584.696 33.6308 599.623 33.6308 599.623V600.255C33.6542 600.95 33.8213 601.435 34.2993 602.538C34.9091 603.961 35.7594 605.268 36.8128 606.402C37.147 606.736 39.3965 608.578 39.7007 608.979C40.68 610.048 38.7481 610.73 37.2908 610.587C35.7533 610.433 33.3601 609.918 32.6548 609.019C32.1835 608.414 31.7758 606.251 31.2945 605.636C29.6667 603.567 28.9982 602.675 28.9548 602C28.8946 600.773 29.289 600.275 29.426 599.58C29.2556 598.139 26.3276 590.599 26.1338 586.391C26.0402 584.385 26.468 580.829 26.468 580.829L23.9378 566.192C23.3662 570.304 22.2666 579.562 21.8889 582.52C21.3441 586.581 19.3386 593.45 18.0752 598.845C17.6005 600.873 17.3666 601.776 17.2496 603.1L17.2195 603.574C17.2195 604.172 17.1593 610.567 16.9655 611.93C16.5644 614.761 14.0542 614.491 13.5763 612.228C13.1718 610.302 13.3991 604.296 13.3857 603.557L13.3958 602.899Z" fill="#FFA8A7"/>
<path d="M13.3218 602.859C12.6165 602.896 13.1714 605.61 13.0477 607.375C12.914 609.263 12.3425 610.66 12.2188 612.208C12.0751 613.979 12.2556 614.714 12.9374 616.142C13.4655 617.255 15.9891 618.719 16.8748 617.074C17.7605 615.43 17.9009 613.581 17.7338 611.827C17.5633 610.015 17.3996 608.691 17.326 607.311C17.2558 606.094 18.0981 603.207 17.1756 603.063L17.1489 603.537C16.8414 604.206 13.7262 604.761 13.3118 603.511L13.3218 602.859Z" fill="#37474F"/>
<path d="M28.7974 603.437C28.6103 604.323 28.9144 606.729 28.9144 606.729C28.9144 606.729 29.3222 607.548 30.6993 608.066L31.1973 604.691L28.7974 603.437Z" fill="#263238"/>
<path d="M30.6993 608.056L33.6607 606.973L34.2924 604.293L30.9867 606.108L30.6993 608.056Z" fill="black"/>
<path d="M33.5537 600.205V599.573C33.9649 599.757 34.9676 603.003 36.2544 605.209C37.4243 607.214 39.6537 608.29 40.3924 609.159C41.3951 610.323 39.5868 611.924 36.5987 611.385C35.118 611.121 32.8552 610.252 32.2201 609.28C31.5851 608.307 31.3177 606.489 30.7996 605.774C30.2815 605.058 29.0782 604.259 28.7941 603.434C28.5756 602.687 28.5514 601.896 28.7239 601.138C28.9312 600.372 29.105 599.466 29.3657 599.527L29.4025 600.101C29.613 600.499 30.345 600.947 31.8458 600.977C32.5644 600.994 33.2496 600.864 33.5537 600.205Z" fill="#37474F"/>
<path d="M25.766 587.992C25.5928 585.69 25.6769 583.376 26.0167 581.093L23.8575 566.721C23.8575 566.721 22.3868 580.424 22.1395 582.537C21.8921 584.649 17.948 607.552 17.948 607.552C15.9426 608.748 13.3388 608.367 11.6543 607.475C11.6543 598.216 11.9417 588.938 12.2759 586.374C12.5711 584.622 12.9718 582.89 13.4759 581.187C13.4759 581.187 13.6898 567.68 13.6798 562.553C13.6697 557.425 14.0541 553.996 15.0167 551.69C15.7721 550.015 16.6666 548.406 17.6907 546.88C17.6907 546.88 18.4394 549.41 24.3755 549.417C30.3117 549.423 30.9668 547.916 30.9668 547.916C30.9668 547.916 32.7049 553.989 33.2831 563.161C33.751 570.551 33.858 573.913 33.9984 577.199C34.1187 580.007 34.1922 583.249 34.2557 588.921C34.3059 593.199 34.9242 602.625 34.9242 602.625C34.9242 602.625 32.0263 604.142 27.2367 602.411C27.2567 602.398 26.0635 591.682 25.766 587.992Z" fill="#455A64"/>
<path d="M23.8573 566.707L25.0304 558.017C26.7528 557.839 28.3592 557.066 29.5728 555.831C29.5728 555.831 28.9043 557.937 26.1234 559.12L24.5491 566.751L25.6889 578.984L23.8573 566.707Z" fill="#37474F"/>
<path d="M21.0799 528.323L18.2857 528.62C16.4273 529.075 15.5917 529.894 15.4011 531.538C15.0582 533.308 15.0912 535.13 15.4981 536.886C16.0863 539.199 17.6506 544.864 17.6506 544.864C17.6506 544.864 15.6217 549.962 14.6625 552.552C21.2571 556.854 29.3992 555.156 32.1333 552.552C31.9027 550.089 31.0303 547.799 30.8365 545.603C30.8365 545.603 30.9802 542.174 31.2509 540.686C33.3366 538.41 33.0725 536.231 32.1333 534.473C30.4053 531.231 27.7882 528.38 26.9526 528.383L21.0799 528.323Z" fill="#5E8FFF"/>
<path opacity="0.6" d="M21.0799 528.323L18.2857 528.62C16.4273 529.075 15.5917 529.894 15.4011 531.538C15.0582 533.308 15.0912 535.13 15.4981 536.886C16.0863 539.199 17.6506 544.864 17.6506 544.864C17.6506 544.864 15.6217 549.962 14.6625 552.552C21.2571 556.854 29.3992 555.156 32.1333 552.552C31.9027 550.089 31.0303 547.799 30.8365 545.603C30.8365 545.603 30.9802 542.174 31.2509 540.686C33.3366 538.41 33.0725 536.231 32.1333 534.473C30.4053 531.231 27.7882 528.38 26.9526 528.383L21.0799 528.323Z" fill="white"/>
<path d="M26.1603 526.357C26.9893 526.357 27.0829 526.498 27.7981 527.45C28.2226 528.019 30.9032 532.441 30.9032 532.441C30.9032 532.441 28.7674 529.636 27.1597 528.787C26.8476 528.605 26.5095 528.47 26.157 528.39L26.1603 526.357Z" fill="#EBEBEB"/>
<path d="M20.9227 528.323C20.9227 528.323 23.2256 534.379 23.7504 538.49C24.2751 542.602 22.4736 555.019 22.1962 562.379C21.9923 567.727 21.4842 575.454 21.4842 575.454C19.85 575.614 18.2019 575.563 16.5809 575.301C13.8735 574.789 13.0346 574.345 11.487 573.335C11.487 573.335 12.824 559.875 13.4925 554.644C14.1108 549.721 16.758 544.864 16.758 544.864L13.576 531.692C13.576 531.692 13.7331 529.473 15.8255 528.851C17.8076 528.259 20.9227 528.323 20.9227 528.323Z" fill="#FAFAFA"/>
<path d="M16.8482 540.633C16.8482 540.633 17.2794 539.065 17.8744 536.388C18.4693 533.711 18.3757 532.16 18.1718 530.99L14.7124 536.051L16.7513 544.861C15.3644 547.517 14.3403 550.346 13.7064 553.274C15.7887 547.381 18.0716 545.613 18.0716 545.613L16.8482 540.633Z" fill="#F5F5F5"/>
<path d="M20.0537 535.776C20.0537 535.522 20.0303 534.971 19.9869 534.279C19.7696 530.883 19.6694 527.818 20.8158 527.571L20.9161 528.039C20.0805 528.219 20.3579 532.598 20.4615 534.249C20.5083 534.958 20.5451 535.516 20.5317 535.796L20.0537 535.776Z" fill="#5E8FFF"/>
<path d="M13.7666 563.281C13.3221 562.436 13.3288 561.827 12.6369 561.062C12.3403 560.748 12.1326 560.36 12.0353 559.939C11.8907 559.259 11.8357 558.564 11.8715 557.87L7.90736 557.93C7.87728 559.247 7.70013 561.139 7.94746 562.543C8.57918 566.096 9.28444 567.61 10.7752 568.024C13.1583 568.693 13.8001 567.69 13.038 565.892C12.7065 565.147 12.4815 564.359 12.3695 563.552C12.617 563.872 12.9072 564.156 13.2318 564.398C13.3972 564.533 13.6074 564.6 13.8205 564.587C14.0335 564.574 14.2339 564.482 14.3816 564.327C14.4986 564.187 14.1109 563.94 13.7666 563.281Z" fill="#FFA8A7"/>
<path d="M17.6303 528.497C17.6303 528.497 15.07 528.336 13.5693 529.563C12.0685 530.789 11.1393 534.219 10.0397 537.648C8.94 541.077 7.95399 544.413 7.593 546.816C7.28884 548.822 7.68325 559.461 7.68325 559.461C9.25571 559.609 10.839 559.329 12.2657 558.652L13.3219 547.308L17.6136 535.659C18.4093 533.339 18.4151 530.821 17.6303 528.497Z" fill="#F0F0F0"/>
<path d="M49.4301 536.699L36.7289 541.181L33.2327 556.296L33.5168 556.596L45.593 552.087L49.7142 537L49.4301 536.699Z" fill="#5E8FFF"/>
<path opacity="0.35" d="M37.0132 541.482L33.517 556.596L33.2329 556.296L36.7291 541.181L37.0132 541.482Z" fill="black"/>
<path opacity="0.25" d="M49.7142 537L37.013 541.482L33.5168 556.596L45.593 552.087L49.7142 537Z" fill="black"/>
<g opacity="0.2">
<path d="M43.7047 549.016C43.8217 549.31 44.7943 549.965 46.2048 549.848L46.4421 548.976L43.7047 549.016Z" fill="black"/>
</g>
<g opacity="0.1">
<path d="M45.8907 540.098L45.9943 539.59C46.0511 539.309 45.3057 539.456 44.3231 539.924L42.0302 540.619C41.0508 541.081 40.1283 541.425 40.0715 541.702L39.9645 542.21L45.8907 540.098Z" fill="black"/>
</g>
<path d="M46.6427 537.805C46.6795 537.628 46.392 537.665 45.9742 537.772L45.2422 538.023C45.2422 538.023 45.5431 537.287 43.8117 537.755C41.9065 538.273 41.8664 539.223 41.8664 539.223C41.5679 539.352 41.2621 539.463 40.9506 539.557C40.3189 539.764 40.2487 539.891 40.1952 540.065L40.1016 540.399L46.5859 538.116C46.5859 538.116 46.606 537.979 46.6427 537.805Z" fill="#37474F"/>
<path d="M45.9642 538.785C45.3625 539.055 45.1152 539.189 45.0249 539.62C44.9247 540.112 44.9013 540.319 44.9013 540.319L41.5288 541.656C41.5288 541.656 41.7126 540.93 41.756 540.686C41.7995 540.442 41.3549 540.442 40.7734 540.713L40.9104 540.108L46.1547 538.16L45.9642 538.785Z" fill="#37474F"/>
<path d="M46.0778 540.122L46.1814 539.617C46.2382 539.336 45.4929 539.483 44.5102 539.951L42.2173 540.643C41.2413 541.104 40.3155 541.449 40.2586 541.729L40.155 542.237L46.0778 540.122Z" fill="#37474F"/>
<path d="M48.3039 542.171C48.3039 542.171 47.8526 543.842 47.7357 544.25C47.6187 544.657 45.5363 545.627 44.4935 545.757C42.4881 546.008 42.2775 546.425 42.7554 547.853C43.1966 549.156 44.4935 549.648 46.2917 549.437C46.8549 549.326 47.3789 549.069 47.8108 548.691C48.2427 548.313 48.5673 547.828 48.7518 547.284C49.3367 545.613 49.0225 543.838 49.2531 542.862C49.4838 541.886 48.8086 541.592 48.3039 542.171Z" fill="#FFA8A7"/>
<path d="M16.2233 513.492L18.0015 514.953C18.0985 514.842 18.1719 514.712 18.217 514.572C18.2622 514.432 18.2783 514.284 18.2642 514.137C18.2501 513.99 18.2062 513.848 18.1351 513.719C18.0641 513.589 17.9674 513.476 17.8511 513.385C17.6175 513.192 17.3186 513.095 17.0159 513.115C16.7131 513.135 16.4295 513.27 16.2233 513.492Z" fill="#455A64"/>
<path d="M20.8893 526.578C20.8893 525.458 18.2789 523.78 16.9319 521.421C15.5849 519.061 16.2634 515.194 18.1017 514.599C18.1017 514.599 18.1385 511.076 22.8914 510.14C27.6444 509.204 29.1351 508.155 29.9774 508.004C30.8197 507.854 30.9801 510.849 29.8738 511.634C30.6694 511.321 31.3962 510.856 32.0129 510.264C32.7048 509.595 32.9789 513.078 31.4848 514.301C31.4848 514.301 32.7215 515.027 32.5711 516.858C32.5417 517.525 32.2948 518.165 31.8681 518.678C31.4415 519.192 30.8584 519.552 30.208 519.703L20.8893 526.578Z" fill="#455A64"/>
<path d="M28.9947 513.382C30.1412 513.88 31.2308 515.632 31.2141 520.535C31.2141 524.69 29.9273 525.742 29.2822 526.05C28.6371 526.357 27.3837 526.204 26.1603 526.013V528.403C26.1603 528.403 27.0728 529.302 26.7553 529.87C26.4378 530.439 25.2445 530.913 23.4129 530.335C21.3239 529.666 20.8459 528.286 20.8459 528.286L20.8058 523.059C20.8058 523.059 20.1005 523.797 18.8672 522.724C17.8444 521.832 17.4767 520.298 18.2455 519.455C19.0142 518.613 19.9969 518.546 20.8826 519.489L21.5244 519.155C22.6575 519.021 24.3387 518.82 25.5554 518.212C28.6972 516.584 29.0315 514.839 28.9947 513.382Z" fill="#FFA8A7"/>
<path d="M20.8893 518.787V521.097C21.0379 521.102 21.1859 521.076 21.3243 521.022C21.4626 520.967 21.5883 520.885 21.6936 520.78C21.7988 520.675 21.8815 520.55 21.9363 520.412C21.9911 520.273 22.017 520.125 22.0124 519.977C22.012 519.673 21.8956 519.38 21.6869 519.159C21.4782 518.938 21.1929 518.805 20.8893 518.787Z" fill="#455A64"/>
<path d="M29.1049 519.111C29.1009 519.185 29.1114 519.258 29.136 519.328C29.1606 519.397 29.1986 519.461 29.2481 519.516C29.2975 519.571 29.3572 519.615 29.4239 519.647C29.4905 519.678 29.5627 519.696 29.6364 519.699C29.75 519.707 29.8635 519.681 29.9622 519.624C30.0609 519.567 30.1402 519.482 30.1901 519.379C30.24 519.277 30.2581 519.162 30.2421 519.049C30.2261 518.936 30.1767 518.831 30.1003 518.746C30.0239 518.662 29.9239 518.602 29.8133 518.574C29.7027 518.547 29.5864 518.553 29.4794 518.593C29.3724 518.632 29.2796 518.702 29.2128 518.795C29.1461 518.887 29.1085 518.997 29.1049 519.111Z" fill="#263238"/>
<path d="M24.7063 519.355C24.7014 519.434 24.7122 519.514 24.7382 519.589C24.7641 519.663 24.8047 519.732 24.8576 519.792C24.9105 519.851 24.9745 519.899 25.0461 519.933C25.1177 519.967 25.1954 519.986 25.2746 519.99C25.3969 519.999 25.5192 519.972 25.6258 519.911C25.7323 519.85 25.8183 519.759 25.8725 519.649C25.9268 519.539 25.9469 519.415 25.9303 519.294C25.9137 519.172 25.8611 519.058 25.7793 518.967C25.6975 518.875 25.5902 518.811 25.4712 518.781C25.3523 518.751 25.2271 518.757 25.1117 518.799C24.9963 518.84 24.8961 518.916 24.8238 519.015C24.7516 519.114 24.7107 519.233 24.7063 519.355Z" fill="#263238"/>
<path d="M25.6054 522.758L27.3836 523.312C27.3562 523.433 27.3044 523.546 27.2315 523.646C27.1586 523.746 27.0661 523.829 26.9597 523.892C26.8533 523.955 26.7351 523.995 26.6126 524.01C26.4901 524.025 26.3657 524.015 26.2472 523.981C26.0066 523.894 25.8073 523.72 25.6886 523.494C25.5698 523.268 25.5401 523.005 25.6054 522.758Z" fill="#F28F8F"/>
<path d="M30.5656 518.085L29.1417 517.52C29.1746 517.422 29.2276 517.333 29.2972 517.257C29.3669 517.181 29.4516 517.12 29.5461 517.079C29.6405 517.038 29.7425 517.017 29.8456 517.017C29.9486 517.018 30.0504 517.04 30.1444 517.082C30.3283 517.165 30.4739 517.315 30.552 517.501C30.6301 517.687 30.635 517.895 30.5656 518.085Z" fill="#263238"/>
<path d="M27.758 518.66L27.6879 522.066L29.5162 521.658L27.758 518.66Z" fill="#F28F8F"/>
<path d="M26.1602 526C24.8733 525.849 22.2194 525.111 21.7883 524.034C21.9609 524.575 22.2916 525.051 22.7375 525.401C23.5397 526.09 26.1635 526.805 26.1635 526.805L26.1602 526Z" fill="#F28F8F"/>
<path d="M20.8291 526.374C20.4949 526.307 20.1907 526.451 19.9166 526.919C19.6425 527.387 19.0376 528.37 19.0376 528.37C19.0376 528.37 18.7267 531.632 19.0376 532.441C19.3083 533.146 22.2897 535.783 22.2897 535.783C22.2897 535.783 21.5109 538.714 21.4842 539.674C21.4575 540.633 23.3326 544.286 23.5431 546.155C23.5431 546.155 24.1314 540.282 23.8573 538.173C23.376 534.496 21.6547 529.773 20.8491 528.273L20.8291 526.374Z" fill="#EBEBEB"/>
<path d="M20.7522 546.556C21.1861 546.842 21.6963 546.991 22.2162 546.984L22.1728 546.649C21.775 546.654 21.3841 546.545 21.0464 546.335C21.3696 546.079 21.6524 545.776 21.8853 545.436C22.3633 544.694 23.1153 539.63 22.6541 538.504C22.273 537.568 21.1533 535.539 20.3144 535.539H20.2943C19.442 535.576 18.4861 537.722 18.1819 538.694C17.8176 539.854 18.9975 544.838 19.5356 545.536C19.7981 545.854 20.1055 546.132 20.4481 546.362C20.128 546.598 19.7481 546.739 19.3517 546.77V547.104H19.3919C19.8875 547.052 20.3587 546.862 20.7522 546.556ZM22.3466 538.631C22.7677 539.667 22.0457 544.567 21.6045 545.252C21.3642 545.597 21.0709 545.902 20.7355 546.155C20.3785 545.933 20.0601 545.654 19.793 545.329C19.2916 544.684 18.1552 539.861 18.4894 538.795C18.9005 537.491 19.7963 535.897 20.2977 535.877C20.8124 535.873 21.8285 537.374 22.3466 538.631Z" fill="#455A64"/>
<path d="M22.6809 546.807C22.6836 546.871 22.6735 546.936 22.6512 546.996C22.629 547.057 22.595 547.112 22.5513 547.16C22.5075 547.207 22.4548 547.246 22.3961 547.273C22.3375 547.3 22.2741 547.315 22.2096 547.318C22.0791 547.323 21.9521 547.276 21.8559 547.188C21.7596 547.099 21.7018 546.977 21.6948 546.847C21.6895 546.714 21.7373 546.584 21.8275 546.486C21.9178 546.388 22.0432 546.331 22.1762 546.325C22.3091 546.32 22.4388 546.368 22.5366 546.458C22.6343 546.548 22.6923 546.674 22.6976 546.807H22.6809Z" fill="#263238"/>
<path d="M19.8264 546.917C19.8321 547.047 19.7859 547.174 19.6978 547.271C19.6098 547.367 19.4871 547.424 19.3568 547.43C19.2264 547.436 19.0992 547.389 19.003 547.301C18.9068 547.213 18.8495 547.091 18.8437 546.96C18.8408 546.896 18.8507 546.831 18.8728 546.771C18.8948 546.71 18.9286 546.654 18.9722 546.606C19.0159 546.559 19.0684 546.52 19.1269 546.493C19.1855 546.466 19.2488 546.45 19.3133 546.447C19.3778 546.444 19.4423 546.454 19.503 546.476C19.5637 546.498 19.6195 546.532 19.6671 546.576C19.7147 546.619 19.7533 546.672 19.7807 546.73C19.808 546.789 19.8235 546.852 19.8264 546.917Z" fill="#263238"/>
<path d="M22.7376 540.7L22.4569 540.68C22.4424 540.679 22.4282 540.675 22.4151 540.669C22.4021 540.663 22.3904 540.654 22.3808 540.643C22.3711 540.632 22.3638 540.619 22.359 540.606C22.3543 540.592 22.3524 540.577 22.3533 540.563C22.4336 539.93 22.4042 539.287 22.2664 538.664C21.7717 537.454 20.7489 535.94 20.301 535.96C19.8531 535.98 18.964 537.575 18.5696 538.821C18.4794 539.106 18.5095 539.794 18.6432 540.72C18.648 540.749 18.6412 540.778 18.6243 540.802C18.6074 540.826 18.5817 540.842 18.5529 540.847L18.2722 540.89C18.2577 540.892 18.2429 540.891 18.2288 540.887C18.2147 540.883 18.2015 540.877 18.19 540.868C18.1785 540.859 18.1689 540.848 18.1618 540.835C18.1547 540.822 18.1501 540.808 18.1485 540.793C17.9947 539.754 17.9747 539.039 18.0917 538.671C18.2989 538.003 19.2849 535.499 20.2776 535.456C21.2703 535.412 22.4669 537.825 22.731 538.464C22.878 538.821 22.9215 539.533 22.8546 540.583C22.8556 540.598 22.8532 540.614 22.8477 540.629C22.8422 540.643 22.8336 540.657 22.8225 540.668C22.8115 540.679 22.7982 540.687 22.7835 540.693C22.7689 540.698 22.7533 540.701 22.7376 540.7Z" fill="#5E8FFF"/>
<path d="M249.442 45.6436V66.2505L267.295 55.9471V76.5706L285.147 66.2505V45.6436L303 35.3402V14.7167L285.098 25.0699L285.147 4.41326L267.295 14.7167V35.3402L249.442 45.6436Z" fill="#5E8FFF"/>
<path d="M249.442 66.2504L241.793 61.837V41.2301L249.442 45.6435V66.2504Z" fill="#5E8FFF"/>
<path d="M267.294 35.3402L259.646 30.9268L241.793 41.2303L249.442 45.6437L267.294 35.3402Z" fill="#5E8FFF"/>
<path d="M267.295 14.7165L259.646 10.3031V30.9266L267.295 35.34V14.7165Z" fill="#5E8FFF"/>
<path d="M285.147 4.41339L277.499 0L259.646 10.3034L267.295 14.7168L285.147 4.41339Z" fill="#5E8FFF"/>
<path d="M267.295 76.5708L259.646 72.1408V60.3607L267.295 55.9473V76.5708Z" fill="#5E8FFF"/>
<g opacity="0.2">
<path d="M249.441 66.2502L241.792 61.8368V41.2299L249.441 45.6433V66.2502Z" fill="black"/>
<path d="M267.294 14.7165L259.645 10.3031V30.9266L267.294 35.34V14.7165Z" fill="black"/>
<path d="M267.294 76.5704L259.645 72.1405V60.3603L267.294 55.9469V76.5704Z" fill="black"/>
</g>
<path d="M303 14.7165L295.351 10.3031L285.114 16.1765L285.097 25.0697L303 14.7165Z" fill="#5E8FFF"/>
<g opacity="0.5">
<path d="M267.294 35.3401L259.646 30.9267L241.793 41.2302L249.442 45.6436L267.294 35.3401Z" fill="white"/>
<path d="M285.147 4.41339L277.499 0L259.646 10.3034L267.295 14.7168L285.147 4.41339Z" fill="white"/>
<path d="M303 14.7164L295.351 10.303L285.114 16.1765L285.097 25.0696L303 14.7164Z" fill="white"/>
</g>
<defs>
<filter id="filter0_d_289_3184" x="0" y="599.634" width="50.5958" height="32.5935" filterUnits="userSpaceOnUse" color-interpolation-filters="sRGB">
<feFlood flood-opacity="0" result="BackgroundImageFix"/>
<feColorMatrix in="SourceAlpha" type="matrix" values="0 0 0 0 0 0 0 0 0 0 0 0 0 0 0 0 0 0 127 0" result="hardAlpha"/>
<feOffset dy="4"/>
<feGaussianBlur stdDeviation="2"/>
<feComposite in2="hardAlpha" operator="out"/>
<feColorMatrix type="matrix" values="0 0 0 0 0 0 0 0 0 0 0 0 0 0 0 0 0 0 0.25 0"/>
<feBlend mode="normal" in2="BackgroundImageFix" result="effect1_dropShadow_289_3184"/>
<feBlend mode="normal" in="SourceGraphic" in2="effect1_dropShadow_289_3184" result="shape"/>
</filter>
</defs>
</svg>
