<svg width="144" height="147" viewBox="0 0 144 147" fill="none" xmlns="http://www.w3.org/2000/svg">
<path d="M53.5738 94.0177C32.8866 105.96 32.8866 125.325 53.5738 137.267C74.261 149.209 107.8 149.211 128.485 137.267C149.17 125.323 149.173 105.96 128.485 94.0177C107.798 82.0757 74.2588 82.0736 53.5738 94.0177Z" fill="#FAFAFA"/>
<path d="M30.1646 122.639L29.4045 115.591L37.5546 116.125C37.5546 116.125 37.4287 119.946 37.318 122.11C37.2475 123.389 38.9893 125.76 38.9893 125.76C38.9893 125.76 35.1634 127.774 33.1095 127.079C31.0556 126.384 29.9733 123.847 30.0035 123.298C30.0337 122.75 30.1646 122.639 30.1646 122.639Z" fill="#FFA8A7"/>
<path d="M49.7977 133.638C49.9286 133.638 50.145 134.942 49.4554 135.511C48.66 136.17 46.3091 137.268 43.1729 136.946C40.0367 136.623 38.3301 135.758 37.0666 134.806C35.803 133.855 34.021 132.526 32.6014 132.259C31.2825 132.012 29.8478 131.484 29.4199 131.116C28.992 130.749 29.0222 129.077 29.0222 129.077L49.7977 133.638Z" fill="#263238"/>
<path d="M30.1645 122.624C30.0528 122.629 29.9462 122.672 29.8614 122.745C29.7766 122.818 29.7186 122.917 29.6963 123.026C29.6108 123.484 29.5252 124.829 29.3339 125.589C29.031 126.92 28.9494 128.293 29.0922 129.651C29.2785 130.502 31.4331 131.061 32.8074 131.524C34.4149 132.141 35.9241 132.989 37.2877 134.041C38.7727 135.138 41.8838 136.256 43.9225 136.205C46.3338 136.15 49.0371 135.38 49.6412 134.333C50.3913 133.044 50.9299 131.544 47.3256 130.074C46.646 129.792 44.2447 128.534 43.4292 128.06C41.2142 126.817 39.6537 125.674 38.6066 123.429C38.5215 123.152 38.3438 122.912 38.1032 122.749C37.8794 122.666 37.6361 122.65 37.4035 122.704C36.2138 122.844 35.036 123.071 33.8796 123.384C33.3762 123.6 32.7268 123.857 32.747 124.426C32.7603 124.626 32.8097 124.822 32.8929 125.005C32.9382 125.121 32.9735 125.272 32.8627 125.342C32.752 125.412 32.6211 125.342 32.5255 125.261C32.1615 124.939 31.8247 124.587 31.5187 124.209C31.3484 124.019 31.1557 123.85 30.9448 123.706C30.7317 123.599 30.5249 123.479 30.3256 123.349C30.1343 123.142 30.1796 122.89 30.1645 122.624Z" fill="#455A64"/>
<path d="M37.2877 134.036C36.6534 133.573 35.9839 133.125 35.3144 132.722C35.3144 132.722 39.5581 135.018 41.2395 133.915C42.3218 133.205 41.7882 132.37 41.7429 132.103C41.6976 131.836 45.5436 129.873 46.6058 129.737C46.9028 129.888 47.1545 130.004 47.3105 130.069C50.9149 131.539 50.3763 133.039 49.6262 134.328C49.0221 135.375 47.0689 136.216 43.9528 136.266C41.9291 136.301 38.7677 135.133 37.2877 134.036Z" fill="#37474F"/>
<path d="M41.4509 131.327C43.686 132.108 42.7446 132.51 42.1254 132.601C41.5063 132.692 37.7257 130.739 35.4151 129.102C33.0038 127.401 31.4734 125.523 30.5773 124.899C30.2451 124.662 29.8826 124.396 29.5705 124.109C29.6209 123.656 29.6611 123.243 29.7014 123.026C29.7236 122.917 29.7817 122.818 29.8665 122.745C29.9513 122.672 30.0579 122.629 30.1696 122.624C30.1696 122.89 30.1394 123.127 30.3558 123.338C30.5552 123.469 30.7619 123.589 30.975 123.696C31.186 123.84 31.3787 124.009 31.5489 124.199C31.855 124.577 32.1917 124.929 32.5557 125.251C34.5089 127.522 39.2107 130.542 41.4509 131.327Z" fill="#37474F"/>
<path d="M41.9594 132.304C41.9089 132.304 41.8597 132.288 41.8185 132.259C41.7964 132.243 41.7778 132.223 41.7639 132.199C41.75 132.176 41.7412 132.15 41.7378 132.123C41.7345 132.096 41.7369 132.069 41.7447 132.043C41.7525 132.017 41.7656 131.992 41.7832 131.972C42.4024 131.252 45.3473 129.515 46.9884 129.651C47.0176 129.65 47.0467 129.656 47.0736 129.667C47.1005 129.679 47.1247 129.696 47.1446 129.717C47.1644 129.739 47.1795 129.764 47.1888 129.792C47.1982 129.819 47.2015 129.849 47.1986 129.878C47.1957 129.907 47.1867 129.935 47.1722 129.96C47.1576 129.986 47.1378 130.008 47.1142 130.025C47.0905 130.042 47.0635 130.054 47.0348 130.06C47.0062 130.065 46.9767 130.065 46.9482 130.059C45.4379 129.933 42.6189 131.655 42.1306 132.223C42.1093 132.248 42.0831 132.268 42.0536 132.282C42.0241 132.296 41.992 132.303 41.9594 132.304Z" fill="#263238"/>
<path d="M40.0007 131.232C39.9517 131.231 39.9041 131.216 39.8647 131.186C39.8424 131.172 39.8235 131.152 39.8092 131.129C39.7948 131.107 39.7855 131.081 39.7817 131.054C39.7779 131.028 39.7797 131.001 39.7871 130.975C39.7945 130.949 39.8072 130.925 39.8245 130.905C40.4436 130.18 43.3886 128.443 45.0297 128.584C45.0575 128.584 45.0848 128.591 45.1101 128.602C45.1353 128.614 45.1579 128.631 45.1763 128.652C45.1948 128.672 45.2087 128.697 45.2173 128.723C45.2258 128.75 45.2288 128.778 45.226 128.805C45.2185 128.861 45.1894 128.911 45.145 128.945C45.1007 128.979 45.0448 128.994 44.9894 128.987C43.4792 128.866 40.6601 130.582 40.1718 131.156C40.1507 131.181 40.1244 131.2 40.0948 131.213C40.0652 131.227 40.033 131.233 40.0007 131.232Z" fill="#263238"/>
<path d="M38.0429 130.22C37.9939 130.22 37.9463 130.204 37.907 130.175C37.8849 130.159 37.8663 130.139 37.8524 130.115C37.8385 130.092 37.8297 130.066 37.8263 130.039C37.823 130.012 37.8254 129.985 37.8332 129.959C37.841 129.933 37.8541 129.909 37.8717 129.888C38.4859 129.168 41.4308 127.431 43.0719 127.567C43.0995 127.568 43.1265 127.575 43.1514 127.587C43.1763 127.599 43.1985 127.616 43.2169 127.636C43.2352 127.657 43.2491 127.681 43.258 127.707C43.2668 127.733 43.2703 127.761 43.2682 127.789C43.2651 127.816 43.2565 127.843 43.2429 127.868C43.2293 127.892 43.2109 127.914 43.1889 127.931C43.1669 127.949 43.1416 127.961 43.1146 127.969C43.0876 127.976 43.0594 127.978 43.0316 127.975C41.5214 127.849 38.7023 129.571 38.214 130.14C38.1932 130.165 38.1671 130.185 38.1375 130.199C38.1079 130.213 38.0756 130.22 38.0429 130.22Z" fill="#263238"/>
<path d="M36.2255 129.052C36.1768 129.056 36.1283 129.042 36.0896 129.012C36.0675 128.996 36.0489 128.976 36.0351 128.952C36.0212 128.929 36.0123 128.903 36.009 128.876C36.0057 128.849 36.008 128.822 36.0158 128.796C36.0236 128.77 36.0367 128.746 36.0544 128.725C36.6685 128.005 39.6235 126.268 41.2545 126.404C41.2821 126.405 41.3091 126.412 41.334 126.424C41.3589 126.436 41.3812 126.453 41.3995 126.473C41.4178 126.494 41.4318 126.518 41.4406 126.544C41.4494 126.571 41.4529 126.598 41.4509 126.626C41.4478 126.654 41.4391 126.681 41.4255 126.705C41.4119 126.729 41.3935 126.751 41.3715 126.768C41.3495 126.786 41.3243 126.798 41.2973 126.806C41.2703 126.813 41.2421 126.815 41.2143 126.812C39.7041 126.686 36.885 128.403 36.3967 128.977C36.3756 129.001 36.3493 129.021 36.3197 129.034C36.2901 129.047 36.2579 129.053 36.2255 129.052Z" fill="#263238"/>
<path d="M34.4486 127.879C34.3986 127.881 34.3493 127.867 34.3076 127.839C34.2852 127.824 34.2661 127.804 34.2518 127.78C34.2374 127.757 34.2281 127.731 34.2243 127.704C34.2205 127.677 34.2224 127.65 34.2298 127.624C34.2372 127.597 34.25 127.573 34.2674 127.552C35.1131 126.545 38.209 125.07 39.8451 125.206C39.8729 125.208 39.9001 125.214 39.9253 125.226C39.9504 125.238 39.973 125.255 39.9917 125.275C40.0104 125.296 40.0249 125.32 40.0343 125.346C40.0437 125.372 40.0478 125.4 40.0464 125.428C40.0366 125.483 40.0064 125.533 39.9617 125.568C39.917 125.602 39.861 125.619 39.8048 125.614C38.3298 125.488 35.3698 126.893 34.6197 127.799C34.5985 127.823 34.5723 127.843 34.5428 127.857C34.5133 127.871 34.4812 127.879 34.4486 127.879Z" fill="#263238"/>
<path d="M14.0501 126.48L15.9077 119.825L7.61156 118.551L7.23904 125.01C7.23904 125.01 6.35808 127.31 6.86149 128.161C7.36489 129.012 12.9023 129.973 13.4057 129.42C13.9092 128.866 14.0501 126.48 14.0501 126.48Z" fill="#FFA8A7"/>
<path d="M13.1943 141.023C12.9275 143.092 12.4694 144.426 11.5481 145.554C10.6269 146.682 9.03113 146.833 7.42023 146.254C5.80934 145.675 3.83095 144.446 3.48361 142.584C3.13626 140.721 3.30741 139.503 3.79571 137.615L13.1943 141.023Z" fill="#263238"/>
<path d="M7.23952 124.995C6.57502 124.95 6.70591 127.789 6.1421 130.532C5.54305 133.482 4.44058 134.56 3.91704 137.001C3.31799 139.755 3.41364 141.028 4.42045 142.891C5.42726 144.753 9.30851 146.953 11.4228 144.779C13.1495 143.007 13.3559 140.812 13.3911 137.983C13.3537 135.588 13.4562 133.192 13.6982 130.809C13.96 128.72 14.5993 126.862 14.0405 126.55C13.9751 126.852 13.9096 127.24 13.8392 127.557C13.7687 127.874 13.6529 128.921 13.2804 128.881C13.2661 128.615 13.2796 128.349 13.3207 128.086C13.3487 127.965 13.3511 127.84 13.3277 127.719C13.3043 127.597 13.2556 127.482 13.1847 127.381C12.8689 127.128 12.5062 126.94 12.1175 126.827C11.4731 126.626 10.3153 126.369 9.65587 126.228C9.32865 126.158 8.99641 126.097 8.64906 126.057C8.36858 126.017 8.0838 126.017 7.80333 126.057C7.72646 126.065 7.65243 126.09 7.58696 126.131C7.52149 126.172 7.46633 126.228 7.42577 126.294C7.38473 126.394 7.36585 126.502 7.37041 126.611C7.35596 126.805 7.31533 126.996 7.24959 127.18C7.21939 127.26 7.1489 127.351 7.05326 127.321C7.02 127.303 6.99295 127.276 6.97581 127.243C6.95868 127.209 6.95232 127.171 6.95761 127.134C6.95761 126.792 7.03815 126.555 7.08346 126.163C7.08346 125.982 7.15394 125.735 7.16905 125.554C7.18415 125.372 7.21434 125.171 7.23952 124.995Z" fill="#455A64"/>
<path d="M4.11801 136.231C4.0274 136.623 3.46861 139.251 4.26902 139.86C5.06944 140.469 5.77924 138.456 5.77924 138.456C5.77924 138.456 7.93381 138.174 10.9442 139.775C10.7579 140.188 11.1405 141.693 12.0064 141.501C12.8722 141.31 13.3907 138.275 13.4008 138.234C13.3555 140.948 13.1138 143.067 11.4375 144.779C9.3232 146.953 5.45202 144.743 4.43514 142.891C3.41826 141.038 3.32765 139.755 3.93174 137.001C3.97704 136.734 4.03243 136.477 4.11801 136.231Z" fill="#37474F"/>
<path d="M6.00148 138.673C5.92093 139.679 4.79834 139.176 4.83862 137.746C4.87889 136.317 5.99644 133.014 6.14243 130.543C6.38407 127.145 6.57536 124.95 7.23985 125.005C7.23985 125.04 7.23985 125.071 7.23985 125.106L7.06366 126.52C7.02488 126.72 6.99965 126.922 6.98815 127.124C6.83713 129.198 6.75659 133.226 6.42938 135.098C6.21208 136.28 6.06917 137.473 6.00148 138.673Z" fill="#37474F"/>
<path d="M10.5771 139.699C10.9368 138.557 11.2243 137.394 11.4379 136.216C11.7853 134.363 12.9482 130.678 13.5422 128.665C13.6941 128.304 13.7957 127.925 13.8442 127.537C13.9097 127.26 13.9701 126.908 14.0305 126.616C14.0305 126.616 14.0305 126.576 14.0305 126.555C14.4332 126.787 14.2721 128.393 14.0305 129.223C13.7888 130.054 13.5271 130.94 13.2401 132.128C12.5203 134.474 12.4045 138.008 11.9413 139.357C11.4782 140.706 10.2952 140.671 10.5771 139.699Z" fill="#37474F"/>
<path d="M10.9946 139.865C10.9626 139.859 10.9319 139.847 10.904 139.83C9.35565 138.964 7.59006 138.564 5.8196 138.677C5.75572 138.684 5.69169 138.667 5.63843 138.632C5.58517 138.596 5.546 138.543 5.52763 138.481C5.52175 138.452 5.52222 138.423 5.52903 138.394C5.53584 138.365 5.54881 138.339 5.56704 138.316C5.58526 138.293 5.6083 138.274 5.63454 138.261C5.66078 138.248 5.68958 138.24 5.71893 138.239C7.61349 138.109 9.50444 138.54 11.1557 139.478C11.1824 139.491 11.206 139.51 11.2249 139.534C11.2439 139.557 11.2579 139.584 11.2659 139.613C11.274 139.641 11.2759 139.672 11.2717 139.701C11.2674 139.731 11.2571 139.759 11.2413 139.785C11.2129 139.821 11.1742 139.849 11.1303 139.863C11.0863 139.877 11.0391 139.878 10.9946 139.865Z" fill="#263238"/>
<path d="M11.6842 137.731L11.6036 137.701C9.85206 136.783 7.89117 136.339 5.91513 136.412C5.85094 136.415 5.78748 136.397 5.73529 136.359C5.68311 136.322 5.64533 136.268 5.6282 136.206C5.62382 136.177 5.62576 136.147 5.6339 136.119C5.64204 136.091 5.65618 136.065 5.67533 136.043C5.69449 136.021 5.71819 136.004 5.74482 135.992C5.77145 135.98 5.80037 135.974 5.82956 135.974C7.91988 135.892 9.99493 136.362 11.8452 137.338C11.8723 137.352 11.8963 137.37 11.9159 137.393C11.9355 137.416 11.9502 137.442 11.9591 137.471C11.9681 137.5 11.9711 137.53 11.9679 137.56C11.9648 137.59 11.9556 137.619 11.9409 137.645C11.9115 137.684 11.8714 137.712 11.8256 137.727C11.7799 137.743 11.7306 137.744 11.6842 137.731Z" fill="#263238"/>
<path d="M6.2076 134.333C6.16243 134.323 6.12034 134.303 6.08518 134.273C6.05001 134.243 6.02288 134.205 6.00624 134.162C5.99885 134.133 5.99766 134.103 6.00277 134.074C6.00788 134.045 6.01918 134.018 6.03588 133.993C6.05258 133.969 6.07429 133.949 6.09957 133.933C6.12485 133.918 6.15311 133.908 6.18242 133.905C9.20285 133.402 12.0672 135.148 12.1881 135.224C12.2152 135.236 12.2392 135.255 12.2587 135.277C12.2781 135.3 12.2923 135.327 12.3005 135.355C12.3086 135.384 12.3104 135.414 12.3058 135.444C12.3011 135.473 12.2902 135.501 12.2736 135.526C12.2333 135.574 12.1767 135.606 12.1146 135.615C12.0524 135.625 11.989 135.611 11.9363 135.576C11.9112 135.576 9.13238 133.885 6.31331 134.338C6.27811 134.344 6.24208 134.342 6.2076 134.333Z" fill="#263238"/>
<path d="M6.50439 132.38C6.45958 132.371 6.41787 132.35 6.38343 132.32C6.34899 132.29 6.323 132.252 6.30806 132.208C6.29888 132.181 6.29605 132.151 6.29979 132.122C6.30354 132.093 6.31375 132.065 6.32969 132.04C6.34563 132.016 6.36687 131.995 6.39188 131.98C6.41688 131.964 6.44502 131.955 6.47419 131.952C8.60535 131.638 10.7779 132.107 12.5906 133.271C12.6164 133.285 12.6388 133.305 12.6562 133.329C12.6735 133.354 12.6855 133.381 12.6912 133.41C12.697 133.439 12.6963 133.469 12.6894 133.498C12.6824 133.527 12.6693 133.554 12.651 133.578C12.606 133.621 12.547 133.648 12.4844 133.653C12.4218 133.657 12.3595 133.64 12.3086 133.603C10.6096 132.535 8.58763 132.101 6.60004 132.38C6.56841 132.385 6.53603 132.385 6.50439 132.38Z" fill="#263238"/>
<path d="M6.84685 130.185C6.80313 130.175 6.76243 130.155 6.72823 130.126C6.69404 130.097 6.66737 130.06 6.65053 130.019C6.64047 129.991 6.63679 129.961 6.6398 129.932C6.64282 129.903 6.65243 129.874 6.66792 129.849C6.6834 129.824 6.70437 129.803 6.72925 129.787C6.75413 129.771 6.78227 129.761 6.81161 129.757C9.94278 129.163 12.8525 131.056 12.9834 131.141C13.01 131.155 13.0333 131.175 13.0517 131.198C13.0701 131.222 13.0831 131.249 13.0898 131.279C13.0965 131.308 13.0967 131.338 13.0905 131.367C13.0843 131.397 13.0718 131.424 13.0538 131.448C13.0114 131.495 12.9534 131.523 12.891 131.529C12.8287 131.534 12.7665 131.516 12.7165 131.479C12.6863 131.479 9.86728 129.636 6.9576 130.185C6.92107 130.192 6.88337 130.192 6.84685 130.185Z" fill="#263238"/>
<path d="M12.3137 56.0334C10.7531 72.389 10.0333 94.7956 10.0333 94.7956C9.89734 96.039 8.99624 98.1533 8.29651 104.28C7.5565 110.743 7.53636 119.885 7.53636 119.885C7.53636 119.885 11.8858 122.402 15.5254 121.224C15.5254 121.224 19.1398 106.913 21.1283 99.3161C23.011 92.1275 25.6589 81.1936 25.6589 81.1936L27.1339 92.7417C27.1339 92.7417 27.29 96.7689 27.3655 100.021C27.4611 103.822 29.6107 118.4 29.6107 118.4C29.6107 118.4 33.8997 121.255 37.7054 118.4C37.7054 118.4 38.833 97.0911 39.0193 92.5252C39.3868 83.5596 39.3213 66.1619 39.2005 54.5836L12.3137 56.0334Z" fill="#00BFBA"/>
<path opacity="0.5" d="M12.3137 56.0334C10.7531 72.389 10.0333 94.7956 10.0333 94.7956C9.89734 96.039 8.99624 98.1533 8.29651 104.28C7.5565 110.743 7.53636 119.885 7.53636 119.885C7.53636 119.885 11.8858 122.402 15.5254 121.224C15.5254 121.224 19.1398 106.913 21.1283 99.3161C23.011 92.1275 25.6589 81.1936 25.6589 81.1936L27.1339 92.7417C27.1339 92.7417 27.29 96.7689 27.3655 100.021C27.4611 103.822 29.6107 118.4 29.6107 118.4C29.6107 118.4 33.8997 121.255 37.7054 118.4C37.7054 118.4 38.833 97.0911 39.0193 92.5252C39.3868 83.5596 39.3213 66.1619 39.2005 54.5836L12.3137 56.0334Z" fill="white"/>
<path opacity="0.3" d="M25.679 81.1833L27.743 69.5597C27.743 69.5597 32.1176 68.9808 34.403 66.9671C34.403 66.9671 32.8928 69.6503 28.7548 70.6319L26.7161 81.2034L27.1389 92.7062L25.679 81.1833Z" fill="#00BFBA"/>
<path d="M7.43061 120.076C8.31661 121.31 12.3237 122.593 15.5807 121.541L16.1848 119.024C13.7282 119.764 9.49457 118.949 7.52626 117.323L7.43061 120.076Z" fill="#00BFBA"/>
<path d="M29.5907 118.778C30.6731 119.825 34.7406 120.419 37.761 118.818L37.9271 116.235C35.6316 117.398 31.4433 117.393 29.2283 116.14L29.5907 118.778Z" fill="#00BFBA"/>
<path d="M65.9518 42.7334C64.7637 43.408 63.465 44.5407 61.4211 45.7539C59.3773 46.9671 55.1135 49.615 52.2441 50.7879C49.3747 51.9609 48.2168 52.1974 45.2216 48.4874C41.2749 43.6144 37.2678 37.6692 37.2678 37.6692L34.6652 25.3559C39.6036 25.7083 40.706 27.0373 43.1274 30.6467C46.5002 35.6807 50.5325 41.8172 50.5325 41.8172C50.5325 41.8172 60.9882 38.379 62.1108 37.79C62.9522 37.3661 63.6262 36.6709 64.0237 35.8167C64.3533 35.103 64.7265 34.4104 65.1413 33.7426C65.5692 33.0278 65.7303 32.7358 66.2387 31.8549C66.7472 30.9739 67.2455 29.3832 67.4267 29.0459C67.7087 28.6784 68.3027 28.7992 68.6651 29.8564C68.8136 30.5085 68.7928 31.1878 68.6047 31.8297C68.4889 32.4086 68.207 33.0983 68.3681 33.2191C68.5292 33.3399 69.4303 33.0379 70.2962 32.9624C71.162 32.8869 71.9624 32.6301 72.8484 33.0479C72.9936 33.1072 73.1246 33.1965 73.2327 33.3102C73.3408 33.4238 73.4235 33.5591 73.4754 33.7071C73.5273 33.8552 73.5471 34.0125 73.5336 34.1687C73.5201 34.325 73.4736 34.4766 73.3971 34.6135C73.2534 34.8308 73.0533 35.0048 72.8182 35.1169C72.9804 35.1232 73.1395 35.1626 73.2858 35.2327C73.4321 35.3029 73.5625 35.4022 73.669 35.5247C73.8273 35.7787 73.8923 36.0799 73.8528 36.3766C73.8133 36.6733 73.6718 36.947 73.4525 37.1507C73.6289 37.1798 73.7888 37.2718 73.9026 37.4097C74.0164 37.5476 74.0765 37.722 74.0717 37.9008C74.0717 38.4646 73.9509 38.9982 73.372 39.1341C73.372 39.1341 73.8099 39.3053 73.7998 39.5771C73.8071 39.8043 73.7552 40.0295 73.6493 40.2307C73.5434 40.4319 73.3872 40.6022 73.1958 40.7249C72.6661 40.8756 72.1124 40.9235 71.5647 40.8658C71.5647 40.8658 71.454 41.0521 70.8902 41.2484C70.279 41.5252 69.648 41.7557 69.0024 41.9381C68.2674 42.0941 66.8931 42.1998 65.9518 42.7334Z" fill="#FFA8A7"/>
<path d="M50.5322 41.7972C49.2788 42.3308 48.7905 44.0273 48.1713 45.8244C48.282 43.4282 48.9415 41.762 50.2604 41.178L50.5322 41.7972Z" fill="#F28F8F"/>
<path d="M37.5293 39.3706L33.9048 23.4782C36.7188 23.7248 40.0212 25.5925 41.9593 28.5122C45.8657 34.4121 50.5625 41.5705 50.5625 41.5705C50.7084 41.5152 60.7212 38.389 60.7212 38.389C60.7212 38.389 60.2178 39.8992 60.5852 42.6075C60.9527 45.3159 61.8991 46.1314 61.8991 46.1314C61.8991 46.1314 55.5562 49.62 53.5074 50.5563C50.1899 52.0665 48.7955 52.0363 48.3072 51.8601C47.3759 51.5279 46.2936 50.6872 44.3051 48.2306C41.6472 44.898 37.5293 39.3706 37.5293 39.3706Z" fill="#EBEBEB"/>
<path d="M37.5293 39.3706L35.8378 32.041L34.0054 23.4529L33.8997 23.5788C36.0021 23.8289 37.9877 24.6801 39.6184 26.0304C40.5263 26.8034 41.3136 27.7078 41.9542 28.7135L43.6507 31.301L50.4416 41.6661L50.502 41.7618L50.6228 41.7265L60.7664 38.5249L60.6003 38.3537C60.4272 39.0112 60.3359 39.6875 60.3284 40.3673C60.3198 41.0404 60.3584 41.7133 60.4442 42.381C60.5192 43.0552 60.6574 43.721 60.857 44.3694C61.0378 45.041 61.3722 45.6614 61.8336 46.1817V45.9954C59.528 47.264 57.2224 48.5124 54.8866 49.7307C53.7284 50.3452 52.5271 50.8752 51.2923 51.3164C50.6796 51.5352 50.0476 51.6953 49.4046 51.7946C49.0878 51.8454 48.7649 51.8454 48.4481 51.7946C48.1412 51.7019 47.8483 51.5681 47.5772 51.3969C46.5128 50.6356 45.5634 49.7252 44.7581 48.6937C43.9175 47.6868 43.112 46.6448 42.3015 45.6128C40.6973 43.5556 39.1066 41.4748 37.5293 39.3706ZM37.5293 39.3706C39.0932 41.4849 40.6739 43.5858 42.2713 45.6732C43.0717 46.7153 43.8722 47.7573 44.7028 48.7843C45.5024 49.8365 46.4503 50.7674 47.5168 51.548C47.7987 51.735 48.1077 51.8776 48.433 51.9708C48.7664 52.0256 49.1064 52.0256 49.4398 51.9708C50.0959 51.8739 50.7414 51.7155 51.3678 51.4976C52.6106 51.058 53.8202 50.5298 54.9873 49.9169C57.3332 48.7188 59.6438 47.4653 61.9544 46.2119L62.0853 46.1364L61.9746 46.0206C61.5497 45.5275 61.2432 44.9438 61.0785 44.314C60.8878 43.6779 60.7547 43.0259 60.6808 42.3659C60.6013 41.7062 60.5693 41.0417 60.5852 40.3774C60.5917 39.7177 60.6813 39.0615 60.852 38.4242L60.9225 38.1775L60.6808 38.253L50.5121 41.4195L50.6933 41.4799L43.852 31.15L42.1404 28.5675C41.5109 27.561 40.7259 26.6605 39.8147 25.8995C38.1205 24.5247 36.0748 23.6527 33.9098 23.3825H33.7688L33.8041 23.5234L35.6918 32.0813L37.5293 39.3706Z" fill="#E0E0E0"/>
<path d="M70.2555 39.3507C70.2319 39.419 70.2246 39.492 70.2342 39.5637C70.2438 39.6353 70.2701 39.7038 70.3109 39.7635C70.4128 39.9205 70.5255 40.0702 70.6482 40.2115C70.7048 40.2866 70.7671 40.3573 70.8345 40.4229C70.8965 40.4855 70.9678 40.5382 71.0459 40.579L71.5493 40.8508C71.3512 40.8343 71.1563 40.7903 70.9704 40.72C70.8686 40.687 70.7744 40.6339 70.6935 40.5639C70.618 40.4934 70.5475 40.4229 70.477 40.3474C70.35 40.193 70.2419 40.024 70.1549 39.844C70.1154 39.7415 70.1033 39.6305 70.1196 39.5218C70.1321 39.4556 70.1636 39.3943 70.2102 39.3457C70.0656 39.2786 69.9259 39.2012 69.7924 39.1141C69.5689 38.9967 69.3798 38.8232 69.2437 38.6107C69.197 38.4901 69.1714 38.3624 69.1682 38.2331C69.1633 38.193 69.1633 38.1524 69.1682 38.1123L69.0373 37.8405C68.812 38.3134 68.4772 38.7258 68.0607 39.0436C67.563 39.4475 66.9734 39.7225 66.3441 39.844C67.1262 39.5734 67.7817 39.0251 68.1863 38.3032C68.5909 37.5812 68.7164 36.7359 68.5389 35.9275H68.5037C68.433 35.8626 68.3823 35.7787 68.3577 35.6859C68.3106 35.5172 68.3305 35.3369 68.4131 35.1825C68.4854 35.0347 68.5843 34.9016 68.7051 34.7898C69.1805 34.3732 69.7849 34.1332 70.4166 34.1103C70.4913 33.9947 70.5849 33.8926 70.6935 33.8082C70.8043 33.7189 70.9241 33.6413 71.0509 33.5766C70.9353 33.6572 70.8259 33.7464 70.7237 33.8434C70.6244 33.9385 70.5411 34.049 70.477 34.1707C69.8778 34.2355 69.3142 34.4873 68.8661 34.8905C68.7597 34.9762 68.6774 35.0881 68.6271 35.2151C68.5768 35.3422 68.5603 35.4801 68.5792 35.6154C68.6295 35.7564 68.6749 35.8017 68.8208 35.8017C68.9668 35.8017 69.1229 35.8017 69.2789 35.8017C69.5961 35.8017 69.8981 35.8369 70.2002 35.847C70.5002 35.8515 70.7997 35.8177 71.0912 35.7463C71.3882 35.6758 71.6751 35.5752 71.9671 35.4795C72.2599 35.3873 72.5459 35.2746 72.8229 35.1422C72.2918 35.4602 71.7237 35.7121 71.1315 35.8923C70.8292 35.9825 70.5155 36.0282 70.2002 36.0282C69.883 36.0282 69.581 35.993 69.2789 35.998H69.0977C68.978 36.0707 68.89 36.1857 68.851 36.3202C68.8205 36.4382 68.8252 36.5626 68.8646 36.6781C68.9039 36.7935 68.9762 36.8948 69.0725 36.9696C69.2581 37.1487 69.4623 37.3073 69.6817 37.4428C69.8954 37.5737 70.1306 37.6657 70.3764 37.7146C70.8885 37.7091 71.3972 37.6294 71.8866 37.478C72.39 37.3673 72.9185 37.2565 73.4421 37.1659C72.9387 37.3421 72.4353 37.4881 71.9319 37.6341C71.6751 37.7096 71.4285 37.775 71.1617 37.8405C70.8946 37.9133 70.6172 37.9405 70.3411 37.921C70.1679 37.8812 69.9993 37.8238 69.8377 37.7499C69.6719 37.7663 69.5161 37.8371 69.3947 37.9512C69.3579 37.9879 69.3294 38.032 69.3112 38.0807C69.293 38.1293 69.2854 38.1813 69.289 38.2331C69.2983 38.3431 69.3273 38.4505 69.3746 38.5503C69.511 38.7249 69.6825 38.8689 69.878 38.9731C70.0595 39.107 70.2698 39.1966 70.4921 39.2349C70.722 39.2303 70.9504 39.1965 71.1717 39.1342C71.4131 39.0967 71.6575 39.0816 71.9017 39.0889C72.3799 39.0889 72.8581 39.0889 73.3414 39.1493C72.838 39.1896 72.3799 39.2148 71.9067 39.245C71.6706 39.2572 71.4353 39.2824 71.2019 39.3205C70.9655 39.3949 70.7198 39.4356 70.472 39.4413C70.3971 39.4182 70.3246 39.3878 70.2555 39.3507Z" fill="#F28F8F"/>
<path d="M20.1968 22.5116C18.5658 22.8489 16.4918 23.2718 14.4127 23.8507C12.3336 24.4296 10.9493 24.7971 9.07158 25.8643C9.14485 30.9355 9.67386 35.9899 10.6523 40.9664C11.0097 42.6226 12.2128 47.1935 12.4192 50.7023C12.6785 54.3477 12.5807 58.0098 12.1272 61.6362C12.1272 61.6362 17.5288 65.6635 29.0668 64.7724C38.1281 64.0928 39.3061 60.7452 39.3061 60.7452C39.3061 60.7452 39.1399 45.6431 38.9033 38.9629C38.5962 30.1835 35.9383 25.1193 33.98 23.5889L28.0348 22.5821L20.1968 22.5116Z" fill="#00BFBA"/>
<path d="M28.2363 21.9026V22.6174C30.4407 23.6468 32.1679 25.4803 33.064 27.7421C34.3275 30.9135 35.732 38.223 36.0391 46.7003C36.6633 63.8865 37.0057 77.4835 37.0057 77.4835C38.2979 77.5336 39.5887 77.3512 40.8164 76.9449C40.8164 76.9449 40.6302 63.9117 40.313 54.5031C39.9506 43.2772 39.2257 35.8066 38.4907 31.2408C37.6903 26.247 35.5407 24.4498 34.2822 23.4732C32.2233 22.9144 29.4948 22.255 28.2363 21.9026Z" fill="#F0F0F0"/>
<path d="M40.3229 54.503L40.2474 50.4506C40.2021 49.0964 40.1517 47.7473 40.0863 46.3982C39.9554 43.6966 39.7675 40.9983 39.5225 38.3034C39.3916 36.9593 39.2456 35.6152 39.0744 34.2762C38.9033 32.9371 38.7321 31.5981 38.4401 30.249C38.1615 28.9145 37.6829 27.6297 37.0205 26.4382C36.3341 25.2629 35.4037 24.2484 34.2921 23.4631C35.3643 24.283 36.2484 25.3232 36.8846 26.5137C37.5112 27.7024 37.9558 28.9785 38.2035 30.2993C38.6767 32.9472 38.9637 35.6404 39.2104 38.3236C39.457 41.0067 39.6634 43.705 39.8447 46.378L40.0964 50.4053L40.3229 54.503Z" fill="#E0E0E0"/>
<path d="M18.1835 4.3789C18.1835 4.3789 16.8344 4.47958 15.9484 6.18109C15.5054 7.03688 15.1882 8.59743 16.4065 13.0526C16.8686 14.7925 17.5916 16.4525 18.551 17.9759C18.834 18.4616 19.2911 18.8215 19.8296 18.9827L19.739 15.5545L19.6132 13.1683C19.6132 13.1683 21.5362 11.4165 21.7023 9.70492C21.8733 8.51043 21.645 7.29292 21.0529 6.2415L18.1835 4.3789Z" fill="#37474F"/>
<path d="M17.7203 4.48977C18.0526 2.56676 20.4941 0.266201 25.211 0.014499C29.0721 -0.191897 31.2519 1.83682 32.5909 4.08704C32.9805 4.72741 33.2052 5.45445 33.2447 6.203C33.2842 6.95154 33.1374 7.6982 32.8174 8.37605L20.9975 7.7619L17.7203 4.48977Z" fill="#37474F"/>
<path d="M16.6183 16.5714C18.3953 17.4373 19.2058 16.0328 19.2058 16.0328V23.2617C22.6139 27.8225 31.9923 26.0103 28.2671 22.5921V20.9812C28.7835 20.9679 29.2983 20.9174 29.8075 20.8302C30.5359 20.7771 31.2264 20.4855 31.7724 20.0005C32.3184 19.5155 32.6893 18.8641 32.8279 18.1471C33.1024 16.9738 33.2809 15.7802 33.3615 14.5779C33.4673 12.7908 33.4824 11.1447 33.0394 9.90634C32.7222 9.03042 33.0897 7.89272 32.8531 6.7953C32.6668 5.96468 32.3094 5.06359 31.5493 4.68603C29.6666 3.75474 27.9197 5.09883 25.292 6.12577C24.2046 6.54863 21.5617 6.73489 20.867 6.40768C21.7832 7.41449 21.7732 10.6212 20.424 11.9149C20.256 12.2495 20.0273 12.5499 19.7495 12.8009C19.1706 13.3043 18.7024 12.0106 18.2393 11.5021C18.0038 11.2956 17.7228 11.1477 17.4193 11.0706C17.1157 10.9936 16.7982 10.9895 16.4927 11.0587C16.1873 11.128 15.9026 11.2686 15.6619 11.469C15.4212 11.6695 15.2314 11.924 15.1081 12.2119C14.9154 12.5963 14.8017 13.0154 14.7735 13.4444C14.7454 13.8735 14.8034 14.3038 14.9441 14.7101C15.0848 15.1163 15.3055 15.4903 15.593 15.81C15.8805 16.1297 16.2292 16.3886 16.6183 16.5714Z" fill="#FFA8A7"/>
<path d="M28.2268 20.9811C26.4902 21.0357 24.7584 20.7712 23.1173 20.2008C21.899 19.6974 20.8217 18.0412 20.4693 16.4102C20.4693 17.7241 21.0432 20.0549 22.8907 21.0214C24.7382 21.9879 26.8827 22.0282 28.2318 22.0735L28.2268 20.9811Z" fill="#F28F8F"/>
<path d="M25.0649 8.31063L23.3231 9.0456C23.2324 8.80956 23.2338 8.54803 23.3271 8.31299C23.4203 8.07795 23.5986 7.88661 23.8265 7.77701C23.9422 7.72532 24.0674 7.6982 24.1941 7.69736C24.3209 7.69652 24.4464 7.72197 24.5628 7.77212C24.6792 7.82227 24.7839 7.89603 24.8703 7.98872C24.9567 8.0814 25.023 8.19102 25.0649 8.31063Z" fill="#37474F"/>
<path d="M32.1227 8.63276L30.3507 7.92799C30.391 7.81035 30.4547 7.70213 30.5381 7.60991C30.6215 7.5177 30.7228 7.44343 30.8359 7.39163C30.9489 7.33982 31.0713 7.31157 31.1956 7.30858C31.3199 7.30559 31.4435 7.32793 31.5589 7.37425C31.7954 7.4729 31.9853 7.65799 32.0901 7.89182C32.1948 8.12566 32.2065 8.39063 32.1227 8.63276Z" fill="#37474F"/>
<path d="M24.2949 10.4098C24.301 10.5617 24.3519 10.7085 24.4412 10.8316C24.5305 10.9546 24.6543 11.0485 24.7969 11.1014C24.9395 11.1542 25.0945 11.1637 25.2425 11.1285C25.3904 11.0934 25.5247 11.0153 25.6283 10.9039C25.7319 10.7926 25.8003 10.6531 25.8247 10.503C25.8492 10.3529 25.8286 10.199 25.7657 10.0605C25.7028 9.92206 25.6003 9.80533 25.4712 9.72504C25.342 9.64475 25.192 9.6045 25.04 9.60935C24.9384 9.61259 24.8384 9.63591 24.7459 9.67797C24.6533 9.72003 24.57 9.77999 24.5008 9.8544C24.4315 9.92881 24.3777 10.0162 24.3423 10.1115C24.307 10.2068 24.2909 10.3082 24.2949 10.4098Z" fill="#263238"/>
<path d="M30.3263 10.2438C30.3324 10.396 30.3834 10.5429 30.473 10.666C30.5625 10.7892 30.6866 10.883 30.8295 10.9357C30.9724 10.9884 31.1277 10.9975 31.2758 10.9619C31.4238 10.9264 31.558 10.8477 31.6614 10.7359C31.7648 10.6241 31.8327 10.4841 31.8566 10.3337C31.8804 10.1833 31.8592 10.0292 31.7955 9.89088C31.7318 9.75256 31.6285 9.63622 31.4987 9.55657C31.3689 9.47691 31.2185 9.43753 31.0663 9.44338C30.9651 9.44727 30.8657 9.47106 30.7737 9.51341C30.6818 9.55575 30.5991 9.61582 30.5303 9.69016C30.4616 9.7645 30.4082 9.85166 30.3732 9.94666C30.3382 10.0417 30.3222 10.1426 30.3263 10.2438Z" fill="#263238"/>
<path d="M27.3102 8.73836L27.9495 13.6466L30.537 12.6901C29.7705 11.1481 28.6678 9.7977 27.3102 8.73836Z" fill="#F28F8F"/>
<path d="M26.8776 15.182L28.8912 15.8465C28.8572 15.9827 28.795 16.1103 28.7088 16.2211C28.6225 16.3319 28.514 16.4234 28.3903 16.4898C28.2665 16.5562 28.1303 16.5959 27.9903 16.6065C27.8503 16.6171 27.7096 16.5983 27.5773 16.5513C27.3061 16.4581 27.0816 16.2633 26.9511 16.0079C26.8205 15.7525 26.7942 15.4564 26.8776 15.182Z" fill="#B16668"/>
<path d="M27.0886 15.5443C27.0033 15.5344 26.9172 15.5344 26.8319 15.5443C26.8364 15.7672 26.9093 15.9834 27.0408 16.1635C27.1723 16.3436 27.3559 16.4789 27.5669 16.5511C27.6737 16.5875 27.7863 16.6045 27.8991 16.6014C27.9267 16.3547 27.8577 16.1068 27.7066 15.9098C27.5555 15.7127 27.3341 15.5818 27.0886 15.5443Z" fill="#F28F8F"/>
<path d="M19.1804 21.6306V23.2616C19.1804 23.2616 19.7794 26.0304 20.2174 28.2957C20.9825 32.2625 20.9826 37.7144 21.0128 41.6208C21.043 45.5272 19.2911 77.9867 19.2911 77.9867C19.2911 77.9867 12.8777 77.9414 9.78683 76.5118C9.89254 73.1943 10.698 62.1647 11.2215 54.0851C11.4632 50.3247 9.88751 44.9684 9.41431 39.0081C8.87064 32.1769 8.87567 25.7938 8.87567 25.7938C11.2495 24.7144 13.7055 23.8256 16.2203 23.1358C18.2541 22.1139 19.1804 21.6306 19.1804 21.6306Z" fill="#F0F0F0"/>
<path d="M29.1324 11.3612C28.7548 11.4267 28.342 11.764 27.3856 12.1063C25.8754 12.65 23.7308 12.7204 22.5931 13.4504C21.4555 14.1803 20.4084 16.0429 21.1383 17.7343C21.8683 19.4258 22.714 20.1859 23.9423 20.6239C25.5735 21.1179 27.2723 21.3523 28.9763 21.3186C29.6118 21.2985 30.2368 21.1503 30.8137 20.8831C31.3907 20.6158 31.9077 20.2348 32.334 19.7631C33.4768 18.6203 33.8744 15.8818 33.7788 14.0394C33.6832 12.1969 33.663 12.1264 32.9331 12.0811C31.9732 11.9814 31.0266 11.7806 30.109 11.4821C29.8002 11.355 29.4628 11.3132 29.1324 11.3612Z" fill="#37474F"/>
<path d="M22.5931 13.4504C23.7308 12.7204 25.8552 12.65 27.3856 12.1063C28.342 11.764 28.7548 11.4267 29.1324 11.3613C29.4612 11.3142 29.7966 11.3559 30.1039 11.4821C31.021 11.7858 31.9676 11.9916 32.928 12.0962C33.4314 12.1315 33.6026 12.1717 33.6932 12.8614C33.6127 12.5694 33.6076 12.4637 32.6059 12.358C31.7719 12.2632 30.9502 12.081 30.1543 11.8143C29.9637 11.7404 29.7582 11.7133 29.555 11.7352C29.3518 11.7571 29.1568 11.8274 28.9864 11.9402C27.9977 12.3504 26.9659 12.6476 25.9106 12.8262C24.3148 13.1282 22.8901 13.2289 21.9337 14.4522C21.5014 15.0274 21.2536 15.7202 21.223 16.4392C21.1925 17.1582 21.3806 17.8695 21.7625 18.4794C22.5227 19.5869 22.8851 20.1306 24.7276 20.6944C26.1127 21.0713 27.5367 21.2875 28.9713 21.3387C27.2672 21.3724 25.5685 21.138 23.9372 20.644C22.7089 20.2061 21.8884 19.5013 21.1333 17.7545C20.3782 16.0077 21.4705 14.1652 22.5931 13.4504Z" fill="#263238"/>
<path opacity="0.15" d="M31.2166 16.7884C31.1662 15.6356 31.2166 14.2965 30.8138 13.7679C30.4564 13.0581 29.7819 12.0966 29.5654 11.7543L29.3842 11.3566H29.5452H29.5704L29.7667 11.3919H29.8272L30.0889 11.4674C31.0103 11.7772 31.9621 11.9882 32.9281 12.0966C33.6581 12.1419 33.6832 12.2376 33.7738 14.0549C33.8645 15.8722 33.4718 18.6359 32.3291 19.7786C31.8261 20.3401 31.1936 20.7704 30.4866 21.0321C31.3525 20.3625 31.282 17.9563 31.2166 16.7884Z" fill="black"/>
<path d="M23.922 19.018C22.8245 18.8922 21.7674 18.122 20.821 17.5783L19.2 16.6269V16.2644L20.9921 17.2712C21.9134 17.7746 22.9302 18.5851 23.9673 18.7009L23.922 19.018Z" fill="#FAFAFA"/>
<path d="M24.3049 19.144L23.726 19.0483C23.6304 19.0483 23.5448 18.9678 23.5448 18.9023V18.7664C23.5448 18.701 23.6153 18.6607 23.716 18.6809L24.2949 18.7715C24.3955 18.7715 24.4761 18.852 24.4811 18.9175V19.0534C24.4862 19.0987 24.4056 19.144 24.3049 19.144Z" fill="#E0E0E0"/>
<path d="M23.2224 15.3836C22.13 15.2527 19.9402 13.2593 19.2858 12.8666C19.1412 12.8023 19.0199 12.6951 18.9384 12.5595C20.1063 12.5595 21.9589 15.0111 23.2627 15.0765L23.2224 15.3836Z" fill="#FAFAFA"/>
<path d="M23.5197 15.4641L22.9811 15.3936C22.9416 15.3926 22.9036 15.3789 22.8727 15.3543C22.8418 15.3298 22.8198 15.2959 22.8099 15.2577V15.1167C22.8099 15.0513 22.8754 15.011 22.966 15.0211L23.5046 15.0865C23.5454 15.0875 23.5847 15.1018 23.6165 15.1273C23.6483 15.1527 23.6709 15.1879 23.6808 15.2275V15.3583C23.6657 15.4288 23.6154 15.4741 23.5197 15.4641Z" fill="#E0E0E0"/>
<path d="M12.3491 69.9877C12.4804 70.1093 12.5925 70.2502 12.6813 70.4055C12.7261 70.4843 12.7452 70.575 12.7362 70.6652C12.7272 70.7554 12.6904 70.8405 12.631 70.9089C12.5655 70.9636 12.4878 71.0016 12.4045 71.0197C12.134 71.0831 11.853 71.088 11.5804 71.0342C11.3079 70.9804 11.0499 70.869 10.8238 70.7075C10.3745 70.385 9.98884 69.9823 9.68609 69.5195C9.59014 69.3565 9.45522 69.2198 9.29343 69.1218C8.54839 68.7594 8.91083 70.0078 8.96621 70.2998C9.12041 71.1266 9.35651 71.936 9.67099 72.7161C9.85725 73.3252 11.3725 74.7297 11.7198 75.2936C12.0672 75.8574 12.0521 76.5168 11.7752 76.7736C11.4983 77.0303 10.9094 76.6427 10.1794 75.9279C9.64143 75.4603 9.1368 74.9556 8.6692 74.4176L8.10539 73.5971C8.25727 74.1053 8.45439 74.599 8.69438 75.0721C8.95615 75.4849 9.96295 76.5219 10.2751 77.0404C10.3883 77.242 10.4374 77.4733 10.4158 77.7036C10.3942 77.9338 10.303 78.152 10.1542 78.3291C9.97302 78.5254 9.87738 78.8325 8.91588 77.8257C8.43568 77.3519 7.9867 76.8474 7.57178 76.3155C7.31865 76.3765 7.05358 76.3665 6.80577 76.2866C6.55795 76.2067 6.33701 76.0599 6.16728 75.8624C5.59771 75.184 5.09215 74.4543 4.65706 73.6827C4.40027 73.6033 4.16197 73.4733 3.9562 73.3004C3.75043 73.1275 3.58136 72.9151 3.45896 72.6759C3.07134 71.8654 2.5629 70.5767 2.18534 69.5346C1.80779 68.4926 2.03434 65.8547 1.83801 64.0223C1.78264 63.4636 1.23895 57.1307 0.982216 53.1891C0.790922 50.2391 0.952003 46.8764 1.30439 45.3561C2.135 41.7668 2.07964 42.2148 3.39353 37.2513C4.24428 34.0446 4.93395 31.7491 5.5028 30.2036C6.36865 27.8326 6.92239 26.7754 10.3254 25.5421C12.1981 27.0523 12.8877 30.7423 11.6896 37.7748C10.7899 41.1173 9.63882 44.387 8.24634 47.556C8.24634 47.556 7.74294 62.8645 7.74294 63.1363C7.72859 63.3805 7.7754 63.6244 7.87913 63.8459C7.98285 64.0675 8.14021 64.2596 8.33695 64.4049C8.73464 64.7523 9.19275 65.0342 9.57534 65.4117C10.8288 66.6149 11.0855 68.5681 12.2383 69.8568L12.3491 69.9877Z" fill="#FFA8A7"/>
<path d="M7.5565 76.3408C7.00411 75.691 6.54184 74.9697 6.1822 74.1963C5.8159 73.4262 5.53729 72.6173 5.35158 71.785C5.65866 72.5804 5.96574 73.3657 6.35839 74.1208C6.70713 74.887 7.10742 75.6287 7.5565 76.3408Z" fill="#F28F8F"/>
<path d="M4.66718 73.708C4.40497 73.3722 4.19143 73.001 4.03289 72.6055C3.86575 72.2156 3.74087 71.8089 3.66037 71.3923C3.86174 71.7648 4.01779 72.1575 4.16378 72.5401L4.66718 73.708Z" fill="#F28F8F"/>
<path d="M8.10039 73.5819C7.69056 72.9706 7.33995 72.3216 7.05331 71.6438C7.18511 72.6372 7.63554 73.561 8.33699 74.2766L8.10039 73.5819Z" fill="#F28F8F"/>
<path d="M10.4108 25.1142C6.92225 26.5237 6.30306 27.0171 5.53285 28.2504C4.59652 29.7606 4.15855 31.5377 2.47214 37.352C0.785735 43.1663 0.237025 45.6884 0.191719 46.9167C0.0847761 49.2259 0.21297 51.5401 0.574311 53.8234C0.886422 56.3102 1.30928 59.391 1.77242 63.1817C3.49909 63.8512 7.35013 63.1464 8.20089 62.0188C8.20089 59.4514 8.29653 57.2516 8.34184 54.352C8.39721 50.7375 8.58348 47.9235 8.58348 47.9235L12.203 37.065C12.203 37.065 14.1461 27.9282 10.4108 25.1142Z" fill="#EBEBEB"/>
<path d="M3.50424 63.6046C5.38194 63.6046 7.67746 62.9854 8.32685 62.1195L8.35705 62.0792V62.0289C8.35705 60.4885 8.3923 59.0739 8.42754 57.5738C8.42754 56.567 8.47787 55.5249 8.49801 54.3621C8.54835 50.954 8.72454 48.2205 8.73965 47.9638L12.349 37.1205C12.4346 36.7278 14.2771 27.8276 10.5066 24.9884L10.4361 24.933L10.3505 24.9683C6.86194 26.3828 6.19745 26.8913 5.40207 28.1649C4.60669 29.4385 4.13349 31.0242 2.94546 35.1521C2.75416 35.8066 2.54777 36.5214 2.32124 37.3067C0.770753 42.6529 0.086119 45.5273 0.0357785 46.9217C-0.0698979 49.2394 0.0582834 51.5617 0.41837 53.8536C0.534154 54.7698 0.665034 55.7666 0.805986 56.874C1.04762 58.7316 1.3094 60.8409 1.61648 63.232V63.3277L1.70708 63.3579C2.28641 63.5476 2.89523 63.6312 3.50424 63.6046ZM8.03488 61.9735C7.18413 62.9803 3.57975 63.6549 1.91348 63.081C1.62151 60.7251 1.34967 58.6511 1.11307 56.8136C0.972118 55.7263 0.841223 54.7295 0.72544 53.7932C0.365181 51.5182 0.237003 49.2126 0.342863 46.9117C0.393203 45.5474 1.07279 42.6931 2.61825 37.3772L3.24246 35.2528C4.42546 31.1551 4.86846 29.6197 5.66888 28.3411C6.41391 27.148 7.05324 26.6547 10.3858 25.3206C13.9096 28.1045 12.0672 36.9795 12.047 37.0701L8.42754 47.9537C8.42754 47.9789 8.23624 50.8131 8.1859 54.3872C8.1859 55.5451 8.14058 56.5921 8.11541 57.599C8.06004 59.0488 8.06005 60.4533 8.06005 61.9735H8.03488Z" fill="#E0E0E0"/>
<path d="M86.8597 52.6022C86.7839 54.1541 86.8229 54.7912 85.219 55.0405C86.5888 55.203 86.7752 56.0721 86.8597 57.4094C86.9031 56.0721 87.1935 55.1965 88.3487 55.0405C86.9854 54.8129 86.9399 54.141 86.8597 52.6022Z" fill="#F5F5F5"/>
<path d="M137.452 52.1449C137.378 53.8224 137.222 54.4444 135.729 54.7067C137.164 54.854 137.365 55.7903 137.452 57.1948C137.499 55.7903 137.783 54.7804 139.168 54.7132C137.736 54.4856 137.578 53.8159 137.452 52.1449Z" fill="#F5F5F5"/>
<path d="M87.9346 67.7758C87.9498 69.1173 87.8912 70.3397 85.9515 70.641C87.6854 70.797 87.8349 71.976 87.9346 73.5929C87.9888 71.976 88.2402 70.7168 89.8375 70.641C88.186 70.3657 88.1405 69.7003 87.9346 67.7758Z" fill="#F5F5F5"/>
<path d="M117.655 75.8967C117.655 77.0063 117.627 78.0748 116.023 78.3262C117.718 78.3024 117.59 79.3709 117.673 80.7103C117.718 79.3731 117.889 78.3111 119.213 78.2482C117.848 78.0206 117.826 77.4875 117.655 75.8967Z" fill="#F5F5F5"/>
<path d="M106.693 54.9495C106.693 55.4154 106.693 55.8641 106.008 55.9703C106.719 55.9703 106.658 56.4037 106.699 56.9716C106.719 56.4081 106.769 56.005 107.324 55.979C106.749 55.8836 106.764 55.6192 106.693 54.9495Z" fill="#F5F5F5"/>
<path d="M69.8116 48.417C69.8116 49.375 69.7704 50.2961 68.3855 50.4998C69.8463 50.4998 69.7293 51.4123 69.7899 52.5653C69.8398 51.4123 70.1042 50.5497 71.2421 50.5041C70.0674 50.3026 69.946 49.7954 69.8116 48.417Z" fill="#F5F5F5"/>
<path d="M43.8751 54.2689C43.8751 55.2268 43.8361 56.1479 42.4511 56.3495C43.9119 56.3495 43.7927 57.2641 43.8534 58.4171C43.9032 57.2641 44.1677 56.4015 45.3077 56.356C44.1308 56.1544 44.0116 55.6473 43.8751 54.2689Z" fill="#F5F5F5"/>
<path d="M113.555 75.2725C113.555 75.8208 113.444 76.3735 112.651 76.497C113.49 76.4862 113.518 76.9912 113.563 77.6544C113.585 76.9912 113.767 76.4818 114.419 76.4493C113.745 76.3388 113.639 76.0592 113.555 75.2725Z" fill="#EBEBEB"/>
<path d="M90.5617 51.6897C90.5617 52.1687 90.4663 52.6477 89.775 52.7539C90.5054 52.7539 90.5335 53.1873 90.5704 53.7617C90.5899 53.1852 90.7459 52.7409 91.3138 52.7149C90.7264 52.6173 90.6354 52.3746 90.5617 51.6897Z" fill="#EBEBEB"/>
<path d="M134.472 50.7817C134.472 51.4102 134.344 52.0431 133.436 52.184C134.396 52.171 134.433 52.7496 134.48 53.5082C134.506 52.7496 134.714 52.1666 135.462 52.1298C134.688 52.0019 134.567 51.6833 134.472 50.7817Z" fill="#EBEBEB"/>
<path d="M83.7582 66.5858C83.7582 67.275 83.6195 67.9686 82.6225 68.1225C83.6759 68.1095 83.7192 68.7445 83.7691 69.5767C83.7972 68.7445 84.0248 68.103 84.8527 68.0596C83.9966 67.9231 83.8644 67.5741 83.7582 66.5858Z" fill="#EBEBEB"/>
<path d="M103.557 52.4115C103.557 53.3088 103.533 54.1736 102.237 54.3751C103.607 54.3578 103.503 55.2204 103.57 56.3019C103.607 55.2182 103.702 54.4445 104.77 54.3925C103.665 54.2104 103.695 53.6989 103.557 52.4115Z" fill="#E0E0E0"/>
<path d="M65.9798 54.206C65.9798 53.4626 65.9625 52.7994 64.8962 52.6325C66.0297 52.6477 65.943 51.8826 65.9993 50.9875C66.0297 51.8826 66.1662 52.6477 67.0483 52.6911C66.1294 52.8428 66.1055 53.1419 65.9798 54.206Z" fill="#E0E0E0"/>
</svg>
