<svg width="62" height="164" viewBox="0 0 62 164" fill="none" xmlns="http://www.w3.org/2000/svg">
<path d="M60.6974 163.549C59.6444 163.889 29.5982 163.497 28.4625 162.757C28.0274 162.483 27.8272 158.101 27.7402 152.797V152.671C27.7185 151.579 27.7054 150.456 27.701 149.316C27.701 149.159 27.701 149.003 27.701 148.846L29.1588 133.255L49.2577 133.46L47.2778 148.898L47.2517 149.512L47.1081 152.671V153.002C47.1081 153.002 58.5479 158.328 59.7271 159.255C60.9063 160.181 61.7505 163.227 60.6974 163.549Z" fill="#AD6359"/>
<path d="M60.6974 163.549C59.6444 163.889 29.5982 163.497 28.4625 162.757C28.0274 162.483 27.8272 158.101 27.7402 152.797V152.671C27.7185 151.579 27.7054 150.456 27.701 149.316C27.701 149.159 27.701 149.003 27.701 148.846L47.2822 148.898L47.2561 149.512L47.1081 152.671V153.002C47.1081 153.002 58.5479 158.328 59.7271 159.255C60.9063 160.181 61.7505 163.227 60.6974 163.549Z" fill="#EBEBEB"/>
<path d="M60.7018 163.549C60.1579 163.723 51.9991 163.706 44.0143 163.549C42.4087 163.519 40.816 163.48 39.2931 163.441C33.6058 163.284 28.902 163.049 28.4669 162.762C28.0317 162.475 27.8359 158.232 27.7489 153.028C27.7489 152.954 27.7489 152.88 27.7489 152.806C27.7489 152.732 27.7489 152.693 27.7489 152.636L47.1081 152.671V153.002C47.1081 153.002 58.5522 158.328 59.7271 159.25C60.9019 160.173 61.7505 163.227 60.7018 163.549Z" fill="#37474F"/>
<path d="M60.3711 162.396C55.3105 162.205 34.8677 161.918 29.8506 162.113C29.8071 162.113 29.8071 162.144 29.8506 162.144C34.8634 162.444 55.3061 162.579 60.3711 162.479C60.4799 162.475 60.4799 162.401 60.3711 162.396Z" fill="#263238"/>
<path d="M49.2838 152.767C47.2953 152.371 44.8542 152.645 43.3138 154.046C43.2529 154.098 43.3138 154.185 43.3965 154.163C45.313 153.575 47.2865 153.192 49.2838 153.019C49.3173 153.019 49.3494 153.006 49.3731 152.982C49.3967 152.958 49.41 152.926 49.41 152.893C49.41 152.859 49.3967 152.827 49.3731 152.804C49.3494 152.78 49.3173 152.767 49.2838 152.767Z" fill="#263238"/>
<path d="M50.711 153.654C48.7224 153.254 46.2813 153.533 44.7409 154.929C44.68 154.986 44.7409 155.069 44.8236 155.051C46.7363 154.459 48.7073 154.076 50.7023 153.907C50.7357 153.908 50.7683 153.896 50.7928 153.873C50.8172 153.85 50.8317 153.818 50.8328 153.785C50.834 153.751 50.8218 153.719 50.7989 153.694C50.7761 153.67 50.7444 153.656 50.711 153.654Z" fill="#263238"/>
<path d="M52.1383 154.538C50.1498 154.142 47.7086 154.416 46.1683 155.817C46.1073 155.869 46.1683 155.956 46.2509 155.934C48.1647 155.347 50.1352 154.963 52.1296 154.79C52.1631 154.791 52.1957 154.779 52.2201 154.756C52.2446 154.733 52.259 154.702 52.2602 154.668C52.2613 154.635 52.2491 154.602 52.2263 154.578C52.2034 154.553 52.1718 154.539 52.1383 154.538Z" fill="#263238"/>
<path d="M44.0143 163.549C42.4087 163.519 40.816 163.48 39.2931 163.441C33.6058 163.284 28.902 163.049 28.4669 162.762C28.0317 162.475 27.8359 158.232 27.7489 153.028C27.7489 152.954 27.7489 152.88 27.7489 152.806C27.7489 152.732 27.7489 152.693 27.7489 152.636C30.4163 154.507 39.763 160.73 44.0143 163.549Z" fill="#263238"/>
<path d="M48.444 152.754H26.8047C26.8047 152.754 31.1648 102.195 31.0081 101.325C30.7905 100.194 29.5112 95.0763 27.8099 88.3926C27.279 86.304 26.7046 84.0413 26.1085 81.735C24.4941 75.4473 22.7144 68.5722 21.1653 62.589C18.8417 53.6296 17.0228 46.6717 17.0228 46.6717H35.3595C35.3595 46.6717 37.496 53.4468 40.1895 62.2627C44.58 76.5917 50.4456 96.3078 51.0244 101.103C51.9512 108.853 48.444 152.754 48.444 152.754Z" fill="#263238"/>
<path d="M47.4866 149.059C44.1839 148.99 45.1325 148.964 41.8298 148.933C40.2111 148.933 29.5851 148.824 28.0708 149.072C28.0404 149.072 28.0404 149.138 28.0708 149.142C29.5851 149.39 40.2111 149.299 41.8298 149.286C45.1369 149.251 44.1883 149.225 47.4866 149.155C47.4993 149.155 47.5115 149.15 47.5204 149.141C47.5294 149.132 47.5345 149.12 47.5345 149.107C47.5345 149.094 47.5294 149.082 47.5204 149.073C47.5115 149.064 47.4993 149.059 47.4866 149.059Z" fill="#37474F"/>
<path d="M35.0636 98.2398C34.3544 95.1111 33.297 92.0434 32.3745 88.9757C30.5005 82.7359 28.6149 76.4989 26.7177 70.2648C25.7691 67.1464 24.8176 64.0308 23.8632 60.9181C23.3759 59.3473 22.8929 57.7721 22.4012 56.2056C21.9094 54.6391 21.3742 53.1596 20.9391 51.5975C20.7607 50.9666 20.665 51.3103 20.8912 52.111C21.3264 53.7253 21.7963 55.3397 22.2706 56.9497C23.2018 60.1407 24.1388 63.3317 25.0816 66.5227C26.9585 72.8583 28.8441 79.1924 30.7384 85.5251C31.6928 88.7016 32.6472 91.8766 33.6016 95.0502C34.085 96.5596 34.4759 98.097 34.7721 99.654C35.0272 101.284 35.0915 102.939 34.9635 104.584C34.7547 107.895 34.3718 111.198 34.0672 114.505C33.7626 117.812 33.4536 121.124 33.149 124.435C32.5369 131.017 31.9321 137.604 31.3345 144.195C31.2605 145.03 31.1866 145.865 31.1213 146.701C31.0995 146.984 31.2997 147.014 31.3258 146.749C32.0394 140.222 32.814 133.642 33.4232 127.12C34.0323 120.597 34.6415 114.135 35.2464 107.643C35.3987 106.016 35.5727 104.384 35.5727 102.743C35.5756 101.228 35.4048 99.7166 35.0636 98.2398Z" fill="#37474F"/>
<path d="M33.2665 46.6804C31.9959 56.5319 29.5678 74.9991 27.7968 88.3969C23.663 72.162 17.0098 46.6804 17.0098 46.6804H33.2665Z" fill="#37474F"/>
<path d="M37.7744 163.854C36.7214 164.198 6.6709 163.919 5.53519 163.18C5.10005 162.905 4.88684 158.528 4.77805 153.228V153.058C4.75194 151.966 4.73454 150.843 4.72584 149.703C4.72584 149.547 4.72584 149.39 4.72584 149.233C4.65622 141.584 5.20448 133.642 5.20448 133.642L24.8465 133.773L24.2983 149.216V149.83L24.1895 153.023V153.354C24.1895 153.354 35.6423 158.606 36.8084 159.546C37.9746 160.486 38.8405 163.515 37.7744 163.854Z" fill="#AD6359"/>
<path d="M37.7744 163.854C36.7214 164.198 6.67089 163.919 5.53518 163.179C5.10005 162.905 4.88683 158.528 4.77804 153.228V153.058C4.75194 151.966 4.73453 150.843 4.72583 149.703C4.72583 149.547 4.72583 149.39 4.72583 149.233H24.307V149.847L24.1982 153.041V153.372C24.1982 153.372 35.651 158.624 36.8171 159.564C37.9833 160.503 38.8405 163.515 37.7744 163.854Z" fill="#EBEBEB"/>
<path d="M37.7745 163.854C36.7214 164.198 6.67092 163.919 5.53522 163.18C5.10008 162.905 4.88686 158.528 4.77808 153.228V153.058L24.1634 153.023V153.354C24.1634 153.354 35.6162 158.606 36.7823 159.546C37.9485 160.486 38.8405 163.515 37.7745 163.854Z" fill="#37474F"/>
<path d="M37.4437 162.679C32.3787 162.505 11.9404 162.292 6.9189 162.505C6.87974 162.505 6.87974 162.535 6.9189 162.54C11.936 162.818 32.3787 162.866 37.4437 162.762C37.5351 162.766 37.5351 162.679 37.4437 162.679Z" fill="#263238"/>
<path d="M26.3216 153.106C24.333 152.719 21.8919 153.002 20.3559 154.412C20.295 154.464 20.3559 154.551 20.4386 154.529C22.3481 153.932 24.3159 153.541 26.3086 153.363C26.3426 153.365 26.3759 153.353 26.4012 153.33C26.4265 153.307 26.4417 153.275 26.4434 153.241C26.4452 153.207 26.4333 153.174 26.4105 153.148C26.3876 153.123 26.3557 153.108 26.3216 153.106Z" fill="#263238"/>
<path d="M27.7532 153.976C25.7602 153.585 23.3191 153.868 21.7831 155.282C21.7265 155.338 21.7831 155.421 21.8701 155.404C23.7791 154.805 25.7472 154.414 27.7401 154.237C27.7747 154.239 27.8086 154.227 27.8343 154.204C27.86 154.181 27.8754 154.148 27.8772 154.113C27.8789 154.079 27.8668 154.045 27.8436 154.019C27.8203 153.993 27.7878 153.978 27.7532 153.976Z" fill="#263238"/>
<path d="M29.1805 154.847C27.1919 154.455 24.7508 154.742 23.2148 156.152C23.1539 156.204 23.2148 156.287 23.2975 156.27C25.2084 155.673 27.1777 155.282 29.1718 155.103C29.2058 155.105 29.239 155.092 29.2638 155.069C29.2887 155.046 29.3034 155.013 29.3045 154.979C29.3057 154.945 29.2932 154.912 29.27 154.887C29.2467 154.862 29.2145 154.848 29.1805 154.847Z" fill="#263238"/>
<path d="M34.7589 46.6804C34.7589 46.6804 34.3238 55.4571 32.3265 62.4062C32.1655 62.9806 31.9915 63.5463 31.8043 64.0859C29.9633 64.8304 28.1937 65.7407 26.5174 66.8055C26.5174 66.8055 26.3042 73.8634 26.0823 81.7393C25.8473 90.5378 25.6036 100.359 25.6472 102.439C25.8343 110.232 24.6725 153.071 24.6725 153.071L3.03748 153.158C3.03748 153.158 6.9537 105.315 6.92324 102.465C6.87973 97.8742 7.97192 77.6012 8.81174 62.8153C9.10942 57.3964 9.78552 52.005 10.8351 46.6804H34.7589Z" fill="#263238"/>
<path d="M23.9501 149.22C20.6431 149.164 21.596 149.133 18.2933 149.116C16.6746 149.116 6.04424 149.059 4.53432 149.316C4.50386 149.316 4.50386 149.381 4.53432 149.386C6.04859 149.629 16.679 149.49 18.2933 149.468C21.6004 149.425 20.6518 149.399 23.9501 149.316C23.9628 149.316 23.975 149.311 23.9839 149.302C23.9929 149.293 23.998 149.281 23.998 149.268C23.998 149.255 23.9929 149.243 23.9839 149.234C23.975 149.225 23.9628 149.22 23.9501 149.22Z" fill="#37474F"/>
<path d="M11.5836 49.8178C11.1876 61.8885 10.7655 73.9591 10.2259 86.0255C9.68637 98.0918 6.84057 141.466 6.11389 148.198C6.11389 148.241 6.17916 148.259 6.18351 148.198C7.75871 136.227 8.63768 118.504 9.41223 106.455C10.1868 94.4062 10.7176 82.3399 11.1223 70.2735C11.3529 63.4462 11.5313 56.619 11.7359 49.796C11.7402 49.709 11.5879 49.7177 11.5836 49.8178Z" fill="#37474F"/>
<path d="M32.7008 63.5637C30.5492 64.4622 28.4803 65.5469 26.5175 66.8055C26.5008 66.8141 26.4882 66.8291 26.4825 66.847C26.4768 66.865 26.4784 66.8845 26.4871 66.9012C26.4957 66.9179 26.5107 66.9306 26.5286 66.9363C26.5466 66.942 26.5661 66.9403 26.5828 66.9317C28.6671 65.9178 30.7993 64.9431 32.827 63.8117C32.8584 63.7942 32.8819 63.7652 32.8924 63.7307C32.9028 63.6963 32.8996 63.6591 32.8833 63.627C32.8669 63.5949 32.8388 63.5704 32.8048 63.5586C32.7708 63.5468 32.7335 63.5486 32.7008 63.5637Z" fill="#37474F"/>
<path d="M32.8225 56.1186C32.6789 56.8888 32.4918 57.6502 32.3265 58.4161C32.1611 59.1819 32.0567 59.8651 31.8696 60.5918C31.7125 61.2768 31.3639 61.9031 30.8644 62.3976C30.5816 62.6587 30.2726 62.8893 29.9941 63.133C29.8331 63.2591 29.6547 63.3853 29.4894 63.5159C29.4894 63.4114 29.5285 63.3114 29.5459 63.2069C29.5982 62.9154 29.646 62.6238 29.6939 62.3367C29.8027 61.6883 29.9071 61.0313 30.0072 60.3873C30.203 59.1123 30.3814 57.8243 30.6468 56.5624C30.6497 56.552 30.6484 56.5409 30.6431 56.5315C30.6378 56.5221 30.6289 56.5152 30.6185 56.5124C30.6082 56.5095 30.5971 56.5108 30.5877 56.5161C30.5783 56.5214 30.5714 56.5303 30.5685 56.5406C30.2509 57.7938 29.8984 59.0296 29.6243 60.2915C29.4894 60.9138 29.002 63.9684 28.9803 64.186C28.9585 64.4036 28.9411 64.6211 28.9324 64.8561C28.9021 65.0843 28.9021 65.3154 28.9324 65.5436C28.9324 65.6002 29.0107 65.5915 29.0368 65.5436C29.1268 65.3301 29.1911 65.1066 29.2283 64.8779C29.2849 64.6603 29.3327 64.4427 29.3719 64.2165C29.3719 64.1381 29.398 64.0555 29.411 63.9728C29.7113 63.79 29.9898 63.5376 30.2813 63.3418C30.5729 63.146 30.8949 62.9067 31.182 62.6674C31.7124 62.2198 32.0948 61.6221 32.2786 60.9529C32.4631 60.2398 32.584 59.5117 32.6398 58.7772C32.7355 57.907 32.8095 57.0367 32.9269 56.1664C32.9095 56.0707 32.8312 56.0707 32.8225 56.1186Z" fill="#37474F"/>
<path d="M38.2706 56.1882C37.5178 56.8322 9.05989 57.7329 8.925 57.5197C8.79011 57.3065 12.8412 24.9193 23.7806 19.4888C26.1999 18.2878 29.9638 19.4888 30.486 20.1807C34.8548 25.8548 38.7449 55.7835 38.2706 56.1882Z" fill="#00BFBA"/>
<path d="M27.2833 26.142L28.4625 23.7661L30.4859 25.8243L29.9899 27.604L28.1405 27.8173L27.2833 26.142Z" fill="#263238"/>
<path d="M28.1405 27.8173L26.9613 48.5602L29.3415 55.1438L32.1133 48.2774L29.9899 27.6041L28.1405 27.8173Z" fill="#263238"/>
<path d="M23.1147 18.9796C24.0896 24.3641 24.7319 29.8034 25.038 35.2668C25.8865 56.0881 24.3113 93.0399 23.7326 95.7508C23.3976 97.2955 5.47864 94.5193 5.47864 94.5193C5.47864 94.5193 7.11475 51.876 13.0761 35.1189C18.6067 19.5758 23.1147 18.9796 23.1147 18.9796Z" fill="#EBEBEB"/>
<path d="M9.49057 70.4302C9.38614 73.7242 9.53844 77.4533 10.239 78.1408C11.5444 79.4245 15.0255 79.3157 16.1438 79.307C17.2621 79.2983 21.1566 79.307 22.0747 77.2749C22.4837 76.3829 22.5882 71.7835 22.5795 70.1561C22.5795 69.4947 22.4228 66.2398 22.375 65.8787C22.375 65.7917 22.1313 65.8047 22.1226 65.8787C22.066 66.2486 22.1226 67.6192 22.0834 67.8542C15.7783 68.6679 11.8795 67.9891 9.85608 67.5975C9.85608 66.9926 9.85608 66.5183 9.85608 65.9091C11.8273 66.2715 13.8263 66.4608 15.8305 66.4748C18.0126 66.4296 20.1911 66.2742 22.3575 66.0092C22.4098 66.0092 22.3575 65.7612 22.2966 65.7612C21.4742 65.7612 18.6284 66.0527 15.7696 66.0527C13.7182 66.0144 11.671 65.8546 9.63851 65.5741C9.53843 65.5915 9.53843 68.8594 9.49057 70.4302ZM10.6219 77.7623C9.9257 76.966 9.83868 74.6641 9.83868 73.2891C9.83868 71.3919 9.83868 69.8776 9.83868 67.9847C14.6948 69.1118 20.0339 68.5591 22.0617 68.1457C22.0617 68.2284 22.0965 72.2273 22.0617 73.5023C22.0138 75.1253 21.9616 76.6004 21.335 77.4446C20.7998 78.1669 19.2898 78.898 15.8174 78.8936C13.3198 78.8936 11.2007 78.4367 10.6219 77.7666V77.7623Z" fill="#A6A6A6"/>
<path d="M30.1378 19.9022C30.1378 19.9022 33.5928 35.232 34.0932 37.7123C34.5936 40.1926 38.4446 91.7519 39.3148 93.5925C39.6194 94.2191 49.323 91.4168 49.323 91.4168C49.323 91.4168 33.9409 28.322 32.8966 25.2761C31.1082 20.0283 30.1378 19.9022 30.1378 19.9022Z" fill="#EBEBEB"/>
<path d="M30.4685 21.3425C31.1864 23.5878 33.9191 31.4724 35.3289 37.0988C36.2732 40.8714 36.5299 44.0087 36.7344 44.8442C36.7344 44.8442 28.0926 41.4849 26.1084 41.3631C23.0625 41.1716 17.7712 47.2592 18.9243 48.1338C20.7388 49.5001 29.4938 54.3302 36.6082 56.0707C40.4766 57.0367 48.1437 52.5069 47.8 48.5167C47.3126 42.9209 38.1617 27.6998 34.5979 23.3267C32.7486 21.0727 29.5982 18.6055 30.4685 21.3425Z" fill="#AD6359"/>
<path d="M48.2655 49.7395C47.8304 53.7253 42.6435 56.7887 39.7325 56.793C34.7154 56.793 19.9773 51.5322 19.9773 51.5322L26.4782 40.6538C26.4782 40.6538 36.4864 44.731 36.73 44.8442C36.6604 44.5439 34.711 34.9448 33.7711 31.7422C33.7233 31.5682 33.6623 31.3854 33.6101 31.1983C33.3403 30.328 32.9618 29.1401 32.5484 27.8695C32.3178 27.1689 32.0697 26.4379 31.8304 25.6938C30.7817 22.5608 29.7548 19.5758 29.7548 19.5758C31.4562 19.9587 33.0967 20.9639 35.7075 24.0534C38.3183 27.1428 48.9617 43.1645 48.2655 49.7395Z" fill="#EBEBEB"/>
<path d="M24.0112 49.3348C24.4768 48.5646 24.9467 47.7987 25.4079 47.0285C25.8692 46.2584 26.3261 45.5273 26.7917 44.7789C27.2908 44.0134 27.7512 43.2234 28.1711 42.4117C28.1711 42.4117 28.1711 42.3856 28.145 42.4117C27.594 43.0865 27.0868 43.7958 26.6263 44.5352C26.1361 45.2865 25.6516 46.0437 25.173 46.8066C24.703 47.5551 24.2505 48.3078 23.8023 49.0693C23.321 49.8478 22.8949 50.6592 22.5273 51.4974C22.5273 51.5279 22.5578 51.567 22.5839 51.5322C23.1001 50.8268 23.5766 50.0932 24.0112 49.3348Z" fill="#263238"/>
<path d="M41.1337 56.5972C40.3092 56.8427 39.435 56.8697 38.5969 56.6755C38.1139 56.6059 35.986 56.2012 35.7337 56.2099C35.6901 56.2099 35.6945 56.297 35.7337 56.3013C36.0948 56.3753 38.2705 56.8583 38.8188 56.9497C39.6194 57.0889 40.481 57.1759 41.1468 56.6233L41.1337 56.5972Z" fill="#263238"/>
<path d="M39.7544 46.6804L36.7345 44.8442C36.6649 44.5439 34.7155 34.9448 33.7756 31.7422C33.7277 31.5682 33.6668 31.3854 33.6146 31.1983C33.3448 30.328 32.9662 29.1401 32.5529 27.8695L39.7544 46.6804Z" fill="#A6A6A6"/>
<path d="M42.2519 48.2078C41.4228 47.5125 40.5508 46.8701 39.6411 46.2845C39.2059 45.9929 38.7229 45.7188 38.2443 45.4708C37.7656 45.2227 37.1869 45.0008 36.6821 44.7354C36.643 44.7354 36.6125 44.7745 36.6473 44.7963C37.1216 45.0443 37.5655 45.3794 38.0224 45.6666C38.4792 45.9538 38.9666 46.254 39.4453 46.5368C40.3895 47.0938 41.312 47.6813 42.2432 48.2469C42.2475 48.26 42.2736 48.2382 42.2519 48.2078Z" fill="#263238"/>
<path d="M39.3234 45.9886C38.5402 45.9494 33.893 44.409 33.1663 45.0139C28.7409 48.7125 27.4616 47.8379 26.5391 48.2992C19.3986 51.8629 9.89519 55.9793 6.6012 55.8096C1.60584 55.5529 -0.130356 51.245 0.944431 47.3375C3.05484 39.6095 14.5207 24.9802 19.5378 21.2293C22.1965 19.2364 21.8049 22.4608 20.5473 25.9157C19.8076 27.9435 18.55 30.9459 17.2751 33.8918C16.1437 36.5026 13.1631 43.2168 13.1065 43.3778C13.1065 43.3778 13.1065 43.3778 13.1631 43.3778C13.385 43.3517 19.4551 40.9192 25.4861 39.7444C27.6096 39.3092 32.0132 38.8262 33.5361 39.6138C34.4412 40.0881 34.4064 40.6408 34.4064 40.6408C34.9706 40.6732 35.5033 40.9116 35.9033 41.3109C36.2077 41.6045 36.422 41.9789 36.5212 42.39C36.9803 42.4844 37.4003 42.7148 37.7265 43.0514C38.0059 43.3899 38.1745 43.8062 38.2095 44.2437C39.2756 44.6179 39.3234 45.9886 39.3234 45.9886Z" fill="#AD6359"/>
<path d="M32.6572 40.4058C32.0305 40.3876 31.4034 40.4196 30.7818 40.5015C30.7383 40.5015 30.7383 40.5755 30.7818 40.5711C31.3953 40.5407 32.0089 40.5711 32.6224 40.5711C33.236 40.5711 33.8451 40.6103 34.4543 40.6582C33.8646 40.5176 33.2629 40.4331 32.6572 40.4058Z" fill="#263238"/>
<path d="M36.5082 42.3682C35.4628 41.9639 34.3406 41.7975 33.2229 41.8809C33.2162 41.8834 33.2105 41.8878 33.2064 41.8937C33.2024 41.8995 33.2002 41.9064 33.2002 41.9135C33.2002 41.9206 33.2024 41.9276 33.2064 41.9334C33.2105 41.9392 33.2162 41.9437 33.2229 41.9462C34.3306 41.951 35.4331 42.0972 36.5038 42.3813C36.5038 42.3813 36.5169 42.3726 36.5082 42.3682Z" fill="#263238"/>
<path d="M38.1966 44.2219C37.2362 43.7446 36.1835 43.4818 35.1114 43.4517C35.0679 43.4517 35.0505 43.5083 35.1114 43.517C36.1598 43.6778 37.192 43.9296 38.1966 44.2698C38.2053 44.2785 38.2227 44.235 38.1966 44.2219Z" fill="#263238"/>
<path d="M25.1772 39.814C24.6506 39.8673 24.1275 39.9516 23.6107 40.0663C23.0625 40.1664 22.5142 40.2839 21.9746 40.4275C20.8973 40.7165 19.8368 41.0652 18.7981 41.4718C18.7929 41.4699 18.7872 41.4692 18.7816 41.4699C18.7761 41.4706 18.7708 41.4727 18.7662 41.4759C18.7615 41.4791 18.7578 41.4834 18.7552 41.4884C18.7526 41.4933 18.7512 41.4989 18.7512 41.5045C18.7512 41.5101 18.7526 41.5156 18.7552 41.5206C18.7578 41.5256 18.7615 41.5298 18.7662 41.5331C18.7708 41.5363 18.7761 41.5383 18.7816 41.539C18.7872 41.5397 18.7929 41.5391 18.7981 41.5371C19.8555 41.2369 20.9173 40.9584 21.9833 40.6929C22.5055 40.5624 23.0277 40.4188 23.5498 40.2839C24.072 40.149 24.642 40.0446 25.1685 39.8792C25.2208 39.8705 25.2164 39.8096 25.1772 39.814Z" fill="#263238"/>
<path d="M20.9999 40.6886C21.521 40.521 22.0629 40.4273 22.6099 40.4101L28.1927 51.2885C28.1927 51.2885 10.7133 56.4275 7.17565 56.5754C6.21957 56.5968 5.26921 56.4226 4.38289 56.0634C3.49657 55.7043 2.69299 55.1678 2.02147 54.4869C1.34995 53.806 0.824668 52.9951 0.477844 52.1039C0.13102 51.2127 -0.0300236 50.26 0.00460251 49.3043C0.28309 43.0992 11.2833 28.8137 16.7138 23.3571C19.2028 20.8594 22.0356 19.1058 22.7013 19.5801C23.4889 20.1371 21.8049 23.3658 20.8737 25.7939C19.1332 30.2801 13.1675 43.4082 13.1675 43.4082C13.1675 43.4082 19.651 41.0497 20.9999 40.6886Z" fill="#EBEBEB"/>
<path d="M22.5316 40.4058C21.5656 40.4058 17.31 41.6068 15.2126 42.3639C13.1214 43.1062 11.105 44.0445 9.19033 45.1662C8.10684 45.8058 7.07556 46.5108 6.05299 47.2418C6.01818 47.2679 6.05299 47.3245 6.0878 47.3027C9.8707 45.0044 13.8898 43.1195 18.0758 41.6807C19.2724 41.2935 21.3176 40.7321 22.475 40.5015C22.8014 40.4275 22.5621 40.4058 22.5316 40.4058Z" fill="#263238"/>
<path d="M18.9766 30.9764C18.6894 31.3811 18.4022 31.7857 18.1542 32.2122L18.1194 32.2731C18.511 31.2897 18.8867 30.2976 19.2464 29.2968C19.2681 29.2358 19.168 29.1967 19.1376 29.2576C17.4449 32.8953 15.8567 36.5809 14.3076 40.2839C13.8724 41.3152 13.4852 42.3639 13.0848 43.4126C13.0848 43.4474 13.1284 43.4691 13.1458 43.4387C13.6026 42.5467 14.0682 41.659 14.4903 40.7539C14.9124 39.8488 15.3171 38.922 15.7218 38.0038C16.4267 36.3996 17.1069 34.7838 17.7626 33.1564C17.954 32.8779 18.1455 32.5994 18.3282 32.3122C18.5937 31.8771 18.8199 31.442 19.0462 31.0068C19.0723 30.9677 19.007 30.9372 18.9766 30.9764Z" fill="#263238"/>
<path d="M24.146 48.7386C23.7369 47.938 23.3366 47.1373 22.9276 46.3323C22.5186 45.5273 22.1356 44.7615 21.744 43.9739C21.3607 43.1448 20.9351 42.3358 20.4691 41.5502C20.4691 41.5502 20.4343 41.5502 20.4386 41.5502C20.7196 42.3746 21.0539 43.1798 21.4394 43.9609C21.818 44.7789 22.2096 45.5883 22.6012 46.3976C22.9929 47.207 23.3888 47.9728 23.7979 48.7561C24.2053 49.5762 24.6691 50.3672 25.1859 51.1232C25.1909 51.1294 25.1979 51.1338 25.2057 51.1355C25.2135 51.1372 25.2216 51.1362 25.2287 51.1326C25.2359 51.1291 25.2416 51.1232 25.2449 51.1159C25.2482 51.1086 25.2489 51.1005 25.2469 51.0927C24.9222 50.289 24.5547 49.5031 24.146 48.7386Z" fill="#263238"/>
<path d="M28.419 51.3103C27.9839 50.2616 27.2224 49.2173 26.6785 48.2165C26.6785 48.1773 26.6002 48.2165 26.6219 48.2513C27.1049 49.1912 27.54 50.1963 28.0013 51.1493C25.5906 51.9804 23.0451 52.694 20.604 53.4033C18.1629 54.1126 15.5694 54.8044 13.0152 55.3788C11.5879 55.7008 10.1563 56.0533 8.7204 56.3405C8.63337 56.3405 8.65078 56.4318 8.74216 56.4188C11.308 56.0591 13.8496 55.5432 16.3527 54.8741C18.9069 54.23 21.4351 53.4903 23.9545 52.6984C25.3731 52.2806 28.4582 51.3973 28.419 51.3103Z" fill="#263238"/>
<path d="M29.0761 23.3702C28.5974 23.566 24.9205 22.935 23.5585 21.0161C23.4672 20.8855 23.5063 19.3887 23.4672 17.5655C23.4367 16.4602 23.3801 15.2288 23.2452 14.1105L30.4685 14.9807C30.2331 16.426 30.1776 17.8949 30.3031 19.3539C30.3243 19.5015 30.3578 19.647 30.4032 19.789C30.4032 19.8108 30.4032 19.8369 30.4032 19.8673C30.6687 20.7376 30.0377 22.9742 29.0761 23.3702Z" fill="#AD6359"/>
<path d="M30.4032 19.8064C30.4032 19.8282 30.4032 19.8543 30.4032 19.8847C25.7821 20.755 23.985 15.8119 23.515 14.1453L30.4511 14.9808C30.2156 16.426 30.1586 17.8947 30.2814 19.3539C30.3107 19.5075 30.3514 19.6588 30.4032 19.8064Z" fill="#263238"/>
<path d="M21.0914 4.20676C20.3212 6.7088 21.631 13.9495 23.4063 15.5682C25.9867 17.9136 30.2162 18.1442 32.2091 15.046C34.1411 12.0392 32.2701 2.63157 30.2858 1.16081C27.3574 -1.00182 22.2271 0.508104 21.0914 4.20676Z" fill="#AD6359"/>
<path d="M27.2484 8.69304C27.2484 8.67128 27.2136 8.71915 27.2179 8.7409C27.318 9.22826 27.3528 9.79829 26.9395 10.0463C26.9395 10.0463 26.9395 10.0811 26.9395 10.0724C27.4747 9.89401 27.4225 9.13688 27.2484 8.69304Z" fill="#263238"/>
<path d="M26.7219 8.25792C25.9256 8.33625 26.1432 9.92014 26.8786 9.85052C27.614 9.7809 27.3877 8.20571 26.7219 8.25792Z" fill="#263238"/>
<path d="M30.103 8.38409C30.103 8.38409 30.1422 8.38409 30.1465 8.42325C30.1944 8.91931 30.338 9.47193 30.8036 9.57637V9.60247C30.2509 9.60247 30.0725 8.86274 30.103 8.38409Z" fill="#263238"/>
<path d="M30.4686 7.81405C31.2518 7.6487 31.5303 9.2239 30.8036 9.3762C30.0769 9.52849 29.8159 7.9533 30.4686 7.81405Z" fill="#263238"/>
<path d="M25.9997 7.61828C26.1997 7.52956 26.3943 7.42931 26.5827 7.31803C26.8057 7.23656 26.9954 7.08355 27.1223 6.8829C27.1503 6.81343 27.1547 6.73673 27.1351 6.66447C27.1155 6.59222 27.0728 6.52834 27.0135 6.48257C26.8823 6.41136 26.7343 6.37662 26.5851 6.38198C26.4359 6.38733 26.2908 6.43259 26.165 6.51303C25.8831 6.63407 25.6566 6.85597 25.5297 7.13528C25.4992 7.20155 25.4896 7.27549 25.5019 7.34737C25.5143 7.41924 25.5482 7.48569 25.599 7.53797C25.6499 7.59024 25.7154 7.62589 25.7869 7.64023C25.8584 7.65456 25.9326 7.64691 25.9997 7.61828Z" fill="#A6A6A6"/>
<path d="M30.9732 6.93074C30.7558 6.91752 30.5393 6.89136 30.3249 6.85242C30.0906 6.85911 29.8608 6.78711 29.6722 6.6479C29.6161 6.59105 29.5819 6.51626 29.5755 6.43667C29.5692 6.35709 29.5911 6.27781 29.6374 6.21277C29.7362 6.10147 29.8628 6.0183 30.0041 5.97169C30.1455 5.92507 30.2967 5.91667 30.4424 5.94733C30.7488 5.96172 31.0383 6.09244 31.2517 6.31285C31.3071 6.36358 31.345 6.43049 31.3601 6.50405C31.3753 6.5776 31.3668 6.65405 31.3359 6.72251C31.3051 6.79097 31.2534 6.84795 31.1883 6.88534C31.1232 6.92272 31.0479 6.93861 30.9732 6.93074Z" fill="#A6A6A6"/>
<path d="M27.7271 11.7694C27.8776 11.9477 28.0638 12.0924 28.2737 12.1943C28.4835 12.2962 28.7123 12.3531 28.9455 12.3612C29.1486 12.3722 29.3521 12.3546 29.5503 12.309C29.5891 12.3035 29.6271 12.2932 29.6635 12.2785L29.7679 12.2481C29.7935 12.2397 29.8158 12.2234 29.8314 12.2015C29.8471 12.1795 29.8553 12.1532 29.8549 12.1262C29.857 12.1103 29.857 12.0943 29.8549 12.0784V12.0349C29.8158 11.6563 29.6983 11.0863 29.6983 11.0863C29.8462 11.1341 30.5947 11.356 30.5686 11.1602C30.2935 9.46173 29.8473 7.79539 29.237 6.18662C29.2325 6.17584 29.2242 6.1671 29.2136 6.16205C29.2031 6.15699 29.191 6.15598 29.1798 6.15919C29.1685 6.1624 29.1588 6.16963 29.1526 6.17949C29.1463 6.18936 29.1438 6.20118 29.1457 6.21273C29.3937 7.78357 29.9115 9.3022 30.1856 10.8774C29.9193 10.7937 29.6424 10.7483 29.3632 10.7425C29.311 10.7425 29.6025 11.839 29.6069 12.0131C29.3018 12.0866 28.9851 12.0978 28.6756 12.0463C28.3661 11.9947 28.0702 11.8813 27.8054 11.7129C27.7271 11.6867 27.6923 11.7346 27.7271 11.7694Z" fill="#263238"/>
<path d="M29.3024 12.148C29.1313 12.4452 28.8872 12.6938 28.5931 12.8703C28.4281 12.9594 28.2402 12.9972 28.0536 12.9791C27.6489 12.9269 27.588 12.5701 27.6184 12.2524C27.6374 12.0834 27.6753 11.917 27.7316 11.7564C28.2004 12.0501 28.7505 12.1872 29.3024 12.148Z" fill="#263238"/>
<path d="M28.5931 12.8703C28.4281 12.9594 28.2402 12.9972 28.0536 12.9791C27.6489 12.9269 27.588 12.5701 27.6184 12.2524C27.8267 12.2308 28.0362 12.2801 28.213 12.3922C28.3899 12.5043 28.5238 12.6727 28.5931 12.8703Z" fill="#EB9481"/>
<path d="M21.435 10.7904C22.8796 10.5554 23.4801 8.37974 23.5062 6.78714C23.5062 5.60792 23.0711 3.24513 24.2329 2.43578C25.3947 1.62642 26.7132 2.47929 28.123 2.21821C28.7191 2.10507 29.2413 1.45672 29.8853 1.45672C30.9253 1.45672 31.9696 4.259 31.9696 4.259C31.9696 4.259 31.6302 0.342773 27.9054 0.0381773C24.3156 -0.244661 21.7265 1.05204 21.0042 3.66286C20.0512 7.03952 21.435 10.7904 21.435 10.7904Z" fill="#A6A6A6"/>
<path d="M22.6274 10.1072C22.6274 10.1072 20.9478 7.79665 19.8947 8.40149C18.8417 9.00633 20.1384 12.3743 21.3916 12.8138C21.5486 12.8813 21.7176 12.9163 21.8885 12.9168C22.0594 12.9172 22.2286 12.8831 22.3859 12.8164C22.5433 12.7497 22.6855 12.6519 22.804 12.5288C22.9225 12.4057 23.0149 12.2599 23.0756 12.1001L22.6274 10.1072Z" fill="#AD6359"/>
<path d="M20.2906 9.35882C20.2689 9.35882 20.2689 9.38493 20.2906 9.38928C21.1609 9.72869 21.6439 10.5293 21.9833 11.3648C21.9305 11.2784 21.8597 11.2043 21.7757 11.1477C21.6918 11.0911 21.5966 11.0532 21.4966 11.0367C21.3967 11.0202 21.2944 11.0254 21.1966 11.052C21.0989 11.0786 21.0081 11.1259 20.9303 11.1907C20.9085 11.1907 20.9303 11.243 20.9564 11.2386C21.1101 11.1851 21.2767 11.1811 21.4327 11.2272C21.5888 11.2732 21.7266 11.367 21.8266 11.4953C21.9957 11.7084 22.1415 11.9389 22.2618 12.1829C22.3053 12.2612 22.4445 12.2177 22.4141 12.1263V12.1045C22.3836 10.9906 21.4872 9.44585 20.2906 9.35882Z" fill="#263238"/>
<path d="M30.2683 19.1189L28.6148 23.2919L23.4149 18.0441L21.9529 19.7412C21.9529 19.7412 27.057 28.0914 27.0875 27.7129L28.7845 24.1143L31.2778 26.6033L31.0472 20.3329L30.2683 19.1189Z" fill="#00BFBA"/>
<path d="M31.3388 23.4964C31.2649 22.4651 31.2213 21.4208 31.0995 20.3895C31.0995 20.3547 31.0386 20.3373 31.0299 20.3895C30.8297 21.3903 31.1256 25.3414 31.1256 26.29C31.0212 26.1812 28.815 24.1143 28.7933 24.1143C28.4278 24.6886 27.1789 27.3082 27.0919 27.5475C26.2869 26.2421 22.8624 20.99 21.9094 19.7368C21.8833 19.702 21.8267 19.7368 21.8485 19.7716C22.5621 21.1771 26.9831 28.074 27.044 28.0392C27.7042 26.8039 28.2983 25.5344 28.8237 24.2361C29.198 24.6712 31.4346 27.0384 31.4346 26.8861C31.465 25.8635 31.4084 24.532 31.3388 23.4964Z" fill="#263238"/>
<path d="M25.1511 39.8227C22.3778 40.3973 19.6381 41.1237 16.9444 41.9984L16.8269 42.0332C15.4258 42.4944 14.5511 42.8425 14.3466 42.8643L14.3031 42.8338C14.1792 42.7299 14.0416 42.6435 13.8941 42.5771C13.5155 42.4118 9.82555 41.7286 9.97785 40.5842C10.1301 39.4398 11.6444 39.6138 11.8663 39.6399C11.627 39.5747 9.63844 38.9829 10.3564 38.0169C10.8612 37.3294 12.8541 37.5513 13.0543 37.5817C12.8541 37.5034 11.0396 36.7898 11.7489 35.7977C12.2493 35.0884 14.4728 35.319 14.7252 35.3625C14.5207 35.2712 12.8889 34.897 13.7113 34.0571C14.2814 33.4697 18.4413 34.3487 20.2384 35.3887C22.9449 36.9247 25.1511 39.8227 25.1511 39.8227Z" fill="#AD6359"/>
<path d="M16.9445 41.9984L16.827 42.0332C15.3751 40.9345 13.7158 40.1411 11.9491 39.7009C11.8316 39.7009 11.8273 39.6138 11.9491 39.6269C13.8181 39.8863 15.562 40.7143 16.9445 41.9984Z" fill="#263238"/>
<path d="M13.1674 37.647C15.7782 38.3302 16.9401 38.9829 19.1244 40.5624C19.1308 40.5682 19.1392 40.5712 19.1477 40.5708C19.1563 40.5704 19.1644 40.5666 19.1701 40.5603C19.1759 40.5539 19.1789 40.5455 19.1785 40.537C19.1781 40.5284 19.1743 40.5203 19.168 40.5146C17.1402 38.8045 15.8696 37.9386 13.1935 37.5817C13.0586 37.5643 13.0325 37.6166 13.1674 37.647Z" fill="#263238"/>
<path d="M14.8036 35.4234C17.3012 36.2458 18.6023 36.9073 20.5474 38.6826C20.5952 38.7261 20.6561 38.6826 20.6126 38.6217C19.1419 36.8732 17.0904 35.713 14.834 35.3538C14.673 35.3234 14.6469 35.3712 14.8036 35.4234Z" fill="#263238"/>
</svg>
