<svg width="20" height="20" viewBox="0 0 20 20" fill="none" xmlns="http://www.w3.org/2000/svg">
<g opacity="0.5">
<path d="M0 0H20V20H0V0Z" fill="white" fill-opacity="0.01"/>
<path d="M18.3334 10C18.3334 5.39765 14.6024 1.66669 10 1.66669C5.39765 1.66669 1.66669 5.39765 1.66669 10C1.66669 14.6024 5.39765 18.3334 10 18.3334C12.0786 18.3334 13.9795 17.5723 15.4391 16.3137" stroke="#263238" stroke-width="2" stroke-linecap="round" stroke-linejoin="round"/>
<path d="M10 13.3334C11.841 13.3334 13.3334 11.841 13.3334 10C13.3334 8.15906 11.841 6.66669 10 6.66669C8.15906 6.66669 6.66669 8.15906 6.66669 10C6.66669 11.841 8.15906 13.3334 10 13.3334Z" stroke="#263238" stroke-width="2" stroke-linejoin="round"/>
<path d="M13.3333 10C13.3333 11.3807 14.4526 12.5 15.8333 12.5C17.214 12.5 18.3333 11.3807 18.3333 10" stroke="#263238" stroke-width="2" stroke-linecap="round" stroke-linejoin="round"/>
<path d="M13.3333 10.4167V6.66669" stroke="#263238" stroke-width="2" stroke-linecap="round" stroke-linejoin="round"/>
</g>
</svg>
