<svg width="40" height="79" viewBox="0 0 40 79" fill="none" xmlns="http://www.w3.org/2000/svg">
<path d="M16.257 66.095L15.8473 62.2968L20.2398 62.5843C20.2398 62.5843 20.172 64.6436 20.1123 65.8102C20.0743 66.4993 21.013 67.7771 21.013 67.7771C21.013 67.7771 18.9511 68.8623 17.8442 68.4879C16.7372 68.1135 16.1539 66.7462 16.1702 66.4504C16.1865 66.1547 16.257 66.095 16.257 66.095Z" fill="#FFA8A7"/>
<path d="M26.8379 72.023C26.9085 72.023 27.0251 72.7257 26.6535 73.0323C26.2248 73.3877 24.9578 73.9791 23.2676 73.8055C21.5773 73.6319 20.6576 73.1652 19.9766 72.6525C19.2957 72.1397 18.3352 71.4234 17.5702 71.2797C16.8593 71.1467 16.0861 70.8618 15.8555 70.6638C15.6249 70.4657 15.6412 69.565 15.6412 69.565L26.8379 72.023Z" fill="#263238"/>
<path d="M16.2571 66.0869C16.1969 66.0899 16.1394 66.1129 16.0937 66.1522C16.048 66.1915 16.0167 66.2449 16.0048 66.3039C15.9586 66.5508 15.9125 67.2752 15.8094 67.6849C15.6462 68.4026 15.6022 69.1423 15.6792 69.8743C15.7796 70.3328 16.9408 70.634 17.6814 70.8836C18.5478 71.2163 19.3612 71.6733 20.096 72.2401C20.8964 72.8315 22.573 73.4338 23.6718 73.4067C24.9714 73.3769 26.4283 72.9618 26.7539 72.3974C27.1581 71.7029 27.4484 70.8944 25.5059 70.1022C25.1396 69.9503 23.8455 69.272 23.406 69.017C22.2122 68.3468 21.3712 67.731 20.8069 66.521C20.761 66.3714 20.6652 66.2422 20.5355 66.1547C20.415 66.1098 20.2838 66.1013 20.1584 66.1303C19.5173 66.2058 18.8825 66.3282 18.2593 66.4966C17.988 66.6132 17.638 66.7516 17.6489 67.0582C17.656 67.1661 17.6827 67.2718 17.7275 67.3702C17.752 67.4326 17.7709 67.5139 17.7113 67.5519C17.6516 67.5899 17.581 67.5519 17.5295 67.5085C17.3333 67.3348 17.1518 67.1451 16.9869 66.9415C16.8951 66.8389 16.7913 66.7478 16.6776 66.6702C16.5627 66.6125 16.4513 66.5481 16.3439 66.4776C16.2408 66.3663 16.2652 66.2307 16.2571 66.0869Z" fill="#455A64"/>
<path d="M20.096 72.2374C19.7542 71.9878 19.3934 71.7463 19.0325 71.5292C19.0325 71.5292 21.3196 72.7664 22.2258 72.1722C22.8091 71.7897 22.5215 71.3393 22.4971 71.1955C22.4727 71.0518 24.5455 69.9937 25.1179 69.9204C25.278 70.0018 25.4136 70.0642 25.4977 70.0995C27.4403 70.8917 27.15 71.7002 26.7457 72.3947C26.4202 72.959 25.3675 73.4121 23.6881 73.4392C22.5975 73.4582 20.8937 72.8288 20.096 72.2374Z" fill="#37474F"/>
<path d="M22.3397 70.7777C23.5443 71.1983 23.0369 71.4153 22.7032 71.4641C22.3695 71.513 20.332 70.4603 19.0867 69.5786C17.7872 68.6616 16.9624 67.6496 16.4795 67.3132C16.3004 67.1857 16.1051 67.0419 15.9369 66.8872C15.964 66.6431 15.9857 66.4206 16.0074 66.3039C16.0194 66.2449 16.0507 66.1915 16.0964 66.1522C16.1421 66.1129 16.1995 66.0899 16.2597 66.0869C16.2597 66.2307 16.2435 66.3582 16.3601 66.4721C16.4676 66.5427 16.579 66.607 16.6938 66.6648C16.8075 66.7424 16.9114 66.8335 17.0031 66.9361C17.1681 67.1397 17.3496 67.3293 17.5457 67.5031C18.5984 68.7267 21.1324 70.3545 22.3397 70.7777Z" fill="#37474F"/>
<path d="M22.6137 71.3041C22.5865 71.3039 22.56 71.2954 22.5377 71.2796C22.5258 71.2711 22.5158 71.2602 22.5083 71.2476C22.5009 71.235 22.4961 71.221 22.4943 71.2065C22.4925 71.192 22.4938 71.1772 22.498 71.1632C22.5022 71.1491 22.5092 71.1362 22.5187 71.125C22.8524 70.737 24.4396 69.801 25.324 69.8743C25.3398 69.8739 25.3554 69.8769 25.3699 69.883C25.3844 69.8892 25.3975 69.8983 25.4082 69.9098C25.4189 69.9214 25.427 69.9351 25.432 69.95C25.4371 69.9649 25.4389 69.9807 25.4373 69.9964C25.4358 70.0121 25.4309 70.0273 25.4231 70.0409C25.4152 70.0546 25.4046 70.0664 25.3918 70.0756C25.379 70.0848 25.3645 70.0913 25.3491 70.0944C25.3336 70.0976 25.3177 70.0975 25.3023 70.094C24.4884 70.0262 22.9691 70.9541 22.7059 71.2607C22.6945 71.274 22.6804 71.2847 22.6645 71.2922C22.6486 71.2997 22.6313 71.3037 22.6137 71.3041Z" fill="#263238"/>
<path d="M21.5583 70.7262C21.5319 70.726 21.5063 70.7175 21.4851 70.7018C21.473 70.6937 21.4628 70.6832 21.4551 70.671C21.4474 70.6587 21.4424 70.645 21.4403 70.6307C21.4383 70.6163 21.4393 70.6017 21.4432 70.5878C21.4472 70.5739 21.4541 70.5609 21.4634 70.5498C21.7971 70.1592 23.3842 69.2232 24.2687 69.2991C24.2836 69.2994 24.2984 69.3028 24.312 69.3091C24.3256 69.3154 24.3378 69.3244 24.3477 69.3356C24.3576 69.3469 24.3651 69.36 24.3698 69.3743C24.3744 69.3885 24.376 69.4036 24.3745 69.4185C24.3704 69.4483 24.3547 69.4753 24.3308 69.4936C24.307 69.5119 24.2768 69.52 24.2469 69.5162C23.433 69.4511 21.9137 70.3762 21.6506 70.6855C21.6392 70.6988 21.625 70.7093 21.6091 70.7163C21.5931 70.7234 21.5758 70.7267 21.5583 70.7262Z" fill="#263238"/>
<path d="M20.503 70.1809C20.4766 70.1807 20.4509 70.1721 20.4297 70.1565C20.4178 70.1479 20.4078 70.137 20.4003 70.1244C20.3928 70.1119 20.388 70.0979 20.3863 70.0833C20.3845 70.0688 20.3857 70.054 20.3899 70.04C20.3941 70.026 20.4012 70.013 20.4107 70.0018C20.7417 69.6139 22.3288 68.6779 23.2133 68.7511C23.2282 68.7518 23.2427 68.7554 23.2561 68.7619C23.2696 68.7683 23.2816 68.7773 23.2914 68.7884C23.3013 68.7996 23.3088 68.8126 23.3136 68.8267C23.3183 68.8407 23.3202 68.8557 23.3191 68.8705C23.3174 68.8855 23.3128 68.9 23.3054 68.9132C23.2981 68.9264 23.2882 68.938 23.2764 68.9473C23.2645 68.9567 23.2509 68.9636 23.2363 68.9676C23.2218 68.9716 23.2066 68.9728 23.1916 68.9709C22.3777 68.903 20.8584 69.8309 20.5952 70.1375C20.584 70.1511 20.5699 70.162 20.5539 70.1695C20.538 70.177 20.5206 70.1809 20.503 70.1809Z" fill="#263238"/>
<path d="M19.5236 69.5515C19.4973 69.5536 19.4712 69.5459 19.4503 69.5298C19.4384 69.5212 19.4284 69.5103 19.4209 69.4977C19.4134 69.4852 19.4087 69.4711 19.4069 69.4566C19.4051 69.4421 19.4063 69.4273 19.4106 69.4133C19.4148 69.3993 19.4218 69.3863 19.4313 69.3751C19.7623 68.9871 21.3549 68.0511 22.2339 68.1244C22.2488 68.1251 22.2633 68.1287 22.2768 68.1352C22.2902 68.1416 22.3022 68.1506 22.312 68.1617C22.3219 68.1729 22.3294 68.1859 22.3342 68.2C22.3389 68.214 22.3408 68.2289 22.3397 68.2438C22.338 68.2588 22.3334 68.2733 22.3261 68.2865C22.3187 68.2997 22.3088 68.3113 22.297 68.3206C22.2851 68.33 22.2715 68.3369 22.2569 68.3409C22.2424 68.3449 22.2272 68.346 22.2122 68.3442C21.3983 68.2763 19.879 69.2015 19.6158 69.5108C19.6045 69.524 19.5903 69.5346 19.5743 69.5416C19.5584 69.5486 19.541 69.552 19.5236 69.5515Z" fill="#263238"/>
<path d="M18.5658 68.9193C18.5389 68.9201 18.5123 68.9125 18.4899 68.8976C18.4778 68.8893 18.4675 68.8785 18.4598 68.8661C18.4521 68.8536 18.447 68.8396 18.445 68.8251C18.4429 68.8105 18.4439 68.7957 18.4479 68.7816C18.4519 68.7674 18.4588 68.7543 18.4682 68.743C18.924 68.2003 20.5925 67.4054 21.4742 67.4787C21.4892 67.4794 21.5039 67.483 21.5174 67.4894C21.531 67.4958 21.5432 67.5048 21.5533 67.5158C21.5633 67.5269 21.5711 67.5399 21.5762 67.554C21.5813 67.5681 21.5835 67.5831 21.5828 67.598C21.5775 67.628 21.5612 67.6549 21.5371 67.6734C21.513 67.692 21.4828 67.7009 21.4525 67.6984C20.6576 67.6306 19.0623 68.3875 18.6581 68.8759C18.6466 68.8892 18.6325 68.9 18.6166 68.9074C18.6007 68.9149 18.5834 68.919 18.5658 68.9193Z" fill="#263238"/>
<path d="M7.57248 68.1651L8.5736 64.5784L4.10249 63.892L3.90173 67.3728C3.90173 67.3728 3.42694 68.6127 3.69825 69.0712C3.96955 69.5297 6.95391 70.0479 7.22521 69.7495C7.49652 69.4511 7.57248 68.1651 7.57248 68.1651Z" fill="#FFA8A7"/>
<path d="M7.11141 76.0031C6.96762 77.1182 6.72073 77.8371 6.22424 78.4449C5.72775 79.0526 4.86772 79.134 3.99954 78.822C3.13136 78.51 2.06513 77.848 1.87793 76.8442C1.69073 75.8403 1.78297 75.1838 2.04614 74.1664L7.11141 76.0031Z" fill="#263238"/>
<path d="M3.90177 67.3647C3.54364 67.3403 3.61418 68.8705 3.31032 70.3491C2.98747 71.9389 2.39331 72.5195 2.11115 73.8354C1.7883 75.3194 1.83984 76.0058 2.38245 77.0096C2.92506 78.0135 5.01683 79.1991 6.15631 78.027C7.08689 77.072 7.19812 75.8892 7.21711 74.3644C7.19693 73.0736 7.25219 71.7827 7.38261 70.4983C7.52369 69.3724 7.86825 68.3713 7.5671 68.2031C7.53183 68.3659 7.49656 68.5748 7.45858 68.7457C7.4206 68.9166 7.35819 69.4809 7.15743 69.4592C7.14975 69.316 7.15703 69.1723 7.17914 69.0306C7.19427 68.9657 7.19557 68.8983 7.18294 68.8328C7.17032 68.7674 7.14406 68.7054 7.10588 68.6507C6.93566 68.5144 6.7402 68.413 6.53071 68.3523C6.18344 68.2438 5.55944 68.1054 5.20403 68.0294C5.02769 67.9915 4.84863 67.9589 4.66142 67.9372C4.51027 67.9155 4.35678 67.9155 4.20563 67.9372C4.1642 67.9414 4.1243 67.9551 4.08902 67.9772C4.05373 67.9993 4.024 68.0293 4.00215 68.0647C3.98003 68.1189 3.96985 68.1772 3.97231 68.2356C3.96452 68.3403 3.94262 68.4434 3.9072 68.5422C3.89092 68.5856 3.85293 68.6345 3.80138 68.6182C3.78346 68.6088 3.76888 68.5942 3.75965 68.5762C3.75041 68.5582 3.74698 68.5378 3.74984 68.5178C3.74984 68.3333 3.79324 68.2058 3.81766 67.9942C3.81766 67.8965 3.85565 67.7636 3.86379 67.6659C3.87193 67.5682 3.8882 67.4597 3.90177 67.3647Z" fill="#455A64"/>
<path d="M2.21971 73.4203C2.17088 73.6319 1.86972 75.0481 2.3011 75.3764C2.73247 75.7047 3.11501 74.6194 3.11501 74.6194C3.11501 74.6194 4.2762 74.4675 5.89861 75.3303C5.79823 75.5527 6.00441 76.3639 6.47106 76.2608C6.9377 76.1577 7.21714 74.5218 7.22257 74.5001C7.19815 75.9624 7.06793 77.1046 6.16448 78.027C5.025 79.1991 2.93866 78.008 2.39063 77.0096C1.84259 76.0112 1.79375 75.3194 2.11932 73.8354C2.14374 73.6916 2.17359 73.5532 2.21971 73.4203Z" fill="#37474F"/>
<path d="M3.23433 74.7361C3.19092 75.2787 2.58591 75.0074 2.60762 74.2369C2.62932 73.4664 3.23162 71.6866 3.3103 70.3545C3.44052 68.5232 3.54362 67.3403 3.90174 67.3701C3.90174 67.3891 3.90174 67.4054 3.90174 67.4244L3.80678 68.1867C3.78588 68.2942 3.77229 68.403 3.76609 68.5123C3.6847 69.6301 3.64129 71.8005 3.46494 72.8098C3.34784 73.4464 3.27081 74.0898 3.23433 74.7361Z" fill="#37474F"/>
<path d="M5.70051 75.2896C5.89436 74.6741 6.0493 74.047 6.16444 73.4121C6.35164 72.4137 6.97836 70.4278 7.2985 69.3426C7.38037 69.1484 7.43514 68.9439 7.46128 68.7348C7.49655 68.5856 7.5291 68.3957 7.56166 68.2383C7.56166 68.2383 7.56166 68.2166 7.56166 68.2058C7.7787 68.3306 7.69189 69.1961 7.56166 69.6437C7.43143 70.0914 7.29036 70.5689 7.13572 71.2091C6.74775 72.4734 6.68535 74.378 6.43574 75.1051C6.18614 75.8322 5.54858 75.8132 5.70051 75.2896Z" fill="#37474F"/>
<path d="M5.92575 75.3791C5.90849 75.3756 5.89197 75.3692 5.87692 75.3601C5.04245 74.8933 4.09091 74.6776 3.13673 74.7388C3.10231 74.7422 3.06779 74.7334 3.03909 74.7141C3.01039 74.6948 2.98928 74.6662 2.97938 74.633C2.97621 74.6175 2.97647 74.6015 2.98013 74.5861C2.9838 74.5707 2.99079 74.5563 3.00062 74.5439C3.01044 74.5315 3.02286 74.5214 3.037 74.5143C3.05114 74.5072 3.06666 74.5033 3.08248 74.5028C4.10353 74.4326 5.12265 74.6647 6.01257 75.1702C6.02696 75.1775 6.03967 75.1878 6.04989 75.2003C6.06012 75.2128 6.06764 75.2273 6.07198 75.2428C6.07631 75.2584 6.07737 75.2747 6.07508 75.2907C6.07279 75.3066 6.06722 75.322 6.05869 75.3357C6.0434 75.3554 6.02257 75.37 5.99887 75.3778C5.97518 75.3855 5.94971 75.386 5.92575 75.3791Z" fill="#263238"/>
<path d="M6.29745 74.2288L6.25404 74.2125C5.31005 73.7179 4.25325 73.4785 3.18828 73.5179C3.15369 73.5198 3.11949 73.5098 3.09136 73.4896C3.06324 73.4693 3.04288 73.4401 3.03365 73.4067C3.03129 73.3912 3.03233 73.3753 3.03672 73.3602C3.0411 73.3451 3.04872 73.3311 3.05905 73.3192C3.06937 73.3073 3.08214 73.2979 3.0965 73.2914C3.11085 73.285 3.12644 73.2817 3.14217 73.2819C4.26873 73.2375 5.38705 73.4911 6.38426 74.0171C6.39882 74.0243 6.41178 74.0343 6.42233 74.0467C6.43288 74.059 6.44081 74.0733 6.44563 74.0888C6.45046 74.1043 6.45208 74.1206 6.45039 74.1367C6.4487 74.1529 6.44373 74.1685 6.43581 74.1826C6.41998 74.2033 6.39834 74.2187 6.37369 74.2269C6.34903 74.2351 6.32248 74.2358 6.29745 74.2288Z" fill="#263238"/>
<path d="M3.34563 72.3974C3.32128 72.3923 3.2986 72.3812 3.27965 72.3651C3.2607 72.349 3.24607 72.3284 3.23711 72.3052C3.23312 72.2898 3.23248 72.2737 3.23524 72.2581C3.23799 72.2424 3.24408 72.2275 3.25308 72.2144C3.26208 72.2013 3.27378 72.1902 3.28741 72.182C3.30103 72.1738 3.31626 72.1686 3.33206 72.1668C4.95989 71.8955 6.50362 72.8369 6.56873 72.8776C6.58335 72.8844 6.59633 72.8942 6.60679 72.9064C6.61725 72.9186 6.62494 72.9329 6.62932 72.9484C6.63371 72.9639 6.63468 72.9801 6.63218 72.996C6.62968 73.0119 6.62377 73.027 6.61485 73.0404C6.59313 73.0664 6.56263 73.0835 6.52913 73.0885C6.49562 73.0935 6.46145 73.0861 6.43308 73.0676C6.41952 73.0676 4.92191 72.156 3.4026 72.4001C3.38363 72.4033 3.36421 72.4024 3.34563 72.3974Z" fill="#263238"/>
<path d="M3.50576 71.3448C3.48161 71.34 3.45913 71.3289 3.44057 71.3127C3.42201 71.2966 3.408 71.2758 3.39995 71.2525C3.395 71.2375 3.39348 71.2216 3.3955 71.2059C3.39751 71.1902 3.40302 71.1752 3.41161 71.1619C3.4202 71.1486 3.43165 71.1375 3.44512 71.1292C3.4586 71.1209 3.47376 71.1158 3.48949 71.1142C4.63805 70.9453 5.80892 71.1978 6.78584 71.825C6.79977 71.8329 6.81183 71.8437 6.8212 71.8567C6.83056 71.8697 6.83701 71.8845 6.8401 71.9002C6.84319 71.916 6.84285 71.9322 6.8391 71.9477C6.83536 71.9633 6.82829 71.9779 6.8184 71.9905C6.79416 72.0141 6.76237 72.0284 6.72862 72.0309C6.69488 72.0333 6.66134 72.0238 6.63391 72.004C5.71825 71.4283 4.62851 71.1947 3.55731 71.3448C3.54026 71.3478 3.52281 71.3478 3.50576 71.3448Z" fill="#263238"/>
<path d="M3.69016 70.1619C3.6666 70.1566 3.64467 70.1457 3.62624 70.1301C3.60781 70.1146 3.59344 70.0947 3.58436 70.0723C3.57894 70.0574 3.57696 70.0414 3.57858 70.0255C3.5802 70.0097 3.58539 69.9944 3.59373 69.9809C3.60208 69.9673 3.61338 69.9558 3.62678 69.9472C3.64019 69.9386 3.65536 69.9332 3.67117 69.9313C5.35869 69.6111 6.92684 70.6312 6.99738 70.6774C7.01173 70.6848 7.02431 70.6952 7.03421 70.708C7.04412 70.7208 7.05112 70.7355 7.05474 70.7513C7.05835 70.767 7.05849 70.7834 7.05514 70.7992C7.0518 70.815 7.04505 70.8299 7.03536 70.8429C7.01252 70.8677 6.98123 70.8831 6.94762 70.8861C6.914 70.8891 6.88048 70.8795 6.85358 70.8591C6.83731 70.8591 5.318 69.8662 3.74985 70.1619C3.73017 70.166 3.70985 70.166 3.69016 70.1619Z" fill="#263238"/>
<path d="M6.63657 30.1986C5.79553 39.0133 5.40756 51.0891 5.40756 51.0891C5.33431 51.7592 4.84867 52.8987 4.47156 56.2005C4.07274 59.6841 4.06188 64.611 4.06188 64.611C4.06188 64.611 6.40596 65.9675 8.36749 65.3326C8.36749 65.3326 10.3155 57.6194 11.3871 53.5254C12.4018 49.6512 13.8289 43.7585 13.8289 43.7585L14.6238 49.9822C14.6238 49.9822 14.7079 52.1526 14.7486 53.9053C14.8001 55.9536 15.9586 63.8106 15.9586 63.8106C15.9586 63.8106 18.2701 65.3489 20.3212 63.8106C20.3212 63.8106 20.9289 52.3263 21.0293 49.8655C21.2274 45.0336 21.1921 35.6573 21.127 29.4173L6.63657 30.1986Z" fill="#00BFBA"/>
<path opacity="0.5" d="M6.63657 30.1986C5.79553 39.0133 5.40756 51.0891 5.40756 51.0891C5.33431 51.7592 4.84867 52.8987 4.47156 56.2005C4.07274 59.6841 4.06188 64.611 4.06188 64.611C4.06188 64.611 6.40596 65.9675 8.36749 65.3326C8.36749 65.3326 10.3155 57.6194 11.3871 53.5254C12.4018 49.6512 13.8289 43.7585 13.8289 43.7585L14.6238 49.9822C14.6238 49.9822 14.7079 52.1526 14.7486 53.9053C14.8001 55.9536 15.9586 63.8106 15.9586 63.8106C15.9586 63.8106 18.2701 65.3489 20.3212 63.8106C20.3212 63.8106 20.9289 52.3263 21.0293 49.8655C21.2274 45.0336 21.1921 35.6573 21.127 29.4173L6.63657 30.1986Z" fill="white"/>
<path opacity="0.3" d="M13.8397 43.753L14.952 37.4886C14.952 37.4886 17.3097 37.1766 18.5414 36.0914C18.5414 36.0914 17.7275 37.5374 15.4973 38.0665L14.3986 43.7639L14.6264 49.9632L13.8397 43.753Z" fill="#00BFBA"/>
<path d="M4.00492 64.7141C4.48242 65.3788 6.64201 66.0706 8.39735 65.5036L8.72292 64.147C7.39895 64.5459 5.11727 64.1063 4.05647 63.23L4.00492 64.7141Z" fill="#00BFBA"/>
<path d="M15.9478 64.0141C16.5311 64.5784 18.7232 64.8985 20.3511 64.0358L20.4406 62.644C19.2034 63.2707 16.9462 63.268 15.7524 62.5924L15.9478 64.0141Z" fill="#00BFBA"/>
<path d="M35.5441 23.0307C34.9038 23.3943 34.2038 24.0047 33.1023 24.6586C32.0008 25.3124 29.7029 26.7395 28.1564 27.3716C26.61 28.0037 25.986 28.1313 24.3717 26.1317C22.2447 23.5055 20.0851 20.3014 20.0851 20.3014L18.6824 13.6653C21.344 13.8552 21.9381 14.5714 23.2431 16.5167C25.0608 19.2297 27.234 22.5369 27.234 22.5369C27.234 22.5369 32.869 20.6839 33.474 20.3665C33.9275 20.138 34.2907 19.7634 34.505 19.303C34.6826 18.9184 34.8837 18.5451 35.1073 18.1852C35.3379 17.8 35.4247 17.6426 35.6987 17.1678C35.9727 16.693 36.2413 15.8357 36.339 15.6539C36.4909 15.4559 36.8111 15.521 37.0064 16.0907C37.0864 16.4422 37.0752 16.8083 36.9738 17.1543C36.9114 17.4663 36.7595 17.8379 36.8463 17.9031C36.9331 17.9682 37.4188 17.8054 37.8854 17.7647C38.3521 17.724 38.7834 17.5856 39.2609 17.8108C39.3392 17.8427 39.4098 17.8909 39.4681 17.9521C39.5263 18.0134 39.5709 18.0863 39.5988 18.1661C39.6268 18.2458 39.6375 18.3306 39.6302 18.4149C39.623 18.4991 39.5979 18.5808 39.5567 18.6546C39.4792 18.7717 39.3714 18.8654 39.2447 18.9259C39.332 18.9293 39.4178 18.9505 39.4967 18.9883C39.5755 19.0261 39.6458 19.0796 39.7032 19.1456C39.7885 19.2825 39.8235 19.4448 39.8023 19.6047C39.781 19.7647 39.7047 19.9122 39.5865 20.0219C39.6816 20.0376 39.7678 20.0872 39.8291 20.1615C39.8904 20.2359 39.9228 20.3299 39.9202 20.4262C39.9202 20.7301 39.8551 21.0176 39.5431 21.0909C39.5431 21.0909 39.7791 21.1831 39.7737 21.3296C39.7776 21.4521 39.7496 21.5735 39.6926 21.6819C39.6355 21.7903 39.5513 21.8821 39.4481 21.9482C39.1627 22.0295 38.8643 22.0553 38.5691 22.0242C38.5691 22.0242 38.5094 22.1246 38.2056 22.2304C37.8762 22.3795 37.5361 22.5038 37.1882 22.6021C36.7921 22.6862 36.0514 22.7431 35.5441 23.0307Z" fill="#FFA8A7"/>
<path d="M27.234 22.5261C26.5585 22.8137 26.2953 23.728 25.9616 24.6965C26.0213 23.4051 26.3767 22.5071 27.0875 22.1924L27.234 22.5261Z" fill="#F28F8F"/>
<path d="M20.2261 21.2184L18.2727 12.6533C19.7893 12.7862 21.5691 13.7928 22.6136 15.3664C24.7189 18.546 27.2502 22.404 27.2502 22.404C27.3289 22.3742 32.7251 20.6894 32.7251 20.6894C32.7251 20.6894 32.4538 21.5033 32.6519 22.9629C32.85 24.4225 33.36 24.862 33.36 24.862C33.36 24.862 29.9416 26.7422 28.8373 27.2468C27.0494 28.0607 26.2979 28.0444 26.0348 27.9495C25.5329 27.7704 24.9495 27.3173 23.8779 25.9934C22.4454 24.1973 20.2261 21.2184 20.2261 21.2184Z" fill="#EBEBEB"/>
<path d="M20.2263 21.2184L19.3147 17.2682L18.3271 12.6397L18.2701 12.7076C19.4032 12.8423 20.4733 13.3011 21.3522 14.0288C21.8415 14.4454 22.2658 14.9328 22.611 15.4749L23.5253 16.8694L27.1852 22.4556L27.2178 22.5071L27.2829 22.4881L32.7497 20.7626L32.6602 20.6704C32.5669 21.0247 32.5177 21.3892 32.5137 21.7556C32.509 22.1183 32.5298 22.481 32.5761 22.8408C32.6165 23.2042 32.691 23.563 32.7985 23.9125C32.896 24.2744 33.0762 24.6088 33.3249 24.8892V24.7888C32.0823 25.4725 30.8397 26.1453 29.5809 26.8019C28.9566 27.1331 28.3092 27.4187 27.6437 27.6565C27.3135 27.7744 26.9729 27.8607 26.6263 27.9142C26.4556 27.9416 26.2816 27.9416 26.1109 27.9142C25.9455 27.8642 25.7876 27.7921 25.6415 27.6999C25.0679 27.2896 24.5562 26.7989 24.1222 26.243C23.6691 25.7004 23.235 25.1388 22.7982 24.5826C21.9337 23.4739 21.0763 22.3525 20.2263 21.2184ZM20.2263 21.2184C21.0691 22.3579 21.921 23.4901 22.7819 24.6151C23.2133 25.1767 23.6447 25.7384 24.0924 26.2918C24.5233 26.8589 25.0342 27.3606 25.6089 27.7813C25.7609 27.8821 25.9274 27.959 26.1027 28.0092C26.2824 28.0387 26.4657 28.0387 26.6453 28.0092C26.9989 27.957 27.3468 27.8716 27.6844 27.7541C28.3542 27.5172 29.0061 27.2325 29.6351 26.9023C30.8994 26.2565 32.1447 25.581 33.39 24.9054L33.4605 24.8647L33.4008 24.8023C33.1718 24.5366 33.0067 24.222 32.9179 23.8826C32.8151 23.5398 32.7434 23.1884 32.7036 22.8327C32.6607 22.4772 32.6435 22.119 32.652 21.761C32.6555 21.4055 32.7038 21.0518 32.7958 20.7084L32.8338 20.5754L32.7036 20.6161L27.2232 22.3226L27.3209 22.3552L23.6338 16.788L22.7114 15.3962C22.3721 14.8537 21.9491 14.3684 21.458 13.9583C20.5449 13.2174 19.4424 12.7474 18.2756 12.6018H18.1996L18.2186 12.6777L19.236 17.2899L20.2263 21.2184Z" fill="#E0E0E0"/>
<path d="M37.8638 21.2075C37.851 21.2444 37.8471 21.2837 37.8523 21.3223C37.8575 21.361 37.8716 21.3978 37.8936 21.43C37.9485 21.5146 38.0093 21.5953 38.0754 21.6715C38.1059 21.7119 38.1395 21.75 38.1758 21.7854C38.2092 21.8192 38.2477 21.8475 38.2897 21.8695L38.561 22.016C38.4543 22.0071 38.3493 21.9834 38.249 21.9455C38.1942 21.9277 38.1434 21.8991 38.0998 21.8614C38.0591 21.8234 38.0211 21.7854 37.9832 21.7447C37.9147 21.6615 37.8564 21.5704 37.8095 21.4734C37.7883 21.4182 37.7817 21.3583 37.7905 21.2998C37.7973 21.2641 37.8142 21.2311 37.8394 21.2048C37.7614 21.1687 37.6862 21.127 37.6142 21.08C37.4938 21.0168 37.3918 20.9233 37.3185 20.8087C37.2933 20.7438 37.2795 20.6749 37.2778 20.6053C37.2752 20.5836 37.2752 20.5618 37.2778 20.5401L37.2072 20.3936C37.0858 20.6485 36.9054 20.8708 36.6809 21.0421C36.4127 21.2598 36.0949 21.4079 35.7558 21.4734C36.1773 21.3276 36.5306 21.0321 36.7486 20.643C36.9667 20.2539 37.0343 19.7983 36.9386 19.3627H36.9197C36.8815 19.3277 36.8542 19.2825 36.841 19.2324C36.8156 19.1415 36.8263 19.0444 36.8708 18.9611C36.9098 18.8815 36.9631 18.8098 37.0282 18.7495C37.2844 18.525 37.6102 18.3956 37.9506 18.3833C37.9908 18.321 38.0413 18.266 38.0998 18.2205C38.1596 18.1723 38.2241 18.1305 38.2925 18.0957C38.2301 18.1391 38.1712 18.1872 38.1161 18.2395C38.0626 18.2907 38.0177 18.3502 37.9832 18.4158C37.6602 18.4507 37.3565 18.5865 37.115 18.8038C37.0576 18.85 37.0132 18.9103 36.9861 18.9787C36.959 19.0472 36.9502 19.1215 36.9603 19.1945C36.9875 19.2704 37.0119 19.2948 37.0906 19.2948C37.1693 19.2948 37.2534 19.2948 37.3375 19.2948C37.5084 19.2948 37.6712 19.3138 37.8339 19.3193C37.9957 19.3217 38.157 19.3035 38.3142 19.265C38.4742 19.227 38.6289 19.1728 38.7862 19.1212C38.944 19.0715 39.0982 19.0108 39.2474 18.9394C38.9612 19.1108 38.6551 19.2466 38.3359 19.3437C38.173 19.3923 38.0039 19.4169 37.8339 19.4169C37.663 19.4169 37.5002 19.3979 37.3375 19.4007H37.2398C37.1753 19.4398 37.1278 19.5018 37.1069 19.5743C37.0904 19.6379 37.0929 19.705 37.1141 19.7672C37.1354 19.8294 37.1743 19.884 37.2262 19.9243C37.3262 20.0208 37.4363 20.1063 37.5545 20.1793C37.6697 20.2498 37.7964 20.2994 37.9289 20.3258C38.2049 20.3228 38.4791 20.2799 38.7428 20.1983C39.0141 20.1386 39.299 20.0789 39.5812 20.0301C39.3098 20.125 39.0385 20.2037 38.7672 20.2824C38.6289 20.3231 38.4959 20.3584 38.3521 20.3936C38.2082 20.4329 38.0587 20.4475 37.9099 20.437C37.8166 20.4156 37.7257 20.3847 37.6386 20.3448C37.5492 20.3536 37.4653 20.3918 37.3999 20.4533C37.38 20.4731 37.3647 20.4969 37.3549 20.5231C37.345 20.5493 37.3409 20.5773 37.3429 20.6053C37.3479 20.6645 37.3635 20.7224 37.389 20.7762C37.4625 20.8703 37.5549 20.9479 37.6603 21.0041C37.7582 21.0762 37.8715 21.1245 37.9913 21.1452C38.1152 21.1427 38.2383 21.1245 38.3576 21.0909C38.4877 21.0707 38.6194 21.0625 38.751 21.0665C39.0087 21.0665 39.2664 21.0665 39.5269 21.099C39.2556 21.1207 39.0087 21.1343 38.7537 21.1506C38.6264 21.1571 38.4996 21.1707 38.3738 21.1913C38.2464 21.2314 38.114 21.2533 37.9805 21.2564C37.9401 21.2439 37.901 21.2276 37.8638 21.2075Z" fill="#F28F8F"/>
<path d="M10.8852 12.1324C10.0062 12.3142 8.88843 12.5421 7.76794 12.8541C6.64745 13.1661 5.90137 13.3641 4.8894 13.9393C4.92888 16.6724 5.21399 19.3964 5.74129 22.0784C5.93392 22.971 6.58234 25.4345 6.69358 27.3255C6.8333 29.2902 6.78059 31.2638 6.53621 33.2182C6.53621 33.2182 9.44732 35.3887 15.6656 34.9084C20.5491 34.5422 21.184 32.738 21.184 32.738C21.184 32.738 21.0945 24.5989 20.9669 20.9986C20.8014 16.2671 19.3689 13.5377 18.3136 12.713L15.1095 12.1704L10.8852 12.1324Z" fill="#00BFBA"/>
<path d="M15.2179 11.8041V12.1894C16.406 12.7441 17.3368 13.7323 17.8198 14.9513C18.5007 16.6605 19.2577 20.5998 19.4232 25.1686C19.7596 34.431 19.9441 41.7589 19.9441 41.7589C20.6405 41.7859 21.3362 41.6876 21.9979 41.4686C21.9979 41.4686 21.8975 34.4445 21.7266 29.3738C21.5312 23.3237 21.1405 19.2976 20.7444 16.8368C20.3131 14.1455 19.1546 13.1769 18.4763 12.6506C17.3667 12.3494 15.8962 11.994 15.2179 11.8041Z" fill="#F0F0F0"/>
<path d="M21.732 29.3739L21.6913 27.1899C21.6669 26.4601 21.6397 25.733 21.6045 25.0059C21.5339 23.5498 21.4326 22.0957 21.3006 20.6433C21.2301 19.9189 21.1514 19.1945 21.0591 18.4728C20.9669 17.7512 20.8746 17.0295 20.7173 16.3024C20.5671 15.5832 20.3092 14.8908 19.9522 14.2486C19.5822 13.6152 19.0808 13.0685 18.4817 12.6452C19.0596 13.0871 19.5361 13.6477 19.879 14.2893C20.2167 14.93 20.4563 15.6177 20.5898 16.3295C20.8448 17.7566 20.9994 19.2081 21.1324 20.6541C21.2653 22.1002 21.3766 23.5544 21.4742 24.995L21.6099 27.1654L21.732 29.3739Z" fill="#E0E0E0"/>
<path d="M9.8 2.36003C9.8 2.36003 9.07291 2.41429 8.59542 3.3313C8.35667 3.79252 8.18574 4.63356 8.8423 7.03462C9.09135 7.97236 9.48103 8.86696 9.99806 9.68798C10.1506 9.94974 10.3969 10.1437 10.6872 10.2306L10.6383 8.383L10.5705 7.09701C10.5705 7.09701 11.6069 6.15287 11.6964 5.23044C11.7886 4.58668 11.6655 3.93051 11.3464 3.36386L9.8 2.36003Z" fill="#37474F"/>
<path d="M9.55029 2.41972C9.72935 1.38333 11.0452 0.143467 13.5873 0.00781408C15.6682 -0.103421 16.843 0.989938 17.5646 2.20267C17.7746 2.5478 17.8957 2.93963 17.917 3.34305C17.9383 3.74647 17.8592 4.14887 17.6867 4.51419L11.3165 4.1832L9.55029 2.41972Z" fill="#37474F"/>
<path d="M8.95621 8.93103C9.91392 9.39767 10.3507 8.64073 10.3507 8.64073V12.5367C12.1875 14.9947 17.2419 14.018 15.2342 12.1758V11.3077C15.5125 11.3005 15.79 11.2733 16.0644 11.2263C16.4569 11.1976 16.8291 11.0405 17.1234 10.7791C17.4176 10.5177 17.6175 10.1666 17.6922 9.78021C17.8402 9.1479 17.9363 8.50459 17.9798 7.85666C18.0368 6.89352 18.0449 6.00636 17.8062 5.33894C17.6353 4.86687 17.8333 4.25372 17.7058 3.66228C17.6054 3.21463 17.4128 2.72899 17.0031 2.52551C15.9884 2.0236 15.047 2.74798 13.6308 3.30144C13.0448 3.52934 11.6204 3.62972 11.246 3.45337C11.7398 3.99598 11.7344 5.7242 11.0073 6.42145C10.9167 6.60177 10.7935 6.76369 10.6437 6.89895C10.3317 7.17025 10.0794 6.473 9.82981 6.19898C9.70292 6.08766 9.55148 6.00797 9.38787 5.96644C9.22426 5.9249 9.05314 5.9227 8.88852 5.96002C8.7239 5.99734 8.57046 6.07311 8.44076 6.18114C8.31105 6.28916 8.20877 6.42637 8.14229 6.58152C8.03847 6.78869 7.97716 7.01453 7.96198 7.24576C7.9468 7.47699 7.97806 7.70891 8.05391 7.92787C8.12976 8.14683 8.24867 8.34839 8.40364 8.52067C8.5586 8.69296 8.74648 8.83248 8.95621 8.93103Z" fill="#FFA8A7"/>
<path d="M15.2124 11.3077C14.2765 11.3371 13.3432 11.1945 12.4587 10.8871C11.8021 10.6158 11.2215 9.72324 11.0316 8.84421C11.0316 9.55231 11.3409 10.8085 12.3366 11.3294C13.3323 11.8503 14.488 11.872 15.2151 11.8964L15.2124 11.3077Z" fill="#F28F8F"/>
<path d="M13.5087 4.47891L12.57 4.87502C12.5211 4.74781 12.5219 4.60686 12.5721 4.48019C12.6224 4.35352 12.7185 4.2504 12.8413 4.19133C12.9037 4.16347 12.9711 4.14885 13.0394 4.1484C13.1077 4.14795 13.1754 4.16167 13.2381 4.18869C13.3008 4.21572 13.3573 4.25547 13.4038 4.30542C13.4504 4.35538 13.4861 4.41445 13.5087 4.47891Z" fill="#37474F"/>
<path d="M17.3124 4.65255L16.3574 4.27272C16.3791 4.20932 16.4135 4.15099 16.4584 4.10129C16.5034 4.0516 16.558 4.01157 16.6189 3.98365C16.6798 3.95573 16.7458 3.9405 16.8128 3.93889C16.8797 3.93728 16.9464 3.94932 17.0085 3.97428C17.136 4.02745 17.2384 4.1272 17.2948 4.25323C17.3513 4.37925 17.3576 4.52205 17.3124 4.65255Z" fill="#37474F"/>
<path d="M13.0936 5.61025C13.0968 5.69215 13.1243 5.77125 13.1724 5.83758C13.2205 5.90391 13.2872 5.95451 13.3641 5.98299C13.4409 6.01147 13.5245 6.01657 13.6042 5.99763C13.684 5.97869 13.7563 5.93658 13.8122 5.87658C13.868 5.81659 13.9049 5.74141 13.918 5.66052C13.9312 5.57962 13.9202 5.49664 13.8862 5.42202C13.8523 5.34741 13.7971 5.2845 13.7275 5.24123C13.6579 5.19796 13.577 5.17626 13.4951 5.17888C13.4404 5.18062 13.3865 5.19319 13.3366 5.21586C13.2867 5.23853 13.2418 5.27084 13.2045 5.31094C13.1672 5.35105 13.1382 5.39814 13.1191 5.44951C13.1001 5.50088 13.0914 5.55551 13.0936 5.61025Z" fill="#263238"/>
<path d="M16.3439 5.52073C16.3472 5.60274 16.3747 5.68193 16.4229 5.7483C16.4712 5.81467 16.5381 5.86525 16.6151 5.89363C16.6921 5.92201 16.7758 5.92693 16.8556 5.90776C16.9354 5.88859 17.0077 5.8462 17.0634 5.78593C17.1191 5.72567 17.1557 5.65025 17.1686 5.56919C17.1815 5.48813 17.17 5.40508 17.1357 5.33053C17.1014 5.25598 17.0457 5.19328 16.9758 5.15036C16.9058 5.10743 16.8247 5.0862 16.7427 5.08936C16.6882 5.09145 16.6346 5.10428 16.585 5.1271C16.5355 5.14992 16.4909 5.18229 16.4538 5.22235C16.4168 5.26242 16.388 5.3094 16.3692 5.36059C16.3503 5.41179 16.3417 5.46621 16.3439 5.52073Z" fill="#263238"/>
<path d="M14.7188 4.7095L15.0633 7.35472L16.4578 6.83924C16.0447 6.0082 15.4504 5.28042 14.7188 4.7095Z" fill="#F28F8F"/>
<path d="M14.4853 8.18223L15.5705 8.54036C15.5522 8.61377 15.5187 8.68255 15.4722 8.74225C15.4257 8.80196 15.3673 8.85128 15.3006 8.88705C15.2339 8.92282 15.1605 8.94425 15.085 8.94995C15.0095 8.95566 14.9337 8.94552 14.8624 8.92018C14.7162 8.86995 14.5953 8.76496 14.5249 8.62732C14.4546 8.48969 14.4404 8.33013 14.4853 8.18223Z" fill="#B16668"/>
<path d="M14.5993 8.37757C14.5533 8.37223 14.5069 8.37223 14.4609 8.37757C14.4633 8.49771 14.5026 8.61421 14.5735 8.71127C14.6444 8.80833 14.7433 8.88126 14.857 8.92018C14.9146 8.93977 14.9753 8.94896 15.0361 8.94731C15.0509 8.81432 15.0138 8.68074 14.9323 8.57454C14.8509 8.46834 14.7316 8.39776 14.5993 8.37757Z" fill="#F28F8F"/>
<path d="M10.3371 11.6576V12.5367C10.3371 12.5367 10.66 14.0288 10.896 15.2497C11.3084 17.3876 11.3084 20.3258 11.3247 22.4312C11.341 24.5365 10.3968 42.0302 10.3968 42.0302C10.3968 42.0302 6.9404 42.0058 5.27459 41.2353C5.33156 39.4474 5.76565 33.5031 6.04781 29.1487C6.17803 27.122 5.32885 24.2353 5.07382 21.0231C4.78081 17.3415 4.78352 13.9013 4.78352 13.9013C6.06289 13.3196 7.38651 12.8406 8.74187 12.4688C9.83794 11.9181 10.3371 11.6576 10.3371 11.6576Z" fill="#F0F0F0"/>
<path d="M15.7009 6.123C15.4974 6.15827 15.2749 6.34004 14.7594 6.52453C13.9455 6.81754 12.7898 6.85552 12.1766 7.24891C11.5635 7.64231 10.9992 8.64613 11.3925 9.55772C11.7859 10.4693 12.2417 10.879 12.9037 11.115C13.7829 11.3812 14.6984 11.5076 15.6168 11.4894C15.9593 11.4786 16.2961 11.3987 16.607 11.2547C16.918 11.1106 17.1966 10.9053 17.4264 10.6511C18.0422 10.0352 18.2566 8.55932 18.205 7.56634C18.1535 6.57336 18.1426 6.53538 17.7492 6.51096C17.2319 6.45724 16.7218 6.34902 16.2272 6.18811C16.0608 6.11961 15.879 6.09712 15.7009 6.123Z" fill="#37474F"/>
<path d="M12.1766 7.24892C12.7898 6.85552 13.9347 6.81754 14.7595 6.52453C15.2749 6.34004 15.4974 6.15827 15.7009 6.123C15.8781 6.09762 16.0589 6.1201 16.2245 6.18811C16.7188 6.35179 17.2289 6.46273 17.7465 6.5191C18.0178 6.5381 18.1101 6.5598 18.1589 6.93149C18.1155 6.77413 18.1128 6.71716 17.5729 6.66018C17.1234 6.6091 16.6806 6.51089 16.2516 6.36717C16.1489 6.32735 16.0382 6.31273 15.9287 6.32453C15.8191 6.33633 15.7141 6.37421 15.6222 6.435C15.0894 6.65608 14.5333 6.81626 13.9645 6.9125C13.1045 7.07528 12.3367 7.12954 11.8212 7.78881C11.5882 8.09885 11.4547 8.47224 11.4382 8.85972C11.4217 9.24719 11.5231 9.63056 11.729 9.95925C12.1386 10.5561 12.334 10.8491 13.327 11.153C14.0735 11.3561 14.8409 11.4727 15.6141 11.5003C14.6957 11.5184 13.7802 11.3921 12.901 11.1259C12.239 10.8898 11.7968 10.51 11.3898 9.56857C10.9829 8.62714 11.5716 7.63417 12.1766 7.24892Z" fill="#263238"/>
<path opacity="0.15" d="M16.8243 9.04748C16.7971 8.42619 16.8243 7.70452 16.6072 7.41965C16.4146 7.03711 16.0511 6.51891 15.9344 6.33443L15.8367 6.12009H15.9235H15.9371L16.0429 6.13909H16.0755L16.2166 6.17978C16.7131 6.34678 17.2261 6.46047 17.7467 6.51891C18.1401 6.54333 18.1537 6.59488 18.2025 7.57429C18.2513 8.5537 18.0397 10.0432 17.4239 10.659C17.1528 10.9617 16.8119 11.1936 16.4309 11.3346C16.8975 10.9737 16.8595 9.67691 16.8243 9.04748Z" fill="black"/>
<path d="M12.8929 10.2495C12.3015 10.1817 11.7317 9.7666 11.2217 9.47359L10.3481 8.96082V8.76548L11.3139 9.3081C11.8104 9.5794 12.3584 10.0162 12.9173 10.0786L12.8929 10.2495Z" fill="#FAFAFA"/>
<path d="M13.0991 10.3174L12.7871 10.2658C12.7356 10.2658 12.6894 10.2224 12.6894 10.1871V10.1139C12.6894 10.0786 12.7274 10.0569 12.7817 10.0678L13.0937 10.1166C13.1479 10.1166 13.1914 10.16 13.1941 10.1953V10.2685C13.1968 10.293 13.1534 10.3174 13.0991 10.3174Z" fill="#E0E0E0"/>
<path d="M12.5157 8.29072C11.927 8.22018 10.7468 7.14581 10.3941 6.93419C10.3162 6.89956 10.2509 6.84178 10.2069 6.7687C10.8364 6.7687 11.8348 8.08995 12.5374 8.12522L12.5157 8.29072Z" fill="#FAFAFA"/>
<path d="M12.6758 8.33412L12.3856 8.29613C12.3643 8.29563 12.3438 8.2882 12.3271 8.27498C12.3105 8.26176 12.2986 8.24347 12.2933 8.22288V8.14692C12.2933 8.11165 12.3286 8.08994 12.3774 8.09537L12.6677 8.13064C12.6897 8.13117 12.7108 8.13888 12.728 8.15261C12.7451 8.16633 12.7573 8.1853 12.7627 8.2066V8.27714C12.7545 8.31513 12.7274 8.33954 12.6758 8.33412Z" fill="#E0E0E0"/>
<path d="M6.65552 37.7192C6.7263 37.7847 6.78668 37.8606 6.83459 37.9444C6.85868 37.9868 6.86902 38.0357 6.86416 38.0843C6.8593 38.1329 6.83949 38.1788 6.80745 38.2157C6.77217 38.2451 6.73029 38.2656 6.68537 38.2754C6.53958 38.3095 6.38818 38.3122 6.24127 38.2832C6.09437 38.2542 5.95533 38.1942 5.83347 38.1071C5.59136 37.9333 5.38349 37.7163 5.22032 37.4669C5.16861 37.379 5.0959 37.3054 5.00871 37.2525C4.60718 37.0572 4.80251 37.73 4.83235 37.8874C4.91546 38.333 5.0427 38.7692 5.21219 39.1896C5.31257 39.5179 6.12919 40.2749 6.31639 40.5787C6.50359 40.8826 6.49546 41.238 6.34624 41.3764C6.19702 41.5147 5.87959 41.3058 5.4862 40.9206C5.19626 40.6686 4.92429 40.3966 4.67228 40.1067L4.36842 39.6644C4.45028 39.9384 4.55651 40.2044 4.68585 40.4594C4.82693 40.6818 5.36954 41.2407 5.53775 41.5202C5.59877 41.6288 5.62522 41.7535 5.61359 41.8776C5.60196 42.0017 5.55279 42.1193 5.47264 42.2147C5.37497 42.3205 5.32342 42.486 4.80523 41.9434C4.54643 41.688 4.30446 41.4162 4.08084 41.1295C3.94442 41.1624 3.80156 41.157 3.668 41.1139C3.53445 41.0708 3.41537 40.9917 3.3239 40.8853C3.01693 40.5197 2.74446 40.1264 2.50998 39.7106C2.37159 39.6678 2.24315 39.5977 2.13226 39.5045C2.02136 39.4114 1.93024 39.2969 1.86427 39.1679C1.65537 38.7311 1.38135 38.0366 1.17787 37.475C0.974392 36.9134 1.09649 35.4918 0.990678 34.5042C0.960834 34.2031 0.667821 30.79 0.529456 28.6657C0.42636 27.0759 0.513173 25.2636 0.703087 24.4442C1.15074 22.5098 1.1209 22.7513 1.82901 20.0762C2.28752 18.348 2.6592 17.1108 2.96578 16.2779C3.43242 15.0001 3.73086 14.4303 5.56488 13.7656C6.57413 14.5796 6.94582 16.5682 6.30011 20.3584C5.81519 22.1597 5.19485 23.9219 4.44439 25.6298C4.44439 25.6298 4.17308 33.8802 4.17308 34.0267C4.16535 34.1583 4.19058 34.2898 4.24648 34.4091C4.30238 34.5285 4.38719 34.6321 4.49322 34.7104C4.70755 34.8976 4.95445 35.0495 5.16064 35.253C5.83619 35.9014 5.97455 36.9541 6.59584 37.6486L6.65552 37.7192Z" fill="#FFA8A7"/>
<path d="M4.07267 41.143C3.77496 40.7928 3.52583 40.4041 3.332 39.9873C3.13459 39.5722 2.98443 39.1363 2.88435 38.6877C3.04985 39.1164 3.21534 39.5396 3.42696 39.9466C3.61491 40.3595 3.83064 40.7593 4.07267 41.143Z" fill="#F28F8F"/>
<path d="M2.51544 39.7241C2.37412 39.5431 2.25904 39.3431 2.17359 39.13C2.08352 38.9198 2.01621 38.7006 1.97283 38.4761C2.08135 38.6769 2.16546 38.8885 2.24414 39.0947L2.51544 39.7241Z" fill="#F28F8F"/>
<path d="M4.3656 39.6563C4.14473 39.3268 3.95577 38.9771 3.80129 38.6118C3.87232 39.1471 4.11508 39.645 4.49312 40.0307L4.3656 39.6563Z" fill="#F28F8F"/>
<path d="M5.61101 13.535C3.73087 14.2947 3.39716 14.5606 2.98206 15.2253C2.47743 16.0392 2.24139 16.9969 1.33252 20.1305C0.42365 23.264 0.127928 24.6233 0.10351 25.2853C0.0458743 26.5298 0.114963 27.777 0.309705 29.0076C0.477914 30.3478 0.705812 32.0082 0.955413 34.0511C1.88599 34.412 3.96147 34.0321 4.41998 33.4244C4.41998 32.0408 4.47152 30.8552 4.49594 29.2924C4.52579 27.3445 4.62617 25.8279 4.62617 25.8279L6.57686 19.9758C6.57686 19.9758 7.62409 15.0516 5.61101 13.535Z" fill="#EBEBEB"/>
<path d="M1.88861 34.2791C2.90058 34.2791 4.13772 33.9453 4.48771 33.4787L4.50399 33.457V33.4299C4.50399 32.5997 4.52298 31.8373 4.54197 31.0288C4.54197 30.4862 4.5691 29.9246 4.57995 29.2979C4.60708 27.4612 4.70204 25.988 4.71018 25.8496L6.65543 20.0057C6.70156 19.7941 7.69453 14.9974 5.66246 13.4672L5.62448 13.4374L5.57835 13.4564C3.69821 14.2187 3.34009 14.4928 2.91143 15.1792C2.48276 15.8656 2.22774 16.7202 1.58746 18.9449C1.48436 19.2976 1.37313 19.6828 1.25104 20.1061C0.41542 22.9873 0.0464427 24.5365 0.0193124 25.288C-0.037641 26.5371 0.0314417 27.7887 0.225507 29.0239C0.287907 29.5176 0.358444 30.0548 0.434409 30.6517C0.564635 31.6528 0.705718 32.7896 0.871215 34.0783V34.1298L0.920047 34.1461C1.23227 34.2484 1.56039 34.2934 1.88861 34.2791ZM4.33036 33.4C3.87185 33.9426 1.9293 34.3062 1.03128 33.9969C0.873927 32.7272 0.727423 31.6094 0.599909 30.6191C0.523944 30.0331 0.453399 29.4959 0.390999 28.9913C0.196841 27.7652 0.127761 26.5226 0.184813 25.2826C0.211943 24.5473 0.578202 23.009 1.41111 20.1441L1.74752 18.9991C2.38509 16.7907 2.62384 15.9632 3.05522 15.2741C3.45675 14.6311 3.80131 14.3653 5.59735 13.6463C7.49648 15.1466 6.50351 19.9297 6.49266 19.9786L4.54197 25.8442C4.54197 25.8577 4.43887 27.3852 4.41174 29.3115C4.41174 29.9355 4.38732 30.4998 4.37376 31.0424C4.34391 31.8237 4.34392 32.5807 4.34392 33.4H4.33036Z" fill="#E0E0E0"/>
</svg>
