<svg width="23" height="23" viewBox="0 0 23 23" fill="none" xmlns="http://www.w3.org/2000/svg">
<path d="M8.49899 21.1854C6.73967 20.6616 5.17364 19.6892 3.93363 18.4007C4.39622 17.8524 4.675 17.144 4.675 16.3705C4.675 14.6308 3.2647 13.2205 1.525 13.2205C1.41976 13.2205 1.31573 13.2257 1.21314 13.2358C1.07339 12.5525 1 11.8451 1 11.1205C1 10.023 1.1684 8.96473 1.48079 7.97022C1.4955 7.97043 1.51024 7.97054 1.525 7.97054C3.2647 7.97054 4.675 6.56023 4.675 4.82054C4.675 4.3211 4.55876 3.84881 4.35191 3.42928C5.56619 2.30021 7.04826 1.45523 8.69235 1.00012C9.21331 2.02127 10.275 2.72054 11.5 2.72054C12.725 2.72054 13.7867 2.02127 14.3076 1.00012C15.9517 1.45523 17.4338 2.30021 18.6481 3.42928C18.4412 3.84881 18.325 4.3211 18.325 4.82054C18.325 6.56023 19.7353 7.97054 21.475 7.97054C21.4898 7.97054 21.5045 7.97043 21.5192 7.97022C21.8316 8.96473 22 10.023 22 11.1205C22 11.8451 21.9266 12.5525 21.7868 13.2358C21.6843 13.2257 21.5803 13.2205 21.475 13.2205C19.7353 13.2205 18.325 14.6308 18.325 16.3705C18.325 17.144 18.6038 17.8524 19.0664 18.4007C17.8264 19.6892 16.2603 20.6616 14.501 21.1854C14.095 19.9152 12.9049 18.9955 11.5 18.9955C10.0951 18.9955 8.90503 19.9152 8.49899 21.1854Z" stroke="#263238" stroke-width="2" stroke-linejoin="round"/>
<path d="M11.5 14.7955C13.5296 14.7955 15.175 13.1501 15.175 11.1205C15.175 9.09085 13.5296 7.4455 11.5 7.4455C9.4703 7.4455 7.82495 9.09085 7.82495 11.1205C7.82495 13.1501 9.4703 14.7955 11.5 14.7955Z" stroke="#263238" stroke-width="2" stroke-linejoin="round"/>
</svg>
